<svg width="35" height="35" viewBox="0 0 35 35" fill="none" xmlns="http://www.w3.org/2000/svg">
<g id="fi_2187363">
<g id="Group 7033">
<g id="Vector">
<path d="M27.785 22.0246H27.2784C27.0828 19.0694 25.839 16.3179 23.7253 14.2043C21.6117 12.0905 18.8602 10.8468 15.905 10.6512V9.37461H16.9327C17.3883 9.37461 17.7577 9.00523 17.7577 8.54961C17.7577 8.09399 17.3883 7.72461 16.9327 7.72461H13.2273C12.7716 7.72461 12.4023 8.09399 12.4023 8.54961C12.4023 9.00523 12.7716 9.37461 13.2273 9.37461H14.255V10.6512C11.2998 10.8468 8.54831 12.0905 6.4346 14.2042C4.3209 16.3179 3.07718 19.0694 2.88155 22.0246H2.375C1.61682 22.0246 1 22.6414 1 23.3996C1 25.4922 2.70241 27.1946 4.795 27.1946H25.365C27.4576 27.1946 29.16 25.4922 29.16 23.3996C29.16 22.6414 28.5432 22.0246 27.785 22.0246ZM4.795 25.5446C3.70534 25.5446 2.8029 24.728 2.66754 23.6746H3.67861H26.4814H27.4925C27.3571 24.728 26.4547 25.5446 25.365 25.5446H4.795ZM15.08 12.2732C20.6342 12.2732 25.2021 16.5769 25.6245 22.0246H4.53545C4.9578 16.5769 9.52577 12.2732 15.08 12.2732Z" fill="#2650D8"/>
<path d="M27.785 22.0246H27.2784C27.0828 19.0694 25.839 16.3179 23.7253 14.2043C21.6117 12.0905 18.8602 10.8468 15.905 10.6512V9.37461H16.9327C17.3883 9.37461 17.7577 9.00523 17.7577 8.54961C17.7577 8.09399 17.3883 7.72461 16.9327 7.72461H13.2273C12.7716 7.72461 12.4023 8.09399 12.4023 8.54961C12.4023 9.00523 12.7716 9.37461 13.2273 9.37461H14.255V10.6512C11.2998 10.8468 8.54831 12.0905 6.4346 14.2042C4.3209 16.3179 3.07718 19.0694 2.88155 22.0246H2.375C1.61682 22.0246 1 22.6414 1 23.3996C1 25.4922 2.70241 27.1946 4.795 27.1946H25.365C27.4576 27.1946 29.16 25.4922 29.16 23.3996C29.16 22.6414 28.5432 22.0246 27.785 22.0246ZM4.795 25.5446C3.70534 25.5446 2.8029 24.728 2.66754 23.6746H3.67861H26.4814H27.4925C27.3571 24.728 26.4547 25.5446 25.365 25.5446H4.795ZM15.08 12.2732C20.6342 12.2732 25.2021 16.5769 25.6245 22.0246H4.53545C4.9578 16.5769 9.52577 12.2732 15.08 12.2732Z" stroke="#2650D8"/>
</g>
<path id="Vector_2" d="M14.2064 15.7395C14.2363 15.7395 14.2666 15.7378 14.297 15.7345C14.5553 15.7063 14.8189 15.692 15.0802 15.692C15.5358 15.692 15.9052 15.3226 15.9052 14.867C15.9052 14.4114 15.5358 14.042 15.0802 14.042C14.7592 14.042 14.4355 14.0596 14.1178 14.0943C13.6649 14.1437 13.3378 14.551 13.3873 15.004C13.4335 15.4265 13.7909 15.7395 14.2064 15.7395Z" fill="#2650D8"/>
<path id="Vector_3" d="M7.51393 20.1746C7.62844 20.2292 7.74916 20.255 7.86807 20.255C8.17629 20.255 8.47208 20.0814 8.61349 19.7845C9.22536 18.4998 10.1958 17.434 11.4201 16.7023C11.8112 16.4685 11.9388 15.962 11.7051 15.5709C11.4713 15.1798 10.9647 15.0522 10.5737 15.2859C9.06905 16.1852 7.8761 17.4954 7.12387 19.0751C6.92785 19.4864 7.10253 19.9788 7.51393 20.1746Z" fill="#2650D8"/>
</g>
</g>
</svg>
