<svg width="23" height="23" viewBox="0 0 23 23" fill="none" xmlns="http://www.w3.org/2000/svg">
<g id="fi_2152657" clip-path="url(#clip0_1876_7044)">
<path id="Vector" d="M18.208 0.958984H4.79134C3.77468 0.958984 2.79965 1.36285 2.08077 2.08174C1.36188 2.80063 0.958008 3.77565 0.958008 4.79232V11.5007C0.958008 11.7548 1.05897 11.9986 1.2387 12.1783C1.41842 12.358 1.66218 12.459 1.91634 12.459H6.70801V21.084C6.70755 21.2673 6.75968 21.4469 6.8582 21.6014C6.95671 21.756 7.09749 21.8791 7.26384 21.9561C7.43058 22.0328 7.61585 22.0601 7.79764 22.0346C7.97942 22.0091 8.15005 21.932 8.28926 21.8123L11.0205 19.474L13.7518 21.8123C13.9253 21.9608 14.1463 22.0424 14.3747 22.0424C14.6031 22.0424 14.824 21.9608 14.9976 21.8123L17.7288 19.474L20.4601 21.8123C20.6337 21.9608 20.8546 22.0423 21.083 22.0423C21.2217 22.0413 21.3586 22.012 21.4855 21.9561C21.6519 21.8791 21.7926 21.756 21.8912 21.6014C21.9897 21.4469 22.0418 21.2673 22.0413 21.084V4.79232C22.0413 3.77565 21.6375 2.80063 20.9186 2.08174C20.1997 1.36285 19.2247 0.958984 18.208 0.958984ZM2.87467 10.5423V4.79232C2.87467 4.28399 3.07661 3.79647 3.43605 3.43703C3.7955 3.07758 4.28301 2.87565 4.79134 2.87565C5.29967 2.87565 5.78718 3.07758 6.14663 3.43703C6.50607 3.79647 6.70801 4.28399 6.70801 4.79232V10.5423H2.87467ZM20.1247 19.0044L18.3518 17.4806C18.1782 17.3322 17.9573 17.2506 17.7288 17.2506C17.5004 17.2506 17.2795 17.3322 17.1059 17.4806L14.3747 19.819L11.6434 17.4806C11.4698 17.3322 11.2489 17.2506 11.0205 17.2506C10.7921 17.2506 10.5712 17.3322 10.3976 17.4806L8.62467 19.0044V4.79232C8.62348 4.11907 8.44499 3.45801 8.10717 2.87565H18.208C18.7163 2.87565 19.2039 3.07758 19.5633 3.43703C19.9227 3.79647 20.1247 4.28399 20.1247 4.79232V19.0044ZM18.208 5.75065C18.208 6.00482 18.107 6.24857 17.9273 6.42829C17.7476 6.60802 17.5038 6.70898 17.2497 6.70898H11.4997C11.2455 6.70898 11.0018 6.60802 10.822 6.42829C10.6423 6.24857 10.5413 6.00482 10.5413 5.75065C10.5413 5.49649 10.6423 5.25273 10.822 5.07301C11.0018 4.89328 11.2455 4.79232 11.4997 4.79232H17.2497C17.5038 4.79232 17.7476 4.89328 17.9273 5.07301C18.107 5.25273 18.208 5.49649 18.208 5.75065ZM18.208 9.58398C18.208 9.83815 18.107 10.0819 17.9273 10.2616C17.7476 10.4413 17.5038 10.5423 17.2497 10.5423H11.4997C11.2455 10.5423 11.0018 10.4413 10.822 10.2616C10.6423 10.0819 10.5413 9.83815 10.5413 9.58398C10.5413 9.32982 10.6423 9.08606 10.822 8.90634C11.0018 8.72662 11.2455 8.62565 11.4997 8.62565H17.2497C17.5038 8.62565 17.7476 8.72662 17.9273 8.90634C18.107 9.08606 18.208 9.32982 18.208 9.58398ZM18.208 13.4173C18.208 13.6715 18.107 13.9152 17.9273 14.095C17.7476 14.2747 17.5038 14.3757 17.2497 14.3757H11.4997C11.2455 14.3757 11.0018 14.2747 10.822 14.095C10.6423 13.9152 10.5413 13.6715 10.5413 13.4173C10.5413 13.1632 10.6423 12.9194 10.822 12.7397C11.0018 12.56 11.2455 12.459 11.4997 12.459H17.2497C17.5038 12.459 17.7476 12.56 17.9273 12.7397C18.107 12.9194 18.208 13.1632 18.208 13.4173Z" fill="#2650D8"/>
</g>
<defs>
<clipPath id="clip0_1876_7044">
<rect width="23" height="23" fill="white"/>
</clipPath>
</defs>
</svg>
