<svg width="26" height="26" viewBox="0 0 26 26" fill="none" xmlns="http://www.w3.org/2000/svg">
<g id="fi_6998782">
<path id="Vector" fill-rule="evenodd" clip-rule="evenodd" d="M15.1671 5.10003C13.9849 4.12265 12.3483 4.12265 11.1663 5.10003L5.24156 9.9986C4.7013 10.4453 4.36663 11.151 4.36663 11.9199V19.559C4.36663 20.9532 5.41398 21.967 6.56663 21.967H8.76663V18.3896C8.76663 15.909 10.6742 13.7816 13.1666 13.7816C15.6591 13.7816 17.5666 15.909 17.5666 18.3896V21.967H19.7666C20.9193 21.967 21.9666 20.9532 21.9666 19.559V11.9199C21.9666 11.151 21.632 10.4453 21.0917 9.99861L15.1671 5.10003ZM16.5689 3.40452L22.4935 8.30309C23.561 9.18564 24.1666 10.5237 24.1666 11.9199V19.559C24.1666 22.0396 22.2591 24.167 19.7666 24.167H17.5666C16.3516 24.167 15.3666 23.1821 15.3666 21.967V18.3896C15.3666 16.9953 14.3193 15.9816 13.1666 15.9816C12.0139 15.9816 10.9666 16.9953 10.9666 18.3896V21.967C10.9666 23.1821 9.98165 24.167 8.76663 24.167H6.56663C4.07419 24.167 2.16663 22.0396 2.16663 19.559V11.9199C2.16663 10.5237 2.77228 9.18564 3.83969 8.30309L9.76436 3.40452C11.7601 1.75448 14.5732 1.75448 16.5689 3.40452Z" fill="#2650D8"/>
</g>
</svg>
