<svg width="30" height="30" viewBox="0 0 30 30" fill="none" xmlns="http://www.w3.org/2000/svg">
<g id="fi_2187376" clip-path="url(#clip0_1802_36219)">
<path id="Vector" d="M23.9355 5.56667H22.4707V2.05022C22.4707 1.39415 22.1533 0.772939 21.6217 0.388506C21.0901 0.0040721 20.4006 -0.102861 19.7776 0.102685L5.42203 4.83741C4.57963 5.11532 4.01367 5.89802 4.01367 6.78501V23.1641V27.9492C4.01367 29.08 4.93365 30 6.06445 30H23.9355C25.0663 30 25.9863 29.08 25.9863 27.9492V7.61745C25.9863 6.48671 25.0663 5.56667 23.9355 5.56667ZM24.2285 27.9492C24.2285 28.1107 24.0971 28.2422 23.9355 28.2422H6.06445C5.90291 28.2422 5.77148 28.1107 5.77148 27.9492V22.2852V7.61745C5.77148 7.45591 5.90291 7.32448 6.06445 7.32448H23.9355C24.0971 7.32448 24.2285 7.45591 24.2285 7.61745V27.9492ZM20.3282 1.77202C20.4519 1.73124 20.5463 1.78011 20.5917 1.81286C20.637 1.84562 20.7129 1.91997 20.7129 2.05022V5.56673H8.82293L20.3282 1.77202Z" fill="#2650D8"/>
<path id="Vector_2" d="M9.14062 17.4895H10.206H20.8594C21.3448 17.4895 21.7383 17.096 21.7383 16.6106C21.7383 16.1252 21.3448 15.7317 20.8594 15.7317H20.6048C20.2259 13.306 18.3046 11.3847 15.8789 11.0058V10.5654C15.8789 10.08 15.4854 9.68652 15 9.68652C14.5146 9.68652 14.1211 10.08 14.1211 10.5654V11.0058C11.6954 11.3847 9.77408 13.306 9.39521 15.7317H9.14062C8.65523 15.7317 8.26172 16.1252 8.26172 16.6106C8.26172 17.096 8.65523 17.4895 9.14062 17.4895ZM15 12.6955C16.8567 12.6955 18.4157 13.9947 18.8157 15.7317H11.1843C11.5843 13.9947 13.1433 12.6955 15 12.6955Z" fill="#2650D8"/>
<path id="Vector_3" d="M9.48145 19.8633C8.99605 19.8633 8.60254 20.2568 8.60254 20.7422C8.60254 21.2276 8.99605 21.6211 9.48145 21.6211H13.7002C14.1856 21.6211 14.5791 21.2276 14.5791 20.7422C14.5791 20.2568 14.1856 19.8633 13.7002 19.8633H9.48145Z" fill="#2650D8"/>
<path id="Vector_4" d="M20.6396 23.3789H9.36035C8.87496 23.3789 8.48145 23.7724 8.48145 24.2578C8.48145 24.7432 8.87496 25.1367 9.36035 25.1367H20.6396C21.125 25.1367 21.5186 24.7432 21.5186 24.2578C21.5186 23.7724 21.125 23.3789 20.6396 23.3789Z" fill="#2650D8"/>
</g>
<defs>
<clipPath id="clip0_1802_36219">
<rect width="30" height="30" fill="white"/>
</clipPath>
</defs>
</svg>
