<svg width="269" height="280" viewBox="0 0 269 280" fill="none" xmlns="http://www.w3.org/2000/svg">
<g clip-path="url(#clip0_485_13271)">
<path d="M4.99571 207.198L124.473 276.381C131.158 280.264 141.994 280.264 148.678 276.381L261.049 211.363C267.733 207.48 267.733 201.197 261.049 197.314L141.571 128.131C134.887 124.248 124.051 124.248 117.366 128.131L4.99571 193.22C-1.68884 197.103 -1.68884 203.386 4.99571 207.198Z" fill="#E2E0E4"/>
<path d="M266.045 193.785V185.666L259.571 185.949L141.571 117.612C134.887 113.73 124.051 113.73 117.366 117.612L6.12151 181.995L-0.00012207 181.431V189.62C-0.00012207 192.161 1.6886 194.702 4.99569 196.609L124.473 265.792C131.158 269.675 141.994 269.675 148.678 265.792L261.049 200.844C264.356 198.868 266.045 196.326 266.045 193.785Z" fill="#8EBBE8"/>
<path d="M4.99571 188.49L124.473 257.673C131.158 261.556 141.994 261.556 148.678 257.673L261.049 192.655C267.733 188.772 267.733 182.489 261.049 178.606L141.571 109.423C134.887 105.54 124.051 105.54 117.366 109.423L4.99571 174.441C-1.68884 178.324 -1.68884 184.607 4.99571 188.49Z" fill="#CEDAE3"/>
<path d="M34.7595 191.948C39.9664 194.984 48.41 194.913 53.6169 191.948C58.8238 188.913 58.8942 184.042 53.6873 181.006C48.4804 177.971 40.0367 178.041 34.8298 181.006C29.5526 184.042 29.5526 188.983 34.7595 191.948Z" fill="url(#paint0_linear_485_13271)"/>
<path d="M48.4803 47.0864C48.4803 47.0864 54.8834 43.3448 57.7683 48.7807C60.6532 54.2165 54.3909 61.2055 56.924 64.5941C59.5274 67.9826 64.5232 68.4062 64.5232 68.4062C64.5232 68.4062 64.1714 75.1834 53.7576 76.5247C43.4845 78.0072 42.4994 51.3221 48.4803 47.0864Z" fill="#E85900"/>
<path d="M49.6765 45.251C52.8429 45.4628 54.3205 48.7102 54.3205 51.6046C54.3205 54.499 47.3545 55.2755 46.862 54.0048C46.4398 52.6635 49.6765 45.251 49.6765 45.251Z" fill="#EBF0FF"/>
<path d="M45.2436 172.253C46.9323 173.17 47.3545 174.653 47.0027 177.194C46.7916 178.818 46.7916 178.536 46.5101 180.089C46.2991 181.571 46.4398 183.054 46.088 183.407C45.7361 183.76 44.8918 183.407 44.8918 183.407C44.8918 183.407 44.4696 181.218 44.3992 181.006C44.3289 180.865 43.0623 181.218 41.8661 183.689C40.67 186.16 38.0665 188.631 33.1411 188.843C31.7338 188.984 30.2562 188.49 30.1858 187.289C30.1858 186.019 33.9854 182.489 35.4631 180.795C36.9407 179.1 37.9258 176.63 39.6145 175.006C41.3032 173.382 40.7403 172.111 41.5143 171.9C42.4291 171.547 45.2436 172.253 45.2436 172.253Z" fill="#2F3D7B"/>
<path d="M53.7576 176.064C55.1649 178.959 55.5871 180.371 55.2353 181.924C54.8834 183.548 54.602 183.477 54.7427 185.877C54.8834 188.277 54.3909 188.772 54.3909 188.772C54.3909 188.772 54.0391 188.983 53.828 188.913C53.6169 188.842 52.9133 188.56 52.9133 188.56C52.9133 188.56 53.2651 184.818 52.9836 184.677C52.7022 184.536 51.506 189.689 49.2544 191.384C46.5805 193.29 42.8513 194.137 41.444 192.796C40.5996 190.325 42.7105 188.066 43.6253 186.371C44.1178 185.524 45.8065 182.63 47.0731 180.441C48.3396 178.253 49.1136 176.77 50.3098 176.276C52.6318 175.288 53.7576 176.064 53.7576 176.064Z" fill="#2F3D7B"/>
<path d="M37.4333 66.0059C35.3224 64.8764 32.5782 66.9942 31.3117 69.8181C30.6081 71.3712 28.9193 75.0421 27.0195 81.2545C26.4566 83.09 24.979 89.9378 23.6421 91.4909C22.3052 93.044 24.3457 99.4681 26.7381 99.3975C29.2008 99.327 31.8746 89.9378 33.6337 88.8082C35.3224 87.6081 37.4333 66.0059 37.4333 66.0059Z" fill="#2C3873"/>
<path d="M27.7935 95.6563C27.512 93.1855 25.4011 91.5618 23.9938 91.2794C22.5866 90.9265 20.0535 91.1382 19.3498 90.7147C18.7166 90.2911 17.45 88.1026 17.1686 87.7497C16.8871 87.3967 14.354 86.2672 13.58 85.42C12.806 84.5729 11.3988 84.9258 11.6802 85.7024C11.9617 86.4789 11.6802 91.8442 11.6802 91.8442C11.6802 91.8442 13.3689 94.5974 14.354 94.7386C15.3391 94.8798 16.0428 94.7386 16.8168 94.4562C17.6611 94.4562 17.5908 94.5974 17.9426 95.021C18.2944 95.4446 21.6718 100.527 26.6677 99.3979C27.7935 98.9037 28.2157 97.2094 27.7935 95.6563Z" fill="#FF9C78"/>
<path d="M32.0857 127.707C32.2264 129.754 35.5335 145.638 35.7446 146.98C35.8853 148.321 40.3182 172.959 39.5442 174.935C38.7702 176.912 38.2777 177.9 38.2777 177.9C38.2777 177.9 41.233 178.112 43.4846 176.841C45.7362 175.571 46.4399 173.806 46.4399 173.806C46.4399 173.806 45.7362 163.64 46.5102 158.698C47.2842 153.757 44.4697 132.578 44.4697 132.578L32.0857 127.707Z" fill="#FF9C78"/>
<path d="M39.5442 173.594C39.5442 175.288 36.8704 179.171 36.0964 181.077C35.252 182.983 39.9664 181.5 41.2329 179.877C42.4291 178.253 44.6808 177.618 45.8769 176.064C47.0731 174.511 46.0177 171.688 46.0177 171.688L39.5442 173.594Z" fill="#FF9C78"/>
<path d="M32.0856 106.316C31.0302 112.105 30.8894 119.447 31.382 124.954C31.8745 130.46 34.9002 145.426 35.252 147.262C35.5334 149.097 38.7702 171.97 38.9812 173.523C39.1923 175.006 46.2991 174.582 46.5101 170.841C46.7212 167.099 46.2991 158.275 47.9174 153.615C49.5358 148.956 47.7767 112.882 43.766 109.987C39.6849 107.234 32.0856 106.316 32.0856 106.316Z" fill="#2C3873"/>
<path d="M42.6401 138.084C42.6401 138.014 43.6252 145.073 43.9067 147.262C44.1881 149.521 45.1732 151.709 45.7361 152.627C46.299 153.545 48.9729 166.746 48.621 172.323C48.2692 177.971 47.9878 180.018 47.9878 180.018C47.9878 180.018 54.1094 181.43 54.1798 178.677C54.2501 175.923 54.6723 173.311 55.6574 168.44C56.6425 163.569 57.4165 159.263 56.2907 154.957C55.2352 150.65 54.9538 149.803 54.9538 149.803C54.9538 149.803 54.3909 137.519 54.1094 136.814C53.8983 136.037 42.6401 138.084 42.6401 138.084Z" fill="#FF9C78"/>
<path d="M54.1798 177.547C54.1798 177.547 54.6724 179.1 52.9837 180.795C51.2949 182.489 48.6211 187.007 45.9473 186.442C43.2735 185.878 47.3546 181.995 48.1989 177.265C48.4804 175.782 48.41 174.512 48.41 174.512L54.1798 177.547Z" fill="#FF9C78"/>
<path d="M56.2908 105.611C59.809 116.765 59.246 121.848 57.5573 132.366C55.7982 142.885 55.7279 148.744 55.8686 150.227C56.0093 151.709 57.6277 155.945 56.7833 163.428C55.939 170.911 55.2353 175.077 54.6724 176.347C54.1095 177.618 47.425 179.877 47.7768 175.783C48.0582 171.688 46.651 156.228 45.4548 153.686C44.329 151.145 43.2031 147.191 42.6402 143.45C42.0773 139.638 40.3182 128.131 40.3182 124.813C40.3182 121.495 37.9259 120.436 37.363 117.4C36.8001 114.365 38.0666 102.363 38.0666 102.363L56.2908 105.611Z" fill="#2F3D7B"/>
<path d="M47.0028 113.376C44.2586 113.658 41.4441 113.517 38.6999 112.811C37.2926 112.458 35.9557 111.893 34.6891 111.258C33.493 110.693 32.4375 110.269 31.6635 109.14C30.6784 107.657 30.6784 105.822 30.7488 104.198C30.8895 102.574 30.8192 100.88 30.5377 99.1859C30.0452 96.0797 29.3415 93.0441 28.9897 89.8673C28.4972 85.7728 29.1304 79.9133 30.4673 76.666C31.8042 73.348 33.5633 68.1239 35.8853 66.359C37.0815 65.4413 38.9813 65.8648 40.5293 65.0883C42.0773 64.3117 43.9068 65.9354 46.5806 66.5002C49.2544 67.065 51.506 67.065 53.5466 68.0533C55.5871 69.1122 60.7237 74.1951 61.1459 75.3952C61.568 76.5954 59.0349 89.2319 57.7684 95.7267C56.9944 99.6801 59.246 106.598 56.2908 109.775C54.5317 111.681 51.9986 112.458 49.5359 112.881C48.6915 113.164 47.8471 113.305 47.0028 113.376Z" fill="#202A54"/>
<path d="M53.6873 68.6893C53.6873 68.6893 55.4464 70.1012 51.8579 72.1484C48.199 74.2663 36.0261 91.9857 36.0261 91.9857C36.0261 91.9857 35.8853 78.149 37.363 73.9133C38.8406 69.6776 38.5592 66.289 42.8513 66.7126C47.1435 67.0656 53.6873 68.6893 53.6873 68.6893Z" fill="#EBF0FF"/>
<path d="M36.0261 95.4445L49.3248 80.8312L47.9175 78.5016L52.6319 77.725C52.6319 77.725 55.8686 74.2658 56.1501 72.2892C56.3611 70.3125 55.7279 68.83 53.4762 68.124C53.6873 69.6065 52.843 70.8772 52.843 70.8772C52.843 70.8772 49.2544 73.5599 47.0028 76.1719C44.7512 78.7839 35.6039 92.4795 35.6039 92.4795L36.0261 95.4445Z" fill="#2C3873"/>
<path d="M40.1071 67.2766C38.4183 70.5946 36.5889 76.8776 36.5889 81.7486C36.5889 86.6197 35.8853 98.1268 36.026 99.0445C36.1667 99.8917 34.1262 88.4552 33.7743 85.702C33.4225 82.9488 32.8596 77.3717 32.8596 77.3717L35.1113 76.8776L33.3522 74.9715C33.3522 74.9715 37.9258 66.7118 38.4183 66.5C38.9109 66.2176 40.1071 67.2766 40.1071 67.2766Z" fill="#2C3873"/>
<path d="M51.2245 100.598C51.1542 99.4689 51.0134 98.763 51.4356 96.7863C51.8578 94.8096 53.4762 85.7734 54.3205 83.4438C55.1649 81.1141 56.3611 77.5137 58.3313 76.4548C60.3014 75.3253 60.794 75.3253 61.0754 75.4665C61.4273 75.6077 61.9902 76.5254 62.2013 80.1964C62.342 83.8673 62.4124 86.4794 61.4976 90.4327C60.5829 94.386 58.7534 104.269 54.7427 107.164C51.506 106.458 51.2245 100.598 51.2245 100.598Z" fill="#2C3873"/>
<path d="M39.6849 63.9593C40.5293 65.7241 41.3737 69.1833 41.0922 70.9482C40.8108 72.7131 43.1327 73.5602 45.1733 73.419C47.2138 73.2779 53.828 68.9715 53.7577 68.6892C53.6873 68.4068 50.9431 67.7714 50.5209 65.3712C50.0987 62.9709 49.6766 60.9237 50.0987 59.5117C50.5209 58.0998 51.4357 53.7229 47.4953 52.5228C43.4846 51.3227 40.1071 54.4289 40.1071 54.4289L39.6849 63.9593Z" fill="#FF9C78"/>
<path d="M48.6211 55.7696C48.6914 58.0993 48.7618 63.6763 47.9878 64.8764C47.2842 66.0765 41.3736 69.1121 39.896 69.1827C38.4183 69.2533 37.8554 69.1121 37.2222 67.912C36.5889 66.7119 34.7594 63.0409 34.3373 60.2877C33.9151 57.5345 34.0558 56.405 34.3373 54.2165C34.6187 52.0281 34.7594 50.5455 35.6742 49.9102C36.5889 49.2042 41.1625 47.9335 44.4696 48.6395C47.7767 49.3454 48.6211 55.7696 48.6211 55.7696Z" fill="#FF9C78"/>
<path d="M37.3629 51.1813C38.8405 51.6048 40.2478 50.4753 41.7958 51.393C43.3438 52.3108 43.6956 54.8522 44.7511 55.6288C45.8065 56.4053 46.7213 57.1113 47.0027 58.2408C47.2842 59.3703 47.636 63.1119 46.862 64.7356C48.1285 62.0529 48.41 59.4409 48.7618 58.6644C49.1136 57.8172 49.3247 57.1819 50.3802 57.2525C51.4356 57.3937 49.8876 60.4999 49.8173 61.347C49.7469 62.1941 50.1691 63.8178 50.1691 63.8178C50.1691 63.8178 50.3098 62.3353 51.2949 61.0646C52.28 59.7939 53.4762 57.1113 53.3354 54.8522C53.1947 52.5226 53.6169 48.2162 49.958 45.2512C46.2991 42.3568 43.2031 43.204 40.3182 44.1923C37.4333 45.1806 35.4631 46.522 34.3373 49.7693C33.2115 52.9461 34.3373 53.7933 34.3373 53.7933C34.3373 53.7933 34.8298 51.3224 35.0409 50.9695C35.3224 50.6165 35.8149 50.4753 37.3629 51.1813Z" fill="#E85900"/>
<path d="M48.9729 60.006C48.9729 59.2295 49.1137 57.3234 50.2395 56.9704C51.3653 56.6174 51.8579 57.3234 51.7875 58.0999C51.7171 58.8765 51.8579 59.8648 50.5913 60.8532C49.3248 61.8415 49.1137 61.6297 48.9729 61.1355C48.8322 60.6414 48.9729 60.006 48.9729 60.006Z" fill="#FF9C78"/>
<mask id="mask0_485_13271" style="mask-type:luminance" maskUnits="userSpaceOnUse" x="34" y="108" width="2" height="3">
<path d="M34.1262 110.27L35.252 109.211C35.3224 109.14 35.3224 109.07 35.252 108.999L34.1262 110.058C34.1262 110.129 34.1262 110.199 34.1262 110.27Z" fill="white"/>
</mask>
<g mask="url(#mask0_485_13271)">
<path d="M35.252 108.999L34.1262 110.058C34.1262 110.199 34.1262 110.27 34.1262 110.27L35.252 109.211C35.252 109.211 35.3224 109.14 35.252 108.999Z" fill="#292B39"/>
</g>
<mask id="mask1_485_13271" style="mask-type:luminance" maskUnits="userSpaceOnUse" x="8" y="74" width="2" height="2">
<path d="M9.2878 74.1958L8.16199 75.2547C8.23235 75.1841 8.37308 75.1841 8.51381 75.3253L9.63962 74.2664C9.42853 74.1252 9.2878 74.1252 9.2878 74.1958Z" fill="white"/>
</mask>
<g mask="url(#mask1_485_13271)">
<path d="M9.2878 74.1958L8.16199 75.2547C8.23235 75.1841 8.37308 75.1841 8.51381 75.3253L9.63962 74.2664C9.42853 74.1252 9.2878 74.1252 9.2878 74.1958Z" fill="#292B39"/>
</g>
<path d="M28.5675 85.6318L27.4417 86.6908L34.1262 110.058L35.252 108.999L28.5675 85.6318Z" fill="#1E202A"/>
<path d="M9.63966 74.2666L8.44348 75.3255L26.8084 85.9148L27.9342 84.8559L9.63966 74.2666Z" fill="#272937"/>
<mask id="mask2_485_13271" style="mask-type:luminance" maskUnits="userSpaceOnUse" x="26" y="84" width="3" height="3">
<path d="M27.9342 84.8555L26.8083 85.9144C27.0898 86.0556 27.3713 86.4086 27.4416 86.691L28.5674 85.632C28.4971 85.3496 28.2156 85.0673 27.9342 84.8555Z" fill="white"/>
</mask>
<g mask="url(#mask2_485_13271)">
<path d="M27.9342 84.8555L26.8083 85.9144C27.0898 86.0556 27.3713 86.4086 27.4416 86.691L28.5674 85.632C28.4971 85.3496 28.2156 85.0673 27.9342 84.8555Z" fill="#292B39"/>
</g>
<path d="M15.4095 99.6103L33.7744 110.2C34.0558 110.341 34.1966 110.27 34.1262 109.988L27.4417 86.6913C27.3713 86.409 27.0898 86.056 26.8084 85.9148L8.44348 75.3255C8.16203 75.1843 8.0213 75.2549 8.09166 75.5373L14.7762 98.8338C14.8466 99.1161 15.128 99.3985 15.4095 99.6103Z" fill="#303344"/>
<path d="M12.3839 88.9502C12.3839 88.9502 14.0726 88.6678 14.5652 88.7384C14.9873 88.7384 15.6206 89.0208 15.5503 89.515C15.4799 90.0091 15.1984 90.2915 15.1984 90.2915C15.1984 90.2915 15.9724 89.9385 16.1835 89.9385C16.3242 89.9385 16.7464 90.5739 16.6761 90.8563C16.6057 91.2093 16.6057 91.2093 16.6057 91.2093C16.6057 91.2093 17.0982 91.2799 16.9575 91.7034C16.8872 92.127 15.9021 92.9741 15.9021 92.9741C15.9021 92.9741 14.6355 94.3155 14.2133 94.5978C13.7208 94.9508 13.369 95.092 12.8764 94.9508C12.3839 94.8096 12.0321 94.1037 11.8913 93.7507C11.7506 93.3977 10.9766 92.833 10.9766 92.833L10.7655 91.6328C10.7655 91.6328 10.2026 91.2799 10.1323 90.9975C10.0619 90.7151 10.4841 90.0797 10.3433 89.6562C10.2026 89.2326 10.0619 88.8796 10.0619 88.456C10.0619 88.0325 10.2026 87.6795 10.5544 87.1147C10.9766 86.6206 12.1024 86.2676 12.1024 86.2676C12.1024 86.2676 12.8764 86.7617 12.6653 87.1853C12.4543 87.5383 11.821 87.8207 11.6803 88.1031C11.5395 88.3854 11.3988 89.0208 11.3988 89.0208L12.3839 88.9502Z" fill="#FF9C78"/>
<path d="M32.5782 91.8446C31.8746 91.7034 29.623 91.2092 29.1304 91.2092C28.6379 91.2092 27.7232 91.0681 27.7232 91.0681C27.7232 91.0681 27.0195 90.3621 26.5973 90.4327C26.1752 90.5033 26.2455 90.8563 26.3159 91.1387C26.3863 91.421 26.9492 92.2682 27.6528 92.5506C28.3564 92.8329 28.849 92.7623 29.0601 92.7623C29.2008 92.7623 30.8192 93.1153 31.3117 94.0331C30.4673 93.9625 29.6933 93.8213 29.6933 93.8213C29.6933 93.8213 28.1453 93.3977 27.8639 93.2565C27.5824 93.1153 25.3308 91.9152 24.9086 91.8446C24.4864 91.774 24.2753 91.9858 24.3457 92.6211C24.0643 92.9741 24.205 93.5389 24.205 93.5389L24.6975 94.4566C24.6975 94.4566 24.7679 95.2332 24.979 95.7274C25.1901 96.2215 26.2455 97.5628 26.2455 97.5628C26.2455 97.5628 26.3159 97.9864 26.3863 98.2688C26.4566 98.5512 29.8341 100.81 30.2562 101.022C30.6784 101.163 33.6337 100.951 34.267 100.74C34.9002 100.528 35.9557 100.81 35.9557 100.81C35.9557 100.81 42.9921 105.187 46.2288 106.458C49.3951 107.729 52.2801 108.011 54.5317 107.446C56.7833 106.881 53.6873 100.245 52.5615 99.8925C51.5061 99.4689 50.7321 99.7513 47.7064 99.1865C44.6808 98.6218 36.8001 95.5156 36.2372 95.0214C35.6039 94.3154 33.493 92.1976 32.5782 91.8446Z" fill="#FF9C78"/>
<path d="M37.9258 99.5393C38.4183 96.8566 39.896 96.0801 40.2478 96.0801C40.5292 96.0801 52.3503 98.4803 53.3354 99.3981C54.3205 100.316 56.361 104.763 55.2352 106.811C54.1094 108.787 51.0134 108.011 48.621 107.658C46.299 107.234 37.9258 102.151 37.9258 102.151C37.9258 102.151 37.574 101.657 37.9258 99.5393Z" fill="#2C3873"/>
<path d="M202.154 192.937C203.351 198.302 214.327 199.996 226.641 196.819C238.955 193.642 248.032 186.724 246.835 181.359C245.639 175.994 234.662 174.299 222.349 177.476C210.035 180.724 200.958 187.642 202.154 192.937Z" fill="url(#paint1_linear_485_13271)"/>
<path d="M245.217 180.23C245.71 180.441 245.71 180.653 245.71 181.43C245.71 182.206 245.569 183.195 243.528 184.042C241.488 184.889 239.236 184.395 237.547 183.406C235.859 182.418 235.718 181.641 233.537 180.441C231.355 179.241 231.496 180.3 229.878 179.594C228.259 178.888 226.852 178.182 226.711 177.123C226.571 176.064 226.782 175.147 226.711 174.864C226.641 174.582 228.048 174.37 228.048 174.37L245.217 180.23Z" fill="#191C21"/>
<path d="M234.733 170.629C235.648 172.606 242.121 176.418 243.88 177.477C245.639 178.606 245.498 179.665 245.498 180.795C245.498 181.712 243.599 184.042 240.081 183.266C236.562 182.489 235.014 179.877 233.185 179.312C231.355 178.747 226.993 177.618 226.993 174.441C226.923 171.264 227.837 167.452 227.837 167.452L234.733 170.629Z" fill="#292D36"/>
<path d="M219.183 194.772C219.675 195.337 219.745 195.831 219.745 196.466C219.745 197.102 219.464 197.596 217.916 198.231C216.438 198.867 214.398 199.22 212.498 198.514C209.895 197.525 207.713 196.043 206.728 194.56C205.743 193.078 205.884 192.16 205.321 191.807C204.688 191.384 203.421 191.031 203.351 189.478C203.28 187.924 203.421 187.854 203.491 187.571C203.703 187.077 204.477 187.218 205.11 187.36C205.813 187.501 219.183 194.772 219.183 194.772Z" fill="#191C21"/>
<path d="M210.809 181.853C212.217 183.265 212.498 181.924 213.061 183.971C214.187 188.56 218.408 190.607 219.253 193.078C219.605 194.137 219.605 194.349 219.534 195.549C219.534 196.043 219.182 196.537 218.69 196.749C215.453 198.231 213.342 197.667 213.342 197.667C213.342 197.667 211.654 197.031 209.894 195.831C208.346 194.843 206.799 193.36 206.165 191.595C205.884 190.819 205.813 190.748 205.391 190.536C204.617 189.972 203.562 189.76 203.562 187.924C203.632 185.736 203.843 181.43 204.265 180.3C204.547 179.524 207.291 179.241 207.291 179.241L210.809 181.853Z" fill="#292D36"/>
<path d="M224.46 113.376C224.46 113.376 224.6 118.105 224.812 123.753C225.023 129.965 225.374 137.307 225.726 140.625C225.797 141.12 225.867 141.543 225.867 141.825C226.5 145.143 226.993 146.838 228.893 148.108C229.244 148.32 229.667 148.532 230.159 148.744C233.114 150.015 237.196 147.473 237.758 145.991C238.321 144.508 238.955 128.412 239.377 118.953C239.799 109.493 239.799 111.964 239.095 103.986L224.46 113.376Z" fill="#3B4157"/>
<path d="M226.852 170.558C226.923 172.112 228.048 172.959 229.456 173.312C231.848 174.018 235.085 173.382 235.296 172.394C235.648 170.911 235.718 153.263 237.829 145.921C237.829 145.921 232.411 141.473 228.822 140.061C227.345 139.496 226.149 139.426 225.797 140.414C225.797 140.485 225.797 140.485 225.726 140.555C224.601 144.226 225.093 161.946 226.852 170.558Z" fill="#3B4157"/>
<path d="M225.726 140.555C224.53 144.226 225.093 161.946 226.782 170.558C226.852 172.111 227.978 172.959 229.385 173.311C229.033 168.37 228.682 163.499 228.4 160.04C227.696 152.486 228.682 146.273 228.752 144.156C229.033 138.579 228.541 126.789 231.637 124.459L224.812 123.612C225.093 129.966 225.374 137.308 225.726 140.555Z" fill="#363C53"/>
<path d="M208.558 128.06C208.769 134.201 209.05 145.214 209.472 150.015C209.543 150.862 209.613 151.497 209.754 151.85C210.035 153.262 210.739 154.745 211.513 155.945C212.216 157.145 213.061 158.063 213.553 158.345C214.679 158.98 218.408 159.474 219.464 157.286C219.605 157.004 219.816 156.298 220.097 155.309C221.716 149.097 225.163 131.377 226.148 129.189C227.345 126.718 230.511 126.506 231.426 124.883C232.34 123.259 232.763 117.47 232.692 112.74C232.692 112.74 217.283 100.245 214.679 101.939C213.835 102.504 212.85 104.481 211.865 107.163C210.106 112.529 208.417 123.259 208.558 128.06Z" fill="#3B4157"/>
<path d="M204.336 181.006C204.336 181.006 204.406 182.771 206.939 183.759C207.361 183.9 207.713 184.041 208.135 184.183C211.865 185.242 213.202 183.336 213.202 183.336C213.202 183.336 213.201 183.336 214.538 173.593C215.875 163.851 218.268 160.957 219.675 156.862C219.886 156.368 219.956 155.874 220.097 155.38C220.801 151.991 219.675 149.45 219.675 149.45L212.216 145.638L211.865 145.426C211.865 145.426 210.809 147.191 209.472 150.014C208.206 152.627 206.658 156.156 205.391 159.968C202.788 168.087 204.336 181.006 204.336 181.006Z" fill="#3B4157"/>
<path d="M204.336 181.006C204.336 181.006 204.406 182.771 206.939 183.759C207.361 183.9 207.713 184.041 208.135 184.182C206.376 159.05 209.754 157.78 211.513 156.015C212.216 155.309 212.639 154.603 212.498 152.414C212.427 150.72 212.287 148.32 212.216 145.637C212.146 141.049 212.146 135.401 212.498 129.895C212.99 122.906 214.046 113.516 216.157 109.21C214.609 108.363 213.131 107.728 211.794 107.233C209.894 112.599 208.206 123.329 208.417 128.13C208.628 134.271 208.909 145.284 209.331 150.085C208.065 152.697 206.517 156.227 205.25 160.039C202.788 168.087 204.336 181.006 204.336 181.006Z" fill="#363C53"/>
<path d="M233.044 62.6881C237.125 62.5469 238.04 63.4647 241.84 73.5598C243.177 77.1602 246.132 88.1025 246.835 89.6556C247.539 91.2793 243.106 97.9858 240.503 95.868C237.899 93.7501 235.437 89.585 234.17 85.1375C232.974 80.69 233.044 62.6881 233.044 62.6881Z" fill="#DDE8F6"/>
<path d="M219.183 62.1943C215.805 63.818 205.602 69.8186 205.251 70.807C204.899 71.7953 212.217 103.14 212.146 105.187C212.076 107.305 211.935 107.587 211.935 107.587C211.935 107.587 212.92 111.117 223.545 111.329C234.17 111.541 237.829 106.811 238.11 105.822C238.321 104.834 238.814 93.3975 238.884 85.9144C239.025 73.1366 237.266 66.9948 236.422 64.9476C235.859 63.6768 235.225 62.9709 234.663 62.8297C231.778 61.9826 225.726 62.7591 225.726 62.7591L219.183 62.1943Z" fill="#CBDCF1"/>
<path d="M227.626 73.207C227.626 73.207 231.707 99.1862 232.059 103.21C230.933 108.222 229.948 109.211 229.948 109.211C229.948 109.211 227.134 106.952 226.711 105.046C226.289 103.14 225.726 73.7012 225.726 73.7012L227.626 73.207Z" fill="#3C424F"/>
<path d="M244.091 88.456C245.428 87.8206 245.85 88.3148 246.413 88.3854C247.046 88.456 249.509 92.1975 250.635 93.6094C251.69 95.0213 253.801 97.0686 254.505 98.4805C255.209 99.8924 252.605 102.787 252.605 102.787C252.605 102.787 251.972 105.116 248.032 103.281C244.021 101.375 239.94 96.5038 239.025 94.3154C238.11 92.1975 242.121 89.5149 244.091 88.456Z" fill="#DDE8F6"/>
<path d="M250.987 98.5511C251.55 97.8452 251.761 97.1392 252.394 96.998C252.957 96.8568 255.068 97.4922 255.068 97.4922L256.053 97.9864C256.053 97.9864 257.32 97.704 257.671 97.7746C258.023 97.8452 258.234 98.6217 257.953 98.9041C257.671 99.1865 256.334 100.034 256.334 100.034L254.083 103.352C254.083 103.352 251.902 103.987 250.494 103.563C249.087 103.14 248.876 102.999 248.806 102.222C248.735 101.304 250.987 98.5511 250.987 98.5511Z" fill="#FF9C78"/>
<path d="M235.999 99.9629C236.703 99.9629 239.729 101.445 240.221 101.587C240.714 101.728 243.106 102.293 243.458 102.504C243.88 102.716 243.669 103.351 243.317 103.563C242.895 103.704 237.477 102.646 237.477 102.646C237.477 102.646 239.095 104.552 239.166 104.834C239.236 105.116 239.377 107.234 239.306 107.587C239.236 107.94 238.744 109.07 238.321 109.14C237.899 109.211 237.407 108.576 237.407 108.576L237.758 106.952L237.407 105.611L237.266 107.164L236.703 108.223L235.507 108.434V108.011C235.507 108.011 235.014 108.576 234.451 108.364C233.959 108.152 232.903 106.175 232.34 105.964C231.778 105.752 230.37 106.105 229.807 105.893C229.315 105.681 226.571 105.752 226.148 104.41C225.726 103.14 226.36 101.092 227.978 100.386C229.596 99.7511 232.481 100.175 232.833 100.104C233.466 100.245 235.999 99.9629 235.999 99.9629Z" fill="#FF9C78"/>
<path d="M244.654 99.3976L238.462 112.105L237.477 113.517L238.462 114.434L260.134 91.9851L259.149 91.0674L244.654 99.3976Z" fill="#4A5161"/>
<path d="M245.71 100.316L239.447 113.023L238.462 114.435L252.816 106.104L260.134 91.9854L245.71 100.316Z" fill="#2F343E"/>
<path d="M254.716 101.728C254.716 101.728 254.364 102.575 254.013 102.716C253.661 102.857 253.027 103.21 252.816 103.492C252.605 103.775 252.746 104.269 252.746 104.269L251.831 104.481L251.479 105.046L250.846 105.469C250.846 105.469 250.565 106.175 250.705 106.387C250.846 106.599 251.128 106.528 251.128 106.528C251.128 106.528 251.057 106.952 251.479 106.952C251.902 106.952 252.676 106.387 252.887 106.316C253.098 106.246 254.998 105.116 255.349 104.834C255.701 104.551 256.405 103.14 256.546 102.292C256.686 101.445 256.475 100.951 256.475 100.951L255.983 100.739L254.716 101.728Z" fill="#FF9C78"/>
<path d="M205.321 70.6654C207.221 69.7477 211.302 73.1363 211.935 77.6544C212.568 82.1725 213.553 97.7741 212.779 99.4684C212.005 101.163 204.617 103.563 203.773 101.516C202.929 99.3978 201.24 73.2069 205.321 70.6654Z" fill="#DDE8F6"/>
<path d="M224.389 98.9741C226.571 99.1153 228.822 99.4683 229.174 100.245C229.456 101.092 229.456 105.963 227.556 106.881C225.656 107.799 217.283 106.881 214.468 106.387C211.654 105.892 204.125 105.398 203.703 101.021C203.351 96.6444 210.739 95.5149 212.709 96.2915C214.679 97.068 224.389 98.9741 224.389 98.9741Z" fill="#DDE8F6"/>
<path d="M224.601 81.1846L225.163 89.4442L220.519 91.4915L215.805 90.2208L215.735 81.1846H224.601Z" fill="#DDE8F6"/>
<path d="M226.5 70.1719L228.33 72.3603L227.837 74.4076L225.726 74.9018L224.671 73.2075L225.797 70.3837L226.5 70.1719Z" fill="#3C424F"/>
<path d="M228.47 65.0889C228.47 65.1595 228.4 65.2301 228.4 65.2301C227.696 66.4302 227.485 68.2657 226.993 68.7599C226.5 69.2541 224.46 69.4658 222.841 68.8305C221.223 68.1951 218.619 64.1712 218.901 62.6887C219.182 61.1356 219.816 59.0883 220.167 57.5352C220.519 55.9115 219.956 52.0994 220.801 50.758C221.715 49.4167 223.686 48.9932 223.686 48.9932C223.686 48.9932 230.3 56.5469 230.3 59.6531C230.3 62.6887 228.47 65.0889 228.47 65.0889Z" fill="#FF9C78"/>
<path d="M219.605 62.5472C219.675 62.6178 222.279 66.2887 223.756 67.3477C225.163 68.4066 226.008 68.7596 226.008 68.7596L226.149 69.5361C226.149 69.5361 223.967 72.2187 223.404 72.3599C222.841 72.5011 217.986 67.3477 217.353 64.8062C216.72 62.2648 219.605 59.7939 219.605 59.7939C219.605 59.7939 219.112 61.1353 219.253 61.347C219.323 61.6294 219.605 62.5472 219.605 62.5472Z" fill="#DDE8F6"/>
<path d="M227.415 65.3008C227.415 65.5126 227.767 68.054 225.938 68.8306C226.078 69.6071 226.078 69.6071 226.078 69.6071C226.078 69.6071 228.541 72.1485 228.963 72.2191C229.385 72.2191 229.596 67.2069 229.174 66.5009C228.822 65.7244 227.415 65.3008 227.415 65.3008Z" fill="#DDE8F6"/>
<path d="M223.123 53.9347C223.053 54.0759 221.434 60.2883 221.927 61.4178C222.419 62.6179 226.923 67.2772 228.119 67.6302C229.315 67.9832 231.004 67.2066 231.567 66.7124C232.129 66.2183 234.803 60.0059 235.648 57.0409C236.422 54.1465 236.773 51.1814 236.562 50.1225C236.351 49.1342 234.24 47.2987 231.004 46.5927C227.767 46.0986 223.123 53.9347 223.123 53.9347Z" fill="#FF9C78"/>
<path d="M232.763 52.3814C231.778 52.6638 230.863 52.805 229.174 52.5226C228.33 52.3815 228.189 51.8873 227.837 52.0285C227.556 52.1697 227.415 53.7934 227.345 54.0757C227.274 54.2169 226.923 54.9229 226.711 54.9935C226.711 54.9935 225.375 54.9935 225.023 55.4876C224.671 55.9818 224.108 57.5349 224.108 57.5349L222.841 57.2525C222.841 57.2525 223.334 55.3465 222.49 54.2169C221.645 53.0874 220.519 54.2169 220.519 54.2169C220.519 54.2169 220.449 57.3937 219.957 58.2409C219.605 56.6172 218.901 54.1463 218.76 52.8756C218.62 51.6755 217.635 47.581 219.112 45.1807C221.434 41.298 225.515 41.4392 225.515 41.4392C225.515 41.4392 229.245 39.6037 232.129 41.0862C235.014 42.5687 236.844 45.7455 237.266 48.0045C237.618 50.3342 237.055 52.7344 236.211 54.8523C236.351 54.0757 236.281 53.2286 236.492 52.3814C236.562 52.0991 236.633 51.3225 236.633 51.0401C236.351 49.7694 235.859 51.2519 235.648 51.3931C235.225 51.6049 233.466 52.1697 232.763 52.3814Z" fill="#32364C"/>
<path d="M221.434 58.5941C220.942 58.7353 220.238 57.8882 219.886 56.4057C219.534 54.9232 219.112 53.7936 220.66 53.3701C222.208 52.8759 222.419 55.0644 222.279 55.4879C222.138 55.9115 222.208 58.3118 221.434 58.5941Z" fill="#FF9C78"/>
<path d="M130.243 213.409C129.961 213.409 129.68 213.409 129.328 213.409C116.17 213.268 103.857 210.162 94.7093 204.655C85.6324 199.149 80.7069 191.948 80.8477 184.253C80.918 180.371 82.2549 176.629 84.788 173.099C87.4618 169.499 91.2615 166.251 96.1869 163.498C105.686 158.133 118.211 155.309 131.439 155.45C144.597 155.592 156.911 158.698 166.058 164.204C175.135 169.711 180.06 176.911 179.92 184.606C179.849 188.489 178.512 192.231 175.979 195.76C173.305 199.361 169.506 202.608 164.58 205.361C155.292 210.585 143.119 213.409 130.243 213.409ZM130.595 156.439C118.422 156.439 106.179 159.051 96.7498 164.345C87.3211 169.64 82.0438 176.7 81.9031 184.253C81.7624 191.525 86.5471 198.514 95.3426 203.808C113.919 215.033 144.808 215.315 164.158 204.514C173.587 199.22 178.864 192.16 179.005 184.606C179.146 177.335 174.361 170.346 165.565 165.051C155.996 159.333 143.331 156.439 130.595 156.439Z" fill="#2795E9"/>
<path d="M78.4554 112.106L79.3701 112.671C78.1739 111.965 77.4703 110.482 77.4703 108.435L76.5555 107.87C76.5555 109.917 77.2592 111.4 78.4554 112.106Z" fill="#3385FF"/>
<path d="M117.296 6.07124L116.381 5.50647C115.185 4.80052 113.496 4.87111 111.667 6.00064L112.582 6.5654C114.411 5.43588 116.1 5.36528 117.296 6.07124Z" fill="#3385FF"/>
<path d="M112.582 6.49514L111.667 6.00098L106.601 8.89539L107.516 9.46015L112.582 6.49514Z" fill="#3385FF"/>
<path d="M107.516 9.46027L106.601 8.89551C105.756 9.38968 105.053 10.4486 104.842 11.4369C104.631 12.4253 103.997 13.4136 103.223 13.9078L104.138 14.4725C104.912 14.049 105.616 12.99 105.756 12.0017C105.968 10.9428 106.742 9.88384 107.516 9.46027Z" fill="#3385FF"/>
<path d="M104.138 14.472L103.223 13.9072L91.3319 20.8256L92.2466 21.3197L104.138 14.472Z" fill="#3385FF"/>
<path d="M90.1357 20.8961L91.0505 21.4608C91.3319 21.6726 91.8245 21.602 92.2466 21.3196L91.3319 20.7549C90.9097 21.1079 90.4876 21.1079 90.1357 20.8961Z" fill="#3385FF"/>
<path d="M90.1357 20.1195L89.221 19.5548C88.8692 19.343 88.447 19.4136 87.9545 19.696L88.8692 20.2607C89.3617 19.9784 89.8543 19.9078 90.1357 20.1195Z" fill="#3385FF"/>
<path d="M77.2592 34.5921L76.3445 34.0273L76.5556 107.87L77.4703 108.364L77.2592 34.5921Z" fill="#3385FF"/>
<path d="M88.8692 20.2611L87.9545 19.6963L82.8883 22.6613L83.803 23.1555L88.8692 20.2611Z" fill="#3385FF"/>
<path d="M84.0142 24.0728C80.7071 25.9788 78.1036 30.5675 78.1036 34.3091L78.3147 108.081C78.3147 111.823 80.9885 113.376 84.2956 111.47L113.074 94.8094C116.381 92.9033 118.985 88.3146 118.985 84.5731L118.774 10.8008C118.774 7.05926 116.1 5.50617 112.793 7.41224L107.727 10.3067C107.234 10.589 106.742 11.295 106.671 11.9303C106.39 13.2717 105.475 14.6836 104.349 15.3189L92.4578 22.2373C91.332 22.8726 90.4173 22.5903 90.1358 21.4607C89.9951 20.9666 89.5729 20.8254 89.0804 21.1078L84.0142 24.0728Z" fill="url(#paint2_linear_485_13271)"/>
<path d="M77.2593 34.5921L77.4704 108.364C77.4704 112.6 80.4256 114.294 84.0845 112.176L112.863 95.516C116.522 93.3981 119.477 88.3152 119.407 84.0795L119.196 10.3073C119.196 6.14215 116.241 4.44786 112.582 6.49513L107.516 9.38954C106.671 9.88371 105.968 10.9426 105.757 11.931C105.545 12.9193 104.912 13.9076 104.138 14.4018L92.2467 21.3202C91.4727 21.7437 90.7691 21.532 90.6284 20.7554C90.4173 19.9789 89.7136 19.6965 88.8693 20.1906L83.8031 23.1557C80.2145 25.2735 77.2593 30.427 77.2593 34.5921ZM78.3147 108.082L78.1036 34.3097C78.1036 30.5682 80.7071 25.9089 84.0142 24.0734L89.0804 21.1084C89.5729 20.826 90.0655 20.9672 90.1358 21.4614C90.4173 22.5203 91.332 22.8733 92.4578 22.2379L104.349 15.3196C105.475 14.6842 106.39 13.2723 106.671 11.931C106.812 11.2956 107.234 10.5897 107.727 10.3073L112.793 7.41287C116.1 5.50679 118.703 7.05989 118.774 10.8015L118.985 84.5737C118.985 88.3152 116.381 92.9745 113.074 94.81L84.2956 111.471C80.9885 113.377 78.3147 111.894 78.3147 108.082Z" fill="url(#paint3_linear_485_13271)"/>
<path d="M83.803 23.1556L82.8883 22.5908C79.2294 24.7087 76.2741 29.7916 76.3445 34.0273L77.2592 34.592C77.2592 30.4269 80.2145 25.2734 83.803 23.1556Z" fill="#3385FF"/>
<path d="M118.563 9.17773C118.703 9.6719 118.774 10.1661 118.774 10.8014L118.914 62.2655L84.9992 111.118L84.2956 111.541C80.9885 113.447 78.385 111.894 78.3147 108.153L78.174 67.2778L118.563 9.17773Z" fill="url(#paint4_linear_485_13271)"/>
<path d="M114.482 16.8017L114.411 15.8839C114.2 13.4837 112.511 12.4954 110.541 13.6955L107.164 15.6721C105.194 16.8017 103.716 19.6255 103.927 22.0257L103.997 22.9435C104.209 25.3437 105.897 26.2615 107.867 25.1319L111.245 23.1553C113.215 22.0257 114.693 19.2019 114.482 16.8017Z" fill="#9CC0F8"/>
<path d="M110.33 86.2681L110.26 85.2091C110.049 82.5971 105.475 83.3736 105.897 82.7383L88.5174 92.8334C86.3361 94.1041 84.7178 97.2809 84.8585 99.9636L84.9289 101.023C85.14 103.635 87.0398 104.764 89.2914 103.493L106.671 93.3982C108.923 92.1275 110.541 88.9507 110.33 86.2681Z" fill="#9CC0F8"/>
<path d="M115.044 13.9072L116.17 14.4719C115.467 14.1189 114.622 14.1895 113.637 14.7543L112.511 14.1895C113.496 13.6248 114.411 13.5542 115.044 13.9072Z" fill="#DAE6FB"/>
<path d="M108.501 26.4731L107.375 25.9083C106.601 25.5554 106.108 24.7082 105.968 23.4375L107.093 24.0023C107.234 25.2024 107.727 26.0495 108.501 26.4731Z" fill="#DAE6FB"/>
<path d="M110.33 16.6603L109.204 16.1661L112.582 14.1895L113.707 14.7542L110.33 16.6603Z" fill="#DAE6FB"/>
<path d="M107.093 23.9314L106.038 23.4373L105.968 22.5195L107.023 23.0137L107.093 23.9314Z" fill="#DAE6FB"/>
<path d="M113.989 15.884C115.467 15.0368 116.804 15.7428 116.944 17.5783L117.015 18.496C117.155 20.2609 116.03 22.4494 114.552 23.2965L111.174 25.2732C109.697 26.1203 108.36 25.4144 108.219 23.5789L108.149 22.6612C108.008 20.8963 109.134 18.7078 110.612 17.8607L113.989 15.884Z" fill="#F6F9FE"/>
<path d="M117.648 17.8603L117.578 16.9425C117.366 14.5423 115.678 13.5539 113.708 14.7541L110.33 16.7307C108.36 17.8603 106.882 20.6841 107.093 23.0843L107.164 24.0021C107.375 26.4023 109.064 27.3201 111.034 26.1905L114.411 24.2139C116.381 23.0843 117.859 20.2605 117.648 17.8603ZM114.552 23.2961L111.174 25.2728C109.697 26.1199 108.36 25.414 108.219 23.5785L108.149 22.6608C108.008 20.8959 109.134 18.7074 110.612 17.8603L113.989 15.8836C115.467 15.0364 116.804 15.7424 116.944 17.5779L117.015 18.4956C117.155 20.2605 116.1 22.449 114.552 23.2961Z" fill="#EBF2FD"/>
<path d="M107.023 23.0141L105.897 22.4493C105.686 20.049 107.164 17.2252 109.134 16.0957L110.26 16.6605C108.36 17.8606 106.882 20.6844 107.023 23.0141Z" fill="#DAE6FB"/>
<path d="M92.9504 36.7102C89.1507 34.663 85.7029 39.5341 88.0249 43.6992C90.3469 47.8643 88.5175 52.8766 85.9844 52.3118C87.3916 54.2885 93.9355 57.8183 95.4835 52.1C97.1722 46.3112 92.9504 36.7102 92.9504 36.7102Z" fill="#E85900"/>
<path d="M106.953 57.7471C109.064 58.2412 109.345 59.159 110.189 60.5003C110.963 61.8416 114.763 66.7833 115.044 67.2069C115.326 67.6304 114.27 72.7133 113.637 72.5721C113.004 72.4309 110.963 71.372 108.219 67.7716C105.475 64.1713 102.942 58.6648 106.953 57.7471Z" fill="#2C3873"/>
<path d="M99.7756 51.1816C104.49 51.6758 106.038 52.9465 107.727 54.7114C109.415 56.4763 114.059 65.9361 114.059 65.9361C114.059 65.9361 108.712 61.9827 106.812 62.5475C104.912 63.1829 99.7756 51.1816 99.7756 51.1816Z" fill="#2C3873"/>
<path d="M101.394 98.128C101.324 98.9046 101.253 99.7517 101.183 100.599C101.113 101.164 101.042 101.728 100.901 102.223L97.0315 104.482L91.3321 107.8C91.3321 107.447 91.2617 106.952 91.121 106.388C90.6284 103.634 89.5026 99.3282 88.9397 96.222C88.1657 92.2686 88.4471 86.3386 89.1508 83.4442L95.9057 81.8205L99.1424 81.0439C99.1424 81.0439 101.535 82.1029 101.957 84.009C102.309 85.9856 101.605 93.3981 101.394 98.128Z" fill="#3B4157"/>
<path d="M109.415 95.8694C109.275 96.4341 109.204 96.9989 109.064 97.5636L100.901 102.294L97.0314 104.553L96.9611 103.07L95.9056 81.8915L95.7649 79.5618L107.586 79.4912C108.149 83.021 108.571 86.9037 108.641 87.8215C108.571 88.4568 110.119 91.9866 109.415 95.8694Z" fill="#3B4157"/>
<path d="M94.4983 51.323C90.4172 54.0762 87.3916 55.1351 85.9139 57.7472C84.4363 60.2886 88.9396 75.6784 89.1507 77.1609C89.3618 78.6434 88.2359 84.2205 88.2359 85.7736C88.2359 87.3267 93.7947 91.0682 101.112 89.2327C108.501 87.3973 108.149 84.8558 108.008 83.0909C107.867 81.2555 108.36 73.3488 108.501 72.2192C108.641 71.0191 109.415 69.466 109.275 66.0774C109.134 62.7594 105.475 55.6293 104.208 53.7232C102.942 51.8172 100.69 51.4642 99.3534 51.1818C98.0165 50.8288 94.4983 51.323 94.4983 51.323Z" fill="#202A54"/>
<path d="M93.5133 52.4527C91.1209 53.9352 90.4173 55.0647 93.7947 59.371C97.1722 63.6774 104.068 74.3373 104.068 74.3373C104.068 74.3373 106.953 62.2654 101.394 53.9352C99.2127 50.6172 93.5133 52.4527 93.5133 52.4527Z" fill="#EBF0FF"/>
<path d="M104.349 75.9607L103.997 74.1958C103.997 74.1958 94.0058 59.512 92.9503 57.6765C91.8949 55.841 92.0356 54.2173 92.4578 53.6526C92.8799 53.0878 93.0207 52.3818 93.0207 52.3818C93.0207 52.3818 91.1209 53.3702 90.4876 55.1351C89.8543 56.8999 89.9247 58.453 92.4578 61.3475C94.4983 61.9828 94.8501 62.4064 94.8501 62.4064L94.2169 64.5243C94.1465 64.4537 96.2574 66.7833 104.349 75.9607Z" fill="#2C3873"/>
<path d="M99.8459 52.5235C101.957 53.9354 104.771 56.6181 104.068 74.2669C104.42 75.7494 104.42 75.7494 104.42 75.7494C104.42 75.7494 107.093 66.5014 105.405 59.7243L104.349 58.8771L104.982 57.2534C104.912 57.2534 103.857 52.3823 99.8459 52.5235Z" fill="#2C3873"/>
<path d="M110.893 82.7382L112.16 83.303C111.386 82.95 110.4 83.0206 109.345 83.5854L108.078 83.0206C109.134 82.4558 110.119 82.3852 110.893 82.7382Z" fill="#DAE6FB"/>
<path d="M89.9247 104.623L88.6581 104.058C87.8137 103.634 87.1805 102.646 87.1101 101.305L88.3766 101.869C88.447 103.211 89.0099 104.199 89.9247 104.623Z" fill="#DAE6FB"/>
<path d="M91.8948 93.6804L90.6283 93.1157L108.078 83.0205L109.275 83.6559L91.8948 93.6804Z" fill="#DAE6FB"/>
<path d="M88.3063 101.87L87.1102 101.234L87.0398 100.246L88.236 100.811L88.3063 101.87Z" fill="#DAE6FB"/>
<path d="M109.697 84.9268C111.386 83.9385 112.863 84.7856 113.004 86.7623L113.074 87.8212C113.215 89.7979 112.019 92.1981 110.33 93.1865L92.88 103.282C91.1913 104.27 89.7137 103.423 89.5729 101.446L89.5026 100.387C89.3618 98.4105 90.558 96.0103 92.2468 95.022L109.697 84.9268Z" fill="#F6F9FE"/>
<path d="M113.708 87.1153L113.637 86.0564C113.426 83.4443 111.526 82.3148 109.275 83.5855L91.8948 93.6807C89.7136 94.9514 88.0952 98.1282 88.2359 100.811L88.3063 101.87C88.5174 104.482 90.4172 105.611 92.6688 104.341L110.049 94.2454C112.3 92.9747 113.919 89.7979 113.708 87.1153ZM110.33 93.1865L92.8799 103.282C91.1912 104.27 89.7136 103.423 89.5728 101.446L89.5025 100.387C89.3618 98.4106 90.5579 96.0103 92.2467 95.022L109.626 84.9268C111.315 83.9385 112.793 84.7856 112.934 86.7623L113.004 87.8212C113.215 89.8685 111.948 92.2688 110.33 93.1865Z" fill="#EBF2FD"/>
<path d="M88.236 100.811L86.9694 100.246C86.7583 97.6343 88.3767 94.4575 90.6283 93.1162L91.8949 93.681C89.7136 95.0223 88.0953 98.1991 88.236 100.811Z" fill="#DAE6FB"/>
<path d="M93.5133 46.4523C94.428 49.2761 92.88 52.9471 92.2468 53.9354C91.6839 54.9238 94.9909 58.3829 97.0315 59.1595C99.072 59.936 100.62 58.5947 100.62 58.5947C100.62 58.5947 101.746 57.3946 100.901 55.065C100.057 52.7353 100.057 52.7353 100.057 52.7353L102.098 47.1583C102.168 47.1583 95.2724 38.475 93.5133 46.4523Z" fill="#FF9C78"/>
<path d="M97.4536 39.8863C97.4536 39.8863 96.1167 42.4984 96.2574 45.2516C96.3981 48.0754 95.8352 49.6285 96.5388 50.6874C97.1721 51.7464 100.901 54.076 101.675 54.1466C102.449 54.1466 103.083 53.8642 103.223 53.4407C103.434 53.0171 104.349 49.2755 104.56 47.793C104.701 46.4517 104.701 43.6985 104.42 41.6512C104.138 39.604 103.223 38.6156 102.66 38.3332C102.098 38.0509 97.4536 39.8863 97.4536 39.8863Z" fill="#FF9C78"/>
<path d="M85.6325 62.7599C85.6325 62.7599 84.4364 62.054 84.0142 66.2897C83.6624 70.5254 83.3809 78.0086 83.7327 78.8557C84.0142 79.7028 85.5622 80.4088 86.8991 80.197C88.3064 79.9852 89.2914 77.0202 89.2914 77.0202L91.0505 66.1485L85.6325 62.7599Z" fill="#2C3873"/>
<path d="M88.5174 76.7373C85.8436 76.8785 84.0845 78.7846 84.0142 79.4199C83.9438 80.0553 93.5836 86.5501 98.1573 88.4562C99.4942 89.5151 99.7756 89.6563 100.761 89.6563C101.746 89.6563 102.309 89.7975 102.309 89.7975C102.309 89.7975 105.616 91.1388 106.108 91.1388C106.601 91.1388 106.953 90.6446 106.953 90.6446C106.953 90.6446 107.445 91.1388 107.797 91.1388C108.149 91.0682 108.29 90.8564 108.29 90.8564C108.29 90.8564 108.853 90.8564 108.993 90.4328C109.134 90.0093 108.993 89.5857 108.993 89.5857C108.993 89.5857 109.064 89.1621 109.064 88.9503C109.064 88.7385 107.234 86.9736 106.601 86.5501C106.038 86.0559 104.771 85.35 104.068 85.2794C103.364 85.2088 100.69 85.7029 99.9867 85.4205C99.3534 85.1382 90.558 78.1492 89.9951 77.2315C89.0804 76.7373 88.5174 76.7373 88.5174 76.7373Z" fill="#FF9C78"/>
<path d="M99.7756 85.2794C98.5091 83.2321 89.4322 75.749 89.4322 75.749C89.4322 75.749 83.8734 77.5139 83.6624 79.067C83.8031 79.9142 83.8734 79.8436 84.5771 80.4789C85.2103 81.1143 94.428 87.4679 95.976 88.1032C97.524 88.7386 97.7351 88.2444 97.7351 88.2444C97.7351 88.2444 97.8054 85.6324 99.7756 85.2794Z" fill="#2C3873"/>
<path d="M129.328 64.4541C126.514 64.9483 120.674 66.572 114.763 66.9249C113.778 68.3368 112.16 71.2313 113.637 72.6432C114.622 72.855 117.859 72.502 119.9 71.7254C121.94 70.9489 127.921 68.1957 128.765 68.1957C129.61 68.1957 131.228 69.1134 132.565 69.1134C133.902 69.1134 137.983 69.537 137.983 68.478C138.827 68.2662 139.109 68.0545 138.898 67.4191C139.461 67.2073 139.25 66.6426 139.179 66.4308C139.109 66.219 139.32 65.7954 138.757 65.6542C138.265 65.513 137.209 65.7954 136.154 65.6542C135.169 65.513 132.847 64.5953 132.847 64.5953C132.847 64.5953 133.48 63.8893 133.832 63.8187C134.183 63.7481 135.169 63.8187 136.083 63.4658C136.998 63.0422 136.787 62.4774 136.083 62.548C135.38 62.6186 132.776 62.6892 132.073 62.6186C131.439 62.548 129.328 64.4541 129.328 64.4541Z" fill="#FF9C78"/>
<path d="M128.343 68.2665C127.569 66.7134 127.64 65.0191 128.062 64.6661C128.554 64.5956 128.765 64.3838 126.655 64.6661C124.544 64.9485 115.678 66.0075 114.552 66.6428C113.426 67.3488 112.723 69.396 112.511 70.6668C112.3 71.9375 112.793 72.2199 112.793 72.2199C112.793 72.2199 113.426 72.9258 114.622 72.9258C115.819 72.9258 120.322 72.6434 128.343 68.2665Z" fill="#2C3873"/>
<path d="M134.606 66.2891C133.902 66.8538 132.706 67.348 131.51 66.4302C130.313 65.5125 128.977 65.7949 128.977 65.7949C128.977 65.7949 130.525 66.4302 131.158 67.1362C131.791 67.8422 134.183 68.0539 134.183 68.0539C134.183 68.0539 136.717 68.2657 137.631 67.8422C138.476 67.4186 140.094 65.3713 134.606 66.2891Z" fill="#FF926A"/>
<path d="M102.379 39.1808C100.127 39.8867 98.509 40.2397 97.8054 42.3576C97.1017 44.4754 96.8907 46.8757 96.8907 46.8757L96.187 47.864C96.187 47.864 96.187 46.5227 95.9759 46.2403C95.7648 45.958 94.2872 45.5344 94.0761 46.3815C93.9354 47.2287 94.0761 50.6173 93.3021 51.3938C93.2318 49.4171 92.4578 48.7112 91.4727 47.5816C90.5579 46.3815 89.5728 45.0402 89.6432 42.3576C89.7136 39.675 90.4172 37.6277 93.6539 36.5688C97.1721 34.6627 102.238 37.1335 102.872 37.6983C103.505 38.263 103.786 40.0279 103.786 40.0279C103.786 40.0279 103.153 39.1808 103.012 39.1102C102.872 39.0396 102.379 39.1808 102.379 39.1808Z" fill="#E85900"/>
<path d="M87.7435 57.3947C86.4066 57.0418 85.9844 57.7477 85.9844 57.7477C85.9844 57.7477 84.5771 59.5126 84.2253 61.9834C83.8735 64.4543 83.8735 68.6194 83.8735 68.6194C83.8735 68.6194 83.592 74.5494 89.6433 75.1848C90.0655 75.2554 91.6839 65.8662 91.8246 64.2425C91.8949 62.6188 91.2617 57.9595 87.7435 57.3947Z" fill="#2C3873"/>
<path d="M95.5538 47.0168C95.6945 45.8873 94.3576 45.3225 93.7244 45.7461C93.0911 46.0991 93.5133 48.3581 94.428 48.7817C95.3427 49.2053 95.4834 48.9935 95.5538 48.7817C95.6242 48.5699 95.5538 47.0168 95.5538 47.0168Z" fill="#FF9C78"/>
<path d="M191.108 107.023L190.193 107.588C191.389 106.882 192.093 105.399 192.093 103.352L193.007 102.787C193.007 104.834 192.304 106.317 191.108 107.023Z" fill="#3385FF"/>
<path d="M152.267 0.988227L153.182 0.423464C154.378 -0.28249 156.067 -0.211895 157.896 0.917632L156.981 1.4118C155.152 0.352869 153.463 0.282273 152.267 0.988227Z" fill="#3385FF"/>
<path d="M156.981 1.41214L157.896 0.917969L162.962 3.81238L162.047 4.37714L156.981 1.41214Z" fill="#3385FF"/>
<path d="M162.047 4.37726L162.962 3.8125C163.806 4.30667 164.51 5.3656 164.721 6.35394C164.932 7.34227 165.566 8.33061 166.34 8.82478L165.425 9.38954C164.651 8.96597 163.947 7.90704 163.806 6.9187C163.595 5.93036 162.821 4.87143 162.047 4.37726Z" fill="#3385FF"/>
<path d="M165.425 9.38898L166.34 8.82422L178.231 15.7426L177.316 16.3073L165.425 9.38898Z" fill="#3385FF"/>
<path d="M179.427 15.8834L178.513 16.4481C178.231 16.6599 177.739 16.5893 177.316 16.307L178.231 15.7422C178.653 16.0246 179.075 16.0246 179.427 15.8834Z" fill="#3385FF"/>
<path d="M179.427 15.0365L180.342 14.4718C180.694 14.26 181.116 14.3306 181.609 14.613L180.694 15.1777C180.201 14.8953 179.709 14.8248 179.427 15.0365Z" fill="#3385FF"/>
<path d="M192.304 29.5088L193.219 29.0146L193.007 102.787L192.093 103.281L192.304 29.5088Z" fill="#3385FF"/>
<path d="M180.694 15.178L181.609 14.6133L186.675 17.5783L185.76 18.0725L180.694 15.178Z" fill="#3385FF"/>
<path d="M185.549 18.9904C188.856 20.8965 191.459 25.4852 191.459 29.2268L191.248 103.07C191.248 106.811 188.575 108.364 185.267 106.458L156.489 89.7977C153.182 87.8916 150.578 83.3029 150.578 79.5613L150.789 5.7891C150.789 2.04755 153.463 0.494446 156.77 2.40052L161.836 5.29494C162.329 5.57732 162.822 6.28327 162.892 6.91863C163.173 8.25994 164.088 9.67185 165.214 10.3072L177.105 17.2256C178.231 17.8609 179.146 17.5785 179.427 16.449C179.568 15.9548 179.99 15.8137 180.483 16.096L185.549 18.9904Z" fill="url(#paint5_linear_485_13271)"/>
<path d="M185.76 18.0723L180.694 15.1073C179.849 14.6131 179.146 14.8955 178.935 15.672C178.724 16.4486 178.09 16.6604 177.316 16.2368L165.425 9.31846C164.651 8.89488 163.947 7.83595 163.807 6.84762C163.595 5.78868 162.892 4.72975 162.047 4.30618L156.981 1.41177C153.322 -0.706096 150.367 0.988194 150.367 5.22392L150.156 78.9962C150.156 83.2319 153.111 88.3148 156.7 90.4326L185.479 107.093C189.137 109.211 192.093 107.517 192.093 103.281L192.304 29.5088C192.304 25.3436 189.349 20.1902 185.76 18.0723ZM185.267 106.458L156.489 89.7973C153.182 87.8912 150.578 83.3025 150.578 79.5609L150.789 5.78868C150.789 2.04713 153.463 0.494026 156.77 2.4001L161.836 5.29452C162.329 5.5769 162.821 6.28285 162.892 6.91821C163.173 8.25953 164.088 9.67143 165.214 10.3068L177.105 17.2251C178.231 17.8605 179.146 17.5781 179.427 16.4486C179.568 15.9544 179.99 15.8132 180.483 16.0956L185.549 19.0606C188.856 20.9667 191.459 25.5554 191.459 29.297L191.248 103.069C191.178 106.811 188.575 108.364 185.267 106.458Z" fill="url(#paint6_linear_485_13271)"/>
<path d="M185.76 18.0726L186.675 17.5078C190.334 19.6257 193.289 24.7085 193.219 28.9443L192.304 29.509C192.304 25.3439 189.349 20.1904 185.76 18.0726Z" fill="#3385FF"/>
<path d="M151 4.09473C150.86 4.58889 150.789 5.08306 150.789 5.71842L150.649 57.1825L184.564 106.035L185.267 106.458C188.575 108.364 191.178 106.811 191.248 103.07L191.389 62.1948L151 4.09473Z" fill="url(#paint7_linear_485_13271)"/>
<path d="M183.368 82.5961L160.64 69.4653C157.755 67.771 155.081 69.3241 154.73 72.7833L154.518 74.76C154.096 78.2898 156.137 82.4549 159.022 84.1492L181.749 97.2799C184.634 98.9742 187.308 97.4211 187.66 93.9619L187.871 91.9853C188.223 88.4555 186.252 84.2904 183.368 82.5961Z" fill="#9CC0F8"/>
<path d="M159.022 37.8394C158.811 37.8394 156.911 37.4864 155.433 39.2513C154.237 40.7338 153.252 42.5693 152.478 44.0518C151.704 45.5343 148.538 51.3231 148.538 51.3231C148.538 51.3231 146.778 55.0647 146.778 55.2764C146.708 55.4882 144.597 58.5238 145.793 59.7239C146.99 60.9241 149.874 61.277 150.437 61.0653C154.589 59.018 157.685 51.6761 157.685 51.6761L159.022 37.8394Z" fill="#DDE8F6"/>
<path d="M171.828 77.0202L171.617 89.9392L171.476 97.5635V98.8342C171.476 98.8342 171.406 98.9048 171.335 99.1166L160.64 92.9042C160.57 92.3394 160.499 91.7746 160.499 91.1393C160.429 90.2215 160.288 89.2332 160.218 88.1037C159.655 81.3265 160.218 74.8317 161.203 67.631C161.203 67.631 167.958 67.4898 170.632 68.4781C171.054 68.6193 171.406 68.8311 171.546 69.0429C172.602 70.7372 171.828 77.0202 171.828 77.0202Z" fill="#373D4A"/>
<path d="M183.86 104.128C183.719 104.834 183.508 105.399 183.227 105.822C182.805 105.681 182.383 105.469 181.96 105.258L173.235 100.245C173.165 99.6805 173.095 99.1157 173.024 98.4804C172.602 95.3742 172.11 91.9856 171.617 89.9383C171.406 89.0912 171.195 88.5264 170.984 88.2441C169.717 86.691 166.621 85.632 165.847 84.1495C165.073 82.667 166.48 71.3717 166.48 71.3717C166.48 71.3717 168.31 69.8186 170.562 68.4773C173.376 66.783 176.965 65.3005 178.653 67.2772C181.679 70.8776 183.931 77.3724 183.579 83.9377C183.227 90.5031 183.72 98.1274 183.931 101.587C184.001 102.575 184.001 103.422 183.86 104.128Z" fill="#373D4A"/>
<path d="M157.263 39.8867C159.444 37.6983 167.958 36.9923 167.958 36.9923C167.958 36.9923 169.576 36.5687 170.984 36.9217C172.391 37.2747 179.568 41.228 179.638 41.4398C179.709 41.6516 181.468 50.476 181.116 54.0764C180.835 57.6768 181.046 67.9837 180.905 70.8781C176.683 74.9727 169.225 74.8315 166.41 73.8431C163.595 72.8548 160.922 70.4545 160.711 69.8898C160.499 69.325 158.037 60.2182 158.037 60.2182C158.037 60.2182 156.137 55.2059 155.855 51.7468C155.644 48.2876 155.152 42.0046 157.263 39.8867Z" fill="#CBDCF1"/>
<path d="M163.455 46.3105C162.681 49.9109 165.355 70.8072 165.355 70.8072L167.325 73.8428L168.451 70.9484L164.369 46.3105H163.455Z" fill="#595E71"/>
<path d="M160.64 37.2741C161.062 37.7683 161.907 39.9568 161.907 41.2981C161.907 42.6394 162.962 43.2747 164.158 43.2042C165.284 43.1336 166.762 42.6394 168.38 41.0863C169.998 39.5332 171.617 37.7683 171.195 37.2741C170.772 36.78 169.576 34.8033 169.576 34.8033C169.576 34.8033 169.013 31.9795 168.943 30.9205C168.802 29.8616 168.662 26.1907 167.817 25.8377C166.973 25.4847 163.455 28.1673 163.455 28.1673L160.64 37.2741Z" fill="#FF9C78"/>
<path d="M165.917 28.8733C165.917 28.8733 166.832 35.1563 166.621 35.7211C166.41 36.3564 161.836 39.745 161.203 39.8156C160.57 39.8862 159.303 39.6744 158.529 38.8273C158.177 38.4743 155.715 32.8266 155.363 30.497C155.011 28.1673 154.941 24.7082 155.504 24.0728C156.137 23.4374 159.796 21.8138 161.273 21.9549C162.751 22.0255 165.636 25.1317 165.636 25.1317L165.917 28.8733Z" fill="#FF9C78"/>
<path d="M178.583 40.9458C177.035 40.8752 174.642 43.3461 175.135 47.4406C175.557 51.5351 181.468 64.2423 181.468 64.2423C181.468 64.2423 187.308 66.1484 187.73 64.8071C188.152 63.4658 185.267 52.0999 183.156 47.5112C181.045 42.9225 180.06 41.1576 178.583 40.9458Z" fill="#DDE8F6"/>
<path d="M150.719 60.006C150.789 58.0999 148.678 54.0054 147.834 53.6524C146.99 53.2994 136.928 51.6757 136.928 51.6757C136.928 51.6757 135.872 51.464 135.239 53.0171C134.606 54.5702 134.465 55.4173 134.817 55.7703C135.168 56.1233 146.356 61.7709 150.015 61.1355C151.071 60.4296 150.719 60.006 150.719 60.006Z" fill="#DDE8F6"/>
<path d="M134.535 51.6764C134.957 52.453 134.746 54.5002 134.676 54.712C134.606 54.9238 134.254 55.1356 134.254 55.1356L132.635 54.9944C132.635 54.9944 131.58 55.2768 130.736 55.1356C129.891 54.9944 125.74 53.0177 125.529 52.3118C125.318 51.6058 124.684 48.8526 126.655 48.3584C128.554 47.7937 130.665 48.3584 130.665 48.3584C130.665 48.3584 131.299 48.429 131.51 49.135C131.65 49.8409 134.535 51.6764 134.535 51.6764Z" fill="#FF9C78"/>
<path d="M129.117 38.1221L118.281 41.8636L119.97 60.8538L130.806 57.0416L129.117 38.1221Z" fill="#F8F7FB"/>
<path d="M128.062 40.875L119.829 43.6988L121.096 58.1003L129.328 55.2765L128.062 40.875Z" fill="#DDDEE2"/>
<path d="M128.906 41.0869L118.985 44.5461L119.055 45.5344L128.976 42.1458L128.906 41.0869Z" fill="#F8F7FB"/>
<path d="M129.047 42.6396L119.126 46.0988L119.196 47.0872L129.117 43.628L129.047 42.6396Z" fill="#F8F7FB"/>
<path d="M129.188 44.1934L119.266 47.6525L119.337 48.6409L129.258 45.1817L129.188 44.1934Z" fill="#F8F7FB"/>
<path d="M129.328 45.7461L119.407 49.1347L119.477 50.1936L129.399 46.7344L129.328 45.7461Z" fill="#F8F7FB"/>
<path d="M129.469 47.2285L119.548 50.6877L119.618 51.676L129.539 48.2169L129.469 47.2285Z" fill="#F8F7FB"/>
<path d="M129.61 48.7822L119.688 52.2414L119.759 53.2297L129.68 49.7706L129.61 48.7822Z" fill="#F8F7FB"/>
<path d="M129.75 50.335L119.829 53.7235L119.9 54.7825L129.821 51.3233L129.75 50.335Z" fill="#F8F7FB"/>
<path d="M129.891 51.8174L119.97 55.2766L120.04 56.2649L129.962 52.8763L129.891 51.8174Z" fill="#F8F7FB"/>
<path d="M130.032 53.3701L120.111 56.8293L120.181 57.8176L130.102 54.3585L130.032 53.3701Z" fill="#F8F7FB"/>
<path d="M131.58 50.6875C131.58 50.6875 129.258 51.0405 128.906 51.1817C128.554 51.3229 127.71 51.2523 127.217 51.464C126.725 51.6758 126.866 52.4524 127.499 52.6642C128.203 52.876 129.258 52.6642 129.258 52.6642C129.258 52.6642 130.313 52.7348 130.595 53.1583C130.806 53.5819 131.017 54.0055 131.791 54.1467C132.565 54.2173 134.043 54.4997 133.972 53.2995C133.972 52.0288 131.58 50.6875 131.58 50.6875Z" fill="#FF9C78"/>
<path d="M157.052 26.2617C159.725 27.25 161.555 26.5441 161.625 26.7558C161.696 26.9676 161.977 29.1561 161.977 29.1561L163.455 29.5797L164.58 31.6975L165.777 31.4151C165.777 31.4151 165.636 29.862 166.551 29.1561C167.536 28.5207 168.31 29.9326 168.239 30.8504C168.169 31.7681 169.224 33.533 169.224 33.533C169.224 33.533 169.998 30.7798 170.28 30.1444C171.758 25.8381 172.954 22.3083 166.551 20.0493C162.399 16.1665 156.911 19.1315 155.574 21.3906C154.237 23.7202 155.081 25.2733 155.081 25.2733C155.081 25.2733 155.504 25.6969 157.052 26.2617Z" fill="#32364C"/>
<path d="M166.199 30.639C166.058 29.0859 166.691 28.6623 167.676 28.7329C168.732 28.8741 168.45 30.1448 168.099 31.2038C167.747 32.3333 167.536 33.1098 166.691 32.8981C165.917 32.8275 166.199 30.639 166.199 30.639Z" fill="#FF9C78"/>
<path d="M170.773 36.8504C170.913 38.1917 167.888 42.3568 163.666 42.7098C163.595 43.2039 163.595 43.2039 163.595 43.2039L165.073 45.3218C165.073 45.3218 172.461 43.0628 172.602 38.1211C172.25 37.4151 170.139 35.9326 170.139 35.9326L170.773 36.8504Z" fill="#DDE8F6"/>
<path d="M163.666 42.7803C162.329 42.3567 162.047 41.5801 161.836 40.5918C160.851 41.7919 161.414 43.8392 162.258 44.6863C162.892 44.1216 163.595 43.2744 163.595 43.2744L163.666 42.7803Z" fill="#DDE8F6"/>
<path d="M153.815 70.5952L154.87 70.1716C155.926 69.7481 157.122 69.8187 158.459 70.5952L157.403 71.0188C156.066 70.2422 154.8 70.101 153.815 70.5952Z" fill="#DAE6FB"/>
<path d="M183.016 98.8334L181.96 99.2569C183.227 98.7628 184.141 97.4215 184.353 95.5154L185.408 95.0918C185.197 96.9979 184.282 98.2686 183.016 98.8334Z" fill="#DAE6FB"/>
<path d="M157.403 71.0186L158.459 70.5244L181.186 83.6552L180.06 84.1493L157.403 71.0186Z" fill="#DAE6FB"/>
<path d="M184.564 93.5391L185.619 93.0449L185.408 95.0216L184.353 95.5158L184.564 93.5391Z" fill="#DAE6FB"/>
<path d="M179.638 85.7733C181.82 87.044 183.297 90.2208 183.016 92.8329L182.805 94.8095C182.523 97.4922 180.483 98.6217 178.301 97.351L155.574 84.2202C153.393 82.9495 151.915 79.7727 152.196 77.1607L152.408 75.184C152.689 72.5014 154.73 71.3719 156.911 72.6426L179.638 85.7733Z" fill="#F6F9FE"/>
<path d="M180.06 84.1498L157.333 71.019C154.448 69.3247 151.774 70.8778 151.422 74.337L151.211 76.3137C150.789 79.8435 152.83 84.0086 155.715 85.7029L178.442 98.8336C181.327 100.528 184.001 98.9748 184.353 95.5157L184.564 93.539C184.986 90.0092 182.945 85.7735 180.06 84.1498ZM182.805 94.8803C182.523 97.5629 180.483 98.6924 178.301 97.4217L155.574 84.291C153.393 83.0203 151.915 79.8435 152.196 77.2314L152.408 75.2548C152.689 72.5721 154.73 71.4426 156.911 72.7133L179.638 85.8441C181.82 87.1148 183.297 90.2916 183.016 92.9036L182.805 94.8803Z" fill="#EBF2FD"/>
<path d="M180.061 84.1492L181.116 83.7256C184.001 85.4199 185.971 89.585 185.619 93.1148L184.564 93.5384C184.986 90.0086 182.945 85.7729 180.061 84.1492Z" fill="#DAE6FB"/>
<path d="M185.056 63.253C183.156 62.1941 181.116 63.3942 181.116 63.3942C181.116 63.3942 171.687 74.8307 171.195 75.5366C170.772 76.3132 173.517 79.2076 174.361 79.0664C175.205 78.9252 188.011 67.7711 187.73 64.7355C186.745 63.6766 185.056 63.253 185.056 63.253Z" fill="#DDE8F6"/>
<path d="M171.687 75.6777L168.943 77.2308C168.943 77.2308 166.762 77.725 166.269 78.0074C165.777 78.2898 164.51 80.1253 164.44 80.337C164.369 80.5488 164.58 81.1842 164.58 81.1842C164.58 81.1842 164.44 82.3843 164.58 82.5961C164.721 82.8079 165.565 83.1609 165.565 83.1609C165.565 83.1609 165.706 83.655 166.058 83.7962C166.41 83.9374 166.691 83.8668 166.691 83.8668C166.691 83.8668 166.762 84.2904 167.747 84.008C168.661 83.7256 168.732 82.9491 169.576 82.5961C170.35 82.1725 171.757 81.6783 172.813 80.5488C173.868 79.4193 174.009 78.9251 174.009 78.9251C174.009 78.9251 174.361 78.5721 174.291 78.3604C174.15 77.9368 172.883 76.2425 171.687 75.6777Z" fill="#FF9C78"/>
<path d="M163.666 43.2041C163.666 43.2041 162.54 44.263 162.54 45.322C162.54 46.3809 163.384 47.6516 163.384 47.6516L164.369 47.934C164.369 47.934 165.777 46.8045 165.143 45.3926C164.51 43.9101 163.666 43.2041 163.666 43.2041Z" fill="#595E71"/>
<path d="M88.2358 195.267C88.2358 197.173 86.6878 198.726 84.788 198.726C82.8882 198.726 81.3402 197.173 81.3402 195.267C81.3402 193.361 82.8882 191.808 84.788 191.808C86.6878 191.808 88.2358 193.361 88.2358 195.267Z" fill="#2795E9"/>
<path d="M179.286 173.806C179.286 175.5 177.949 176.841 176.261 176.841C174.572 176.841 173.235 175.5 173.235 173.806C173.235 172.111 174.572 170.77 176.261 170.77C177.949 170.7 179.286 172.111 179.286 173.806Z" fill="#2795E9"/>
<path d="M108.289 213.41C109.345 213.41 110.26 213.198 111.034 212.774L159.655 184.607C160.71 183.971 161.273 183.054 161.273 181.924C161.273 180.724 160.57 179.665 159.303 178.959L156.137 177.124C155.222 176.559 154.026 176.276 152.83 176.276C151.774 176.276 150.859 176.488 150.085 176.912L101.464 205.079C100.409 205.715 99.8458 206.632 99.8458 207.762C99.8458 208.962 100.549 210.021 101.816 210.727L104.982 212.562C105.897 213.127 107.093 213.41 108.289 213.41Z" fill="url(#paint8_linear_485_13271)"/>
<path d="M160.64 108.928L153.674 104.904C140.446 114.999 134.465 118.247 128.554 119.871C122.644 125.165 112.441 131.236 99.2125 136.46V165.263C99.2125 176.912 103.786 182.7 109.204 185.595L116.17 189.619L115.818 187.713C121.518 188.63 128.554 188.772 128.554 188.772C128.554 188.772 153.674 162.087 153.674 133.707V116.764L160.64 108.928Z" fill="#DD9700"/>
<path d="M99.1422 136.46L106.108 140.484L123.207 137.59L135.45 123.894L128.484 119.87C122.503 125.094 112.371 131.236 99.1422 136.46Z" fill="#FFD33B"/>
<path d="M159.866 108.505L153.604 104.904C140.375 114.999 134.394 118.247 128.484 119.871L135.45 123.894H150.437L160.57 108.928L159.866 108.505Z" fill="#FFE359"/>
<path d="M135.45 123.895C129.539 129.19 119.337 135.261 106.108 140.485V169.288C106.108 197.667 135.45 192.796 135.45 192.796C135.45 192.796 160.57 166.111 160.57 137.732V108.929C147.341 119.024 141.431 122.271 135.45 123.895Z" fill="#FFAF19"/>
<path d="M135.591 189.054C133.269 189.337 128.695 189.619 124.121 188.278C115.959 185.807 109.486 177.9 109.486 167.381V143.449C111.386 142.532 113.285 141.543 115.115 140.414C122.996 135.896 131.087 132.084 135.52 128.201C139.953 127.001 143.542 123.965 151.422 119.376C153.252 118.318 155.152 117.117 157.051 115.847V139.779C157.051 150.297 155.152 163.004 146.919 175.006C142.557 181.642 137.983 186.654 135.591 189.054Z" fill="#FFAF19"/>
<path d="M124.192 188.278C116.029 185.807 109.556 177.9 109.556 167.382V143.45C111.456 142.532 113.356 141.544 115.185 140.414C123.066 135.896 131.158 132.084 135.591 128.201V189.054C133.269 189.407 128.695 189.69 124.192 188.278Z" fill="#FFAF19"/>
<path d="M145.441 146.132C144.949 150.509 143.331 155.309 140.657 160.039C137.983 164.698 134.605 168.51 131.158 171.122L126.373 179.453L121.377 176.558C114.763 172.676 114.763 160.18 121.377 148.673C127.991 137.166 138.687 130.954 145.301 134.836L150.297 137.731L145.441 146.132Z" fill="#00A658"/>
<path d="M126.303 151.568C119.688 163.075 119.688 175.57 126.303 179.453C132.917 183.336 143.612 177.123 150.226 165.616C156.84 154.109 156.84 141.614 150.226 137.731C143.612 133.848 132.917 140.061 126.303 151.568Z" fill="#00D158"/>
<path d="M133.902 170.275L135.591 171.263C135.52 171.193 135.45 171.193 135.38 171.122L133.691 170.134C133.761 170.204 133.832 170.275 133.902 170.275Z" fill="#C6C0D0"/>
<path d="M150.226 147.826L148.538 146.838C147.975 146.485 147.201 146.626 146.427 147.05C145.723 147.473 145.019 148.179 144.456 149.026L146.145 150.015C146.708 149.097 147.412 148.391 148.115 148.038C148.889 147.614 149.663 147.473 150.226 147.826Z" fill="#D3E1FC"/>
<path d="M146.215 150.015L144.527 149.026L136.576 161.875L138.264 162.863L146.215 150.015Z" fill="#D3E1FC"/>
<path d="M130.595 167.24L128.906 166.252L133.691 170.135L135.379 171.123L130.595 167.24Z" fill="#D3E1FC"/>
<path d="M134.957 160.109L133.269 159.121C132.706 158.768 131.932 158.909 131.158 159.333L132.846 160.321C133.62 159.898 134.324 159.827 134.957 160.109Z" fill="#D3E1FC"/>
<path d="M132.846 160.321L131.158 159.333C130.524 159.686 129.821 160.321 129.258 161.168C127.991 163.075 127.851 165.334 128.836 166.181L130.524 167.169C129.469 166.322 129.68 164.063 130.947 162.157C131.509 161.38 132.143 160.745 132.846 160.321Z" fill="#D3E1FC"/>
<path d="M132.846 160.322C132.213 160.675 131.509 161.31 130.947 162.157C129.68 164.063 129.539 166.322 130.524 167.169L135.309 171.052C136.013 171.617 136.998 171.546 137.983 170.982C138.827 170.487 139.601 169.711 140.305 168.581L150.085 152.697C151.282 150.721 151.422 148.532 150.297 147.756C149.734 147.332 148.889 147.403 148.115 147.897C147.412 148.32 146.708 149.026 146.145 149.874L138.264 162.722L135.098 160.251C134.535 159.757 133.691 159.827 132.846 160.322Z" fill="white"/>
<path d="M4.6439 24.9905L5.62899 25.5553C5.55863 25.5553 5.55863 25.4847 5.48826 25.4847L4.50317 24.9199C4.50317 24.9199 4.57354 24.9905 4.6439 24.9905Z" fill="#3689F5"/>
<path d="M13.9319 12.3539L12.9468 11.7892C12.595 11.5774 12.1728 11.648 11.6803 11.9303C11.2581 12.1421 10.8359 12.5657 10.5544 13.1305L11.5395 13.6952C11.8914 13.1305 12.3135 12.7775 12.6654 12.4951C13.1579 12.2127 13.5801 12.1421 13.9319 12.3539Z" fill="#3689F5"/>
<path d="M11.5395 13.6243L10.5544 13.0596L6.19189 20.0485L7.17698 20.6133L11.5395 13.6243Z" fill="#3689F5"/>
<path d="M3.09593 23.5784L2.11084 23.0137L4.5032 24.9197L5.48829 25.4845L3.09593 23.5784Z" fill="#3689F5"/>
<path d="M5.69939 19.4135L4.7143 18.8487C4.36248 18.6369 3.9403 18.7075 3.44775 18.9899L4.43284 19.5547C4.92539 19.2723 5.34757 19.2017 5.69939 19.4135Z" fill="#3689F5"/>
<path d="M4.43284 19.555L3.44774 18.9902C3.02556 19.202 2.67375 19.555 2.32193 20.0492C1.61829 21.1787 1.47756 22.52 2.11084 23.0142L3.09593 23.5789C2.46265 23.0848 2.60338 21.7435 3.30702 20.6139C3.65884 20.1198 4.08102 19.7668 4.43284 19.555Z" fill="#3689F5"/>
<path d="M4.43285 19.5551C4.01067 19.7669 3.65885 20.1199 3.30703 20.614C2.6034 21.7436 2.46267 23.0849 3.09594 23.579L5.48831 25.4851C5.91049 25.8381 6.4734 25.7675 7.03631 25.4145C7.52885 25.1321 8.0214 24.638 8.37321 24.0026L13.7912 15.1782C14.4948 14.0487 14.5652 12.7073 13.9319 12.2838C13.5801 12.072 13.0876 12.072 12.6654 12.3544C12.2432 12.5662 11.821 12.9897 11.5396 13.5545L7.2474 20.5434L5.84012 19.4139C5.41794 19.2021 4.9254 19.2021 4.43285 19.5551Z" fill="#8CD1FF"/>
<g opacity="0.76">
<path d="M4.6439 38.1917L5.62899 38.7565C5.55863 38.7565 5.55863 38.6859 5.48826 38.6859L4.50317 38.1211C4.50317 38.1211 4.57354 38.1917 4.6439 38.1917Z" fill="#3689F5"/>
<path d="M13.9319 25.4848L12.9468 24.92C12.595 24.7082 12.1728 24.7788 11.6803 25.0612C11.2581 25.273 10.8359 25.6966 10.5544 26.2613L11.5395 26.8261C11.8914 26.2613 12.3135 25.9084 12.6654 25.626C13.1579 25.3436 13.5801 25.273 13.9319 25.4848Z" fill="#3689F5"/>
<path d="M11.5395 26.8265L10.5544 26.2617L6.19189 33.2507L7.17698 33.8154L11.5395 26.8265Z" fill="#3689F5"/>
<path d="M3.09593 36.7093L2.11084 36.1445L4.5032 38.1212L5.48829 38.686L3.09593 36.7093Z" fill="#3689F5"/>
<path d="M5.69939 32.5444L4.7143 31.9796C4.36248 31.7678 3.9403 31.8384 3.44775 32.1208L4.43284 32.6855C4.92539 32.4738 5.34757 32.4032 5.69939 32.5444Z" fill="#3689F5"/>
<path d="M4.43284 32.6859L3.44774 32.1211C3.02556 32.3329 2.67375 32.6859 2.32193 33.18C1.61829 34.3096 1.47756 35.6509 2.11084 36.145L3.09593 36.7098C2.46265 36.2156 2.60338 34.8743 3.30702 33.7448C3.65884 33.3212 4.08102 32.8976 4.43284 32.6859Z" fill="#3689F5"/>
<path d="M4.43285 32.686C4.01067 32.8978 3.65885 33.2507 3.30703 33.7449C2.6034 34.8744 2.46267 36.2157 3.09594 36.7099L5.48831 38.616C5.91049 38.969 6.4734 38.8984 7.03631 38.5454C7.52885 38.263 8.0214 37.7688 8.37321 37.1335L13.7912 28.309C14.4948 27.1795 14.5652 25.8382 13.9319 25.4146C13.5801 25.2029 13.0876 25.2028 12.6654 25.4852C12.2432 25.697 11.821 26.1206 11.5396 26.6854L7.2474 33.6743L5.84012 32.5448C5.41794 32.4036 4.9254 32.4036 4.43285 32.686Z" fill="#8CD1FF"/>
</g>
<g opacity="0.52">
<path d="M4.6439 51.3929L5.62899 51.9576C5.55863 51.9576 5.55863 51.887 5.48826 51.887L4.50317 51.3223C4.50317 51.3223 4.57354 51.3223 4.6439 51.3929Z" fill="#3689F5"/>
<path d="M13.9319 38.686L12.9468 38.1212C12.595 37.9094 12.1728 37.98 11.6803 38.2624C11.2581 38.4742 10.8359 38.8977 10.5544 39.4625L11.5395 40.0273C11.8914 39.4625 12.3135 39.1095 12.6654 38.8271C13.1579 38.5448 13.5801 38.4742 13.9319 38.686Z" fill="#3689F5"/>
<path d="M11.5395 39.9564L10.5544 39.3916L6.19189 46.3805L7.17698 47.0159L11.5395 39.9564Z" fill="#3689F5"/>
<path d="M3.09593 49.9105L2.11084 49.3457L4.5032 51.2518L5.48829 51.8165L3.09593 49.9105Z" fill="#3689F5"/>
<path d="M5.69939 45.7455L4.7143 45.1808C4.36248 44.969 3.9403 45.0396 3.44775 45.3219L4.43284 45.8867C4.92539 45.6043 5.34757 45.5337 5.69939 45.7455Z" fill="#3689F5"/>
<path d="M4.43284 45.887L3.44774 45.3223C3.02556 45.5341 2.67375 45.887 2.32193 46.3812C1.61829 47.5107 1.47756 48.852 2.11084 49.3462L3.09593 49.911C2.46265 49.4168 2.60338 48.0755 3.30702 46.946C3.65884 46.4518 4.08102 46.0988 4.43284 45.887Z" fill="#3689F5"/>
<path d="M4.43285 45.8871C4.01067 46.0989 3.65885 46.4519 3.30703 46.9461C2.6034 48.0756 2.46267 49.4169 3.09594 49.9111L5.48831 51.8172C5.91049 52.1701 6.4734 52.0995 7.03631 51.7466C7.52885 51.4642 8.0214 50.97 8.37321 50.3347L13.7912 41.5102C14.4948 40.3807 14.5652 39.0394 13.9319 38.6158C13.5801 38.404 13.0876 38.404 12.6654 38.6864C12.2432 38.8982 11.821 39.3218 11.5396 39.8865L7.2474 46.8755L5.84012 45.7459C5.41794 45.5342 4.9254 45.6048 4.43285 45.8871Z" fill="#8CD1FF"/>
</g>
<g opacity="0.28">
<path d="M4.6439 64.5237L5.62899 65.0885C5.55863 65.0885 5.55863 65.0179 5.48826 65.0179L4.50317 64.4531C4.50317 64.4531 4.57354 64.5237 4.6439 64.5237Z" fill="#3689F5"/>
<path d="M13.9319 51.8871L12.9468 51.3224C12.595 51.1106 12.1728 51.1812 11.6803 51.4636C11.2581 51.6753 10.8359 52.0989 10.5544 52.6637L11.5395 53.2284C11.8914 52.6637 12.3135 52.3107 12.6654 52.0283C13.1579 51.7459 13.5801 51.6753 13.9319 51.8871Z" fill="#3689F5"/>
<path d="M11.5395 53.1575L10.5544 52.5928L6.19189 59.5817L7.17698 60.1465L11.5395 53.1575Z" fill="#3689F5"/>
<path d="M3.09593 63.1116L2.11084 62.5469L4.5032 64.453L5.48829 65.0177L3.09593 63.1116Z" fill="#3689F5"/>
<path d="M5.69939 58.9467L4.7143 58.3819C4.36248 58.1701 3.9403 58.2407 3.44775 58.5231L4.43284 59.0879C4.92539 58.8055 5.34757 58.7349 5.69939 58.9467Z" fill="#3689F5"/>
<path d="M4.43284 59.0882L3.44774 58.5234C3.02556 58.7352 2.67375 59.0882 2.32193 59.5824C1.61829 60.7119 1.47756 62.0532 2.11084 62.5474L3.09593 63.1121C2.46265 62.618 2.60338 61.2767 3.30702 60.1471C3.65884 59.653 4.08102 59.3 4.43284 59.0882Z" fill="#3689F5"/>
<path d="M4.43285 59.0883C4.01067 59.3001 3.65885 59.6531 3.30703 60.1472C2.6034 61.2768 2.46267 62.6181 3.09594 63.1123L5.48831 65.0183C5.91049 65.3713 6.4734 65.3007 7.03631 64.9477C7.52885 64.6653 8.0214 64.1712 8.37321 63.5358L13.7912 54.7114C14.4948 53.5819 14.5652 52.2406 13.9319 51.817C13.5801 51.6052 13.0876 51.6052 12.6654 51.8876C12.2432 52.0994 11.821 52.5229 11.5396 53.0877L7.2474 60.0766L5.84012 58.9471C5.41794 58.7353 4.9254 58.7353 4.43285 59.0883Z" fill="#8CD1FF"/>
</g>
<path d="M259.219 36.8499L260.204 37.4147C260.134 37.4147 260.134 37.3441 260.064 37.3441L259.078 36.7793C259.149 36.8499 259.149 36.8499 259.219 36.8499Z" fill="#3689F5"/>
<path d="M268.507 24.2133L267.522 23.6485C267.17 23.4367 266.748 23.5073 266.256 23.7897C265.833 24.0015 265.411 24.4251 265.13 24.9898L266.115 25.5546C266.467 24.9898 266.889 24.6369 267.241 24.3545C267.733 24.0721 268.155 24.0015 268.507 24.2133Z" fill="#3689F5"/>
<path d="M266.115 25.4837L265.13 24.9189L260.838 31.9079L261.823 32.4727L266.115 25.4837Z" fill="#3689F5"/>
<path d="M257.742 35.4378L256.756 34.873L259.078 36.7791L260.064 37.3439L257.742 35.4378Z" fill="#3689F5"/>
<path d="M260.275 31.2729L259.29 30.7081C258.938 30.4963 258.516 30.5669 258.023 30.8493L259.008 31.4141C259.501 31.1317 259.923 31.0611 260.275 31.2729Z" fill="#3689F5"/>
<path d="M259.008 31.4144L258.023 30.8496C257.601 31.0614 257.249 31.4144 256.897 31.9085C256.194 33.0381 256.053 34.3794 256.686 34.8735L257.671 35.4383C257.038 34.9441 257.179 33.6028 257.882 32.4733C258.234 31.9791 258.656 31.6262 259.008 31.4144Z" fill="#3689F5"/>
<path d="M259.008 31.4145C258.586 31.6263 258.234 31.9792 257.882 32.4734C257.179 33.6029 257.038 34.9443 257.671 35.4384L260.064 37.3445C260.486 37.6975 261.049 37.6269 261.612 37.2739C262.104 36.9915 262.597 36.4974 262.949 35.862L268.367 27.0376C269.07 25.908 269.141 24.5667 268.507 24.1432C268.155 23.9314 267.663 23.9314 267.241 24.2137C266.819 24.4255 266.396 24.8491 266.115 25.4139L261.823 32.4028L260.415 31.2733C260.064 31.0615 259.501 31.1321 259.008 31.4145Z" fill="#8CD1FF"/>
<g opacity="0.76">
<path d="M259.219 50.0511L260.204 50.6158C260.134 50.6158 260.134 50.5452 260.064 50.5452L259.079 49.9805C259.149 49.9805 259.149 50.0511 259.219 50.0511Z" fill="#3689F5"/>
<path d="M268.507 37.3442L267.522 36.7794C267.17 36.5676 266.748 36.6382 266.256 36.9206C265.833 37.1324 265.411 37.5559 265.13 38.1207L266.115 38.6855C266.467 38.1207 266.889 37.7677 267.241 37.4853C267.733 37.203 268.155 37.203 268.507 37.3442Z" fill="#3689F5"/>
<path d="M266.115 38.6859L265.13 38.1211L260.838 45.11L261.823 45.6748L266.115 38.6859Z" fill="#3689F5"/>
<path d="M257.742 48.6393L256.756 48.0039L259.078 49.9806L260.064 50.5453L257.742 48.6393Z" fill="#3689F5"/>
<path d="M260.275 44.474L259.289 43.9093C258.938 43.6975 258.515 43.7681 258.023 44.0505L259.008 44.6152C259.501 44.3328 259.923 44.2623 260.275 44.474Z" fill="#3689F5"/>
<path d="M259.008 44.5452L258.023 43.9805C257.601 44.1923 257.249 44.5452 256.897 45.0394C256.194 46.1689 256.053 47.5102 256.686 48.0044L257.671 48.5692C257.038 48.075 257.179 46.7337 257.882 45.6042C258.234 45.1806 258.656 44.8276 259.008 44.5452Z" fill="#3689F5"/>
<path d="M259.008 44.5453C258.586 44.7571 258.234 45.1101 257.882 45.6043C257.179 46.7338 257.038 48.0751 257.671 48.5693L260.064 50.4754C260.486 50.8283 261.049 50.7577 261.612 50.4048C262.104 50.1224 262.597 49.6282 262.949 48.9929L268.367 40.1684C269.07 39.0389 269.141 37.6976 268.507 37.274C268.155 37.0622 267.663 37.0622 267.241 37.3446C266.819 37.5564 266.396 37.98 266.115 38.5447L261.823 45.5337L260.415 44.4042C260.064 44.263 259.501 44.263 259.008 44.5453Z" fill="#8CD1FF"/>
</g>
<g opacity="0.52">
<path d="M259.219 63.2522L260.204 63.817C260.134 63.817 260.134 63.7464 260.064 63.7464L259.079 63.1816C259.149 63.1816 259.149 63.1816 259.219 63.2522Z" fill="#3689F5"/>
<path d="M268.507 50.5453L267.522 49.9806C267.17 49.7688 266.748 49.8394 266.256 50.1218C265.833 50.3335 265.411 50.7571 265.13 51.3219L266.115 51.8866C266.467 51.3219 266.889 50.9689 267.241 50.6865C267.733 50.4041 268.155 50.3335 268.507 50.5453Z" fill="#3689F5"/>
<path d="M266.115 51.8863L265.13 51.251L260.838 58.3105L261.823 58.8753L266.115 51.8863Z" fill="#3689F5"/>
<path d="M257.742 61.7698L256.756 61.2051L259.078 63.1112L260.064 63.7465L257.742 61.7698Z" fill="#3689F5"/>
<path d="M260.275 57.6049L259.29 57.0401C258.938 56.8283 258.516 56.8989 258.023 57.1813L259.008 57.7461C259.501 57.4637 259.923 57.4637 260.275 57.6049Z" fill="#3689F5"/>
<path d="M259.008 57.7464L258.023 57.1816C257.601 57.3934 257.249 57.7464 256.897 58.2406C256.194 59.3701 256.053 60.7114 256.686 61.2056L257.671 61.7703C257.038 61.2762 257.179 59.9349 257.882 58.8053C258.234 58.3818 258.656 57.9582 259.008 57.7464Z" fill="#3689F5"/>
<path d="M259.008 57.7465C258.586 57.9583 258.234 58.3113 257.882 58.8054C257.179 59.935 257.038 61.2763 257.671 61.7705L260.064 63.6765C260.486 64.0295 261.049 63.9589 261.612 63.6059C262.104 63.3236 262.597 62.8294 262.949 62.194L268.367 53.3696C269.07 52.2401 269.141 50.8988 268.507 50.4752C268.155 50.2634 267.663 50.2634 267.241 50.5458C266.819 50.7576 266.396 51.1811 266.115 51.7459L261.823 58.7348L260.415 57.6053C260.064 57.3935 259.501 57.4641 259.008 57.7465Z" fill="#8CD1FF"/>
</g>
<g opacity="0.28">
<path d="M259.219 76.3831L260.204 76.9479C260.134 76.9479 260.134 76.8773 260.064 76.8773L259.078 76.3125C259.149 76.3831 259.149 76.3831 259.219 76.3831Z" fill="#3689F5"/>
<path d="M268.507 63.7465L267.522 63.1817C267.17 62.97 266.748 63.0405 266.256 63.3229C265.833 63.5347 265.411 63.9583 265.13 64.5231L266.115 65.0878C266.467 64.523 266.889 64.1701 267.241 63.8877C267.733 63.6053 268.155 63.5347 268.507 63.7465Z" fill="#3689F5"/>
<path d="M266.115 65.0169L265.13 64.4521L260.838 71.4411L261.823 72.0059L266.115 65.0169Z" fill="#3689F5"/>
<path d="M257.742 74.971L256.756 74.4062L259.078 76.3123L260.064 76.8771L257.742 74.971Z" fill="#3689F5"/>
<path d="M260.275 70.8061L259.29 70.2413C258.938 70.0295 258.516 70.1001 258.023 70.3825L259.008 70.9473C259.501 70.6649 259.923 70.5943 260.275 70.8061Z" fill="#3689F5"/>
<path d="M259.008 70.9476L258.023 70.3828C257.601 70.5946 257.249 70.9476 256.897 71.4417C256.194 72.5713 256.053 73.9126 256.686 74.4068L257.671 74.9715C257.038 74.4773 257.179 73.136 257.882 72.0065C258.234 71.5123 258.656 71.1594 259.008 70.9476Z" fill="#3689F5"/>
<path d="M259.008 70.9477C258.586 71.1595 258.234 71.5124 257.882 72.0066C257.179 73.1361 257.038 74.4775 257.671 74.9716L260.064 76.8777C260.486 77.2307 261.049 77.1601 261.612 76.8071C262.104 76.5247 262.597 76.0306 262.949 75.3952L268.367 66.5708C269.07 65.4412 269.141 64.0999 268.507 63.6764C268.155 63.4646 267.663 63.4646 267.241 63.747C266.819 63.9587 266.396 64.3823 266.115 64.9471L261.823 71.936L260.415 70.8065C260.064 70.5947 259.501 70.6653 259.008 70.9477Z" fill="#8CD1FF"/>
</g>
</g>
<defs>
<linearGradient id="paint0_linear_485_13271" x1="30.8579" y1="186.492" x2="57.5329" y2="186.492" gradientUnits="userSpaceOnUse">
<stop offset="0.2139" stop-color="#F3F4F5"/>
<stop offset="0.7933" stop-color="#E9EAED"/>
<stop offset="1" stop-color="#E4E5E9"/>
</linearGradient>
<linearGradient id="paint1_linear_485_13271" x1="202.071" y1="187.168" x2="246.921" y2="187.168" gradientUnits="userSpaceOnUse">
<stop offset="0.2139" stop-color="#F3F4F5"/>
<stop offset="0.7933" stop-color="#E9EAED"/>
<stop offset="1" stop-color="#E4E5E9"/>
</linearGradient>
<linearGradient id="paint2_linear_485_13271" x1="123.658" y1="84.6453" x2="73.2683" y2="34.4211" gradientUnits="userSpaceOnUse">
<stop stop-color="#3385FF"/>
<stop offset="1" stop-color="#7BAEFA"/>
</linearGradient>
<linearGradient id="paint3_linear_485_13271" x1="126.192" y1="75.4642" x2="70.3883" y2="43.3519" gradientUnits="userSpaceOnUse">
<stop offset="0.0747423" stop-color="#1F79FF"/>
<stop offset="0.5464" stop-color="#7BAEFA"/>
<stop offset="1" stop-color="#90BBFB"/>
</linearGradient>
<linearGradient id="paint4_linear_485_13271" x1="119.943" y1="73.9801" x2="69.1697" y2="41.1423" gradientUnits="userSpaceOnUse">
<stop/>
<stop offset="0.4919" stop-color="#21227B"/>
<stop offset="0.8411" stop-color="#3739CB"/>
<stop offset="1" stop-color="#3F42EB"/>
</linearGradient>
<linearGradient id="paint5_linear_485_13271" x1="145.901" y1="79.5844" x2="196.29" y2="29.3602" gradientUnits="userSpaceOnUse">
<stop stop-color="#3385FF"/>
<stop offset="1" stop-color="#7BAEFA"/>
</linearGradient>
<linearGradient id="paint6_linear_485_13271" x1="143.367" y1="70.4023" x2="199.171" y2="38.2899" gradientUnits="userSpaceOnUse">
<stop offset="0.0747423" stop-color="#1F79FF"/>
<stop offset="0.5464" stop-color="#7BAEFA"/>
<stop offset="1" stop-color="#90BBFB"/>
</linearGradient>
<linearGradient id="paint7_linear_485_13271" x1="149.616" y1="68.9185" x2="200.389" y2="36.0807" gradientUnits="userSpaceOnUse">
<stop/>
<stop offset="0.4919" stop-color="#21227B"/>
<stop offset="0.8411" stop-color="#3739CB"/>
<stop offset="1" stop-color="#3F42EB"/>
</linearGradient>
<linearGradient id="paint8_linear_485_13271" x1="161.294" y1="194.85" x2="99.9004" y2="194.85" gradientUnits="userSpaceOnUse">
<stop offset="0.2139" stop-color="#F3F4F5"/>
<stop offset="0.7933" stop-color="#E9EAED"/>
<stop offset="1" stop-color="#E4E5E9"/>
</linearGradient>
<clipPath id="clip0_485_13271">
<rect width="269" height="279.346" fill="white"/>
</clipPath>
</defs>
</svg>
