<svg width="28" height="31" viewBox="0 0 28 31" fill="none" xmlns="http://www.w3.org/2000/svg">
<g id="Left arrow" clip-path="url(#clip0_485_15237)">
<path id="XMLID_28_" d="M26.7273 16.6605L4.34539 16.6605L8.53631 21.1148C9.03335 21.6429 9.03335 22.4994 8.53631 23.0277C8.03935 23.5559 7.23346 23.5559 6.73642 23.0277L0.372781 16.2644C-0.124261 15.7362 -0.124261 14.8797 0.372781 14.3514L6.73642 7.58812C6.98502 7.32399 7.31067 7.19188 7.6364 7.19188C7.96214 7.19188 8.28787 7.32399 8.53631 7.58812C9.03335 8.11629 9.03335 8.97279 8.53631 9.50105L4.34539 13.9552L26.7273 13.9552C27.4302 13.9552 28 14.5608 28 15.3079C28 16.0549 27.4302 16.6605 26.7273 16.6605Z" fill="#2650D8"/>
</g>
<defs>
<clipPath id="clip0_485_15237">
<rect width="28" height="29.7586" fill="white" transform="matrix(1 -9.29136e-08 -8.22564e-08 -1 0 30.1875)"/>
</clipPath>
</defs>
</svg>
