<svg width="26" height="26" viewBox="0 0 26 26" fill="none" xmlns="http://www.w3.org/2000/svg">
<g id="fi_6998782">
<path id="Vector" fill-rule="evenodd" clip-rule="evenodd" d="M15.167 5.10003C13.9848 4.12265 12.3482 4.12265 11.1662 5.10003L5.24143 9.9986C4.70118 10.4453 4.3665 11.151 4.3665 11.9199V19.559C4.3665 20.9532 5.41386 21.967 6.5665 21.967H8.7665V18.3896C8.7665 15.909 10.6741 13.7816 13.1665 13.7816C15.659 13.7816 17.5665 15.909 17.5665 18.3896V21.967H19.7665C20.9192 21.967 21.9665 20.9532 21.9665 19.559V11.9199C21.9665 11.151 21.6319 10.4453 21.0916 9.99861L15.167 5.10003ZM16.5688 3.40452L22.4934 8.30309C23.5608 9.18564 24.1665 10.5237 24.1665 11.9199V19.559C24.1665 22.0396 22.259 24.167 19.7665 24.167H17.5665C16.3514 24.167 15.3665 23.1821 15.3665 21.967V18.3896C15.3665 16.9953 14.3192 15.9816 13.1665 15.9816C12.0138 15.9816 10.9665 16.9953 10.9665 18.3896V21.967C10.9665 23.1821 9.98153 24.167 8.7665 24.167H6.5665C4.07407 24.167 2.1665 22.0396 2.1665 19.559V11.9199C2.1665 10.5237 2.77215 9.18564 3.83957 8.30309L9.76424 3.40452C11.7599 1.75448 14.5731 1.75448 16.5688 3.40452Z" fill="black"/>
</g>
</svg>
