<svg width="23" height="23" viewBox="0 0 23 23" fill="none" xmlns="http://www.w3.org/2000/svg">
<g id="fi_2152657" clip-path="url(#clip0_947_5576)">
<path id="Vector" d="M18.2085 0.958008H4.79183C3.77517 0.958008 2.80014 1.36188 2.08125 2.08077C1.36236 2.79965 0.958496 3.77468 0.958496 4.79134V11.4997C0.958496 11.7538 1.05946 11.9976 1.23919 12.1773C1.41891 12.357 1.66266 12.458 1.91683 12.458H6.7085V21.083C6.70804 21.2663 6.76017 21.4459 6.85868 21.6005C6.9572 21.755 7.09798 21.8781 7.26433 21.9551C7.43107 22.0318 7.61634 22.0591 7.79812 22.0336C7.9799 22.0081 8.15054 21.931 8.28975 21.8113L11.021 19.473L13.7522 21.8113C13.9258 21.9598 14.1467 22.0414 14.3752 22.0414C14.6036 22.0414 14.8245 21.9598 14.9981 21.8113L17.7293 19.473L20.4606 21.8113C20.6342 21.9598 20.8551 22.0414 21.0835 22.0413C21.2221 22.0404 21.3591 22.011 21.486 21.9551C21.6523 21.8781 21.7931 21.755 21.8916 21.6005C21.9902 21.4459 22.0423 21.2663 22.0418 21.083V4.79134C22.0418 3.77468 21.638 2.79965 20.9191 2.08077C20.2002 1.36188 19.2252 0.958008 18.2085 0.958008ZM2.87516 10.5413V4.79134C2.87516 4.28301 3.0771 3.7955 3.43654 3.43605C3.79599 3.07661 4.2835 2.87467 4.79183 2.87467C5.30016 2.87467 5.78767 3.07661 6.14712 3.43605C6.50656 3.7955 6.7085 4.28301 6.7085 4.79134V10.5413H2.87516ZM20.1252 19.0034L18.3522 17.4797C18.1787 17.3312 17.9578 17.2496 17.7293 17.2496C17.5009 17.2496 17.28 17.3312 17.1064 17.4797L14.3752 19.818L11.6439 17.4797C11.4703 17.3312 11.2494 17.2496 11.021 17.2496C10.7926 17.2496 10.5717 17.3312 10.3981 17.4797L8.62516 19.0034V4.79134C8.62397 4.11809 8.44548 3.45703 8.10766 2.87467H18.2085C18.7168 2.87467 19.2043 3.07661 19.5638 3.43605C19.9232 3.7955 20.1252 4.28301 20.1252 4.79134V19.0034ZM18.2085 5.74967C18.2085 6.00384 18.1075 6.2476 17.9278 6.42732C17.7481 6.60704 17.5043 6.70801 17.2502 6.70801H11.5002C11.246 6.70801 11.0022 6.60704 10.8225 6.42732C10.6428 6.2476 10.5418 6.00384 10.5418 5.74967C10.5418 5.49551 10.6428 5.25175 10.8225 5.07203C11.0022 4.89231 11.246 4.79134 11.5002 4.79134H17.2502C17.5043 4.79134 17.7481 4.89231 17.9278 5.07203C18.1075 5.25175 18.2085 5.49551 18.2085 5.74967ZM18.2085 9.58301C18.2085 9.83717 18.1075 10.0809 17.9278 10.2607C17.7481 10.4404 17.5043 10.5413 17.2502 10.5413H11.5002C11.246 10.5413 11.0022 10.4404 10.8225 10.2607C10.6428 10.0809 10.5418 9.83717 10.5418 9.58301C10.5418 9.32884 10.6428 9.08509 10.8225 8.90536C11.0022 8.72564 11.246 8.62467 11.5002 8.62467H17.2502C17.5043 8.62467 17.7481 8.72564 17.9278 8.90536C18.1075 9.08509 18.2085 9.32884 18.2085 9.58301ZM18.2085 13.4163C18.2085 13.6705 18.1075 13.9143 17.9278 14.094C17.7481 14.2737 17.5043 14.3747 17.2502 14.3747H11.5002C11.246 14.3747 11.0022 14.2737 10.8225 14.094C10.6428 13.9143 10.5418 13.6705 10.5418 13.4163C10.5418 13.1622 10.6428 12.9184 10.8225 12.7387C11.0022 12.559 11.246 12.458 11.5002 12.458H17.2502C17.5043 12.458 17.7481 12.559 17.9278 12.7387C18.1075 12.9184 18.2085 13.1622 18.2085 13.4163Z" fill="black"/>
</g>
<defs>
<clipPath id="clip0_947_5576">
<rect width="23" height="23" fill="white"/>
</clipPath>
</defs>
</svg>
