<svg width="28" height="28" viewBox="0 0 28 28" fill="none" xmlns="http://www.w3.org/2000/svg">
<g id="fi_15603556">
<g id="Layer 2">
<path id="Vector" d="M13.9998 13.7083C15.0959 13.7083 16.1673 13.3833 17.0786 12.7744C17.99 12.1655 18.7002 11.3 19.1197 10.2874C19.5391 9.27477 19.6489 8.16052 19.435 7.08554C19.2212 6.01057 18.6934 5.02313 17.9184 4.24812C17.1434 3.4731 16.156 2.94531 15.081 2.73148C14.006 2.51766 12.8918 2.6274 11.8791 3.04684C10.8665 3.46627 10.001 4.17656 9.39212 5.08788C8.7832 5.99921 8.45818 7.07063 8.45818 8.16667C8.46003 9.63584 9.04448 11.0443 10.0833 12.0832C11.1222 13.122 12.5307 13.7065 13.9998 13.7083ZM13.9998 4.375C14.7498 4.375 15.4829 4.59738 16.1064 5.01401C16.7299 5.43065 17.2159 6.02282 17.5029 6.71566C17.7899 7.4085 17.865 8.17088 17.7187 8.90639C17.5724 9.6419 17.2112 10.3175 16.681 10.8478C16.1507 11.3781 15.4751 11.7392 14.7396 11.8855C14.0041 12.0318 13.2417 11.9567 12.5488 11.6697C11.856 11.3827 11.2638 10.8967 10.8472 10.2732C10.4306 9.64967 10.2082 8.91659 10.2082 8.16667C10.2094 7.16144 10.6093 6.19773 11.3201 5.48692C12.0309 4.77611 12.9946 4.37624 13.9998 4.375ZM23.878 20.2067L23.7275 19.866C23.2153 18.5871 22.3381 17.4873 21.2052 16.7035C20.0722 15.9197 18.7337 15.4867 17.3563 15.4583H10.6515C9.27444 15.4865 7.93611 15.9194 6.80337 16.7029C5.67062 17.4865 4.79356 18.5862 4.28152 19.8648L4.11935 20.2288C3.8638 20.8128 3.75608 21.4507 3.80573 22.0862C3.85538 22.7217 4.06087 23.3352 4.40402 23.8723C4.68642 24.3286 5.07997 24.7058 5.54783 24.9686C6.01569 25.2314 6.54258 25.3713 7.07918 25.375H20.9077C21.4459 25.3713 21.9744 25.231 22.4437 24.9674C22.913 24.7038 23.3078 24.3254 23.591 23.8677C23.936 23.328 24.1426 22.7116 24.1927 22.0731C24.2427 21.4345 24.1347 20.7935 23.878 20.2067ZM22.128 22.9122C22.0013 23.1238 21.8233 23.3001 21.6104 23.4247C21.3975 23.5493 21.1566 23.6182 20.91 23.625H7.07918C6.83437 23.6183 6.59522 23.5499 6.38392 23.4261C6.17262 23.3023 5.99602 23.1271 5.87052 22.9168C5.68347 22.6244 5.57182 22.2902 5.54556 21.9441C5.5193 21.598 5.57924 21.2508 5.72002 20.9335L5.88218 20.5695C6.26034 19.6035 6.91399 18.77 7.76191 18.1724C8.60983 17.5749 9.61465 17.2396 10.6515 17.2083H17.3563C18.3936 17.2399 19.3987 17.5757 20.2467 18.1739C21.0947 18.7721 21.7481 19.6064 22.1257 20.573L22.2762 20.9137C22.4174 21.2335 22.4775 21.5832 22.4512 21.9318C22.425 22.2804 22.3132 22.6171 22.1257 22.9122H22.128Z" fill="black"/>
</g>
</g>
</svg>
