<svg width="12" height="11" viewBox="0 0 12 11" fill="none" xmlns="http://www.w3.org/2000/svg">
<g id="Group">
<path id="Vector" d="M10.5283 0H9.44608V1.08224C9.44608 1.29869 9.2657 1.44299 9.08533 1.44299C8.90496 1.44299 8.72458 1.29869 8.72458 1.08224V0H2.95262V1.08224C2.95262 1.29869 2.77225 1.44299 2.59187 1.44299C2.4115 1.44299 2.23112 1.29869 2.23112 1.08224V0H1.14888C0.60776 0 0.210938 0.468972 0.210938 1.08224V2.38093H11.7549V1.08224C11.7549 0.468972 11.1055 0 10.5283 0ZM0.210938 3.1385V9.74019C0.210938 10.3895 0.60776 10.8224 1.18496 10.8224H10.5644C11.1416 10.8224 11.7909 10.3535 11.7909 9.74019V3.1385H0.210938ZM3.42159 9.19907H2.5558C2.4115 9.19907 2.2672 9.09084 2.2672 8.91047V8.0086C2.2672 7.8643 2.37542 7.72 2.5558 7.72H3.45767C3.60197 7.72 3.74626 7.82822 3.74626 8.0086V8.91047C3.71019 9.09084 3.60197 9.19907 3.42159 9.19907ZM3.42159 5.95234H2.5558C2.4115 5.95234 2.2672 5.84411 2.2672 5.66374V4.76187C2.2672 4.61757 2.37542 4.47327 2.5558 4.47327H3.45767C3.60197 4.47327 3.74626 4.5815 3.74626 4.76187V5.66374C3.71019 5.84411 3.60197 5.95234 3.42159 5.95234ZM6.30757 9.19907H5.4057C5.2614 9.19907 5.11711 9.09084 5.11711 8.91047V8.0086C5.11711 7.8643 5.22533 7.72 5.4057 7.72H6.30757C6.45187 7.72 6.59617 7.82822 6.59617 8.0086V8.91047C6.59617 9.09084 6.48795 9.19907 6.30757 9.19907ZM6.30757 5.95234H5.4057C5.2614 5.95234 5.11711 5.84411 5.11711 5.66374V4.76187C5.11711 4.61757 5.22533 4.47327 5.4057 4.47327H6.30757C6.45187 4.47327 6.59617 4.5815 6.59617 4.76187V5.66374C6.59617 5.84411 6.48795 5.95234 6.30757 5.95234ZM9.19355 9.19907H8.29169C8.14739 9.19907 8.00309 9.09084 8.00309 8.91047V8.0086C8.00309 7.8643 8.11131 7.72 8.29169 7.72H9.19355C9.33785 7.72 9.48215 7.82822 9.48215 8.0086V8.91047C9.48215 9.09084 9.37393 9.19907 9.19355 9.19907ZM9.19355 5.95234H8.29169C8.14739 5.95234 8.00309 5.84411 8.00309 5.66374V4.76187C8.00309 4.61757 8.11131 4.47327 8.29169 4.47327H9.19355C9.33785 4.47327 9.48215 4.5815 9.48215 4.76187V5.66374C9.48215 5.84411 9.37393 5.95234 9.19355 5.95234Z" fill="#575757"/>
</g>
</svg>
