<svg width="19" height="19" viewBox="0 0 19 19" fill="none" xmlns="http://www.w3.org/2000/svg">
<g id="pin 1" clip-path="url(#clip0_1880_7262)">
<g id="Pin">
<path id="Vector" d="M9.5 0C7.6111 0.00250567 5.80029 0.753978 4.46463 2.08963C3.12898 3.42529 2.37751 5.2361 2.375 7.125C2.375 12.2402 9.01312 18.6467 9.29516 18.9169C9.35001 18.9702 9.4235 19 9.5 19C9.5765 19 9.64999 18.9702 9.70484 18.9169C9.98687 18.6467 16.625 12.2402 16.625 7.125C16.6225 5.2361 15.871 3.42529 14.5354 2.08963C13.1997 0.753978 11.3889 0.00250567 9.5 0ZM9.5 10.3906C8.85412 10.3906 8.22274 10.1991 7.68572 9.84027C7.14869 9.48144 6.73012 8.97142 6.48296 8.3747C6.23579 7.77799 6.17112 7.12138 6.29712 6.48791C6.42313 5.85444 6.73415 5.27256 7.19085 4.81585C7.64756 4.35915 8.22944 4.04813 8.86291 3.92212C9.49638 3.79612 10.153 3.86079 10.7497 4.10796C11.3464 4.35512 11.8564 4.77369 12.2153 5.31072C12.5741 5.84775 12.7656 6.47912 12.7656 7.125C12.7651 7.99094 12.4209 8.82126 11.8086 9.43357C11.1963 10.0459 10.3659 10.3901 9.5 10.3906Z" fill="#2650D8"/>
</g>
</g>
<defs>
<clipPath id="clip0_1880_7262">
<rect width="19" height="19" fill="white"/>
</clipPath>
</defs>
</svg>
