<svg width="33" height="33" viewBox="0 0 33 33" fill="none" xmlns="http://www.w3.org/2000/svg">
<circle cx="16.5" cy="16.5" r="16.0619" stroke="#2650D8" stroke-width="0.876145"/>
<path d="M14.5615 22.3686L23.8134 13.1167L22.3631 11.6665L14.5615 19.4682L10.6394 15.5462L9.18922 16.9964L14.5615 22.3686ZM16.5168 29.5881C14.7087 29.5881 13.0091 29.245 11.4181 28.5587C9.82703 27.8725 8.44306 26.9412 7.26616 25.7648C6.08923 24.5884 5.1575 23.2051 4.47097 21.6148C3.78443 20.0245 3.44116 18.3252 3.44116 16.5171C3.44116 14.7089 3.78428 13.0093 4.47052 11.4183C5.15676 9.82727 6.08806 8.44331 7.26444 7.26641C8.44084 6.08948 9.8242 5.15775 11.4145 4.47121C13.0048 3.78468 14.704 3.44141 16.5122 3.44141C18.3204 3.44141 20.02 3.78453 21.611 4.47076C23.202 5.157 24.586 6.08831 25.7629 7.26468C26.9398 8.44108 27.8715 9.82444 28.5581 11.4148C29.2446 13.0051 29.5879 14.7043 29.5879 16.5125C29.5879 18.3206 29.2447 20.0202 28.5585 21.6112C27.8723 23.2022 26.941 24.5862 25.7646 25.7631C24.5882 26.94 23.2048 27.8718 21.6145 28.5583C20.0242 29.2448 18.325 29.5881 16.5168 29.5881Z" fill="#2650D8"/>
</svg>
