<svg width="47" height="30" viewBox="0 0 47 30" fill="none" xmlns="http://www.w3.org/2000/svg">
<g id="Group 33827">
<g id="Group 1065">
<circle id="Ellipse 264" cx="15.0002" cy="15.0006" r="12" transform="rotate(-9.40903 15.0002 15.0006)" stroke="#D7D7D7" stroke-width="2"/>
<path id="Vector 250" d="M7.51267 12.6341L7.43093 12.1409C9.34882 10.9173 13.5216 17.2346 14.985 21.0251C15.5104 21.749 16.1226 24.8318 15.9715 20.8616C15.9032 19.0664 16.3466 17.024 17 15.1756C17.7915 12.9363 18.8913 10.9818 19.7627 10.097C20.5136 8.51154 17.6524 10.6157 16.9665 11.574C15.715 13.8087 15.2387 13.3808 15.1569 12.8875C14.503 8.94135 18.78 6.20555 21.0002 5.33092C24.421 3.95315 25.0563 4.3209 24.9464 4.677C23.7625 4.87318 23.5192 7.27866 23.5455 8.45687C23.1463 13.3885 20.6356 14.3451 19.4301 14.207C18.5755 13.9432 18.1965 14.9183 18.1138 15.4388C18.0292 17.9869 17.8764 23.1818 17.9418 23.5764C17.7434 24.8256 16.7072 25.3014 16.214 25.3832C15.0301 25.5793 14.6252 24.9707 14.5707 24.6418C13.1298 18.3933 9.26496 14.0332 7.51267 12.6341Z" fill="#D7D7D7"/>
</g>
<g id="Group 1068">
<g id="Group 1066">
<path id="Vector 252" d="M24.3925 20.024C24.5767 20.253 24.7377 21.3215 26.2411 21.7562L23.3497 24.468C24.5108 25.4935 23.9006 26.5445 23.4503 26.9417C22.0095 28.213 20.9357 27.2384 20.5789 26.5921C18.1846 26.7827 18.0381 25.0435 18.2642 24.1501C18.6117 22.9466 20.1394 23.1896 20.8598 23.4615L24.3925 20.024Z" fill="#EFEFEF"/>
<path id="Vector 253" d="M21.1473 23.6625L20.8189 23.4718L24.3522 20.0341L24.4899 20.5532L21.1473 23.6625Z" fill="#D6D6D6"/>
<path id="Vector 254" d="M18.7296 26.2604C19.5136 26.8653 20.4313 26.5504 20.5754 26.5864C19.64 26.4187 19.1661 26.2797 18.6727 25.702C18.1894 24.6224 18.8193 23.8109 19.229 23.6096C19.5892 23.2918 20.6821 23.502 21.1836 23.6468C20.6761 23.3418 20.0078 23.2271 19.5952 23.2522C17.6593 23.2453 18.0432 25.7591 18.7296 26.2604Z" fill="#D6D6D6"/>
<path id="Vector 255" d="M20.6662 27.193C21.4501 27.7979 22.3678 27.483 22.5119 27.519C21.5765 27.3513 21.1026 27.2124 20.6092 26.6346C20.1259 25.555 20.7558 24.7435 21.1655 24.5423C21.5257 24.2244 22.6187 24.4346 23.1201 24.5794C22.6126 24.2744 21.9443 24.1597 21.5317 24.1849C19.5958 24.178 19.9798 26.6918 20.6662 27.193Z" fill="#D6D6D6"/>
</g>
<path id="Vector 252_2" d="M24.8017 16.5828C23.1532 17.9091 23.8464 19.6145 24.399 20.3013C24.5832 20.5303 24.7442 21.5989 26.2477 22.0335C26.9379 22.9617 28.9229 22.3426 29.8291 21.917C30.4394 20.866 32.679 20.7906 33.7225 20.8842C39.5922 19.5494 41.9987 15.077 42.4683 13.0077C43.9052 4.1806 36.9861 3.16367 33.347 3.75859C26.7022 5.52125 25.3693 10.6905 25.5334 13.0548C26.2368 14.8685 25.3387 16.1625 24.8017 16.5828Z" fill="#D7D7D7" stroke="#D7D7D7"/>
<path id="Vector 256" d="M30.2209 20.1458C30.8566 20.8662 30.1149 21.8408 29.6647 22.2381C32.7634 20.3044 32.7794 21.4119 33.2985 21.2742C42.918 18.7403 43.5921 11.8945 42.6908 8.50354C42.4745 15.2287 37.8012 17.3016 35.3963 17.6616C32.9342 16.7589 30.9202 18.9416 30.2209 20.1458Z" fill="#CCCCCC"/>
<ellipse id="Ellipse 265" cx="32.3797" cy="7.28461" rx="3.22246" ry="2.14728" transform="rotate(-35.9113 32.3797 7.28461)" fill="#EAEAEA"/>
</g>
</g>
</svg>
