<svg width="69" height="42" viewBox="0 0 69 42" fill="none" xmlns="http://www.w3.org/2000/svg">
<g clip-path="url(#clip0_485_15321)">
<mask id="mask0_485_15321" style="mask-type:luminance" maskUnits="userSpaceOnUse" x="28" y="2" width="41" height="40">
<path d="M55.7529 40.0369L67.0368 14.4043L41.4042 3.12042L30.1203 28.753L55.7529 40.0369Z" fill="white" stroke="white" stroke-width="1.7"/>
</mask>
<g mask="url(#mask0_485_15321)">
<path d="M56.8947 24.2889C57.5971 22.6932 57.2541 20.911 56.1788 19.6789C56.8541 19.3257 57.4487 18.7103 57.7795 17.9587C58.5542 16.1991 57.7556 14.1446 55.996 13.37C56.7706 11.6103 55.9721 9.55585 54.2124 8.78122C52.4528 8.00658 50.3983 8.80511 49.6237 10.5648C47.864 9.79013 45.8096 10.5887 45.0349 12.3483C44.7041 13.0999 44.6517 13.954 44.8472 14.6905C43.2124 14.7296 41.6664 15.6802 40.9639 17.2759C40.3875 18.5853 40.5208 20.019 41.1769 21.1744C38.8649 27.0628 39.5793 32.8951 42.9449 34.3766C46.3104 35.8582 51.0943 32.4464 53.8756 26.7646C55.1708 26.4682 56.3182 25.5983 56.8947 24.2889Z" stroke="#424242" stroke-width="1.7" stroke-miterlimit="10"/>
<path d="M43.7993 19.4757L46.4747 26.3588L53.3578 23.6835" stroke="#424242" stroke-width="1.7" stroke-miterlimit="10"/>
<path d="M46.7951 16.9906L48.5786 21.5794L53.1674 19.7958" stroke="#424242" stroke-width="1.7" stroke-miterlimit="10"/>
<path d="M49.8142 14.4525L50.6826 16.7999L53.0003 15.8551" stroke="#424242" stroke-width="1.7" stroke-miterlimit="10"/>
<path d="M50.6826 16.7999L42.9448 34.377" stroke="#424242" stroke-width="1.7" stroke-miterlimit="10"/>
<path d="M49.6885 10.4261C49.2314 10.1539 48.7049 9.98279 48.1377 9.94554C48.2638 8.0271 46.8108 6.3696 44.8923 6.24354C42.9739 6.11745 41.2633 7.54711 41.1372 9.46557C39.2188 9.33953 37.5379 10.8457 37.4118 12.7641C37.3579 13.5836 37.6047 14.3461 38.0403 14.9714C36.5175 15.5672 35.3898 16.9892 35.2755 18.729C35.1817 20.1566 35.7973 21.4582 36.809 22.3196C36.6606 28.2324 39.0147 33.2201 42.3166 34.0309" stroke="#424242" stroke-width="1.7" stroke-miterlimit="10"/>
<path d="M56.0546 13.2289C56.564 13.3822 57.0457 13.6549 57.4563 14.048C58.786 12.6594 60.9897 12.6117 62.3783 13.9415C63.7669 15.2712 63.8677 17.4983 62.5379 18.8869C63.9265 20.2166 63.9508 22.4734 62.6211 23.862C62.0531 24.4552 61.3241 24.7882 60.5687 24.8891C61.1578 26.4146 60.8706 28.2067 59.6647 29.4659C58.6751 30.4992 57.2463 30.9008 55.9279 30.7364C51.6673 34.8389 46.4521 36.4944 43.6242 34.6068" stroke="#424242" stroke-width="1.7" stroke-miterlimit="10"/>
</g>
</g>
<g clip-path="url(#clip1_485_15321)">
<path d="M37.2578 25.3376H35.7696C35.5339 24.7247 35.5242 24.4746 35.5636 23.6105C35.591 23.0095 35.6221 22.3283 35.388 21.685C34.9925 20.5981 34.0061 19.9562 33.5854 19.2284C33.1648 18.5024 33.0874 17.3126 32.356 16.4414C31.5764 15.5141 30.3756 15.285 29.7154 14.6514C29.8213 14.294 29.9624 13.9459 30.1408 13.613C30.701 12.5684 30.7288 11.349 30.2348 10.2824L31.7163 7.51787C33.0908 8.04823 34.6918 7.4873 35.4109 6.14515C36.1864 4.69791 35.64 2.88953 34.1927 2.11395C33.5864 1.7891 32.8988 1.68809 32.2415 1.81085C31.9797 1.19551 31.5148 0.678959 30.9085 0.354035C29.4589 -0.422874 27.6549 0.12114 26.8774 1.57224C26.1609 2.90934 26.5728 4.55467 27.7806 5.40876L26.2989 8.17373C25.1493 8.34844 24.1375 9.05136 23.5782 10.0955C23.4379 10.3585 23.2721 10.614 23.0836 10.8593C22.0006 10.2847 21.2786 10.3769 20.1117 10.6379C19.0843 10.8677 18.9176 10.868 17.8888 10.6379C17.276 10.5008 16.6426 10.3591 15.9737 10.4766C14.8411 10.6743 14.0124 11.5407 13.2392 11.8218C12.7734 11.9914 12.1712 12.0166 11.5557 12.124L7.96371 8.53258C8.87287 7.36543 8.79123 5.67157 7.71879 4.59898C7.15615 4.03641 6.40833 3.72655 5.61302 3.72655C4.06217 3.72655 2.8145 4.90134 2.65278 6.37879C1.98809 6.45152 1.35902 6.74713 0.873046 7.23325C-0.291054 8.3972 -0.291277 10.2805 0.872972 11.4447C1.95246 12.5242 3.64507 12.5972 4.80672 11.6899L7.99963 14.8833C7.33115 15.3455 6.31385 15.6451 5.64404 16.4418C4.91211 17.3138 4.83693 18.5 4.41507 19.2285C3.99864 19.948 3.00479 20.6066 2.61248 21.6849C2.3784 22.3282 2.4095 23.0094 2.43688 23.6104C2.47481 24.4412 2.47288 24.708 2.23093 25.3375H0.742795C0.332966 25.3375 0.000620146 25.6698 0.000620146 26.0797C0.000620146 30.1871 3.34219 33.5286 7.4496 33.5286H7.82529V35.0221C7.82529 36.664 9.16113 37.9999 10.803 37.9999H27.1975C28.8394 37.9999 30.1753 36.664 30.1753 35.0221V33.5286H30.5509C34.6583 33.5286 37.9999 30.1871 37.9999 26.0797C37.9999 25.67 37.6676 25.3376 37.2578 25.3376ZM28.1857 2.27352C28.5752 1.54656 29.4799 1.2724 30.2074 1.66256C30.6492 1.89924 30.9414 2.33943 30.9888 2.83995C31.0389 3.36674 31.6107 3.67475 32.0785 3.42382C32.5217 3.18617 33.0499 3.18565 33.4916 3.42241C34.2175 3.81131 34.4916 4.71832 34.1026 5.44409C33.6673 6.25647 32.6001 6.48506 31.8729 5.91945C31.5092 5.63617 30.9795 5.75024 30.7628 6.15443L29.2421 8.99228C28.8515 8.66847 28.4109 8.4335 27.922 8.28766L29.4439 5.44765C29.6608 5.04287 29.4612 4.53864 29.0245 4.39302C28.1597 4.10461 27.745 3.09592 28.1857 2.27352ZM24.8865 10.7976C25.2804 10.0623 26.0394 9.61518 26.8622 9.61518C27.6277 9.61518 28.3639 10.0157 28.7727 10.6904C28.7727 10.6904 28.7728 10.6904 28.7728 10.6905C29.17 11.3462 29.2223 12.1849 28.8325 12.9119C27.9969 14.4719 27.7821 16.2856 28.2277 18.0189C28.3536 18.5085 28.4116 19.0126 28.4027 19.5145C27.9418 18.9482 27.4832 18.2024 26.7262 17.7646C25.7443 17.1969 24.5605 17.327 23.7676 17.0382C22.993 16.7566 22.167 15.8909 21.0343 15.6932C20.0768 15.5247 19.1838 15.8892 18.3797 15.9987C19.0416 15.1375 19.9431 14.4838 20.9823 14.1246C22.6612 13.5438 24.0478 12.3623 24.8865 10.7976ZM4.19702 10.2018C3.64707 10.9708 2.56617 11.0387 1.92256 10.3953C1.33876 9.81149 1.33846 8.86707 1.92263 8.28306C2.27672 7.92889 2.78259 7.7766 3.27554 7.87553C3.79402 7.97995 4.25372 7.52188 4.14937 7.00177C3.9622 6.07041 4.67342 5.21112 5.61302 5.21112C6.01186 5.21112 6.38696 5.36653 6.66913 5.64871C7.30658 6.28624 7.24959 7.36885 6.47557 7.92318C6.10374 8.18962 6.05862 8.7271 6.38302 9.05136L10.0385 12.7061C9.61571 13.0111 9.29042 13.4101 9.00149 13.7862L5.3252 10.1093C5.00213 9.78603 4.46428 9.82878 4.19702 10.2018ZM3.91982 23.543C3.89666 23.0359 3.87484 22.5571 4.00755 22.1925C4.26493 21.4853 5.18077 20.8693 5.69985 19.9722C6.21789 19.0777 6.30628 17.962 6.78061 17.3967C7.26042 16.8262 8.33346 16.5569 9.13115 15.8868C9.92735 15.2184 10.3764 14.2078 11.0239 13.8334C11.6635 13.4637 12.7649 13.5745 13.7469 13.2169C14.7254 12.861 15.4799 12.0698 16.2298 11.9388C16.9491 11.8124 17.9416 12.295 19.0003 12.295C20.0534 12.295 21.0546 11.8127 21.7712 11.9389C21.8242 11.9481 21.8775 11.9618 21.9308 11.9775C21.4958 12.2907 21.0145 12.5429 20.4972 12.7219C18.9057 13.2718 17.5699 14.3679 16.7174 15.8149C16.1599 15.6924 15.5842 15.5867 14.9796 15.6933C14.576 15.7642 14.3062 16.149 14.3771 16.5527C14.448 16.9563 14.8332 17.2261 15.2365 17.1552C15.9469 17.0299 16.9592 17.5114 18.0069 17.5114C19.0628 17.5114 20.0581 17.0294 20.7781 17.1553C21.5238 17.2855 22.2893 18.0801 23.26 18.4332C24.2418 18.7907 25.3448 18.6806 25.9831 19.0498C26.6311 19.4244 27.0791 20.4342 27.8759 21.1031C28.675 21.7743 29.7463 22.0419 30.2265 22.6132C30.4903 22.9269 30.9585 22.9674 31.2722 22.7037C31.5859 22.4399 31.6264 21.9717 31.3627 21.6579C30.9238 21.136 30.3271 20.8228 29.7965 20.5479C29.9523 19.5883 29.9089 18.5973 29.6653 17.6494C29.5517 17.2078 29.493 16.7597 29.4865 16.3141C30.148 16.7021 30.857 16.9652 31.2194 17.3963C31.6966 17.9648 31.7777 19.0692 32.3004 19.9718C32.8188 20.8686 33.7362 21.4866 33.993 22.1925C34.2715 22.9579 33.8696 24.1297 34.2048 25.3377H3.79565C3.96747 24.7184 3.94958 24.1956 3.91982 23.543ZM28.6909 35.0223C28.6909 35.8459 28.021 36.5157 27.1975 36.5157H10.803C9.97953 36.5157 9.30964 35.8459 9.30964 35.0223V33.5289H28.6909V35.0223ZM30.551 32.0445C29.2527 32.0445 8.77802 32.0445 7.4496 32.0445C4.41196 32.0445 1.8974 29.762 1.53091 26.8221H36.4697C36.1031 29.762 33.5885 32.0445 30.551 32.0445Z" fill="#424242"/>
<path d="M11.8395 19.7864C11.6562 19.4198 11.2102 19.2712 10.8437 19.4545C10.4772 19.6378 10.3286 20.0836 10.5118 20.4503L11.2571 21.9407C11.4404 22.3074 11.8864 22.4558 12.2529 22.2726C12.6194 22.0893 12.768 21.6434 12.5848 21.2768L11.8395 19.7864Z" fill="#424242"/>
<path d="M22.4373 20.9447C22.0706 20.7614 21.6248 20.91 21.4416 21.2767L20.6963 22.7672C20.513 23.1337 20.6616 23.5796 21.0283 23.7629C21.3949 23.9462 21.8408 23.7976 22.024 23.4309L22.7693 21.9405C22.9525 21.5739 22.8039 21.1281 22.4373 20.9447Z" fill="#424242"/>
<path d="M16.6401 20.8721C16.2307 20.8721 15.8979 21.2052 15.8979 21.615C15.8979 22.031 16.2382 22.3564 16.6401 22.3564C17.0473 22.3564 17.3823 22.0254 17.3823 21.615C17.3823 21.2057 17.0499 20.8721 16.6401 20.8721Z" fill="#424242"/>
<path d="M26.8251 22.4316C26.4074 22.4316 26.0829 22.7721 26.0829 23.1731C26.0829 23.5812 26.4145 23.916 26.8251 23.916C27.2344 23.916 27.5673 23.5829 27.5673 23.1731C27.5673 22.7656 27.2366 22.4316 26.8251 22.4316Z" fill="#424242"/>
</g>
<defs>
<clipPath id="clip0_485_15321">
<rect width="29.7064" height="29.7064" fill="white" transform="translate(40.9688 2) rotate(23.76)"/>
</clipPath>
<clipPath id="clip1_485_15321">
<rect width="38" height="38" fill="white"/>
</clipPath>
</defs>
</svg>
