<svg width="45" height="30" viewBox="0 0 45 30" fill="none" xmlns="http://www.w3.org/2000/svg">
<g id="Group 33830">
<g id="Group 1066">
<circle id="Ellipse 264" cx="13" cy="16" r="12" stroke="#1DC47A" stroke-width="2"/>
<path id="Vector 250" d="M6 12.4417V11.9417C8.09213 11.0481 11.176 17.9627 12 21.9414C12.4 22.7414 12.5 25.8828 13 21.9414C13.2261 20.1592 13.9974 18.2167 14.9442 16.5C16.0912 14.4202 17.4957 12.6718 18.5 11.9414C19.5 10.5 16.3333 12.1081 15.5 12.9414C13.9 14.9414 13.5 14.4414 13.5 13.9414C13.5 9.94141 18.1667 7.94162 20.5 7.44172C24.1 6.64172 24.6667 7.10839 24.5 7.44172C23.3 7.44172 22.6667 9.77505 22.5 10.9417C21.3 15.7417 18.6667 16.2751 17.5 15.9417C16.7 15.5417 16.1667 16.4417 16 16.9417C15.5 19.4417 14.5 24.5417 14.5 24.9417C14.1 26.1417 13 26.4417 12.5 26.4417C11.3 26.4417 11 25.7751 11 25.4417C10.6 19.0417 7.5 14.1084 6 12.4417Z" fill="#1DC47A"/>
</g>
<g id="Group 1067">
<g id="Group 1066_2">
<path id="Vector 252" d="M22.8486 20.4996C23.0523 20.7114 23.3069 21.7617 24.8428 22.0621L22.2018 25.0183C23.4488 25.9374 22.9336 27.0381 22.5201 27.4735C21.197 28.8669 20.0415 27.9907 19.6291 27.3785C17.2609 27.7795 16.9616 26.0599 17.108 25.1501C17.3481 23.9206 18.8912 24.028 19.6328 24.2353L22.8486 20.4996Z" fill="#FEC377"/>
<path id="Vector 253" d="M19.9368 24.4108L19.5928 24.2498L22.8092 20.5139L22.9921 21.0189L19.9368 24.4108Z" fill="#FEDAA9"/>
<path id="Vector 254" d="M17.7577 27.2104C18.592 27.7438 19.4784 27.3492 19.625 27.3724C18.6785 27.2878 18.1942 27.1912 17.6518 26.6592C17.0752 25.6264 17.6311 24.7626 18.0214 24.5259C18.3522 24.1776 19.4594 24.2905 19.9717 24.3906C19.4392 24.1315 18.7634 24.0762 18.3547 24.1376C16.4257 24.3015 17.0298 26.7716 17.7577 27.2104Z" fill="#FEDAA9"/>
<path id="Vector 255" d="M19.769 27.9692C20.6032 28.5026 21.4896 28.108 21.6363 28.1311C20.6897 28.0466 20.2054 27.95 19.663 27.418C19.0864 26.3852 19.6423 25.5213 20.0326 25.2847C20.3634 24.9364 21.4706 25.0493 21.9829 25.1494C21.4505 24.8903 20.7746 24.835 20.3659 24.8964C18.4369 25.0603 19.0411 27.5304 19.769 27.9692Z" fill="#FEDAA9"/>
</g>
<path id="Vector 252_2" d="M22.9525 17.0326C21.4274 18.4992 22.2682 20.1367 22.8793 20.7722C23.083 20.984 23.3376 22.0342 24.8735 22.3346C25.6429 23.1984 27.5655 22.4066 28.4307 21.9027C28.9459 20.8021 31.1701 20.5294 32.2178 20.5306C37.947 18.6834 39.9497 14.0162 40.235 11.9135C40.8879 2.99414 33.9061 2.59132 30.3336 3.50484C23.8702 5.84659 22.9983 11.1132 23.3702 13.4538C24.2308 15.1985 23.4503 16.5666 22.9525 17.0326Z" fill="#FF9911" stroke="#FF9911"/>
<path id="Vector 256" d="M28.6651 20.1045C29.3618 20.7661 28.709 21.8023 28.2955 22.2378C31.2117 20.0383 31.3253 21.1401 31.8302 20.9571C41.1888 17.5849 41.2565 10.7063 40.0598 7.40801C40.4374 14.1261 35.9651 16.603 33.6013 17.1736C31.0692 16.4916 29.2555 18.8434 28.6651 20.1045Z" fill="#F18700"/>
<ellipse id="Ellipse 265" cx="29.6813" cy="7.10317" rx="3.22246" ry="2.14728" transform="rotate(-40.9704 29.6813 7.10317)" fill="#FFA834"/>
</g>
</g>
</svg>
