<svg width="24" height="24" viewBox="0 0 24 24" fill="none" xmlns="http://www.w3.org/2000/svg">
<g id="Call">
<g id="Group">
<path id="Vector" d="M15.0851 14.0643L14.8858 14.453C14.6621 14.9003 14.1536 15.1127 13.6764 14.958C10.4653 13.917 7.9267 11.3784 6.88566 8.16727C6.7335 7.69786 6.95067 7.17797 7.39252 6.95705L7.7812 6.7627V1.40625H2.15625V4.92188C2.15625 8.86594 3.69216 12.5739 6.48103 15.3628C9.26986 18.1516 12.9778 19.6875 16.9219 19.6875H17.625V20.3906C17.625 20.7783 17.3096 21.0938 16.9219 21.0938H14.1094C12.9463 21.0938 12 22.04 12 23.2031V24H13.4062V23.2031C13.4062 22.8154 13.7217 22.5 14.1094 22.5H16.9219C18.085 22.5 19.0312 21.5537 19.0312 20.3906V19.6875H20.4375V14.0625C20.357 14.0625 21.1982 14.0623 15.0851 14.0643ZM15.9033 15.4688H19.0312V18.2812H16.9219C9.55551 18.2812 3.5625 12.2882 3.5625 4.92188V2.8125H6.375V5.94202C6.04289 6.19641 5.78034 6.53494 5.61698 6.92587C5.39475 7.45777 5.37019 8.05266 5.54798 8.60095C6.72759 12.2396 9.60417 15.1161 13.2427 16.2958C14.2388 16.6187 15.293 16.2731 15.9033 15.4688Z" fill="white"/>
<path id="Vector_2" d="M15.5156 12.6562C19.005 12.6562 21.8438 9.81745 21.8438 6.32812C21.8438 2.8388 19.005 0 15.5156 0C12.0263 0 9.1875 2.8388 9.1875 6.32812C9.1875 9.81745 12.0263 12.6562 15.5156 12.6562ZM13.4062 10.7745V10.5469C13.4062 9.38377 14.3525 8.4375 15.5156 8.4375C16.6787 8.4375 17.625 9.38377 17.625 10.5469V10.7745C16.9853 11.0791 16.2701 11.25 15.5156 11.25C14.7612 11.25 14.0459 11.0791 13.4062 10.7745ZM15.5156 1.40625C18.2295 1.40625 20.4375 3.6142 20.4375 6.32812C20.4375 7.70231 19.8712 8.94656 18.9599 9.84037C18.632 8.23927 17.2122 7.03125 15.5156 7.03125C13.819 7.03125 12.3993 8.23927 12.0713 9.84037C11.1601 8.94656 10.5938 7.70231 10.5938 6.32812C10.5938 3.6142 12.8017 1.40625 15.5156 1.40625Z" fill="white"/>
<path id="Vector_3" d="M17.625 4.92188C17.625 3.75877 16.6787 2.8125 15.5156 2.8125C14.3525 2.8125 13.4062 3.75877 13.4062 4.92188C13.4062 6.08498 14.3525 7.03125 15.5156 7.03125C16.6787 7.03125 17.625 6.08498 17.625 4.92188ZM15.5156 5.625C15.1279 5.625 14.8125 5.30958 14.8125 4.92188C14.8125 4.53417 15.1279 4.21875 15.5156 4.21875C15.9033 4.21875 16.2188 4.53417 16.2188 4.92188C16.2188 5.30958 15.9033 5.625 15.5156 5.625Z" fill="white"/>
</g>
</g>
</svg>
