<svg width="33" height="33" viewBox="0 0 33 33" fill="none" xmlns="http://www.w3.org/2000/svg">
<circle cx="16.5" cy="16.5" r="16.5" fill="#0A0A0A" fill-opacity="0.7"/>
<g clip-path="url(#clip0_2911_5584)">
<path d="M24.375 19.2188C24.7202 19.2188 25 18.9389 25 18.5938V14.5312C25 13.1528 23.8785 12.0312 22.5 12.0312H21.5512C21.2836 12.0312 21.0458 11.861 20.9595 11.6076L20.7704 11.0521C20.5117 10.292 19.7984 9.78125 18.9954 9.78125H15.0026C14.2152 9.78125 13.5065 10.2788 13.2391 11.0194L13.0227 11.6185C12.9336 11.8654 12.6974 12.0312 12.4349 12.0312H11.5C10.1215 12.0312 9 13.1528 9 14.5312V21.7188C9 23.0972 10.1215 24.2188 11.5 24.2188H22.5C23.8785 24.2188 25 23.0972 25 21.7188C25 21.3736 24.7202 21.0938 24.375 21.0938C24.0298 21.0938 23.75 21.3736 23.75 21.7188C23.75 22.408 23.1892 22.9688 22.5 22.9688H11.5C10.8108 22.9688 10.25 22.408 10.25 21.7188V14.5312C10.25 13.842 10.8108 13.2812 11.5 13.2812H12.4349C13.2223 13.2812 13.931 12.7837 14.1984 12.0431L14.4148 11.444C14.5039 11.1971 14.7401 11.0312 15.0026 11.0312H18.9954C19.2631 11.0312 19.5008 11.2015 19.5871 11.4549L19.7762 12.0104C20.0349 12.7705 20.7483 13.2812 21.5512 13.2812H22.5C23.1892 13.2812 23.75 13.842 23.75 14.5312V18.5938C23.75 18.9389 24.0298 19.2188 24.375 19.2188Z" fill="white"/>
<path d="M17.0312 13.9062C14.8773 13.9062 13.125 15.6586 13.125 17.8125C13.125 19.9664 14.8773 21.7188 17.0312 21.7188C19.1852 21.7188 20.9375 19.9664 20.9375 17.8125C20.9375 15.6586 19.1852 13.9062 17.0312 13.9062ZM17.0312 20.4688C15.5666 20.4688 14.375 19.2772 14.375 17.8125C14.375 16.3478 15.5666 15.1562 17.0312 15.1562C18.4959 15.1562 19.6875 16.3478 19.6875 17.8125C19.6875 19.2772 18.4959 20.4688 17.0312 20.4688Z" fill="white"/>
</g>
<defs>
<clipPath id="clip0_2911_5584">
<rect width="16" height="16" fill="white" transform="translate(9 9)"/>
</clipPath>
</defs>
</svg>
