<svg width="15" height="15" viewBox="0 0 15 15" fill="none" xmlns="http://www.w3.org/2000/svg">
<g id="fi_2838773" clip-path="url(#clip0_485_15385)">
<g id="Group">
<path id="Vector" d="M7.5 0C3.38057 0 0 3.38057 0 7.5C0 11.6194 3.38057 15 7.5 15C11.6194 15 15 11.6194 15 7.5C15 3.38057 11.6194 0 7.5 0ZM10.9182 3.46037C11.0898 3.28875 11.368 3.28875 11.5396 3.46037C11.7112 3.63199 11.7112 3.91022 11.5396 4.08185C11.368 4.25347 11.0898 4.25347 10.9182 4.08185C10.7465 3.91022 10.7465 3.63199 10.9182 3.46037ZM7.06055 2.22656C7.06055 1.98366 7.2571 1.78711 7.5 1.78711C7.7429 1.78711 7.93945 1.98366 7.93945 2.22656V3.10547C7.93945 3.34837 7.7429 3.54492 7.5 3.54492C7.2571 3.54492 7.06055 3.34837 7.06055 3.10547V2.22656ZM2.22656 7.93945C1.98366 7.93945 1.78711 7.7429 1.78711 7.5C1.78711 7.2571 1.98366 7.06055 2.22656 7.06055H3.10547C3.34837 7.06055 3.54492 7.2571 3.54492 7.5C3.54492 7.7429 3.34837 7.93945 3.10547 7.93945H2.22656ZM4.08185 11.5396C3.91022 11.7112 3.63199 11.7112 3.46037 11.5396C3.28875 11.368 3.28875 11.0898 3.46037 10.9182C3.63199 10.7465 3.91022 10.7465 4.08185 10.9182C4.25347 11.0898 4.25347 11.368 4.08185 11.5396ZM4.08185 4.08185C3.91022 4.25347 3.63199 4.25347 3.46037 4.08185C3.28875 3.91022 3.28875 3.63199 3.46037 3.46037C3.63199 3.28875 3.91022 3.28875 4.08185 3.46037C4.25347 3.63199 4.25347 3.91022 4.08185 4.08185ZM7.93945 12.7734C7.93945 13.0163 7.7429 13.2129 7.5 13.2129C7.2571 13.2129 7.06055 13.0163 7.06055 12.7734V11.8945C7.06055 11.6516 7.2571 11.4551 7.5 11.4551C7.7429 11.4551 7.93945 11.6516 7.93945 11.8945V12.7734ZM10.4474 10.4474C10.2758 10.6191 9.99765 10.6191 9.826 10.4474L7.18928 7.81069C7.10689 7.72831 7.06055 7.61672 7.06055 7.5V4.86328C7.06055 4.62038 7.2571 4.42383 7.5 4.42383C7.7429 4.42383 7.93945 4.62038 7.93945 4.86328V7.31804L10.4474 9.826C10.6191 9.99768 10.6191 10.2758 10.4474 10.4474ZM11.5396 11.5396C11.368 11.7112 11.0898 11.7112 10.9182 11.5396C10.7465 11.368 10.7465 11.0898 10.9182 10.9182C11.0898 10.7465 11.368 10.7465 11.5396 10.9182C11.7112 11.0898 11.7112 11.368 11.5396 11.5396ZM13.2129 7.5C13.2129 7.7429 13.0163 7.93945 12.7734 7.93945H11.8945C11.6516 7.93945 11.4551 7.7429 11.4551 7.5C11.4551 7.2571 11.6516 7.06055 11.8945 7.06055H12.7734C13.0163 7.06055 13.2129 7.2571 13.2129 7.5Z" fill="#7B7B7B"/>
</g>
</g>
<defs>
<clipPath id="clip0_485_15385">
<rect width="15" height="15" fill="white"/>
</clipPath>
</defs>
</svg>
