<svg width="9" height="9" viewBox="0 0 9 9" fill="none" xmlns="http://www.w3.org/2000/svg">
<g id="fi_1828778" clip-path="url(#clip0_485_15415)">
<path id="Vector" d="M5.32454 4.50779L8.82896 1.00326C9.05702 0.775306 9.05702 0.406734 8.82896 0.178779C8.601 -0.0491763 8.23243 -0.0491763 8.00448 0.178779L4.49995 3.68331L0.995528 0.178779C0.767466 -0.0491763 0.399001 -0.0491763 0.171046 0.178779C-0.0570154 0.406734 -0.0570154 0.775306 0.171046 1.00326L3.67547 4.50779L0.171046 8.01232C-0.0570154 8.24027 -0.0570154 8.60884 0.171046 8.8368C0.28465 8.95051 0.434022 9.00763 0.583287 9.00763C0.732552 9.00763 0.881818 8.95051 0.995528 8.8368L4.49995 5.33227L8.00448 8.8368C8.11819 8.95051 8.26745 9.00763 8.41672 9.00763C8.56598 9.00763 8.71525 8.95051 8.82896 8.8368C9.05702 8.60884 9.05702 8.24027 8.82896 8.01232L5.32454 4.50779Z" fill="black"/>
</g>
<defs>
<clipPath id="clip0_485_15415">
<rect width="9" height="9" fill="white"/>
</clipPath>
</defs>
</svg>
