<svg width="334" height="286" viewBox="0 0 334 286" fill="none" xmlns="http://www.w3.org/2000/svg">
<path opacity="0.7" d="M39.6321 264.935H328.104V225.666H257.031L255.993 242.65L39.6321 242.134V264.935Z" fill="#C8DBFC"/>
<path opacity="0.7" d="M328.104 225.665H251.101L256.135 153.098H15.5634V25.1545L80.892 24.25V62.4337L97.1789 79.8064H328.106L328.104 225.665Z" fill="#E3EBFE"/>
<path opacity="0.4" d="M86.6573 93.0215H23.0079V153.099H86.6573V93.0215Z" fill="#2650D8"/>
<g opacity="0.35">
<path d="M80.7613 100.117H29.5823C29.3163 100.117 29.0991 100.334 29.0991 100.6V153.099H30.0655V101.089H80.2727V153.099H81.2445V100.6C81.2445 100.334 81.0273 100.117 80.7613 100.117Z" fill="#FEE5DD"/>
</g>
<g opacity="0.4">
<path d="M76.4807 108.467H33.184V137.611H76.4807V108.467Z" fill="url(#paint0_linear_4221_6715)"/>
<path d="M76.4807 213.093H33.184V242.237H76.4807V213.093Z" fill="#FFC8C3"/>
<path d="M76.4833 144.272H33.1818V153.1H76.4833V144.272Z" fill="url(#paint1_linear_4221_6715)"/>
</g>
<path opacity="0.4" d="M313.524 95.8174H252.29V225.665H313.524V95.8174Z" fill="#2650D8"/>
<path opacity="0.3" d="M328.104 95.8174H313.524V225.665H328.104V95.8174Z" fill="#2650D8"/>
<path d="M182.569 132.747C182.558 132.747 182.545 132.746 182.531 132.744C181.714 132.614 177.633 131.892 177.723 130.527C177.811 129.189 182.009 128.461 182.849 128.329C182.979 128.308 183.104 128.398 183.124 128.527C183.144 128.658 183.056 128.779 182.923 128.801C180.989 129.105 178.244 129.852 178.2 130.559C178.159 131.176 180.456 131.929 182.608 132.272C182.738 132.293 182.826 132.416 182.806 132.546C182.784 132.663 182.684 132.747 182.569 132.747Z" fill="#223EE2"/>
<path d="M217.3 128.764L215.216 153.096H183.7L181.816 128.764C182.028 130.148 185.062 130.675 189.602 130.881C192.44 131.011 195.872 131.011 199.558 131.011C204.705 131.011 209.341 131.011 212.582 130.658C215.378 130.36 217.143 129.801 217.3 128.764Z" fill="url(#paint2_linear_4221_6715)"/>
<path d="M217.314 128.608C217.314 130.305 213.345 130.805 207.543 130.952C205.146 131.009 202.434 131.009 199.559 131.009C189.753 131.009 181.804 131.009 181.804 128.607C181.804 126.542 189.753 126.204 199.559 126.204C202.738 126.204 205.727 126.242 208.307 126.362C213.687 126.604 217.314 127.211 217.314 128.608Z" fill="url(#paint3_linear_4221_6715)"/>
<path opacity="0.2" d="M193.38 153.096H183.7L181.816 128.764C182.028 130.148 185.062 130.675 189.602 130.881L193.38 153.096Z" fill="url(#paint4_linear_4221_6715)"/>
<path opacity="0.4" d="M217.3 128.764L215.216 153.096H208.337L212.583 130.658C215.379 130.36 217.143 129.801 217.3 128.764Z" fill="url(#paint5_linear_4221_6715)"/>
<path opacity="0.4" d="M217.314 128.607C217.314 130.304 213.344 130.805 207.542 130.952C210.155 128.949 209.706 127.434 208.306 126.362C213.686 126.604 217.314 127.21 217.314 128.607Z" fill="url(#paint6_linear_4221_6715)"/>
<path d="M206.959 133.835C206.918 133.835 206.877 133.824 206.838 133.801C206.723 133.733 206.688 133.587 206.755 133.474C206.944 133.156 208.633 130.355 209.382 129.915C210.594 129.202 217.98 128 218.679 128.401C218.744 128.439 218.832 128.517 218.871 128.668C219.06 129.399 217.641 131.81 217.205 132.532C217.134 132.645 216.99 132.68 216.875 132.612C216.763 132.544 216.728 132.397 216.796 132.284C217.651 130.88 218.485 129.18 218.418 128.808C217.61 128.601 210.737 129.671 209.626 130.326C209.136 130.613 207.886 132.511 207.166 133.718C207.121 133.794 207.041 133.835 206.959 133.835Z" fill="#223EE2"/>
<path opacity="0.8" d="M176.952 158.542L179.428 242.648H89.0352V158.542H176.952Z" fill="url(#paint7_linear_4221_6715)"/>
<g opacity="0.7">
<path d="M179.428 169.694H89.0354V170.268H179.428V169.694Z" fill="#F2EFF8"/>
<path d="M135.996 158.887H135.453V242.647H135.996V158.887Z" fill="#F2EFF8"/>
<path d="M178.885 184.715C178.885 184.876 178.766 185.002 178.614 185.002H89.0354V184.428H178.614C178.766 184.428 178.885 184.554 178.885 184.715Z" fill="#F2EFF8"/>
<path d="M179.428 216.565H89.0354V217.139H179.428V216.565Z" fill="#F2EFF8"/>
</g>
<path opacity="0.7" d="M328.104 0H80.8918V62.4333H328.104V0Z" fill="url(#paint8_linear_4221_6715)"/>
<g opacity="0.5">
<path d="M117.647 89.6704C117.647 89.6704 117.612 89.5575 117.553 89.3533C117.227 93.1428 117.608 97.0142 122.533 98.2667C127.871 99.6239 131.038 94.5565 131.671 92.9278L118.37 88.6367L117.647 89.6704Z" fill="#2650D8"/>
<path d="M115.408 79.8057C116.02 83.9567 117.211 88.1858 117.553 89.3536C117.58 89.036 117.611 88.7184 117.647 88.4035L118.37 88.637C117.447 86.0848 116.86 82.9474 116.488 79.8057H115.408Z" fill="#2650D8"/>
</g>
<path d="M117.553 89.3538C117.612 89.558 117.647 89.6709 117.647 89.6709L118.37 88.6377L117.647 88.4043C117.612 88.7186 117.58 89.0362 117.553 89.3538Z" fill="#2650D8"/>
<path opacity="0.4" d="M80.8918 62.4346L96.8313 79.4382L97.1788 79.8073H115.408H116.488H328.106V62.4346H80.8918Z" fill="url(#paint9_linear_4221_6715)"/>
<path opacity="0.7" d="M89.0352 158.542H20.63V242.648H89.0352V158.542Z" fill="url(#paint10_linear_4221_6715)"/>
<path opacity="0.7" d="M261.134 158.526L255.993 242.648H179.428L176.952 158.543L261.134 158.526Z" fill="url(#paint11_linear_4221_6715)"/>
<path opacity="0.3" d="M187.918 185.491L189.547 230.009H247.216L248.302 185.491H187.918Z" fill="#9476DD"/>
<path opacity="0.7" d="M193.832 196.792H241.392L241.77 192.489H193.452L193.832 196.792Z" fill="#CBB8FF"/>
<g opacity="0.7">
<path d="M177.533 178.369L177.549 178.749H257.817L257.833 178.369H177.533ZM177.446 175.334L177.457 175.709H257.91L257.92 175.334H177.446Z" fill="#5B40A8"/>
</g>
<g opacity="0.7">
<path d="M239.868 166.744C239.868 165.018 241.27 163.613 242.997 163.613C244.723 163.613 246.13 165.018 246.13 166.744C246.13 168.471 244.723 169.876 242.997 169.876C241.27 169.875 239.868 168.471 239.868 166.744ZM240.247 166.744C240.247 168.261 241.481 169.494 242.997 169.494C244.515 169.494 245.748 168.261 245.748 166.744C245.748 165.226 244.515 163.993 242.997 163.993C241.481 163.993 240.247 165.226 240.247 166.744Z" fill="#9C6DDA"/>
<path d="M244.011 165.068L242.997 164.689L241.923 168.356L242.965 168.674L244.011 165.068Z" fill="#9C6DDA"/>
<path d="M221.829 166.744C221.829 165.018 223.232 163.613 224.96 163.613C226.686 163.613 228.091 165.018 228.091 166.744C228.091 168.471 226.686 169.876 224.96 169.876C223.232 169.875 221.829 168.471 221.829 166.744ZM222.207 166.744C222.207 168.261 223.442 169.494 224.96 169.494C226.475 169.494 227.709 168.261 227.709 166.744C227.709 165.226 226.475 163.993 224.96 163.993C223.442 163.993 222.207 165.226 222.207 166.744Z" fill="#9C6DDA"/>
<path d="M225.872 165.005L224.96 164.689L224.101 168.293L224.986 168.674L225.872 165.005Z" fill="#9C6DDA"/>
<path d="M203.788 166.744C203.788 165.018 205.192 163.613 206.918 163.613C208.643 163.613 210.05 165.018 210.05 166.744C210.05 168.471 208.643 169.876 206.918 169.876C205.192 169.875 203.788 168.471 203.788 166.744ZM204.167 166.744C204.167 168.261 205.4 169.494 206.917 169.494C208.437 169.494 209.668 168.261 209.668 166.744C209.668 165.226 208.437 163.993 206.917 163.993C205.401 163.993 204.167 165.226 204.167 166.744Z" fill="#9C6DDA"/>
<path d="M207.752 168.308L206.918 168.499L206.107 164.893H207.31L207.752 168.308Z" fill="#9C6DDA"/>
<path d="M185.747 166.744C185.747 165.018 187.152 163.613 188.879 163.613C190.605 163.613 192.009 165.018 192.009 166.744C192.009 168.471 190.605 169.876 188.879 169.876C187.152 169.875 185.747 168.471 185.747 166.744ZM186.128 166.744C186.128 168.261 187.362 169.494 188.879 169.494C190.396 169.494 191.63 168.261 191.63 166.744C191.63 165.226 190.396 163.993 188.879 163.993C187.362 163.993 186.128 165.226 186.128 166.744Z" fill="#9C6DDA"/>
<path d="M189.304 164.893H188.354L189.113 169.067L189.997 168.718C189.997 168.718 189.585 165.979 189.304 164.893Z" fill="#9C6DDA"/>
</g>
<g opacity="0.7">
<path d="M128.395 51.5763C127.646 51.5763 127.038 50.9688 127.038 50.2191V16.2879C127.038 15.5382 127.646 14.9307 128.395 14.9307C129.145 14.9307 129.753 15.5382 129.753 16.2879V50.2191C129.753 50.9688 129.145 51.5763 128.395 51.5763Z" fill="#2650D8"/>
</g>
<g opacity="0.7">
<path d="M170.032 68.5402C169.282 68.5402 168.674 67.9327 168.674 67.1829V33.2518C168.674 32.502 169.282 31.8945 170.032 31.8945C170.781 31.8945 171.389 32.502 171.389 33.2518V67.1829C171.389 67.9327 170.781 68.5402 170.032 68.5402Z" fill="#2650D8"/>
</g>
<g opacity="0.7">
<path d="M128.944 62.4316C120.409 67.2743 104.426 76.3353 98.3786 79.8044H97.1788L96.8313 79.4352C101.631 76.6773 117.347 67.7575 126.74 62.4316H128.944Z" fill="#9C6DDA"/>
</g>
<g opacity="0.7">
<path d="M184.721 79.8044H182.528L152.055 62.4316H154.254L184.721 79.8044Z" fill="#9C6DDA"/>
</g>
<g opacity="0.7">
<path d="M233.957 62.4316L197.452 79.8044H194.928L231.427 62.4316H233.957Z" fill="#9C6DDA"/>
</g>
<g opacity="0.7">
<path d="M300.842 79.8044H298.241C286.325 74.294 267.839 65.7433 260.803 62.4316H263.366C271.531 66.2482 288.41 74.0605 300.842 79.8044Z" fill="#9C6DDA"/>
</g>
<g opacity="0.7">
<path d="M328.106 62.4316V63.6152L321.005 70.4285L320.228 71.1723L311.227 79.8044H309.664L327.775 62.4316H328.106Z" fill="#9C6DDA"/>
</g>
<g opacity="0.7">
<path d="M328.106 76.9289V78.4056L320.305 71.2611C320.278 71.2339 320.25 71.2068 320.228 71.1742C320.082 70.9733 320.098 70.6856 320.272 70.4956C320.462 70.2839 320.787 70.2567 321.005 70.4304C321.016 70.4413 321.027 70.4467 321.038 70.4576L328.106 76.9289Z" fill="#9C6DDA"/>
</g>
<g opacity="0.3">
<path d="M219.477 62.4316L192.218 73.7891C192.148 73.8216 192.077 73.8325 192.007 73.8325C191.795 73.8325 191.594 73.7076 191.507 73.4959C191.393 73.2245 191.524 72.9042 191.8 72.7901L216.654 62.4316H219.477Z" fill="#9C6DDA"/>
</g>
<path opacity="0.4" d="M319.251 62.4346L304.387 79.8073V62.4346H319.251Z" fill="#5B40A8"/>
<path opacity="0.3" d="M192.009 62.4346H185.747V79.8073H192.009V62.4346Z" fill="#9C6DDA"/>
<path opacity="0.7" d="M304.385 79.8073H310.443L328.105 62.8683V62.4346H319.249L304.385 79.8073Z" fill="#9476DD"/>
<path d="M170.199 91.9539C179.044 91.9539 186.214 84.7835 186.214 75.9384C186.214 67.0932 179.044 59.9229 170.199 59.9229C161.353 59.9229 154.183 67.0932 154.183 75.9384C154.183 84.7835 161.353 91.9539 170.199 91.9539Z" fill="#C5B1FC"/>
<path opacity="0.5" d="M160.051 75.9387C160.051 70.4266 164.52 65.958 170.032 65.958C175.544 65.958 180.012 70.4266 180.012 75.9387C180.012 81.4507 175.544 85.9193 170.032 85.9193C164.52 85.9193 160.051 81.4507 160.051 75.9387Z" fill="#AB9FF4"/>
<path d="M129.753 82.7931C139.797 82.7931 147.94 74.6505 147.94 64.606C147.94 54.5616 139.797 46.4189 129.753 46.4189C119.708 46.4189 111.565 54.5616 111.565 64.606C111.565 74.6505 119.708 82.7931 129.753 82.7931Z" fill="#BEB9F9"/>
<path d="M129.753 75.9406C136.012 75.9406 141.087 70.8662 141.087 64.6066C141.087 58.3469 136.012 53.2725 129.753 53.2725C123.493 53.2725 118.418 58.3469 118.418 64.6066C118.418 70.8662 123.493 75.9406 129.753 75.9406Z" fill="#BCB1FC"/>
<g opacity="0.7">
<path d="M20.9016 173.385V173.964H89.0354V173.385H20.9016ZM20.9016 169.142V169.72H89.0354V169.142H20.9016Z" fill="#2650D8"/>
<path d="M83.1726 199.118C83.1726 199.274 83.0005 199.407 82.7985 199.407H20.9016V198.829H82.7985C83.0005 198.829 83.1726 198.956 83.1726 199.118Z" fill="#2650D8"/>
<path d="M83.1727 158.254H82.4241V242.647H83.1727V158.254Z" fill="#2650D8"/>
</g>
<g opacity="0.9">
<path d="M96.3708 150.897C96.3708 152.096 95.3985 153.068 94.1992 153.068H63.9782C62.779 153.068 61.8066 152.096 61.8066 150.897V125.385H96.3708V150.897Z" fill="url(#paint12_linear_4221_6715)"/>
<path d="M97.185 125.103C97.185 125.486 96.8755 125.797 96.4928 125.797H61.6718C61.2891 125.797 60.9785 125.486 60.9785 125.103C60.9785 124.721 61.2891 124.411 61.6718 124.411H96.4928C96.8755 124.411 97.185 124.72 97.185 125.103Z" fill="#9A9CF8"/>
<path opacity="0.4" d="M71.3972 131.189H60.9784C60.865 131.189 60.7634 131.119 60.7238 131.013C60.6847 130.907 60.714 130.787 60.8004 130.713L62.9866 128.819C63.1001 128.721 63.2711 128.733 63.3694 128.847C63.4671 128.96 63.4551 129.132 63.3417 129.229L61.7054 130.646H71.2826L72.9222 128.955C73.027 128.848 73.1991 128.844 73.306 128.948C73.413 129.053 73.4162 129.225 73.3125 129.332L71.5926 131.106C71.5416 131.159 71.4716 131.189 71.3972 131.189Z" fill="#2C0FCD"/>
<path opacity="0.4" d="M85.0612 124.829C84.9108 124.829 84.7897 124.708 84.7897 124.558V121.766H73.3888V124.558C73.3888 124.708 73.2667 124.829 73.1174 124.829C72.967 124.829 72.8459 124.708 72.8459 124.558V121.494C72.8459 121.345 72.967 121.223 73.1174 121.223H85.0612C85.2105 121.223 85.3326 121.345 85.3326 121.494V124.558C85.3326 124.708 85.211 124.829 85.0612 124.829Z" fill="#2C0FCD"/>
</g>
<g opacity="0.7">
<path d="M138.833 134.837C138.775 134.837 138.715 134.824 138.658 134.796C137.347 134.141 130.818 130.754 130.957 128.382C130.98 127.991 131.164 127.684 131.487 127.494C133.05 126.577 138.023 128.889 139.004 129.362C139.2 129.457 139.283 129.692 139.188 129.888C139.094 130.085 138.856 130.167 138.664 130.072C136.536 129.046 132.82 127.626 131.886 128.173C131.806 128.22 131.752 128.281 131.743 128.427C131.66 129.864 136.156 132.665 139.009 134.092C139.203 134.19 139.283 134.426 139.185 134.62C139.117 134.758 138.978 134.837 138.833 134.837Z" fill="#AFB3F3"/>
<path d="M164.566 134.836C164.403 134.836 164.254 134.736 164.195 134.578C164.121 134.373 164.225 134.147 164.43 134.073C166.542 133.295 171.981 130.773 171.787 128.436C171.752 128.007 171.561 127.863 171.42 127.792C170.255 127.202 166.725 128.864 164.768 130.052C164.585 130.165 164.343 130.107 164.228 129.92C164.115 129.733 164.175 129.491 164.361 129.378C164.916 129.041 169.852 126.11 171.778 127.089C172.104 127.257 172.508 127.614 172.572 128.37C172.851 131.724 165.536 134.504 164.699 134.811C164.656 134.828 164.61 134.836 164.566 134.836Z" fill="#AFB3F3"/>
<path d="M164.566 149.947C164.566 151.687 163.155 153.098 161.415 153.098H141.985C140.245 153.098 138.833 151.687 138.833 149.947V124.957H164.566V149.947Z" fill="url(#paint13_linear_4221_6715)"/>
</g>
<g opacity="0.7">
<path d="M111.727 142.748C111.727 142.748 109.746 140.975 109.464 138.994C109.181 137.014 109.973 136.675 110.878 137.127C111.783 137.58 112.745 137.806 112.518 136.561C112.292 135.317 110.651 134.412 109.802 133.789C108.954 133.167 107.426 130.281 108.727 129.772C110.029 129.263 110.029 130.64 111.33 131.507C112.631 132.375 113.197 132.035 112.971 130.79C112.744 129.546 112.631 127.735 115.29 128.81C117.949 129.885 117.251 133.053 116.988 134.185C116.723 135.317 116.082 137.807 116.912 138.788C117.741 139.768 118.76 139.843 119.703 139.278C120.646 138.712 122.872 140.862 119.439 142.748H111.727V142.748Z" fill="url(#paint14_linear_4221_6715)"/>
<path d="M119.1 142.747C119.1 142.747 120.308 141.264 119.591 139.988C118.874 138.711 118.801 137.618 119.818 137.655C120.836 137.693 122.797 138.975 123.023 138.598C123.25 138.221 122.986 134.071 125.852 134.486C128.719 134.902 127.512 135.837 128.266 135.615C129.021 135.392 130.04 136.221 129.813 137.315C129.587 138.41 128.342 138.975 128.342 138.975C128.342 138.975 129.549 139.663 131.435 138.602C133.321 137.542 135.056 137.588 135.32 138.602C135.584 139.616 135.962 140.937 132.604 141.012C129.247 141.088 128.19 140.296 128.153 141.05C128.116 141.804 128.04 142.559 127.211 142.747H119.1Z" fill="url(#paint15_linear_4221_6715)"/>
<path d="M114.008 142.747C114.008 142.747 114.031 141.503 114.755 141.578C115.479 141.653 116.875 141.729 116.8 141.239C116.724 140.748 116.083 138.824 115.065 137.768C114.046 136.712 113.692 135.429 114.756 135.203C115.819 134.976 118.196 139.239 118.535 138.975C118.875 138.711 117.705 136.958 118.535 135.194C119.365 133.43 121.59 133.333 121.968 134.457C122.345 135.58 119.403 139.485 119.591 139.987C119.78 140.489 120.721 139.507 121.288 140.561C121.855 141.615 121.138 142.445 120.157 142.747L114.008 142.747Z" fill="url(#paint16_linear_4221_6715)"/>
<path d="M107.37 142.748H110.085C110.085 142.748 109.793 139.956 107.308 137.863C104.823 135.77 103.748 136.034 103.748 136.034V138.599C103.748 138.599 107.53 140.353 107.308 141.315C107.087 142.277 103.861 142.05 103.748 142.446C103.635 142.842 103.89 143.916 104.314 144.422C104.88 145.097 106.476 145.499 107.489 144.879V144.879C107.26 143.676 107.284 142.812 107.37 142.748Z" fill="url(#paint17_linear_4221_6715)"/>
<path d="M110.085 142.748H107.37C107.284 142.812 107.26 143.676 107.489 144.878C108.068 147.909 110.262 153.099 117.177 153.099C126.833 153.099 127.211 142.748 127.211 142.748H110.085Z" fill="url(#paint18_linear_4221_6715)"/>
</g>
<path opacity="0.5" d="M261.028 158.526H17.9155V153.097H262.22L261.028 158.526Z" fill="#9C6DDA"/>
<path d="M0 0V285.022H333.34L332.535 0H0ZM316.584 201.567C305.003 250.315 274.896 257.406 186.88 259.491C145.007 260.483 114.756 252.99 103.722 225.664C92.4241 197.686 51.5753 192.49 31.4881 171.554C2.05487 140.878 27.4147 70.0811 70.0339 38.8542C113.009 7.36605 217.707 8.21568 250.904 17.192C324.117 36.9871 292.485 77.7561 306.332 102.264C324.071 133.661 326.349 160.468 316.584 201.567Z" fill="white"/>
<path d="M260.44 238.98C259.128 241.959 251.798 245.826 251.736 245.888C251.725 245.897 251.748 245.812 251.798 245.654C251.798 245.654 251.798 245.649 251.801 245.645C252.039 244.91 252.844 242.67 253.464 240.887C254.797 237.112 255.702 232.888 256.268 230.28L257.544 227.736L258.775 225.275C261.64 228.732 261.748 236.001 260.44 238.98Z" fill="url(#paint19_linear_4221_6715)"/>
<path opacity="0.5" d="M260.44 238.981C259.128 241.96 251.798 245.827 251.736 245.889C251.725 245.898 251.748 245.812 251.798 245.654C251.798 245.654 251.798 245.65 251.801 245.645C253.638 243.394 257.689 238.233 258.055 236.12C258.491 233.623 258.031 230.629 257.544 227.737L258.775 225.276C261.64 228.732 261.748 236.001 260.44 238.981Z" fill="url(#paint20_linear_4221_6715)"/>
<path d="M276.408 144.478C276.202 153.682 274.683 170.086 273.277 177.942C273.04 179.238 272.814 180.305 272.593 181.063C271.044 186.426 270.874 190.835 271.673 194.172C271.817 194.764 271.994 195.464 272.175 196.256C273.024 199.936 273.999 205.613 272.236 211.691C270.859 216.43 267.38 226.305 265.057 232.788C264.134 235.371 263.393 237.417 263.04 238.381C263.04 238.381 262.164 238.237 260.439 238.98C260.439 238.98 260.795 215.623 260.439 208.95C260.224 204.97 260.265 199.683 260.333 196.056C262.706 195.021 265.069 193.843 267.35 192.505C267.35 192.505 270.458 179.602 271.402 165.658C271.631 162.341 271.732 158.961 271.64 155.681C271.162 138.645 268.271 127.653 268.271 127.648C271.006 124.988 271.044 123.306 271.044 123.306C271.044 123.306 276.647 133.753 276.408 144.478Z" fill="#87B3F3"/>
<path opacity="0.4" d="M272.593 181.064C271.044 186.427 270.874 190.836 271.673 194.173C271.817 194.765 271.994 195.465 272.175 196.257C271.26 199.794 270.125 203.474 269.136 209.823C268.132 216.315 266.368 225.857 265.057 232.789C264.134 235.372 263.393 237.418 263.04 238.382C263.04 238.382 262.164 238.238 260.439 238.981C260.439 238.981 260.795 215.624 260.439 208.951C260.224 204.97 260.265 199.684 260.333 196.057C262.706 195.022 265.069 193.844 267.35 192.506C267.35 192.506 270.458 179.602 271.402 165.659C271.97 170.144 272.755 174.169 273.277 177.944C273.041 179.238 272.814 180.305 272.593 181.064Z" fill="url(#paint21_linear_4221_6715)"/>
<path d="M267.35 192.504C265.069 193.843 262.706 195.021 260.333 196.055C257.317 197.37 254.288 198.453 251.39 199.344C244.55 201.442 238.464 202.461 235.095 202.91C233.335 203.148 232.314 203.228 232.314 203.228C231.718 202.275 227.308 192.98 226.594 188.571C226.364 187.16 226.512 184.838 226.895 182.121V182.117C227.7 176.339 229.546 168.792 231.002 164.498C231.485 163.083 232.058 161.128 232.68 158.902C234.835 151.204 237.625 140.191 239.502 136.494C239.502 136.494 250.626 138.32 260.795 132.838C261.733 132.332 262.588 131.836 263.361 131.36C263.974 130.978 264.543 130.606 265.062 130.244C266.414 129.305 267.459 128.433 268.27 127.646C268.27 127.651 270.968 137.905 271.584 153.949C271.584 153.949 271.584 153.949 271.584 153.955C271.607 154.521 271.625 155.099 271.64 155.68C272.118 172.722 267.35 192.504 267.35 192.504Z" fill="url(#paint22_linear_4221_6715)"/>
<path opacity="0.5" d="M263.361 131.361C259.033 140.389 247.735 154.828 232.68 158.904C234.835 151.205 237.625 140.193 239.503 136.495C239.503 136.495 250.627 138.321 260.796 132.84C261.734 132.334 262.589 131.837 263.361 131.361Z" fill="url(#paint23_linear_4221_6715)"/>
<path opacity="0.5" d="M267.35 192.506C265.069 193.844 262.706 195.022 260.333 196.057C257.317 197.372 254.288 198.454 251.39 199.346C244.55 201.443 238.464 202.462 235.095 202.911C233.335 203.149 232.314 203.229 232.314 203.229C231.718 202.276 227.308 192.981 226.594 188.572C226.364 187.161 226.512 184.839 226.895 182.122C235.389 185.025 251.971 185.654 256.064 183.768C256.064 183.768 267.085 168.403 268.271 165.438C268.825 164.051 270.234 158.975 271.584 153.956C271.608 154.522 271.626 155.1 271.64 155.681C272.118 172.723 267.35 192.506 267.35 192.506Z" fill="url(#paint24_linear_4221_6715)"/>
<path d="M271.045 123.305C271.045 123.305 271.007 124.987 268.271 127.647C267.46 128.433 266.416 129.305 265.063 130.245C264.544 130.607 263.975 130.979 263.362 131.36H263.356C262.583 131.836 261.734 132.333 260.796 132.839C259.228 133.687 257.636 134.358 256.064 134.883C251.32 136.494 246.777 136.819 243.655 136.78H243.484C241.033 136.746 239.504 136.494 239.504 136.494C239.504 136.494 237.186 132.905 234.627 128.977C233.736 127.614 232.817 126.208 231.953 124.896C230.628 122.88 229.184 119.967 227.925 117.193C227.919 117.183 227.911 117.174 227.911 117.17C226 112.97 224.512 109.085 224.512 109.085C224.512 109.085 224.434 109.227 224.287 109.485C223.49 110.882 220.66 115.711 216.942 120.287C212.67 125.54 207.732 128.342 207.429 128.509C208.935 127.094 209.521 125.011 209.639 122.87C209.863 118.671 208.292 114.257 208.292 114.257C208.292 114.257 211.642 107.059 214.44 102.054C217.237 97.0485 220.281 92.4344 220.281 92.4344C221.796 91.2623 224.697 89.9848 227.625 88.8833C231.143 87.5678 234.703 86.5 235.948 86.1514C238.575 85.4218 241.444 85.317 244.242 85.5656C250.781 86.1324 256.925 88.5782 258.65 89.3073C260.063 89.898 260.691 90.8567 261.301 92.196C261.316 92.2346 261.336 92.2726 261.352 92.3155C261.788 93.2873 262.222 94.4507 262.944 95.8188C263.292 96.4768 263.814 97.9448 264.436 99.8808V99.8851C266.955 107.754 271.045 123.305 271.045 123.305Z" fill="url(#paint25_linear_4221_6715)"/>
<path opacity="0.5" d="M244.241 85.5656C243.011 87.3002 239.308 88.9121 235.877 89.3073C232.607 89.6792 229.299 89.5695 227.624 88.8833C231.142 87.5678 234.703 86.5 235.947 86.1514C238.574 85.4218 241.443 85.317 244.241 85.5656Z" fill="url(#paint26_linear_4221_6715)"/>
<path opacity="0.5" d="M263.361 131.362H263.355C262.582 131.838 261.733 132.334 260.795 132.84C259.227 133.688 257.635 134.359 256.063 134.884L257.219 129.165C257.219 129.165 259.365 118.463 261.299 111.47C263.201 104.606 262.216 94.6003 261.351 92.3174C261.786 93.2892 262.22 94.4526 262.942 95.8207C263.29 96.4787 263.812 97.9467 264.434 99.8827V99.887C264.899 103.73 264.883 109.225 265.325 117.43C265.766 125.561 264.537 129.188 263.361 131.362Z" fill="url(#paint27_linear_4221_6715)"/>
<path d="M208.981 126.623C208.279 128.439 207.041 129.22 205.342 128.152C201.053 125.45 197.24 118.299 195.731 113.057C194.365 108.318 193.228 98.894 193.022 95.0714V95.0378C192.997 94.6469 192.989 94.313 192.989 94.0513L193.752 91.9248C196.769 94.547 205.419 106.306 208.202 114.01C209.883 118.667 210.054 123.849 208.981 126.623Z" fill="url(#paint28_linear_4221_6715)"/>
<path opacity="0.5" d="M208.981 126.624C208.279 128.44 207.041 129.221 205.342 128.153C201.053 125.451 197.24 118.3 195.731 113.057C194.365 108.318 193.228 98.8948 193.021 95.0723C193.479 100.039 194.961 108.576 198.269 114.569C201.607 120.608 205.18 125.247 207.011 125.828C207.619 126.017 208.318 126.309 208.981 126.624Z" fill="url(#paint29_linear_4221_6715)"/>
<path d="M240.617 74.3701C241.572 75.6573 241.862 78.798 240.266 81.506C239.416 82.9452 238.025 84.2612 235.917 85.1049C235.655 85.2102 235.384 85.3052 235.104 85.3959C234.809 85.4871 234.501 85.5723 234.183 85.6488C226.393 87.479 223.057 83.9045 222.089 81.835C221.611 80.8246 221.571 79.0895 221.556 77.1536C221.547 75.8376 221.547 74.4326 221.441 73.0927C221.379 72.3777 221.293 71.6812 221.152 71.0335C220.939 70.0601 220.869 69.1502 220.907 68.3168C220.923 68.2593 221.362 66.7576 221.81 65.6512C222.267 64.5171 223.34 63.9834 223.34 63.9834C223.34 63.9834 225.94 65.1751 229.572 65.7663C231.89 66.1474 233.19 65.7516 233.83 65.4134C234.193 65.2228 234.34 65.0513 234.34 65.0513C235.18 65.5372 235.723 67.4672 236.333 69.1844C236.551 69.7843 236.772 70.3559 237.02 70.8331C237.108 71.0101 237.2 71.167 237.285 71.3055C238.096 72.5873 238.636 72.0965 238.688 70.5335C238.751 68.8076 240.299 68.3212 240.299 68.3212C240.305 68.2359 240.299 68.1263 240.284 68.0068C241.667 67.5394 242.787 69.6659 243.002 71.6681C243.241 73.8935 240.617 74.3701 240.617 74.3701Z" fill="url(#paint30_linear_4221_6715)"/>
<path d="M240.284 68.0062C240.128 66.5535 238.639 62.9573 235.042 60.4355C234.742 60.2254 234.432 60.0213 234.102 59.828C229.493 57.1266 223.379 59.9876 221.311 62.4774C221.07 62.7694 220.884 63.0708 220.734 63.3764C219.616 65.6778 220.91 68.1941 220.905 68.32C220.905 68.32 220.908 68.3157 220.908 68.3141C220.923 68.2576 221.359 66.7581 221.807 65.6474C222.264 64.5154 223.336 63.979 223.336 63.979C223.336 63.979 225.94 65.1712 229.572 65.7668C233.207 66.3623 234.34 65.0518 234.34 65.0518C235.472 65.7071 236.068 68.9846 237.02 70.8315C237.976 72.6784 238.63 72.2615 238.689 70.5334C238.751 68.8054 240.299 68.32 240.299 68.32C240.305 68.2321 240.299 68.1241 240.284 68.0062Z" fill="#002949"/>
<path d="M221.349 70.0573C220.943 69.7115 221.571 67.7342 223.336 67.3168C225.106 66.8998 225.643 67.5551 225.341 68.0915C225.044 68.6279 223.852 68.8065 222.841 69.3429C221.828 69.8787 221.349 70.0573 221.349 70.0573Z" fill="#002949"/>
<path d="M229.275 66.8985C229.157 67.6135 230.767 67.3752 232.315 67.6135C233.863 67.8513 235.136 67.6135 235.136 67.6135C235.136 67.6135 234.334 66.303 231.955 66.2438C229.572 66.1835 229.396 66.1835 229.275 66.8985Z" fill="#002949"/>
<path d="M227.249 78.6372C227.011 78.995 225.702 80.7421 225.165 80.4044C225.165 80.4044 224.809 79.2323 224.092 79.8289C223.379 80.4245 225.878 83.2247 229.693 80.9017C229.693 80.9017 235.764 79.2328 235.917 77.8625C236.068 76.4923 235.632 75.9553 235.136 76.0748C234.638 76.1942 235.136 77.1492 235.136 77.1492C235.136 77.1492 232.969 77.8077 231.598 77.1492C231.598 77.1492 230.825 78.2198 229.513 78.6367C228.205 79.0542 227.249 78.6372 227.249 78.6372Z" fill="#002949"/>
<path d="M271.045 123.306C270.851 122.571 273.905 115.165 278.077 115.462C278.077 115.462 274.807 123.827 271.673 125.155L271.045 123.306Z" fill="url(#paint31_linear_4221_6715)"/>
<path d="M282.007 120.822C282.328 120.838 275.999 125.852 271.673 125.154C271.673 125.154 273.904 120.404 282.007 120.822Z" fill="url(#paint32_linear_4221_6715)"/>
<path d="M260.44 238.98C261.631 238.861 262.822 238.98 262.822 238.98C262.822 238.98 262.901 238.766 263.043 238.378C263.043 238.378 262.164 238.239 260.44 238.98Z" fill="#ADC1FF"/>
<path d="M189.051 84.2595C187.795 84.3154 188.184 80.8821 190.327 80.4049C192.473 79.9282 192.88 81.3484 193.664 84.8539C194.449 88.36 200.894 113.693 200.894 113.693C200.894 113.693 199.815 114.66 199.815 115.454C199.815 115.454 195.268 97.6452 193.753 91.9247C192.235 86.2047 191.678 81.9429 190.566 81.8094C189.454 81.6764 189.92 84.2209 189.051 84.2595Z" fill="#ADC1FF"/>
<path d="M219.563 72.4601C218.85 73.7305 219.259 76.9933 221.556 77.1491C221.547 75.8337 221.547 74.4276 221.441 73.0893C220.896 72.3922 220.279 71.1892 219.563 72.4601Z" fill="url(#paint33_linear_4221_6715)"/>
<path d="M234.998 60.3937C234.697 60.1836 234.387 59.9784 234.06 59.7873C233.443 59.4257 232.801 59.1635 232.144 58.9871C227.892 57.8432 223.057 60.2786 221.27 62.4377C221.028 62.7287 220.839 63.0289 220.692 63.334C219.625 61.0218 213.386 47.5417 211.499 44.9298C211.499 44.9298 213.663 38.7326 220.483 37.2261C221.55 36.9883 222.561 36.9264 223.51 36.9883C228.635 37.3167 231.914 41.2783 231.914 41.2783L234.998 60.3937Z" fill="#87B3F3"/>
<path d="M240.776 82.2725C240.776 82.2725 240.59 82.6009 240.29 83.1134C239.623 84.2475 238.388 86.2801 237.321 87.6347C237.197 87.7905 237.087 87.9414 236.987 88.0902C235.796 89.8263 235.917 91.0908 235.917 91.0908C239.936 90.6135 241.729 86.5022 241.729 86.5022L240.776 82.2725Z" fill="#00127F"/>
<path d="M196.326 87.1279C197.264 87.7154 195.831 91.3213 194.38 90.8191C192.93 90.3164 195.133 86.382 196.326 87.1279Z" fill="url(#paint34_linear_4221_6715)"/>
<path d="M271.03 123.318C270.82 125.306 268.271 127.647 268.271 127.647L268.627 129.163C270.74 128.319 271.664 126.226 271.982 125.249L271.03 123.318Z" fill="url(#paint35_linear_4221_6715)"/>
<path d="M250.468 123.942C250.464 123.942 250.459 123.942 250.457 123.941C250.324 123.935 250.223 123.822 250.229 123.691C250.238 123.566 250.925 111.178 252.399 104.151C253.882 97.0912 257.353 92.3409 257.388 92.2936C257.464 92.1883 257.615 92.166 257.721 92.2431C257.827 92.3213 257.847 92.4711 257.771 92.5765C257.735 92.6226 254.327 97.2959 252.865 104.249C251.396 111.24 250.713 123.593 250.706 123.717C250.698 123.844 250.595 123.942 250.468 123.942Z" fill="#FEA52F"/>
<path d="M260.08 129.861C260.056 129.861 260.03 129.856 260.003 129.848C259.879 129.806 259.814 129.67 259.856 129.545C259.903 129.408 264.535 115.668 263.48 100.64C263.468 100.51 263.568 100.396 263.7 100.386C263.822 100.377 263.945 100.475 263.955 100.607C265.019 115.734 260.355 129.561 260.307 129.699C260.274 129.799 260.18 129.861 260.08 129.861Z" fill="#FEA52F"/>
<path d="M224.511 109.921C224.408 109.921 224.313 109.857 224.28 109.755C223.514 107.336 220.695 95.9914 220.666 95.8774C220.633 95.7493 220.713 95.6201 220.839 95.5881C220.966 95.5566 221.096 95.6342 221.128 95.7623C221.155 95.8763 223.974 107.206 224.737 109.61C224.775 109.736 224.705 109.87 224.582 109.909C224.558 109.918 224.534 109.921 224.511 109.921Z" fill="#FEA52F"/>
<path d="M242.861 135.407C242.773 135.407 242.687 135.357 242.646 135.271C242.572 135.119 235.343 119.901 232.685 112.664C230.027 105.411 228.753 94.5636 228.741 94.4551C228.726 94.3313 228.808 94.2184 228.93 94.1945C229.092 94.1614 245.223 90.9056 249.79 88.734C249.901 88.6803 250.04 88.7231 250.103 88.8344C250.268 89.1357 254.16 96.2417 254.262 99.067C254.265 99.1978 254.162 99.3086 254.033 99.3135C253.899 99.3156 253.79 99.2147 253.785 99.0833C253.696 96.6229 250.423 90.4392 249.79 89.2595C245.178 91.3377 231.232 94.2129 229.24 94.6179C229.434 96.1869 230.702 105.867 233.135 112.5C235.782 119.716 243.003 134.914 243.076 135.066C243.132 135.185 243.083 135.327 242.965 135.384C242.929 135.399 242.896 135.407 242.861 135.407Z" fill="#FEA52F"/>
<path d="M234.001 101.323C234.08 102.191 233.839 102.923 233.464 102.958C233.09 102.992 232.721 102.316 232.642 101.447C232.562 100.578 232.801 99.8475 233.178 99.8127C233.553 99.7791 233.921 100.454 234.001 101.323Z" fill="#FEA52F"/>
<path d="M235.802 112.35C235.983 113.122 235.826 113.817 235.46 113.902C235.092 113.986 234.65 113.428 234.473 112.656C234.296 111.884 234.45 111.189 234.815 111.104C235.184 111.02 235.626 111.577 235.802 112.35Z" fill="#FEA52F"/>
<path d="M240.954 124.264C241.133 125.037 240.98 125.732 240.611 125.816C240.246 125.901 239.803 125.344 239.626 124.571C239.447 123.798 239.6 123.104 239.969 123.019C240.335 122.935 240.776 123.492 240.954 124.264Z" fill="#FEA52F"/>
<path d="M250.485 94.2739C250.662 95.047 250.509 95.7419 250.141 95.826C249.775 95.9107 249.333 95.3537 249.155 94.5812C248.976 93.8081 249.129 93.1137 249.497 93.029C249.863 92.9443 250.306 93.5019 250.485 94.2739Z" fill="#FEA52F"/>
<path d="M252.469 103.654C252.646 104.427 252.493 105.122 252.127 105.207C251.759 105.292 251.317 104.734 251.14 103.961C250.961 103.189 251.114 102.494 251.482 102.409C251.848 102.324 252.293 102.882 252.469 103.654Z" fill="#FEA52F"/>
<path d="M250.468 123.318C250.707 123.318 258.272 125.945 260.498 129.622C260.498 129.622 258.334 135.357 256.267 136.574C256.267 136.574 254.799 130.138 246.891 129.186L250.468 123.318Z" fill="#00127F"/>
<path d="M234.909 69.8179C234.909 69.8179 234.396 70.8945 232.966 71.3386C232.433 71.5052 231.952 71.5242 231.548 71.4569C230.861 71.3521 230.375 71.0145 230.168 70.7707C229.945 70.5041 230.206 69.0595 231.649 68.7017C231.814 68.6588 232 68.6306 232.2 68.6208C234.131 68.5405 234.909 69.8179 234.909 69.8179Z" fill="white"/>
<path d="M226.595 71.6534C226.595 71.6534 226.147 72.6209 224.687 73.0688C223.876 73.3163 223.357 73.3261 222.963 73.2115C222.643 73.1209 222.405 72.9542 222.158 72.7685C221.875 72.5639 222.096 70.8945 223.614 70.5329C223.706 70.5085 223.8 70.4987 223.892 70.4943C225.306 70.3516 226.595 71.6534 226.595 71.6534Z" fill="white"/>
<path d="M224.469 71.6854C224.469 72.5198 223.798 73.2011 222.963 73.2104C222.644 73.1197 222.406 72.953 222.158 72.7674C221.875 72.5627 222.097 70.8933 223.615 70.5317C223.706 70.5073 223.801 70.4975 223.893 70.4932C224.246 70.77 224.469 71.1995 224.469 71.6854Z" fill="#052E51"/>
<path d="M232.529 70.0542C232.529 70.7029 232.12 71.2507 231.548 71.4554C230.861 71.3506 230.375 71.0129 230.168 70.7692C229.944 70.5026 230.206 69.058 231.648 68.7002C232.167 68.9298 232.529 69.4494 232.529 70.0542Z" fill="#052E51"/>
<path d="M231.595 76.5928C231.572 76.4723 231.46 76.386 231.336 76.399C231.206 76.4121 231.112 76.5288 231.123 76.6591L231.13 76.6916C231.132 76.7421 231.123 76.8447 231.109 76.9262C231.082 77.0098 231.065 77.0977 231.02 77.1781C230.97 77.2552 230.947 77.3437 230.879 77.4126C230.817 77.4827 230.76 77.5603 230.696 77.6254L230.484 77.8013C230.427 77.8638 230.315 77.9143 230.227 77.9702L229.944 78.1352C229.891 78.1493 229.768 78.2009 229.684 78.2319C229.59 78.265 229.501 78.3127 229.404 78.3334L229.112 78.3969C229.018 78.4229 228.921 78.4354 228.82 78.4398L228.523 78.462L228.227 78.449C228.127 78.4506 228.03 78.4262 227.933 78.4148C227.842 78.4045 227.75 78.3817 227.662 78.3594L227.739 77.5288C227.786 77.1439 227.85 76.7541 227.904 76.3681L228.075 75.2046L228.116 74.9142C228.122 74.8708 228.133 74.8056 228.133 74.7801L228.151 74.6232C228.172 74.4142 228.205 74.2046 228.213 73.9967L228.184 73.374C228.172 73.1677 228.115 72.9679 228.086 72.7643C228.056 72.5602 227.995 72.3658 227.933 72.1704C227.874 71.9744 227.818 71.7773 227.729 71.5927C227.644 71.4076 227.579 71.2133 227.475 71.0363L227.169 70.5042L226.789 69.9939L226.379 69.5732C226.288 69.482 226.14 69.4776 226.046 69.5645C225.949 69.6535 225.943 69.8039 226.031 69.9011L226.035 69.9049L226.432 70.3359L226.736 70.7795L227.001 71.2746C227.089 71.4386 227.143 71.621 227.216 71.7931C227.294 71.9641 227.337 72.1465 227.387 72.3273C227.437 72.5081 227.491 72.6867 227.509 72.8734C227.532 73.0575 227.576 73.2404 227.579 73.425L227.588 73.9766C227.576 74.1585 227.541 74.3371 227.52 74.5168L227.503 74.6509L227.473 74.8072L227.423 75.0961L227.216 76.2535C227.149 76.6401 227.075 77.0217 227.016 77.4121L226.866 78.6048C226.845 78.7715 226.94 78.936 227.105 78.9957L227.113 78.9984C227.256 79.0429 227.361 79.0712 227.482 79.0913C227.603 79.1124 227.721 79.1352 227.839 79.1423C227.96 79.1504 228.078 79.1711 228.196 79.1645L228.552 79.1591L228.905 79.1135C229.024 79.1016 229.142 79.0793 229.254 79.0429L229.599 78.9468C229.711 78.9137 229.814 78.8546 229.923 78.8089C230.042 78.7541 230.121 78.7232 230.265 78.6488L230.537 78.468C230.628 78.4029 230.717 78.3621 230.814 78.2661L231.091 78.0087C231.177 77.917 231.245 77.8111 231.319 77.7128C231.398 77.6184 231.436 77.4903 231.492 77.3795C231.546 77.2644 231.572 77.1346 231.595 77.0092C231.613 76.8735 231.625 76.7595 231.595 76.5928Z" fill="#ED7B70"/>
<path d="M240.089 73.0346C240.03 73.0346 239.971 73.0047 239.936 72.9488C239.496 72.2251 239.871 70.2446 239.915 70.0204C239.933 69.9238 240.024 69.8581 240.125 69.8803C240.222 69.8988 240.284 69.9932 240.266 70.0899C240.154 70.6594 239.93 72.2501 240.243 72.7631C240.293 72.8473 240.266 72.9569 240.184 73.0085C240.154 73.0264 240.122 73.0346 240.089 73.0346Z" fill="#ED7B70"/>
<path d="M231.153 83.217C230.649 83.217 230.286 83.1399 230.254 83.1329C230.157 83.1123 230.095 83.0172 230.115 82.9206C230.136 82.824 230.23 82.7632 230.328 82.7843C230.346 82.7876 232.162 83.166 233.329 82.1394C233.403 82.0742 233.515 82.0813 233.58 82.1546C233.647 82.229 233.639 82.3419 233.566 82.4076C232.81 83.0721 231.846 83.217 231.153 83.217Z" fill="#ED7B70"/>
<path d="M226.595 71.6528C226.595 71.6528 224.956 70.2972 223.647 70.6838C222.335 71.0719 222.072 72.6002 222.072 72.6002C222.072 72.6002 221.536 70.5057 223.29 69.8493C225.044 69.194 226.595 71.6528 226.595 71.6528Z" fill="#F28167"/>
<path d="M230.098 70.713C230.098 70.713 230.256 69.1272 231.598 68.7135C232.94 68.3009 234.907 69.7135 234.907 69.7135C234.907 69.7135 233.804 67.7346 231.598 67.9431C229.396 68.1511 230.098 70.713 230.098 70.713Z" fill="#F28167"/>
<path opacity="0.5" d="M236.334 69.1839C235.638 67.7962 234.797 66.4851 233.83 65.4129C234.193 65.2223 234.341 65.0508 234.341 65.0508C235.181 65.5361 235.723 67.4667 236.334 69.1839Z" fill="url(#paint36_linear_4221_6715)"/>
<path opacity="0.5" d="M240.617 74.3691C241.572 75.6563 241.862 78.7969 240.266 81.5049C239.417 82.9441 238.026 84.2601 235.917 85.1038C235.655 85.2091 235.384 85.3041 235.104 85.3948C237.191 83.2351 238.945 79.5364 238.822 77.3865C238.736 75.9136 238.211 73.6302 237.286 71.3044C238.096 72.5862 238.636 72.0954 238.689 70.5324C238.751 68.8065 240.299 68.3201 240.299 68.3201C240.305 68.2349 240.299 68.1252 240.284 68.0057C241.667 67.5383 242.787 69.6648 243.002 71.6671C243.241 73.8924 240.617 74.3691 240.617 74.3691Z" fill="url(#paint37_linear_4221_6715)"/>
<path d="M240.291 83.1094C239.96 83.6718 239.488 84.4541 238.969 85.269C238.438 86.0931 237.858 86.9515 237.321 87.6328C237.197 87.7908 237.091 87.9384 236.985 88.0905C236.587 87.9336 236.295 86.8847 236.104 86.003C236.024 85.6545 235.965 85.3309 235.917 85.1018C238.026 84.2581 239.417 82.9422 240.267 81.5029C240.261 81.9372 240.267 82.4801 240.291 83.1094Z" fill="url(#paint38_linear_4221_6715)"/>
<path opacity="0.5" d="M240.291 83.1094C239.96 83.6718 239.488 84.4541 238.969 85.269C237.932 85.6545 236.876 85.8787 236.104 86.003C236.024 85.6545 235.965 85.3309 235.917 85.1018C238.026 84.2581 239.417 82.9422 240.267 81.5029C240.261 81.9372 240.267 82.4801 240.291 83.1094Z" fill="url(#paint39_linear_4221_6715)"/>
<path opacity="0.5" d="M224.286 109.486C223.49 110.883 220.659 115.712 216.942 120.288C212.67 125.541 207.731 128.344 207.428 128.51C208.934 127.095 209.52 125.012 209.639 122.872C215.759 118.477 223.379 108.133 222.785 104.248L224.286 109.486Z" fill="url(#paint40_linear_4221_6715)"/>
<path opacity="0.5" d="M244.671 135.408C244.671 135.408 244.211 136.032 243.654 136.781C241.104 136.757 239.503 136.495 239.503 136.495C239.503 136.495 235.293 129.979 231.952 124.897C230.628 122.881 229.184 119.969 227.924 117.194C230.121 120.231 233.034 123.725 236.404 127.081C240.9 131.551 244.671 135.408 244.671 135.408Z" fill="url(#paint41_linear_4221_6715)"/>
<path opacity="0.5" d="M250.468 123.319C250.468 123.319 251.182 127.518 250.556 129.164C250.204 130.092 246.573 133.768 243.483 136.781C241.032 136.747 239.503 136.495 239.503 136.495C239.503 136.495 237.185 132.905 234.626 128.977C249.079 123.605 251.777 107.703 251.807 107.513L250.468 123.319Z" fill="url(#paint42_linear_4221_6715)"/>
<path d="M256.267 136.576C250.786 145.947 232.197 154.131 232.197 154.131C230.446 156.596 226.632 157.311 226.078 157.139C226.022 157.12 225.984 157.087 225.97 157.04C225.837 156.677 226.895 155.546 227.019 155.418C226.834 155.576 224.608 157.454 223.614 157.091C223.178 156.934 223.239 156.649 223.458 156.373C222.818 156.839 221.996 157.307 221.55 156.991C220.999 156.607 221.948 155.523 222.57 154.904C221.786 155.599 220.256 156.797 219.563 156.276C218.611 155.561 222.582 151.668 225.522 149.602C228.465 147.538 229.732 150.161 230.13 149.922C230.528 149.684 233.229 146.743 236.962 142.453C240.694 138.163 246.019 131.251 246.892 129.187C246.892 129.187 248.64 128.868 251.898 130.617C252.883 131.147 253.676 131.899 254.295 132.695C255.728 134.526 256.267 136.576 256.267 136.576Z" fill="url(#paint43_linear_4221_6715)"/>
<path opacity="0.5" d="M256.267 136.576C250.786 145.946 232.197 154.131 232.197 154.131C230.446 156.596 226.633 157.311 226.078 157.139C226.022 157.119 225.984 157.087 225.97 157.04C227.382 156.271 230.221 154.861 231.875 153.574C234.021 151.905 241.49 148.091 245.7 144.841C249.559 141.861 252.744 136.137 254.295 132.694C255.728 134.526 256.267 136.576 256.267 136.576Z" fill="url(#paint44_linear_4221_6715)"/>
<path opacity="0.1" d="M234.998 60.3927C234.696 60.1826 234.387 59.9774 234.06 59.7863C233.443 59.4248 232.801 59.1625 232.143 58.9861C230.683 51.6825 227.122 41.3196 223.51 36.9873C228.635 37.3158 231.914 41.2773 231.914 41.2773L234.998 60.3927Z" fill="url(#paint45_linear_4221_6715)"/>
<path opacity="0.2" d="M213.13 45.608C212.213 45.0586 215.4 39.3316 220.899 38.8555C220.899 38.8555 217.18 40.7616 216.149 42.2312C215.113 43.7014 213.923 46.0852 213.13 45.608Z" fill="url(#paint46_linear_4221_6715)"/>
<path d="M216.546 118.7C216.307 121.003 211.378 127.648 206.454 127.042C204.543 126.808 203.185 126.303 202.217 125.503C200.781 124.316 200.215 122.475 199.97 119.892C199.49 114.748 199.76 114.329 199.977 113.376C199.835 114.648 204.072 117.108 208.441 118.3C210.34 118.82 212.041 119.154 213.395 119.287C215.155 119.459 216.322 119.282 216.546 118.7Z" fill="#CBD4FF"/>
<path opacity="0.4" d="M216.547 118.7C216.308 121.003 211.378 127.648 206.454 127.042C204.544 126.808 203.185 126.303 202.217 125.503C207.689 124.144 211.083 121.255 213.395 119.287C215.156 119.459 216.322 119.282 216.547 118.7Z" fill="url(#paint47_linear_4221_6715)"/>
<path d="M216.546 118.699C216.313 119.299 215.069 119.471 213.203 119.266C211.885 119.123 210.255 118.794 208.441 118.298C204.072 117.107 199.835 114.647 199.977 113.375C200.092 112.326 203.085 112.431 206.251 113.031C207.407 113.245 208.586 113.532 209.654 113.851C213.648 115.042 216.942 117.664 216.546 118.699Z" fill="url(#paint48_linear_4221_6715)"/>
<path opacity="0.2" d="M216.546 118.699C216.313 119.299 215.068 119.471 213.203 119.266C211.661 116.959 208.362 114.394 206.251 113.031C207.406 113.246 208.586 113.532 209.654 113.852C213.648 115.042 216.941 117.664 216.546 118.699Z" fill="url(#paint49_linear_4221_6715)"/>
<path d="M258.773 225.275C258.826 226.28 258.34 227.377 257.782 228.288C257.084 229.431 256.267 230.28 256.267 230.28C256.267 230.28 253.525 225.395 249.595 220.27C246.753 216.567 240.44 209.144 237.162 205.316C235.903 203.847 235.095 202.91 235.095 202.91C238.465 202.46 244.55 201.441 251.391 199.344C254.699 205.655 258.67 223.288 258.773 225.275Z" fill="#87B3F3"/>
<path opacity="0.4" d="M258.774 225.275C258.826 226.28 258.34 227.377 257.782 228.288C257.35 226.662 256.771 224.675 256.064 222.535C254.271 217.133 250.556 207.437 250.556 207.437C250.556 207.437 249.436 205.531 244.671 205.373C242.268 205.292 239.408 205.296 237.161 205.316C235.903 203.847 235.094 202.91 235.094 202.91C238.464 202.46 244.55 201.441 251.39 199.344C254.699 205.655 258.67 223.288 258.774 225.275Z" fill="url(#paint50_linear_4221_6715)"/>
<path d="M263.04 238.38L262.344 244.104C258.771 245.893 250.905 246.727 250.905 246.727C250.966 246.665 251.029 246.597 251.09 246.531C253.337 244.215 258.291 239.906 260.44 238.98C260.906 238.78 261.312 238.643 261.654 238.551H261.661C262.579 238.303 263.04 238.38 263.04 238.38Z" fill="url(#paint51_linear_4221_6715)"/>
<path opacity="0.5" d="M263.04 238.38L262.344 244.104C258.771 245.893 250.905 246.727 250.905 246.727C250.966 246.665 251.029 246.597 251.09 246.531C253.626 245.673 257.721 244.239 258.294 243.748C259.066 243.084 261.175 239.548 261.654 238.551H261.661C262.579 238.303 263.04 238.38 263.04 238.38Z" fill="url(#paint52_linear_4221_6715)"/>
<path d="M192.93 98.0619C193.499 97.1921 189.71 92.3413 189.116 93.5927C188.519 94.8446 192.187 99.1938 192.93 98.0619Z" fill="url(#paint53_linear_4221_6715)"/>
<path d="M193.664 96.5138C194.401 95.871 190.247 90.6146 189.533 91.6271C188.817 92.6407 192.753 97.308 193.664 96.5138Z" fill="url(#paint54_linear_4221_6715)"/>
<path d="M189.949 89.422C189.366 90.1869 193.286 96.5128 194.36 95.4405C195.433 94.3678 190.725 88.4095 189.949 89.422Z" fill="url(#paint55_linear_4221_6715)"/>
<path d="M191.02 87.2771C190.318 88.0622 193.426 94.0102 194.516 92.8782C195.61 91.7463 192.028 86.1452 191.02 87.2771Z" fill="url(#paint56_linear_4221_6715)"/>
<defs>
<linearGradient id="paint0_linear_4221_6715" x1="33.184" y1="123.039" x2="76.4807" y2="123.039" gradientUnits="userSpaceOnUse">
<stop offset="0.005" stop-color="#94C0FF"/>
<stop offset="0.9901" stop-color="#ABD7FF"/>
</linearGradient>
<linearGradient id="paint1_linear_4221_6715" x1="33.1818" y1="148.686" x2="76.4833" y2="148.686" gradientUnits="userSpaceOnUse">
<stop offset="0.005" stop-color="#94C0FF"/>
<stop offset="0.9901" stop-color="#ABD7FF"/>
</linearGradient>
<linearGradient id="paint2_linear_4221_6715" x1="181.817" y1="140.93" x2="217.3" y2="140.93" gradientUnits="userSpaceOnUse">
<stop offset="0.02" stop-color="#FE931E"/>
<stop offset="0.9701" stop-color="#FEA31E"/>
</linearGradient>
<linearGradient id="paint3_linear_4221_6715" x1="181.804" y1="128.607" x2="217.315" y2="128.607" gradientUnits="userSpaceOnUse">
<stop offset="0.02" stop-color="#FFBC47"/>
<stop offset="0.9851" stop-color="#FFCC47"/>
</linearGradient>
<linearGradient id="paint4_linear_4221_6715" x1="191.485" y1="132.906" x2="180.256" y2="156.088" gradientUnits="userSpaceOnUse">
<stop offset="0.02" stop-color="#FE931E"/>
<stop offset="0.9701" stop-color="#FEA31E"/>
</linearGradient>
<linearGradient id="paint5_linear_4221_6715" x1="223.176" y1="132.137" x2="205.191" y2="151.021" gradientUnits="userSpaceOnUse">
<stop offset="0.02" stop-color="#FE931E"/>
<stop offset="0.9701" stop-color="#FEA31E"/>
</linearGradient>
<linearGradient id="paint6_linear_4221_6715" x1="215.079" y1="125.311" x2="208.509" y2="132.209" gradientUnits="userSpaceOnUse">
<stop offset="0.02" stop-color="#FE931E"/>
<stop offset="0.9701" stop-color="#FEA31E"/>
</linearGradient>
<linearGradient id="paint7_linear_4221_6715" x1="136.482" y1="158.081" x2="131.596" y2="250.374" gradientUnits="userSpaceOnUse">
<stop stop-color="#C7ACF3"/>
<stop offset="1" stop-color="#DDCEFF"/>
</linearGradient>
<linearGradient id="paint8_linear_4221_6715" x1="80.8918" y1="31.2167" x2="328.104" y2="31.2167" gradientUnits="userSpaceOnUse">
<stop offset="0.01" stop-color="#DDCEFF"/>
<stop offset="1" stop-color="#FECEA8"/>
</linearGradient>
<linearGradient id="paint9_linear_4221_6715" x1="80.8918" y1="71.1209" x2="328.106" y2="71.1209" gradientUnits="userSpaceOnUse">
<stop offset="0.005" stop-color="#A286DB"/>
<stop offset="0.9901" stop-color="#ABD7FF"/>
</linearGradient>
<linearGradient id="paint10_linear_4221_6715" x1="55.4762" y1="164.236" x2="54.386" y2="225.826" gradientUnits="userSpaceOnUse">
<stop stop-color="#A48EE8"/>
<stop offset="1" stop-color="#C7ACF3"/>
</linearGradient>
<linearGradient id="paint11_linear_4221_6715" x1="207.261" y1="245.121" x2="223.547" y2="166.401" gradientUnits="userSpaceOnUse">
<stop offset="0.005" stop-color="#AE8BE8"/>
<stop offset="1" stop-color="#C7ACF3"/>
</linearGradient>
<linearGradient id="paint12_linear_4221_6715" x1="99.0426" y1="140.929" x2="62.8494" y2="137.672" gradientUnits="userSpaceOnUse">
<stop offset="0.005" stop-color="#94C0FF"/>
<stop offset="0.9901" stop-color="#ABD7FF"/>
</linearGradient>
<linearGradient id="paint13_linear_4221_6715" x1="151.33" y1="155.244" x2="151.872" y2="129.185" gradientUnits="userSpaceOnUse">
<stop offset="0.005" stop-color="#94C0FF"/>
<stop offset="0.9901" stop-color="#ABD7FF"/>
</linearGradient>
<linearGradient id="paint14_linear_4221_6715" x1="114.971" y1="134.137" x2="113.976" y2="140.832" gradientUnits="userSpaceOnUse">
<stop offset="1.953e-05" stop-color="#FECEA8"/>
<stop offset="1" stop-color="#FECEA8"/>
</linearGradient>
<linearGradient id="paint15_linear_4221_6715" x1="131.46" y1="141.371" x2="119.878" y2="137.751" gradientUnits="userSpaceOnUse">
<stop offset="1.953e-05" stop-color="#FECEA8"/>
<stop offset="1" stop-color="#FECEA8"/>
</linearGradient>
<linearGradient id="paint16_linear_4221_6715" x1="118.391" y1="134.645" x2="117.396" y2="141.34" gradientUnits="userSpaceOnUse">
<stop offset="1.953e-05" stop-color="#FECEA8"/>
<stop offset="1" stop-color="#FECEA8"/>
</linearGradient>
<linearGradient id="paint17_linear_4221_6715" x1="102.009" y1="139.024" x2="109.339" y2="142.915" gradientUnits="userSpaceOnUse">
<stop offset="1.953e-05" stop-color="#FECEA8"/>
<stop offset="1" stop-color="#FECEA8"/>
</linearGradient>
<linearGradient id="paint18_linear_4221_6715" x1="116.751" y1="161.258" x2="117.294" y2="141.713" gradientUnits="userSpaceOnUse">
<stop offset="0.005" stop-color="#94C0FF"/>
<stop offset="0.9901" stop-color="#ABD7FF"/>
</linearGradient>
<linearGradient id="paint19_linear_4221_6715" x1="251.733" y1="235.582" x2="261.244" y2="235.582" gradientUnits="userSpaceOnUse">
<stop offset="0.005" stop-color="#4B07CC"/>
<stop offset="1" stop-color="#3B38CC"/>
</linearGradient>
<linearGradient id="paint20_linear_4221_6715" x1="256.42" y1="237.995" x2="256.826" y2="248.485" gradientUnits="userSpaceOnUse">
<stop offset="0.005" stop-color="#7027ED"/>
<stop offset="1" stop-color="#775CFF"/>
</linearGradient>
<linearGradient id="paint21_linear_4221_6715" x1="273.355" y1="240.399" x2="264.315" y2="194.095" gradientUnits="userSpaceOnUse">
<stop offset="0.02" stop-color="#3564F7"/>
<stop offset="0.9801" stop-color="#3564F7"/>
</linearGradient>
<linearGradient id="paint22_linear_4221_6715" x1="254.158" y1="132.783" x2="247.113" y2="191.656" gradientUnits="userSpaceOnUse">
<stop stop-color="#385DD8"/>
<stop offset="1" stop-color="#6F9AFF"/>
</linearGradient>
<linearGradient id="paint23_linear_4221_6715" x1="255.502" y1="146.311" x2="200.044" y2="137.572" gradientUnits="userSpaceOnUse">
<stop offset="1.953e-05" stop-color="#6F9AFF"/>
<stop offset="1" stop-color="#8789EE"/>
</linearGradient>
<linearGradient id="paint24_linear_4221_6715" x1="249.572" y1="184.455" x2="250.525" y2="209.083" gradientUnits="userSpaceOnUse">
<stop offset="1.953e-05" stop-color="#6F9AFF"/>
<stop offset="1" stop-color="#8789EE"/>
</linearGradient>
<linearGradient id="paint25_linear_4221_6715" x1="267.314" y1="93.6104" x2="232.343" y2="118.77" gradientUnits="userSpaceOnUse">
<stop stop-color="#2650D8"/>
<stop offset="1" stop-color="#263EBC"/>
</linearGradient>
<linearGradient id="paint26_linear_4221_6715" x1="227.624" y1="87.481" x2="244.241" y2="87.481" gradientUnits="userSpaceOnUse">
<stop offset="0.02" stop-color="#0627E2"/>
<stop offset="0.9801" stop-color="#213EE2"/>
</linearGradient>
<linearGradient id="paint27_linear_4221_6715" x1="256.064" y1="113.6" x2="265.417" y2="113.6" gradientUnits="userSpaceOnUse">
<stop offset="0.02" stop-color="#0627E2"/>
<stop offset="0.9801" stop-color="#213EE2"/>
</linearGradient>
<linearGradient id="paint28_linear_4221_6715" x1="192.989" y1="110.281" x2="209.656" y2="110.281" gradientUnits="userSpaceOnUse">
<stop offset="0.015" stop-color="#FEC0B7"/>
<stop offset="0.98" stop-color="#FDA296"/>
</linearGradient>
<linearGradient id="paint29_linear_4221_6715" x1="193.022" y1="111.855" x2="208.981" y2="111.855" gradientUnits="userSpaceOnUse">
<stop stop-color="#FEC0B7"/>
<stop offset="0.98" stop-color="#FDA296"/>
</linearGradient>
<linearGradient id="paint30_linear_4221_6715" x1="227.476" y1="86.3521" x2="233.713" y2="64.3824" gradientUnits="userSpaceOnUse">
<stop offset="0.015" stop-color="#FEC0B7"/>
<stop offset="0.98" stop-color="#FDA296"/>
</linearGradient>
<linearGradient id="paint31_linear_4221_6715" x1="271.036" y1="120.304" x2="278.077" y2="120.304" gradientUnits="userSpaceOnUse">
<stop stop-color="#8789EE"/>
<stop offset="1" stop-color="#6F9AFF"/>
</linearGradient>
<linearGradient id="paint32_linear_4221_6715" x1="271.673" y1="123.009" x2="282.019" y2="123.009" gradientUnits="userSpaceOnUse">
<stop stop-color="#8789EE"/>
<stop offset="1" stop-color="#6F9AFF"/>
</linearGradient>
<linearGradient id="paint33_linear_4221_6715" x1="219.244" y1="74.5259" x2="221.807" y2="74.5259" gradientUnits="userSpaceOnUse">
<stop offset="0.015" stop-color="#FEC0B7"/>
<stop offset="0.98" stop-color="#FDA296"/>
</linearGradient>
<linearGradient id="paint34_linear_4221_6715" x1="193.903" y1="88.9506" x2="196.626" y2="88.9506" gradientUnits="userSpaceOnUse">
<stop offset="0.015" stop-color="#FEC0B7"/>
<stop offset="0.98" stop-color="#FDA296"/>
</linearGradient>
<linearGradient id="paint35_linear_4221_6715" x1="268.271" y1="126.241" x2="271.982" y2="126.241" gradientUnits="userSpaceOnUse">
<stop stop-color="#8789EE"/>
<stop offset="1" stop-color="#6F9AFF"/>
</linearGradient>
<linearGradient id="paint36_linear_4221_6715" x1="233.83" y1="67.1172" x2="236.334" y2="67.1172" gradientUnits="userSpaceOnUse">
<stop stop-color="#FEC0B7"/>
<stop offset="0.98" stop-color="#FDA296"/>
</linearGradient>
<linearGradient id="paint37_linear_4221_6715" x1="235.104" y1="76.6671" x2="243.018" y2="76.6671" gradientUnits="userSpaceOnUse">
<stop stop-color="#FEC0B7"/>
<stop offset="0.98" stop-color="#FDA296"/>
</linearGradient>
<linearGradient id="paint38_linear_4221_6715" x1="235.918" y1="84.7971" x2="240.301" y2="84.7971" gradientUnits="userSpaceOnUse">
<stop offset="0.015" stop-color="#FEC0B7"/>
<stop offset="0.98" stop-color="#FDA296"/>
</linearGradient>
<linearGradient id="paint39_linear_4221_6715" x1="235.918" y1="83.7534" x2="240.291" y2="83.7534" gradientUnits="userSpaceOnUse">
<stop stop-color="#FEC0B7"/>
<stop offset="0.98" stop-color="#FDA296"/>
</linearGradient>
<linearGradient id="paint40_linear_4221_6715" x1="207.428" y1="116.379" x2="224.286" y2="116.379" gradientUnits="userSpaceOnUse">
<stop offset="0.02" stop-color="#0627E2"/>
<stop offset="0.9801" stop-color="#213EE2"/>
</linearGradient>
<linearGradient id="paint41_linear_4221_6715" x1="227.924" y1="126.988" x2="244.671" y2="126.988" gradientUnits="userSpaceOnUse">
<stop offset="0.02" stop-color="#0627E2"/>
<stop offset="0.9801" stop-color="#213EE2"/>
</linearGradient>
<linearGradient id="paint42_linear_4221_6715" x1="234.626" y1="122.147" x2="251.807" y2="122.147" gradientUnits="userSpaceOnUse">
<stop offset="0.02" stop-color="#0627E2"/>
<stop offset="0.9801" stop-color="#213EE2"/>
</linearGradient>
<linearGradient id="paint43_linear_4221_6715" x1="219.419" y1="143.164" x2="256.267" y2="143.164" gradientUnits="userSpaceOnUse">
<stop offset="0.015" stop-color="#FEC0B7"/>
<stop offset="0.98" stop-color="#FDA296"/>
</linearGradient>
<linearGradient id="paint44_linear_4221_6715" x1="225.97" y1="144.929" x2="256.267" y2="144.929" gradientUnits="userSpaceOnUse">
<stop stop-color="#FEC0B7"/>
<stop offset="0.98" stop-color="#FDA296"/>
</linearGradient>
<linearGradient id="paint45_linear_4221_6715" x1="232.244" y1="62.3497" x2="228.987" y2="45.6659" gradientUnits="userSpaceOnUse">
<stop offset="0.02" stop-color="#3564F7"/>
<stop offset="0.9801" stop-color="#3564F7"/>
</linearGradient>
<linearGradient id="paint46_linear_4221_6715" x1="217.537" y1="45.16" x2="216.851" y2="41.6488" gradientUnits="userSpaceOnUse">
<stop offset="0.02" stop-color="#3564F7"/>
<stop offset="0.9801" stop-color="#3564F7"/>
</linearGradient>
<linearGradient id="paint47_linear_4221_6715" x1="210.324" y1="126.925" x2="209.477" y2="122.587" gradientUnits="userSpaceOnUse">
<stop offset="0.02" stop-color="#3564F7"/>
<stop offset="0.9801" stop-color="#3564F7"/>
</linearGradient>
<linearGradient id="paint48_linear_4221_6715" x1="199.973" y1="115.965" x2="216.579" y2="115.965" gradientUnits="userSpaceOnUse">
<stop stop-color="#8789EE"/>
<stop offset="1" stop-color="#6F9AFF"/>
</linearGradient>
<linearGradient id="paint49_linear_4221_6715" x1="212.315" y1="120.351" x2="211.292" y2="115.109" gradientUnits="userSpaceOnUse">
<stop offset="0.02" stop-color="#3564F7"/>
<stop offset="0.9801" stop-color="#3564F7"/>
</linearGradient>
<linearGradient id="paint50_linear_4221_6715" x1="250.351" y1="231.41" x2="246.517" y2="211.771" gradientUnits="userSpaceOnUse">
<stop offset="0.02" stop-color="#3564F7"/>
<stop offset="0.9801" stop-color="#3564F7"/>
</linearGradient>
<linearGradient id="paint51_linear_4221_6715" x1="250.904" y1="242.548" x2="263.04" y2="242.548" gradientUnits="userSpaceOnUse">
<stop offset="0.005" stop-color="#4B07CC"/>
<stop offset="1" stop-color="#3B38CC"/>
</linearGradient>
<linearGradient id="paint52_linear_4221_6715" x1="250.904" y1="242.548" x2="263.04" y2="242.548" gradientUnits="userSpaceOnUse">
<stop offset="0.005" stop-color="#7027ED"/>
<stop offset="1" stop-color="#775CFF"/>
</linearGradient>
<linearGradient id="paint53_linear_4221_6715" x1="189.05" y1="95.818" x2="192.988" y2="95.818" gradientUnits="userSpaceOnUse">
<stop offset="0.015" stop-color="#FEC0B7"/>
<stop offset="0.98" stop-color="#FDA296"/>
</linearGradient>
<linearGradient id="paint54_linear_4221_6715" x1="189.446" y1="94.0511" x2="193.751" y2="94.0511" gradientUnits="userSpaceOnUse">
<stop offset="0.015" stop-color="#FEC0B7"/>
<stop offset="0.98" stop-color="#FDA296"/>
</linearGradient>
<linearGradient id="paint55_linear_4221_6715" x1="189.89" y1="92.4347" x2="194.518" y2="92.4347" gradientUnits="userSpaceOnUse">
<stop offset="0.015" stop-color="#FEC0B7"/>
<stop offset="0.98" stop-color="#FDA296"/>
</linearGradient>
<linearGradient id="paint56_linear_4221_6715" x1="190.918" y1="90.0741" x2="194.722" y2="90.0741" gradientUnits="userSpaceOnUse">
<stop offset="0.015" stop-color="#FEC0B7"/>
<stop offset="0.98" stop-color="#FDA296"/>
</linearGradient>
</defs>
</svg>
