<svg width="18" height="17" viewBox="0 0 18 17" fill="none" xmlns="http://www.w3.org/2000/svg">
<g id="Group">
<path id="Vector" d="M16.0374 0H14.3551V1.68224C14.3551 2.01869 14.0748 2.24299 13.7944 2.24299C13.514 2.24299 13.2336 2.01869 13.2336 1.68224V0H4.26168V1.68224C4.26168 2.01869 3.98131 2.24299 3.70093 2.24299C3.42056 2.24299 3.14019 2.01869 3.14019 1.68224V0H1.45794C0.616822 0 0 0.728972 0 1.68224V3.70093H17.9439V1.68224C17.9439 0.728972 16.9346 0 16.0374 0ZM0 4.8785V15.1402C0 16.1495 0.616822 16.8224 1.51402 16.8224H16.0935C16.9907 16.8224 18 16.0935 18 15.1402V4.8785H0ZM4.99065 14.2991H3.64486C3.42056 14.2991 3.19626 14.1308 3.19626 13.8505V12.4486C3.19626 12.2243 3.36449 12 3.64486 12H5.04673C5.27103 12 5.49533 12.1682 5.49533 12.4486V13.8505C5.43925 14.1308 5.27103 14.2991 4.99065 14.2991ZM4.99065 9.25234H3.64486C3.42056 9.25234 3.19626 9.08411 3.19626 8.80374V7.40187C3.19626 7.17757 3.36449 6.95327 3.64486 6.95327H5.04673C5.27103 6.95327 5.49533 7.1215 5.49533 7.40187V8.80374C5.43925 9.08411 5.27103 9.25234 4.99065 9.25234ZM9.47664 14.2991H8.07477C7.85047 14.2991 7.62617 14.1308 7.62617 13.8505V12.4486C7.62617 12.2243 7.79439 12 8.07477 12H9.47664C9.70093 12 9.92523 12.1682 9.92523 12.4486V13.8505C9.92523 14.1308 9.75701 14.2991 9.47664 14.2991ZM9.47664 9.25234H8.07477C7.85047 9.25234 7.62617 9.08411 7.62617 8.80374V7.40187C7.62617 7.17757 7.79439 6.95327 8.07477 6.95327H9.47664C9.70093 6.95327 9.92523 7.1215 9.92523 7.40187V8.80374C9.92523 9.08411 9.75701 9.25234 9.47664 9.25234ZM13.9626 14.2991H12.5607C12.3364 14.2991 12.1122 14.1308 12.1122 13.8505V12.4486C12.1122 12.2243 12.2804 12 12.5607 12H13.9626C14.1869 12 14.4112 12.1682 14.4112 12.4486V13.8505C14.4112 14.1308 14.243 14.2991 13.9626 14.2991ZM13.9626 9.25234H12.5607C12.3364 9.25234 12.1122 9.08411 12.1122 8.80374V7.40187C12.1122 7.17757 12.2804 6.95327 12.5607 6.95327H13.9626C14.1869 6.95327 14.4112 7.1215 14.4112 7.40187V8.80374C14.4112 9.08411 14.243 9.25234 13.9626 9.25234Z" fill="#919191"/>
</g>
</svg>
