<svg width="31" height="30" viewBox="0 0 31 30" fill="none" xmlns="http://www.w3.org/2000/svg">
<g id="Delete" clip-path="url(#clip0_1880_8580)">
<g id="Group">
<path id="Vector" d="M26.7609 9.63173H12.8855L19.0991 3.41818C19.4423 3.07495 19.4423 2.51844 19.0991 2.17515L17.5246 0.60067C16.7237 -0.200223 15.4252 -0.200223 14.6243 0.60067L13.0054 2.21962L12.1766 1.3909C11.2628 0.477041 9.77583 0.477099 8.86197 1.3909L5.63016 4.62271C4.7163 5.53657 4.7163 7.02357 5.63016 7.93743L6.45882 8.76616L4.83993 10.3851C4.03903 11.1859 4.03903 12.4845 4.83993 13.2854L6.41441 14.8599C6.75758 15.2031 7.31415 15.2032 7.65738 14.8599L9.8851 12.6322V26.1913C9.8851 28.2948 11.5904 30 13.6939 30H22.9521C25.0556 30 26.7609 28.2948 26.7609 26.1913V9.63173ZM7.70185 7.52307L6.87318 6.6944C6.64473 6.46595 6.64473 6.09419 6.87318 5.86568L10.105 2.63387C10.3335 2.40536 10.7053 2.40542 10.9337 2.63387L11.7623 3.46259L7.70185 7.52307ZM15.2914 25.0779C15.2914 25.5633 14.8979 25.9568 14.4125 25.9568C13.9271 25.9568 13.5336 25.5633 13.5336 25.0779V14.5539C13.5336 14.0684 13.9271 13.6749 14.4125 13.6749C14.8979 13.6749 15.2914 14.0684 15.2914 14.5539V25.0779ZM19.2019 25.0779C19.2019 25.5633 18.8084 25.9568 18.323 25.9568C17.8375 25.9568 17.444 25.5633 17.444 25.0779V14.5539C17.444 14.0684 17.8375 13.6749 18.323 13.6749C18.8084 13.6749 19.2019 14.0684 19.2019 14.5539V25.0779ZM23.1124 25.0779C23.1124 25.5633 22.7189 25.9568 22.2335 25.9568C21.748 25.9568 21.3545 25.5633 21.3545 25.0779V14.5539C21.3545 14.0684 21.748 13.6749 22.2335 13.6749C22.7189 13.6749 23.1124 14.0684 23.1124 14.5539V25.0779Z" fill="white"/>
<path id="Vector_2" d="M19.3016 6.65294C18.7654 6.83985 18.3893 7.3186 18.3271 7.87411H26.7604V6.4133C26.7604 5.41027 25.7734 4.70435 24.8256 5.02573L19.3198 6.64708C19.3139 6.64878 19.3075 6.65113 19.3016 6.65294Z" fill="white"/>
</g>
</g>
<defs>
<clipPath id="clip0_1880_8580">
<rect width="30" height="30" fill="white" transform="translate(0.5)"/>
</clipPath>
</defs>
</svg>
