<svg width="67" height="66" viewBox="0 0 67 66" fill="none" xmlns="http://www.w3.org/2000/svg">
<g id="Group 6831">
<circle id="Ellipse 450" cx="33.5" cy="33" r="33" fill="#2650D8"/>
<g id="Group">
<path id="Vector" d="M40.5641 23.5642C39.8284 22.8202 38.6296 22.8108 37.8823 23.5432L23.8653 37.3967L17.772 31.0887C17.0453 30.3312 15.8421 30.3063 15.0848 31.0331C14.3273 31.7598 14.3025 32.963 15.0292 33.7204C15.0325 33.7237 15.0357 33.7271 15.039 33.7305L22.4685 41.4298C22.824 41.7925 23.31 41.9979 23.8179 42H23.8388C24.3371 41.9984 24.8149 41.8012 25.1693 41.4507L40.547 26.2459C41.2899 25.5091 41.2975 24.3104 40.5641 23.5642Z" fill="white"/>
<path id="Vector_2" d="M33.8713 41.4306C34.2259 41.7924 34.7103 41.9976 35.2169 42.0008H35.2378C35.7361 41.9992 36.214 41.802 36.5683 41.4515L51.9461 26.2467C52.6431 25.4618 52.5719 24.2606 51.7871 23.5635C51.0756 22.9316 50.0064 22.9233 49.2852 23.544L35.2739 37.3975L34.774 36.8786C34.0474 36.1212 32.8442 36.0962 32.0868 36.823C31.3293 37.5496 31.3044 38.7528 32.0311 39.5103C32.0344 39.5137 32.0377 39.5171 32.041 39.5205L33.8713 41.4306Z" fill="white"/>
</g>
</g>
</svg>
