<svg width="17" height="17" viewBox="0 0 17 17" fill="none" xmlns="http://www.w3.org/2000/svg">
<g id="fi_12314107">
<path id="Vector" fill-rule="evenodd" clip-rule="evenodd" d="M5.10039 1.7002C4.16151 1.7002 3.40039 2.46131 3.40039 3.4002V13.6002C3.40039 14.5391 4.16151 15.3002 5.10039 15.3002H11.9004C12.8393 15.3002 13.6004 14.5391 13.6004 13.6002V6.30228C13.6004 5.85142 13.4213 5.419 13.1025 5.1002L10.2004 2.19811C9.88156 1.8793 9.44916 1.7002 8.99832 1.7002H5.10039ZM9.35039 6.8002C9.35039 6.33076 8.96984 5.9502 8.50039 5.9502C8.03095 5.9502 7.65039 6.33076 7.65039 6.8002V9.84813L6.55144 8.74916C6.21949 8.41721 5.68129 8.41721 5.34934 8.74916C5.0174 9.08109 5.0174 9.61931 5.34934 9.95123L7.89934 12.5012C8.23129 12.8332 8.7695 12.8332 9.10142 12.5012L11.6514 9.95123C11.9833 9.61931 11.9833 9.08109 11.6514 8.74916C11.3195 8.41721 10.7813 8.41721 10.4494 8.74916L9.35039 9.84813V6.8002Z" fill="#2650D8"/>
</g>
</svg>
