<svg width="14" height="14" viewBox="0 0 14 14" fill="none" xmlns="http://www.w3.org/2000/svg">
<g id="fi_2722985">
<g id="15">
<path id="Vector" d="M2.91688 5.24981C2.91621 5.13395 2.95006 5.02051 3.01411 4.92395C3.07816 4.8274 3.16951 4.75211 3.27652 4.70768C3.38353 4.66325 3.50134 4.65169 3.61495 4.67448C3.72855 4.69727 3.83279 4.75338 3.91438 4.83564L7.00022 7.92731L10.0861 4.83565C10.1959 4.7258 10.3449 4.66409 10.5002 4.66409C10.5771 4.66409 10.6533 4.67924 10.7244 4.70868C10.7954 4.73811 10.86 4.78126 10.9144 4.83565C10.9688 4.89003 11.0119 4.9546 11.0414 5.02567C11.0708 5.09673 11.0859 5.17289 11.0859 5.24981C11.0859 5.40515 11.0242 5.55413 10.9144 5.66398L7.41438 9.16398C7.30509 9.27263 7.15724 9.33361 7.00313 9.33361C6.84903 9.33361 6.70118 9.27263 6.59188 9.16398L3.09188 5.66398C3.03677 5.60995 2.99292 5.54553 2.96288 5.47443C2.93284 5.40334 2.9172 5.32699 2.91688 5.24981Z" fill="#7B7B7B"/>
</g>
</g>
</svg>
