<svg width="20" height="21" viewBox="0 0 20 21" fill="none" xmlns="http://www.w3.org/2000/svg">
<g id="fi_6467161">
<g id="Line">
<path id="Vector" d="M6.66683 19.5343H5.00016C4.45299 19.5343 3.91117 19.4287 3.40565 19.2235C2.90013 19.0184 2.4408 18.7177 2.05388 18.3386C1.66697 17.9596 1.36006 17.5096 1.15066 17.0143C0.94127 16.5191 0.833496 15.9883 0.833496 15.4522V5.65529C0.833496 4.57266 1.27248 3.53438 2.05388 2.76885C2.83529 2.00331 3.89509 1.57324 5.00016 1.57324H11.6668C12.214 1.57324 12.7558 1.67883 13.2613 1.88397C13.7669 2.08911 14.2262 2.38979 14.6131 2.76885C15 3.1479 15.3069 3.5979 15.5163 4.09316C15.7257 4.58841 15.8335 5.11923 15.8335 5.65529V7.28811C15.8335 7.50463 15.7457 7.71229 15.5894 7.8654C15.4331 8.01851 15.2212 8.10452 15.0002 8.10452C14.7791 8.10452 14.5672 8.01851 14.4109 7.8654C14.2546 7.71229 14.1668 7.50463 14.1668 7.28811V5.65529C14.1668 5.00571 13.9034 4.38274 13.4346 3.92342C12.9658 3.4641 12.3299 3.20606 11.6668 3.20606H5.00016C4.33712 3.20606 3.70124 3.4641 3.2324 3.92342C2.76355 4.38274 2.50016 5.00571 2.50016 5.65529V15.4522C2.50016 16.1018 2.76355 16.7248 3.2324 17.1841C3.70124 17.6434 4.33712 17.9014 5.00016 17.9014H6.66683C6.88784 17.9014 7.0998 17.9874 7.25608 18.1406C7.41236 18.2937 7.50016 18.5013 7.50016 18.7178C7.50016 18.9344 7.41236 19.142 7.25608 19.2951C7.0998 19.4482 6.88784 19.5343 6.66683 19.5343Z" fill="#2650D8"/>
<path id="Vector_2" d="M10.0003 11.3701H5.00033C4.77931 11.3701 4.56735 11.2841 4.41107 11.131C4.25479 10.9779 4.16699 10.7702 4.16699 10.5537C4.16699 10.3372 4.25479 10.1295 4.41107 9.97643C4.56735 9.82332 4.77931 9.7373 5.00033 9.7373H10.0003C10.2213 9.7373 10.4333 9.82332 10.5896 9.97643C10.7459 10.1295 10.8337 10.3372 10.8337 10.5537C10.8337 10.7702 10.7459 10.9779 10.5896 11.131C10.4333 11.2841 10.2213 11.3701 10.0003 11.3701Z" fill="#2650D8"/>
<path id="Vector_3" d="M6.66699 14.6357H5.00033C4.77931 14.6357 4.56735 14.5497 4.41107 14.3966C4.25479 14.2435 4.16699 14.0359 4.16699 13.8193C4.16699 13.6028 4.25479 13.3952 4.41107 13.2421C4.56735 13.0889 4.77931 13.0029 5.00033 13.0029H6.66699C6.88801 13.0029 7.09997 13.0889 7.25625 13.2421C7.41253 13.3952 7.50033 13.6028 7.50033 13.8193C7.50033 14.0359 7.41253 14.2435 7.25625 14.3966C7.09997 14.5497 6.88801 14.6357 6.66699 14.6357Z" fill="#2650D8"/>
<path id="Vector_4" d="M11.667 8.1045H5.00033C4.77931 8.1045 4.56735 8.01848 4.41107 7.86538C4.25479 7.71227 4.16699 7.50461 4.16699 7.28809C4.16699 7.07156 4.25479 6.86391 4.41107 6.7108C4.56735 6.55769 4.77931 6.47168 5.00033 6.47168H11.667C11.888 6.47168 12.1 6.55769 12.2562 6.7108C12.4125 6.86391 12.5003 7.07156 12.5003 7.28809C12.5003 7.50461 12.4125 7.71227 12.2562 7.86538C12.1 8.01848 11.888 8.1045 11.667 8.1045Z" fill="#2650D8"/>
<path id="Vector_5" d="M10.0001 19.5346C9.8809 19.5355 9.76289 19.5115 9.65401 19.464C9.54514 19.4165 9.44793 19.3467 9.36894 19.2592C9.28996 19.1718 9.23104 19.0688 9.19616 18.9571C9.16128 18.8455 9.15125 18.7278 9.16674 18.612L9.44174 16.522C9.50669 15.9835 9.75645 15.4826 10.1501 15.1015L14.8917 10.4561C15.3686 10.0128 16.001 9.76562 16.6584 9.76562C17.3158 9.76562 17.9482 10.0128 18.4251 10.4561C18.8932 10.9153 19.1562 11.5378 19.1562 12.1869C19.1562 12.8359 18.8932 13.4584 18.4251 13.9177L13.6834 18.563C13.2943 18.9487 12.7831 19.1933 12.2334 19.257L10.1084 19.5346H10.0001ZM16.6667 11.3705C16.5571 11.3698 16.4484 11.3904 16.3468 11.4311C16.2453 11.4717 16.1529 11.5316 16.0751 11.6072L11.3417 16.2689C11.2097 16.3961 11.1247 16.5627 11.1001 16.7424L10.9667 17.7874L12.0334 17.6568C12.2109 17.6238 12.3737 17.5384 12.5001 17.4119L17.2417 12.7665C17.3199 12.6906 17.3818 12.6003 17.4242 12.5008C17.4665 12.4014 17.4882 12.2946 17.4882 12.1869C17.4882 12.0791 17.4665 11.9724 17.4242 11.8729C17.3818 11.7734 17.3199 11.6831 17.2417 11.6072C17.0886 11.4584 16.8825 11.3735 16.6667 11.3705Z" fill="#2650D8"/>
</g>
</g>
</svg>
