<svg width="17" height="17" viewBox="0 0 17 17" fill="none" xmlns="http://www.w3.org/2000/svg">
<g id="pin_4262850 1" clip-path="url(#clip0_485_12755)">
<g id="Group">
<path id="Vector" d="M2.20996 6.28998C2.20996 9.99281 7.8306 16.5272 8.06966 16.8034C8.18124 16.9309 8.33529 17 8.49998 17C8.66466 17 8.81872 16.9309 8.93029 16.8034C9.16936 16.5272 14.79 9.99281 14.79 6.28998C14.79 2.82094 11.9691 0 8.49998 0C5.0309 0 2.20996 2.82094 2.20996 6.28998ZM11.815 6.28998C11.815 8.11748 10.3275 9.59969 8.49998 9.59969C6.67248 9.59969 5.18498 8.11748 5.18498 6.28998C5.18498 4.46248 6.67248 2.97499 8.49998 2.97499C10.3275 2.97499 11.815 4.46248 11.815 6.28998Z" fill="#646464"/>
<path id="Vector_2" d="M6.32184 6.28988C6.32184 7.49051 7.29932 8.46802 8.49995 8.46802C9.70058 8.46802 10.6781 7.49051 10.6781 6.28988C10.6781 5.08396 9.70058 4.10645 8.49995 4.10645C7.29932 4.10645 6.32184 5.08396 6.32184 6.28988Z" fill="#646464"/>
</g>
</g>
<defs>
<clipPath id="clip0_485_12755">
<rect width="17" height="17" fill="white"/>
</clipPath>
</defs>
</svg>
