<svg width="70" height="70" viewBox="0 0 70 70" fill="none" xmlns="http://www.w3.org/2000/svg">
<g filter="url(#filter0_d_2911_5571)">
<rect x="10" y="8" width="50" height="50" rx="6" fill="white"/>
</g>
<g clip-path="url(#clip0_2911_5571)">
<path d="M35.5 37.125C37.502 37.125 39.125 35.502 39.125 33.5C39.125 31.498 37.502 29.875 35.5 29.875C33.498 29.875 31.875 31.498 31.875 33.5C31.875 35.502 33.498 37.125 35.5 37.125Z" stroke="black" stroke-width="2" stroke-linecap="round" stroke-linejoin="round"/>
<path d="M35.5 43.1663C40.8388 43.1663 45.1667 38.8384 45.1667 33.4997C45.1667 28.1609 40.8388 23.833 35.5 23.833C30.1613 23.833 25.8333 28.1609 25.8333 33.4997C25.8333 38.8384 30.1613 43.1663 35.5 43.1663Z" stroke="black" stroke-width="2" stroke-linecap="round" stroke-linejoin="round"/>
<path d="M35.5 21.417V23.8337" stroke="black" stroke-width="2" stroke-linecap="round" stroke-linejoin="round"/>
<path d="M35.5 43.167V45.5837" stroke="black" stroke-width="2" stroke-linecap="round" stroke-linejoin="round"/>
<path d="M45.1667 33.5H47.5833" stroke="black" stroke-width="2" stroke-linecap="round" stroke-linejoin="round"/>
<path d="M23.4167 33.5H25.8333" stroke="black" stroke-width="2" stroke-linecap="round" stroke-linejoin="round"/>
</g>
<defs>
<filter id="filter0_d_2911_5571" x="0.9" y="0.9" width="68.2" height="68.2" filterUnits="userSpaceOnUse" color-interpolation-filters="sRGB">
<feFlood flood-opacity="0" result="BackgroundImageFix"/>
<feColorMatrix in="SourceAlpha" type="matrix" values="0 0 0 0 0 0 0 0 0 0 0 0 0 0 0 0 0 0 127 0" result="hardAlpha"/>
<feOffset dy="2"/>
<feGaussianBlur stdDeviation="4.55"/>
<feComposite in2="hardAlpha" operator="out"/>
<feColorMatrix type="matrix" values="0 0 0 0 0 0 0 0 0 0 0 0 0 0 0 0 0 0 0.25 0"/>
<feBlend mode="normal" in2="BackgroundImageFix" result="effect1_dropShadow_2911_5571"/>
<feBlend mode="normal" in="SourceGraphic" in2="effect1_dropShadow_2911_5571" result="shape"/>
</filter>
<clipPath id="clip0_2911_5571">
<rect width="29" height="29" fill="white" transform="translate(21 19)"/>
</clipPath>
</defs>
</svg>
