<?xml version="1.0" encoding="UTF-8"?>
<svg version="1.1" xmlns="http://www.w3.org/2000/svg" width="512" height="512">
<path d="M0 0 C0.639375 -0.01289063 1.27875 -0.02578125 1.9375 -0.0390625 C5.23008998 1.0210517 6.79989513 3.00930566 9 5.625 C9.60127258 8.65596008 9.60127258 8.65596008 9.56762695 12.06762695 C9.5672493 13.34857742 9.56687164 14.62952789 9.56648254 15.94929504 C9.54095309 17.33730044 9.51487318 18.7252958 9.48828125 20.11328125 C9.47894881 21.54101827 9.47183473 22.96877136 9.46684265 24.39653015 C9.44780601 28.14357168 9.39873633 31.88963493 9.34332275 35.6362915 C9.29205685 39.46377327 9.2693131 43.29141405 9.24414062 47.11914062 C9.19061232 54.62153841 9.10534252 62.12313182 9 69.625 C9.89472519 69.61663872 9.89472519 69.61663872 10.80752563 69.60810852 C16.45126319 69.57728935 21.79761121 69.9528084 27.375 70.8125 C28.23859131 70.9455957 29.10218262 71.07869141 29.99194336 71.21582031 C59.93075893 76.08533748 89.10381059 87.78257388 113 106.625 C113.94617188 107.36234375 114.89234375 108.0996875 115.8671875 108.859375 C136.62100334 125.4389106 153.48564488 145.13525423 166 168.625 C166.35400879 169.28902832 166.70801758 169.95305664 167.07275391 170.63720703 C176.87574847 189.40136228 182.88972724 209.73579809 186 230.625 C186.1045752 231.30175781 186.20915039 231.97851562 186.31689453 232.67578125 C186.8253804 236.26259638 187.04652514 239.7581856 187.02514648 243.37304688 C187.02151596 244.17254761 187.01788544 244.97204834 187.0141449 245.79577637 C187.00714317 246.70124207 187.00714317 246.70124207 187 247.625 C187.79069382 247.61389694 188.58138763 247.60279388 189.39604187 247.59135437 C196.85551448 247.49107869 204.31465932 247.41499853 211.77463055 247.36593914 C215.60973093 247.3398688 219.44427343 247.30451966 223.27905273 247.24780273 C226.98141252 247.19338836 230.68323649 247.16356017 234.38596535 247.15061378 C235.79699958 247.14139053 237.20800518 247.12337884 238.61881065 247.09634972 C240.59803933 247.05994595 242.5778097 247.05795667 244.55737305 247.05737305 C245.68322311 247.04626999 246.80907318 247.03516693 247.96903992 247.02372742 C251.95927268 247.81529758 253.4510185 249.53425696 256 252.625 C256.6640625 254.6875 256.6640625 254.6875 256.625 256.625 C256.63789062 257.264375 256.65078125 257.90375 256.6640625 258.5625 C255.6039483 261.85508998 253.61569434 263.42489513 251 265.625 C247.96903992 266.22627258 247.96903992 266.22627258 244.55737305 266.19262695 C242.63594734 266.19206047 242.63594734 266.19206047 240.67570496 266.19148254 C239.28769956 266.16595309 237.8997042 266.13987318 236.51171875 266.11328125 C235.08398173 266.10394881 233.65622864 266.09683473 232.22846985 266.09184265 C228.48142832 266.07280601 224.73536507 266.02373633 220.9887085 265.96832275 C217.16122673 265.91705685 213.33358595 265.8943131 209.50585938 265.86914062 C202.00346159 265.81561232 194.50186818 265.73034252 187 265.625 C187.00770416 266.21214783 187.01540833 266.79929565 187.02334595 267.40423584 C187.37756818 313.90795905 162.71627385 359.12681493 131 391.625 C128.43831856 394.10421283 125.76547264 396.37661073 123 398.625 C122.47422363 399.06312012 121.94844727 399.50124023 121.40673828 399.95263672 C113.0195551 406.93926858 104.55278588 413.28400969 95 418.625 C94.30422852 419.01929199 93.60845703 419.41358398 92.89160156 419.81982422 C67.50888007 434.09143222 38.38032901 443.86307764 9 443.625 C9.01110306 444.41569382 9.02220612 445.20638763 9.03364563 446.02104187 C9.13392131 453.48051448 9.21000147 460.93965932 9.25906086 468.39963055 C9.2851312 472.23473093 9.32048034 476.06927343 9.37719727 479.90405273 C9.43161164 483.60641252 9.46143983 487.30823649 9.47438622 491.01096535 C9.48360947 492.42199958 9.50162116 493.83300518 9.52865028 495.24381065 C9.56505405 497.22303933 9.56704333 499.2028097 9.56762695 501.18237305 C9.57873001 502.30822311 9.58983307 503.43407318 9.60127258 504.59403992 C8.80970242 508.58427268 7.09074304 510.0760185 4 512.625 C1.9375 513.2890625 1.9375 513.2890625 0 513.25 C-0.639375 513.26289062 -1.27875 513.27578125 -1.9375 513.2890625 C-5.23008998 512.2289483 -6.79989513 510.24069434 -9 507.625 C-9.60127258 504.59403992 -9.60127258 504.59403992 -9.56762695 501.18237305 C-9.5672493 499.90142258 -9.56687164 498.62047211 -9.56648254 497.30070496 C-9.54095309 495.91269956 -9.51487318 494.5247042 -9.48828125 493.13671875 C-9.47894881 491.70898173 -9.47183473 490.28122864 -9.46684265 488.85346985 C-9.44780601 485.10642832 -9.39873633 481.36036507 -9.34332275 477.6137085 C-9.29205685 473.78622673 -9.2693131 469.95858595 -9.24414062 466.13085938 C-9.19061232 458.62846159 -9.10534252 451.12686818 -9 443.625 C-10.11044678 443.57093994 -11.22089355 443.51687988 -12.36499023 443.46118164 C-20.33933779 443.04948258 -28.21367306 442.61873293 -36.0625 441.0625 C-36.92552734 440.89250488 -37.78855469 440.72250977 -38.67773438 440.54736328 C-73.3788344 433.24872234 -103.9194431 416.20181634 -129.9375 392.4375 C-130.44506836 391.97480713 -130.95263672 391.51211426 -131.47558594 391.03540039 C-145.55317348 377.88785674 -156.96969889 361.55207575 -166 344.625 C-166.38639648 343.90683105 -166.77279297 343.18866211 -167.17089844 342.44873047 C-179.4792418 319.17843001 -187.31030691 292.0521248 -187 265.625 C-187.79069382 265.63610306 -188.58138763 265.64720612 -189.39604187 265.65864563 C-196.85551448 265.75892131 -204.31465932 265.83500147 -211.77463055 265.88406086 C-215.60973093 265.9101312 -219.44427343 265.94548034 -223.27905273 266.00219727 C-226.98141252 266.05661164 -230.68323649 266.08643983 -234.38596535 266.09938622 C-235.79699958 266.10860947 -237.20800518 266.12662116 -238.61881065 266.15365028 C-240.59803933 266.19005405 -242.5778097 266.19204333 -244.55737305 266.19262695 C-245.68322311 266.20373001 -246.80907318 266.21483307 -247.96903992 266.22627258 C-251.95927268 265.43470242 -253.4510185 263.71574304 -256 260.625 C-256.6640625 258.5625 -256.6640625 258.5625 -256.625 256.625 C-256.63789063 255.985625 -256.65078125 255.34625 -256.6640625 254.6875 C-255.6039483 251.39491002 -253.61569434 249.82510487 -251 247.625 C-247.96903992 247.02372742 -247.96903992 247.02372742 -244.55737305 247.05737305 C-242.63594734 247.05793953 -242.63594734 247.05793953 -240.67570496 247.05851746 C-239.28769956 247.08404691 -237.8997042 247.11012682 -236.51171875 247.13671875 C-235.08398173 247.14605119 -233.65622864 247.15316527 -232.22846985 247.15815735 C-228.48142832 247.17719399 -224.73536507 247.22626367 -220.9887085 247.28167725 C-217.16122673 247.33294315 -213.33358595 247.3556869 -209.50585938 247.38085938 C-202.00346159 247.43438768 -194.50186818 247.51965748 -187 247.625 C-187.00688843 247.03835068 -187.01377686 246.45170135 -187.02087402 245.84727478 C-187.34015424 198.99020255 -163.37696679 156.94094614 -132.73046875 123.37109375 C-119.66383164 110.22968333 -104.32094489 99.32011753 -88 90.625 C-87.33597168 90.27099121 -86.67194336 89.91698242 -85.98779297 89.55224609 C-67.22363772 79.74925153 -46.88920191 73.73527276 -26 70.625 C-25.32324219 70.5204248 -24.64648438 70.41584961 -23.94921875 70.30810547 C-20.36240362 69.7996196 -16.8668144 69.57847486 -13.25195312 69.59985352 C-12.05270203 69.6052993 -12.05270203 69.6052993 -10.82922363 69.6108551 C-10.22557983 69.61552292 -9.62193604 69.62019073 -9 69.625 C-9.01110306 68.83430618 -9.02220612 68.04361237 -9.03364563 67.22895813 C-9.13392131 59.76948552 -9.21000147 52.31034068 -9.25906086 44.85036945 C-9.2851312 41.01526907 -9.32048034 37.18072657 -9.37719727 33.34594727 C-9.43161164 29.64358748 -9.46143983 25.94176351 -9.47438622 22.23903465 C-9.48360947 20.82800042 -9.50162116 19.41699482 -9.52865028 18.00618935 C-9.56505405 16.02696067 -9.56704333 14.0471903 -9.56762695 12.06762695 C-9.57873001 10.94177689 -9.58983307 9.81592682 -9.60127258 8.65596008 C-8.63439872 3.78203737 -5.2093985 -0.1050282 0 0 Z M-122 138.625 C-148.62247583 167.7336061 -169.52899131 207.2100638 -169 247.625 C-168.38247864 247.63530746 -167.76495728 247.64561493 -167.12872314 247.65623474 C-160.70484982 247.76436746 -154.28111484 247.87896011 -147.85742188 247.99731445 C-145.45966485 248.04064155 -143.0618774 248.08231822 -140.6640625 248.12231445 C-137.21865674 248.18007063 -133.77340375 248.24375006 -130.328125 248.30859375 C-129.25508118 248.32530624 -128.18203735 248.34201874 -127.07647705 248.35923767 C-126.07574158 248.37918289 -125.0750061 248.39912811 -124.04394531 248.41967773 C-123.16458313 248.43522202 -122.28522095 248.4507663 -121.37921143 248.46678162 C-119.0777343 248.61983064 -117.15461611 248.79303759 -115 249.625 C-114.10785348 252.30143957 -113.86459789 253.87884378 -113.875 256.625 C-113.87113281 257.6459375 -113.87113281 257.6459375 -113.8671875 258.6875 C-114 260.625 -114 260.625 -115 263.625 C-117.9530207 264.76525055 -120.90460124 264.77482881 -124.04394531 264.83032227 C-125.04468079 264.85026749 -126.04541626 264.87021271 -127.07647705 264.89076233 C-128.68604279 264.91583107 -128.68604279 264.91583107 -130.328125 264.94140625 C-131.43226746 264.96218735 -132.53640991 264.98296844 -133.67401123 265.00437927 C-137.19927783 265.06973646 -140.72461859 265.12869564 -144.25 265.1875 C-146.64063265 265.23069836 -149.03125782 265.27431307 -151.421875 265.31835938 C-157.28117173 265.42540372 -163.14054214 265.52719585 -169 265.625 C-168.35252329 277.76906057 -168.35252329 277.76906057 -166.375 289.75 C-166.11722778 290.9265918 -166.11722778 290.9265918 -165.85424805 292.12695312 C-155.35062151 337.80038025 -128.13310479 376.35999886 -88.39257812 401.26660156 C-64.8246733 415.54065278 -36.84907169 425.96950254 -9 425.625 C-8.9845388 424.69871796 -8.9845388 424.69871796 -8.96876526 423.75372314 C-8.86063254 417.32984982 -8.74603989 410.90611484 -8.62768555 404.48242188 C-8.58435845 402.08466485 -8.54268178 399.6868774 -8.50268555 397.2890625 C-8.44492937 393.84365674 -8.38124994 390.39840375 -8.31640625 386.953125 C-8.29969376 385.88008118 -8.28298126 384.80703735 -8.26576233 383.70147705 C-8.24581711 382.70074158 -8.22587189 381.7000061 -8.20532227 380.66894531 C-8.18977798 379.78958313 -8.1742337 378.91022095 -8.15821838 378.00421143 C-8.00516936 375.7027343 -7.83196241 373.77961611 -7 371.625 C-4.32356043 370.73285348 -2.74615622 370.48959789 0 370.5 C0.680625 370.49742187 1.36125 370.49484375 2.0625 370.4921875 C4 370.625 4 370.625 7 371.625 C8.14025055 374.5780207 8.14982881 377.52960124 8.20532227 380.66894531 C8.22526749 381.66968079 8.24521271 382.67041626 8.26576233 383.70147705 C8.29083107 385.31104279 8.29083107 385.31104279 8.31640625 386.953125 C8.33718735 388.05726746 8.35796844 389.16140991 8.37937927 390.29901123 C8.44473646 393.82427783 8.50369564 397.34961859 8.5625 400.875 C8.60569836 403.26563265 8.64931307 405.65625782 8.69335938 408.046875 C8.80040372 413.90617173 8.90219585 419.76554214 9 425.625 C21.04788983 424.99395944 21.04788983 424.99395944 32.9375 423.0625 C33.71561035 422.89177979 34.4937207 422.72105957 35.29541016 422.54516602 C80.99530847 411.96490911 119.68224016 384.84228561 144.64160156 345.01757812 C158.91565278 321.4496733 169.34450254 293.47407169 169 265.625 C168.07371796 265.6095388 168.07371796 265.6095388 167.12872314 265.59376526 C160.70484982 265.48563254 154.28111484 265.37103989 147.85742188 265.25268555 C145.45966485 265.20935845 143.0618774 265.16768178 140.6640625 265.12768555 C137.21865674 265.06992937 133.77340375 265.00624994 130.328125 264.94140625 C129.25508118 264.92469376 128.18203735 264.90798126 127.07647705 264.89076233 C126.07574158 264.87081711 125.0750061 264.85087189 124.04394531 264.83032227 C123.16458313 264.81477798 122.28522095 264.7992337 121.37921143 264.78321838 C119.0777343 264.63016936 117.15461611 264.45696241 115 263.625 C114.10785348 260.94856043 113.86459789 259.37115622 113.875 256.625 C113.87242187 255.944375 113.86984375 255.26375 113.8671875 254.5625 C114 252.625 114 252.625 115 249.625 C117.9530207 248.48474945 120.90460124 248.47517119 124.04394531 248.41967773 C125.04468079 248.39973251 126.04541626 248.37978729 127.07647705 248.35923767 C128.68604279 248.33416893 128.68604279 248.33416893 130.328125 248.30859375 C131.98433868 248.2774221 131.98433868 248.2774221 133.67401123 248.24562073 C137.19927783 248.18026354 140.72461859 248.12130436 144.25 248.0625 C146.64063265 248.01930164 149.03125782 247.97568693 151.421875 247.93164062 C157.28117173 247.82459628 163.14054214 247.72280415 169 247.625 C168.36895944 235.57711017 168.36895944 235.57711017 166.4375 223.6875 C166.26677979 222.90938965 166.09605957 222.1312793 165.92016602 221.32958984 C155.64774538 176.95934601 129.36246383 137.81999782 90.72119141 113.17138672 C66.4566927 98.56663884 37.67565983 87.24966414 9 87.625 C8.98969254 88.24252136 8.97938507 88.86004272 8.96876526 89.49627686 C8.86063254 95.92015018 8.74603989 102.34388516 8.62768555 108.76757812 C8.58435845 111.16533515 8.54268178 113.5631226 8.50268555 115.9609375 C8.44492937 119.40634326 8.38124994 122.85159625 8.31640625 126.296875 C8.29969376 127.36991882 8.28298126 128.44296265 8.26576233 129.54852295 C8.24581711 130.54925842 8.22587189 131.5499939 8.20532227 132.58105469 C8.18977798 133.46041687 8.1742337 134.33977905 8.15821838 135.24578857 C8.00516936 137.5472657 7.83196241 139.47038389 7 141.625 C4.32356043 142.51714652 2.74615622 142.76040211 0 142.75 C-1.0209375 142.75386719 -1.0209375 142.75386719 -2.0625 142.7578125 C-4 142.625 -4 142.625 -7 141.625 C-8.14025055 138.6719793 -8.14982881 135.72039876 -8.20532227 132.58105469 C-8.22526749 131.58031921 -8.24521271 130.57958374 -8.26576233 129.54852295 C-8.29083107 127.93895721 -8.29083107 127.93895721 -8.31640625 126.296875 C-8.33718735 125.19273254 -8.35796844 124.08859009 -8.37937927 122.95098877 C-8.44473646 119.42572217 -8.50369564 115.90038141 -8.5625 112.375 C-8.60569836 109.98436735 -8.64931307 107.59374218 -8.69335938 105.203125 C-8.80040372 99.34382827 -8.90219585 93.48445786 -9 87.625 C-51.14730674 87.13344851 -92.68846783 109.48977779 -122 138.625 Z " fill="#000000" transform="translate(256,-0.625)"/>
<path d="M0 0 C10.18819139 8.59004373 15.82319098 19.13920375 19.08984375 31.93359375 C20.44240765 48.50250148 17.09337469 63.37116718 6.15234375 76.30859375 C-4.15899614 87.06900371 -17.42212876 92.78236965 -32.22265625 93.24609375 C-47.25473857 93.06005313 -59.50517561 87.7733135 -70.37109375 77.4765625 C-80.81006159 66.16471168 -85.04338788 52.59547739 -84.87109375 37.43359375 C-83.9745011 22.82245433 -77.18627649 10.92870141 -66.66015625 0.99609375 C-46.98257653 -14.80714385 -20.17992661 -15.20161872 0 0 Z M-58.97265625 19.30859375 C-64.88550373 26.71607768 -67.54978052 35.57266634 -66.66015625 44.99609375 C-64.8434488 54.54150576 -60.21103325 62.62829282 -52.5859375 68.71484375 C-44.60166346 74.02689625 -35.73463698 76.34252718 -26.23828125 74.53515625 C-16.95921509 72.08571332 -9.02390825 67.05807465 -3.66015625 58.99609375 C1.03720589 50.24876234 2.78321266 41.7881795 0.21484375 32.05859375 C-2.7716832 22.97341129 -8.44117511 15.33571873 -16.9296875 10.77734375 C-32.05671794 3.75318368 -47.57963362 7.001845 -58.97265625 19.30859375 Z " fill="#000000" transform="translate(288.66015625,215.00390625)"/>
</svg>
