<svg width="31" height="30" viewBox="0 0 31 30" fill="none" xmlns="http://www.w3.org/2000/svg">
<g id="Logout" clip-path="url(#clip0_1880_8397)">
<g id="Group">
<path id="Vector" d="M21.514 6.86001V1.80202C21.514 0.995676 20.8546 0.335938 20.048 0.335938H1.9661C1.15974 0.335938 0.5 0.995676 0.5 1.80202V2.75498V21.8629V22.5229C0.5 23.0602 0.817654 23.5734 1.28192 23.8177L12.4243 29.5846C12.913 29.8289 13.4994 29.4871 13.4994 28.9248V23.3048H20.048C20.8546 23.3048 21.514 22.6453 21.514 21.8388V13.8242H18.5819V19.6396C18.5819 20.055 18.2642 20.3727 17.8488 20.3727H13.5238V12.8468V8.082V7.93539C13.5238 7.39782 13.2062 6.88469 12.7419 6.64035L6.16891 3.26835H17.8488C18.2642 3.26835 18.5819 3.586 18.5819 4.00139V6.88469H21.514V6.86001Z" fill="white"/>
<path id="Vector_2" d="M25.2771 4.46493L30.0419 9.2297C30.6527 9.84057 30.6527 10.7447 30.0419 11.3555L25.2771 16.1203C24.6662 16.7312 23.7374 16.7558 23.1265 16.145C22.5403 15.5588 22.6134 14.5812 23.1757 13.9947L25.3257 11.8689H16.9936C16.5785 11.8689 16.1628 11.6979 15.894 11.3802C15.2099 10.6472 15.3809 9.35212 16.2606 8.86342C16.4805 8.74125 16.7493 8.66795 16.9936 8.66795H25.3259C25.3259 8.66795 23.2003 6.54212 23.1759 6.54212C22.6137 5.98013 22.5403 4.9783 23.1268 4.4163C23.7132 3.82987 24.6662 3.85406 25.2771 4.46493Z" fill="white"/>
</g>
</g>
<defs>
<clipPath id="clip0_1880_8397">
<rect width="30" height="30" fill="white" transform="translate(0.5)"/>
</clipPath>
</defs>
</svg>
