<svg width="24" height="24" viewBox="0 0 24 24" fill="none" xmlns="http://www.w3.org/2000/svg">
<g id="fi_2722985">
<g id="15">
<path id="Vector" d="M8.99996 19.0002C8.80133 19.0013 8.60686 18.9433 8.44134 18.8335C8.27582 18.7237 8.14675 18.5671 8.07059 18.3837C7.99442 18.2002 7.97461 17.9983 8.01368 17.8035C8.05275 17.6088 8.14893 17.4301 8.28996 17.2902L13.59 12.0002L8.28996 6.71019C8.10165 6.52188 7.99586 6.26649 7.99586 6.00019C7.99586 5.86833 8.02184 5.73776 8.0723 5.61594C8.12276 5.49411 8.19672 5.38342 8.28996 5.29019C8.38319 5.19695 8.49388 5.12299 8.61571 5.07253C8.73753 5.02207 8.8681 4.99609 8.99996 4.99609C9.26626 4.99609 9.52165 5.10188 9.70996 5.29019L15.71 11.2902C15.8962 11.4775 16.0007 11.731 16.0007 11.9952C16.0007 12.2594 15.8962 12.5128 15.71 12.7002L9.70996 18.7002C9.61734 18.7947 9.5069 18.8698 9.38502 18.9213C9.26315 18.9728 9.13226 18.9996 8.99996 19.0002Z" fill="#2650D8"/>
</g>
</g>
</svg>
