<svg width="309" height="309" viewBox="0 0 309 309" fill="none" xmlns="http://www.w3.org/2000/svg">
<path d="M68.6478 179.495C21.2349 206.869 21.2361 251.252 68.6503 278.625C116.065 306 192.938 306 240.351 278.625C287.764 251.251 287.763 206.869 240.349 179.495C192.934 152.121 116.061 152.121 68.6478 179.495Z" fill="#FAFAFA"/>
<path d="M194.899 276.128C216.058 263.912 216.056 244.105 194.894 231.889C173.733 219.673 139.427 219.672 118.27 231.887C97.1136 244.102 97.1161 263.908 118.275 276.125C139.435 288.342 173.74 288.344 194.899 276.128Z" fill="#E0E0E0"/>
<path d="M24.5508 89.3684C24.5508 90.6934 25.6249 91.7681 26.9505 91.7681C28.2755 91.7681 29.3496 90.6941 29.3496 89.3684C29.3496 88.0428 28.2755 86.9688 26.9505 86.9688C25.6249 86.9688 24.5508 88.0428 24.5508 89.3684Z" fill="#F5F5F5"/>
<path d="M280.824 151.532C280.824 152.857 281.898 153.931 283.224 153.931C284.549 153.931 285.624 152.857 285.624 151.532C285.624 150.207 284.55 149.132 283.224 149.132C281.898 149.132 280.824 150.207 280.824 151.532Z" fill="#F5F5F5"/>
<path d="M235.155 39.5755C235.155 40.9005 236.229 41.9752 237.555 41.9752C238.88 41.9752 239.954 40.9011 239.954 39.5755C239.954 38.2505 238.88 37.1758 237.555 37.1758C236.23 37.1764 235.155 38.2505 235.155 39.5755Z" fill="#F5F5F5"/>
<path d="M285.623 109.967C285.623 111.292 286.697 112.367 288.023 112.367C289.348 112.367 290.422 111.293 290.422 109.967C290.422 108.642 289.348 107.568 288.023 107.568C286.697 107.568 285.623 108.642 285.623 109.967Z" fill="#F5F5F5"/>
<path d="M24.5508 153.932C24.5508 155.257 25.6249 156.331 26.9505 156.331C28.2755 156.331 29.3496 155.257 29.3496 153.932C29.3496 152.607 28.2755 151.532 26.9505 151.532C25.6249 151.532 24.5508 152.607 24.5508 153.932Z" fill="#F5F5F5"/>
<path d="M56.252 87.404C56.252 83.9302 59.0787 81.1035 62.5531 81.1035C66.0281 81.1035 68.8548 83.9302 68.8548 87.404C68.8548 90.8778 66.0281 93.7045 62.5531 93.7045C59.0793 93.7045 56.252 90.8778 56.252 87.404ZM57.25 87.404C57.25 90.3284 59.6287 92.7071 62.5531 92.7071C65.4775 92.7071 67.8568 90.3284 67.8568 87.404C67.8568 84.4796 65.4768 82.101 62.5531 82.101C59.6287 82.101 57.25 84.4796 57.25 87.404Z" fill="#F5F5F5"/>
<path d="M254.81 91.7523C254.81 88.2785 257.636 85.4512 261.11 85.4512C264.585 85.4512 267.412 88.2779 267.412 91.7523C267.412 95.2261 264.585 98.0528 261.11 98.0528C257.637 98.0528 254.81 95.2261 254.81 91.7523ZM255.808 91.7523C255.808 94.6767 258.186 97.0554 261.111 97.0554C264.035 97.0554 266.415 94.6767 266.415 91.7523C266.415 88.8279 264.036 86.4492 261.111 86.4492C258.186 86.4492 255.808 88.8279 255.808 91.7523Z" fill="#F5F5F5"/>
<path d="M272.781 49.8952C272.781 46.4215 275.608 43.5947 279.082 43.5947C282.557 43.5947 285.384 46.4215 285.384 49.8952C285.384 53.369 282.557 56.1964 279.082 56.1964C275.608 56.1964 272.781 53.3696 272.781 49.8952ZM273.779 49.8952C273.779 52.8196 276.158 55.1983 279.082 55.1983C282.007 55.1983 284.387 52.8196 284.387 49.8952C284.387 46.9709 282.007 44.5922 279.082 44.5922C276.158 44.5928 273.779 46.9709 273.779 49.8952Z" fill="#F5F5F5"/>
<path d="M29.6387 44.0984C29.6387 40.6246 32.4654 37.7979 35.9392 37.7979C39.4142 37.7979 42.2409 40.6246 42.2409 44.0984C42.2409 47.5721 39.4142 50.3995 35.9392 50.3995C32.4654 50.3995 29.6387 47.5728 29.6387 44.0984ZM30.6361 44.0984C30.6361 47.0227 33.0148 49.4014 35.9392 49.4014C38.8636 49.4014 41.2435 47.0227 41.2435 44.0984C41.2435 41.174 38.8636 38.7953 35.9392 38.7953C33.0148 38.7959 30.6361 41.174 30.6361 44.0984Z" fill="#F5F5F5"/>
<path opacity="0.15" d="M156.586 145.808C193.973 145.808 224.281 115.5 224.281 78.1131C224.281 40.7261 193.973 10.418 156.586 10.418C119.199 10.418 88.8906 40.7261 88.8906 78.1131C88.8906 115.5 119.199 145.808 156.586 145.808Z" fill="#2650D8"/>
<path d="M165.706 231.471L164.44 219.678L177.94 220.567C177.94 220.567 177.735 226.968 177.546 230.591C177.434 232.734 180.321 236.71 180.321 236.71C180.321 236.71 173.979 240.109 170.581 238.919C167.184 237.73 165.387 233.503 165.434 232.581C165.481 231.659 165.706 231.471 165.706 231.471Z" fill="#C8856A"/>
<path d="M198.216 249.892C198.43 249.888 198.786 252.079 197.645 253.033C196.327 254.133 192.436 255.969 187.246 255.431C182.056 254.892 179.227 253.441 177.128 251.853C175.029 250.265 172.087 248.026 169.737 247.583C167.553 247.17 165.174 246.288 164.467 245.67C163.76 245.053 163.812 242.253 163.812 242.253L198.216 249.892Z" fill="#263238"/>
<path d="M165.703 231.449C165.703 231.449 165.053 231.467 164.93 232.117C164.783 232.891 164.647 235.136 164.325 236.408C163.878 238.176 163.618 241.787 163.926 243.215C164.234 244.645 167.799 245.58 170.079 246.35C172.408 247.135 175.114 248.791 177.495 250.565C179.959 252.401 185.111 254.267 188.486 254.187C192.48 254.091 196.958 252.804 197.96 251.054C199.201 248.888 200.089 246.381 194.126 243.915C192.997 243.448 189.024 241.335 187.668 240.567C184.002 238.491 181.416 236.572 179.684 232.816C179.482 232.377 179.268 231.89 178.814 231.673C178.465 231.507 178.048 231.538 177.66 231.596C176.676 231.742 172.748 232.317 171.855 232.733C171.066 233.101 169.946 233.532 169.978 234.485C169.99 234.816 170.097 235.137 170.217 235.449C170.291 235.642 170.351 235.9 170.171 236.018C170.001 236.129 169.771 236.009 169.615 235.883C168.986 235.374 168.521 234.715 167.989 234.117C167.704 233.797 167.395 233.49 167.038 233.24C166.713 233.012 166.302 232.902 166.014 232.642C165.648 232.313 165.727 231.895 165.703 231.449Z" fill="#455A64"/>
<path d="M177.495 250.565C176.449 249.785 175.34 249.034 174.228 248.364V248.359C174.228 248.359 181.257 252.202 184.042 250.355C185.837 249.165 184.951 247.772 184.9 247.324C184.849 246.874 191.199 243.59 192.957 243.364C193.452 243.61 193.866 243.807 194.126 243.914C200.09 246.381 199.201 248.888 197.961 251.053C196.958 252.804 193.722 254.211 188.56 254.3C185.183 254.358 179.959 252.401 177.495 250.565Z" fill="#37474F"/>
<path d="M184.392 246.021C188.097 247.336 186.536 248.006 185.507 248.162C184.478 248.318 178.225 245.036 174.399 242.302C170.408 239.45 167.87 236.302 166.387 235.255C165.835 234.864 165.239 234.383 164.709 233.934C164.794 233.173 164.861 232.482 164.93 232.117C165.054 231.467 165.703 231.449 165.703 231.449C165.727 231.896 165.648 232.313 166.014 232.643C166.302 232.903 166.713 233.012 167.038 233.24C167.395 233.491 167.704 233.798 167.989 234.118C168.521 234.716 168.986 235.374 169.615 235.883C172.893 239.646 180.687 244.706 184.392 246.021Z" fill="#37474F"/>
<path d="M185.237 247.659C185.156 247.66 185.074 247.636 185.006 247.586C184.847 247.469 184.821 247.255 184.946 247.107C185.967 245.898 190.847 242.988 193.561 243.22C193.762 243.236 193.909 243.403 193.89 243.59C193.872 243.778 193.715 243.91 193.494 243.899C190.96 243.689 186.326 246.571 185.517 247.529C185.448 247.612 185.343 247.657 185.237 247.659Z" fill="#263238"/>
<path d="M181.995 245.864C181.913 245.865 181.832 245.842 181.763 245.791C181.605 245.675 181.579 245.461 181.704 245.312C182.724 244.105 187.602 241.197 190.318 241.427C190.519 241.444 190.667 241.61 190.648 241.797C190.63 241.984 190.457 242.122 190.251 242.106C187.716 241.898 183.083 244.777 182.275 245.734C182.205 245.818 182.101 245.862 181.995 245.864Z" fill="#263238"/>
<path d="M178.753 244.167C178.673 244.169 178.59 244.145 178.522 244.095C178.364 243.978 178.338 243.764 178.462 243.616C179.483 242.407 184.362 239.495 187.077 239.73C187.278 239.746 187.425 239.913 187.406 240.1C187.388 240.287 187.219 240.425 187.01 240.409C184.474 240.198 179.842 243.08 179.033 244.038C178.964 244.121 178.859 244.166 178.753 244.167Z" fill="#263238"/>
<path d="M175.744 242.217C175.662 242.218 175.581 242.195 175.512 242.144C175.354 242.028 175.328 241.813 175.453 241.665C176.472 240.456 181.363 237.547 184.067 237.78C184.268 237.796 184.415 237.963 184.396 238.149C184.378 238.337 184.207 238.474 184 238.459C181.468 238.249 176.831 241.129 176.023 242.087C175.954 242.171 175.85 242.216 175.744 242.217Z" fill="#263238"/>
<path d="M172.795 240.266C172.715 240.267 172.635 240.245 172.567 240.196C172.407 240.082 172.378 239.868 172.5 239.718C173.901 238.006 179.022 235.557 181.735 235.788C181.936 235.804 182.084 235.971 182.065 236.157C182.046 236.345 181.875 236.477 181.668 236.466C179.226 236.26 174.322 238.613 173.078 240.132C173.008 240.218 172.901 240.264 172.795 240.266Z" fill="#263238"/>
<path d="M138.441 238.773L141.327 227.549L127.55 225.663L127.125 236.485C127.125 236.485 125.731 240.37 126.595 241.777C127.459 243.185 136.62 244.634 137.454 243.691C138.29 242.749 138.441 238.773 138.441 238.773Z" fill="#C8856A"/>
<path d="M137.46 263.16C137.072 266.629 136.355 268.874 134.862 270.758C133.37 272.643 130.701 272.973 128.053 272.055C125.406 271.138 122.054 269.127 121.423 266.02C120.793 262.913 121.041 260.865 121.795 257.694L137.46 263.16Z" fill="#263238"/>
<path d="M127.125 236.487C126.02 236.433 126.32 241.183 125.473 245.807C124.564 250.765 122.773 252.647 121.978 256.705C121.07 261.342 121.254 263.484 122.991 266.559C124.728 269.634 131.206 273.216 134.646 269.516C137.45 266.499 137.727 262.817 137.698 258.077C137.667 253.176 137.603 249.723 137.994 246.053C138.369 242.545 139.378 239.42 138.439 238.914C138.342 239.424 138.24 240.074 138.139 240.574C138.061 240.958 137.865 242.858 137.246 242.803C137.21 242.345 137.24 241.926 137.294 241.471C137.342 241.075 137.324 240.634 137.044 240.296C136.761 239.954 135.706 239.53 135.263 239.399C134.187 239.08 132.266 238.685 131.168 238.466C130.622 238.357 130.072 238.268 129.521 238.209C129.074 238.161 128.546 238.132 128.117 238.22C127.853 238.275 127.605 238.41 127.499 238.629C127.42 238.791 127.425 238.98 127.417 239.161C127.402 239.487 127.34 239.808 127.235 240.113C127.188 240.248 127.072 240.405 126.916 240.352C126.789 240.31 126.745 240.163 126.749 240.046C126.771 239.476 126.871 239.071 126.931 238.412C126.958 238.108 127.033 237.697 127.052 237.39C127.072 237.087 127.088 236.786 127.125 236.487Z" fill="#455A64"/>
<path d="M122.289 255.393C122.151 256.061 121.297 260.49 122.646 261.467C124.105 262.524 125.088 259.078 125.088 259.078C125.088 259.078 128.647 258.541 133.675 261.133C133.379 261.833 134.059 264.338 135.487 263.996C136.904 263.656 137.689 258.551 137.698 258.484C137.707 263.028 137.368 266.586 134.646 269.515C131.206 273.216 124.727 269.633 122.991 266.558C121.255 263.483 121.07 261.341 121.978 256.705C122.07 256.241 122.175 255.808 122.289 255.393Z" fill="#37474F"/>
<path d="M125.475 259.429C125.375 261.132 123.501 260.331 123.528 257.912C123.554 255.493 125.301 249.953 125.473 245.807C125.772 240.117 126.019 236.432 127.125 236.486C127.118 236.543 127.117 236.601 127.111 236.659L126.859 239.03C126.811 239.373 126.764 239.677 126.75 240.044C126.566 243.521 126.547 250.274 126.065 253.415C125.582 256.557 125.574 257.726 125.475 259.429Z" fill="#37474F"/>
<path d="M133.083 261.015C133.521 259.383 133.876 258.286 134.403 255.154C134.926 252.046 136.76 245.818 137.668 242.47C137.963 241.92 138.083 240.851 138.14 240.573C138.234 240.106 138.328 239.513 138.419 239.02C138.429 238.986 138.437 238.952 138.445 238.917C139.122 239.294 138.9 241.988 138.547 243.384C138.195 244.78 137.764 246.276 137.324 248.278C136.195 252.226 136.109 258.145 135.381 260.417C134.653 262.69 132.646 262.648 133.083 261.015Z" fill="#37474F"/>
<path d="M133.776 261.284C133.726 261.274 133.676 261.254 133.629 261.227C133.591 261.204 129.673 258.917 125.177 259.441C124.955 259.465 124.738 259.323 124.689 259.124C124.639 258.924 124.778 258.742 124.999 258.716C129.81 258.156 133.866 260.529 134.038 260.631C134.233 260.747 134.301 260.974 134.187 261.139C134.102 261.264 133.936 261.317 133.776 261.284Z" fill="#263238"/>
<path d="M134.863 257.691C134.818 257.681 134.773 257.665 134.729 257.641C134.686 257.618 130.273 255.215 125.265 255.644C125.044 255.66 124.83 255.516 124.787 255.314C124.745 255.114 124.892 254.935 125.114 254.916C130.411 254.466 134.921 256.925 135.112 257.029C135.312 257.14 135.389 257.366 135.283 257.535C135.2 257.667 135.029 257.725 134.863 257.691Z" fill="#263238"/>
<path d="M125.691 252.159C125.537 252.126 125.402 252.019 125.355 251.874C125.292 251.675 125.416 251.483 125.632 251.444C130.639 250.547 135.419 253.352 135.62 253.473C135.817 253.589 135.884 253.817 135.77 253.982C135.657 254.145 135.404 254.181 135.212 254.069C135.167 254.042 130.522 251.322 125.863 252.162C125.806 252.172 125.748 252.17 125.691 252.159Z" fill="#263238"/>
<path d="M126.124 248.876C125.973 248.844 125.84 248.739 125.792 248.598C125.724 248.399 125.843 248.205 126.059 248.163C131.57 247.083 136.062 250.061 136.251 250.189C136.438 250.316 136.49 250.545 136.365 250.702C136.239 250.859 135.981 250.884 135.798 250.757C135.757 250.729 131.434 247.874 126.305 248.878C126.244 248.889 126.183 248.888 126.124 248.876Z" fill="#263238"/>
<path d="M126.628 245.19C126.48 245.158 126.348 245.056 126.297 244.916C126.227 244.719 126.342 244.523 126.557 244.478C131.725 243.393 136.612 246.479 136.817 246.612C137.008 246.734 137.065 246.964 136.945 247.124C136.825 247.285 136.573 247.318 136.381 247.191C136.333 247.161 131.612 244.181 126.814 245.189C126.751 245.203 126.689 245.202 126.628 245.19Z" fill="#263238"/>
<path d="M133.82 117.23C131.234 144.63 130.61 183.853 130.61 183.853C130.386 185.933 128.802 192.134 127.44 202.37C126.227 211.494 127.446 230.441 127.44 231.587C127.44 231.587 133.914 236.114 139.935 234.175C139.935 234.175 147.389 205.988 150.682 193.265C153.798 181.224 157.948 161.868 157.948 161.868L160.308 181.555C160.308 181.555 159.742 189.506 159.873 194.981C160.025 201.35 164.497 226.675 164.497 226.675C164.497 226.675 171.72 230.757 178.023 225.982C178.023 225.982 181.863 188.923 182.17 181.271C182.774 166.259 182.649 135.76 180.829 117.3L133.82 117.23Z" fill="#455A64"/>
<path d="M157.948 161.868L161.368 142.401C161.368 142.401 168.643 141.449 172.421 138.089C172.421 138.089 169.944 142.577 163.07 144.227L159.696 161.944L160.308 181.555L157.948 161.868Z" fill="#263238"/>
<path d="M127.074 231.838C128.541 233.905 134.624 236.298 140.018 234.528L141.37 229.544C137.3 230.785 130.334 229.934 127.074 227.214V231.838Z" fill="#37474F"/>
<path d="M164.412 226.934C166.205 228.71 173.11 229.687 178.124 226.986L178.402 222.667C174.602 224.612 167.348 224.787 163.68 222.686L164.412 226.934Z" fill="#37474F"/>
<path d="M174.679 66.1982C180.569 67.5498 183.396 68.601 187.829 75.3014C192.262 82.0017 196.598 89.7533 197.78 93.3006C198.962 96.848 199.741 103.826 197.341 105.607C194.94 107.387 174.679 86.8629 174.679 86.8629V66.1982Z" fill="#2650D8"/>
<path d="M150.446 63.9183L148.592 63.9368C148.592 63.9368 134.349 68.2097 132.851 68.8283C132.851 68.8283 129.936 78.2565 132.014 92.0181C132.448 94.8832 133.238 102.695 133.202 108.695C133.153 116.804 132.565 127.671 132.565 127.671C132.565 127.671 142.462 133.356 162.225 132.183C177.742 131.263 181.904 127.121 181.904 127.121C181.904 127.121 181.308 106.198 181.088 94.7627C180.799 79.7434 177.983 68.874 174.679 66.1987L163.914 63.4492L150.446 63.9183Z" fill="#37474F"/>
<path d="M169.433 35.6808C168.406 33.8292 167.089 33.0932 166.25 32.804C165.495 29.0533 160.572 26.404 157.529 25.4281C153.392 24.1019 149.157 25.0648 145.255 26.6666C143.87 27.2346 142.391 27.7283 140.905 27.5553C140.255 27.4799 139.512 27.1604 139.404 26.5152C138.897 26.7871 138.628 27.3594 138.481 27.9156C138.135 29.2171 138.282 30.6434 138.886 31.8473C138.303 31.9277 137.851 32.3967 137.535 32.8917C136.553 34.4256 136.458 36.4625 137.205 38.1231C138.786 41.6389 142.6 41.6587 145.805 42.6592C148.984 43.6517 152.161 44.6442 155.34 45.6361C158.007 46.4692 160.674 47.3016 163.341 48.1347L163.23 52.3297L163.236 58.3465C163.236 58.3465 164.735 57.9139 165.434 56.4932C166.132 55.0724 167.286 53.101 168.525 48.0296C170.449 40.1501 170.253 37.1603 169.433 35.6808Z" fill="#263238"/>
<path d="M168.771 53.3106C165.696 54.9094 164.209 52.4831 164.209 52.4831L164.075 64.0514C165.764 65.2071 169.693 70.8698 163.222 72.5459C156.511 74.2837 149.585 69.0208 148.656 65.2652L148.593 61.5968C148.593 61.5968 147.547 61.627 145.888 61.4058C143.118 61.0449 140.751 59.1933 139.848 55.5008C138.761 51.0481 138.897 42.4814 140.013 36.582C140.443 34.3065 141.154 33.6669 142.47 32.9716C145.737 31.2462 155.434 30.6881 158.137 34.6532C157.827 37.1017 158.602 39.777 160.862 40.5297C161.035 44.3861 161.63 46.2401 163.164 46.8371C164.41 47.3228 164.961 45.4008 165.785 44.4911C166.618 43.5882 169.775 42.7101 171.223 45.5893C172.688 48.5205 171.621 51.8293 168.771 53.3106Z" fill="#C8856A"/>
<path d="M148.592 61.597C152.21 61.4783 155.41 60.945 157.521 59.9871C159.633 59.0292 161.448 56.0894 161.992 53.207C162.054 55.5134 161.153 59.6305 157.961 61.4159C154.769 63.2019 151.002 63.3941 148.635 63.5091L148.592 61.597Z" fill="#AF6152"/>
<path d="M151.42 39.9717L154.49 41.2374C154.821 40.3592 154.402 39.3636 153.555 39.0144C152.707 38.6647 151.751 39.0936 151.42 39.9717Z" fill="#263238"/>
<path d="M141.204 40.58L144.415 39.6394C144.186 38.7359 143.283 38.2143 142.396 38.4739C141.509 38.734 140.976 39.6765 141.204 40.58Z" fill="#263238"/>
<path d="M144.379 43.3265C144.373 43.9797 143.669 44.5032 142.808 44.4958C141.946 44.4883 141.252 43.9525 141.258 43.2987C141.264 42.6455 141.972 43.6701 142.834 43.6782C143.695 43.6862 144.385 42.6733 144.379 43.3265Z" fill="#263238"/>
<path d="M154.381 43.5609C154.375 44.2141 153.671 44.7376 152.81 44.7301C151.948 44.7221 151.254 44.1869 151.26 43.5331C151.266 42.8798 151.974 43.9045 152.836 43.9125C153.697 43.9199 154.387 42.9077 154.381 43.5609Z" fill="#263238"/>
<path d="M148.733 41.2373L147.849 49.8757L143.256 48.3183C144.794 45.2395 146.62 42.8787 148.733 41.2373Z" fill="#AF6152"/>
<path d="M152.555 52.1704C152.313 52.0771 152.044 52.0771 151.787 52.0703C151.536 52.0635 151.285 52.0746 151.036 52.1098C150.656 52.163 150.277 52.2353 149.904 52.3311C149.169 52.5202 148.321 52.8211 147.784 53.3761C147.628 53.5374 147.918 53.8439 148.099 53.7747C148.481 53.6282 148.841 53.4336 149.22 53.2784C149.59 53.127 149.979 53.017 150.368 52.9225C150.741 52.8316 151.119 52.7779 151.498 52.7161C151.7 52.6833 151.901 52.6481 152.103 52.6122C152.29 52.5795 152.5 52.5727 152.652 52.4509C152.749 52.3725 152.639 52.2031 152.555 52.1704Z" fill="#AF6152"/>
<path d="M133.827 69.0968C126.704 71.7388 122.802 78.9366 129.15 88.6299C134.636 97.0076 145.471 106.635 148.998 108.922C154.87 112.731 157.786 112.585 162.581 107.416C168.2 101.359 176.743 91.3757 179.168 88.2116C181.594 85.0474 185.138 84.6556 186.651 81.6255C188.163 78.5949 188.581 76.6846 189.99 74.259C191.119 72.3166 194.451 69.255 195.135 66.6866C195.497 66.1335 195.787 65.5792 195.962 65.0267C196.265 64.07 195.749 63.3871 195.097 63.4477C195.385 63.0794 195.505 62.8655 195.506 62.1116C195.508 61.2297 194.53 61.0851 194.055 61.3174C193.108 61.7803 191.373 62.8729 191.373 62.8729C190.507 62.8729 190.186 62.9014 189.844 62.9805C189.35 63.0954 188.918 63.3865 188.498 63.672C187.18 64.5694 185.86 65.4673 184.541 66.3646C183.754 66.9005 182.963 67.4393 182.26 68.0827C180.692 69.5183 179.741 71.3562 178.739 73.1942C177.761 74.9876 176.4 76.8169 175.069 78.3835C172.491 81.4154 155.182 93.6901 155.182 93.6901C155.182 93.6901 148.896 86.9138 144.558 80.3073C138.811 71.5565 136.963 70.2568 133.827 69.0968Z" fill="#C8856A"/>
<path d="M188.136 70.4604C189.776 68.9865 191.392 67.4885 193.138 66.1363C193.64 65.8155 194.171 65.2161 194.813 65.242C195.636 65.8773 195.251 67.1677 194.852 67.8988C193.661 69.7769 192.2 71.4245 190.783 73.1252C191.663 71.8639 193.842 69.0328 194.593 67.7591C194.968 67.0775 195.173 66.1221 194.713 65.543C194.713 65.543 194.691 65.5424 194.66 65.5479C192.28 66.8365 190.344 68.8913 188.136 70.4604Z" fill="#AF6152"/>
<path d="M185.99 69.9057C188.646 67.3157 191.62 64.8338 195.096 63.4482C191.864 65.2015 188.897 67.6593 185.99 69.9057Z" fill="#AF6152"/>
<path d="M191.373 62.874C188.986 64.5451 186.696 66.2984 184.287 67.9379C186.411 65.956 188.762 64.165 191.373 62.874Z" fill="#AF6152"/>
<path d="M147.121 83.0585C144.368 79.2633 139.885 69.6843 134.163 68.3711C129.658 69.5521 125.548 73.744 125.548 78.8789C125.548 84.0139 126.857 86.8029 131.024 92.2358C135.191 97.6686 143.686 105.898 148.997 108.921C149.039 101.701 151.455 96.1619 155.156 93.6782C155.156 93.6782 149.875 86.8542 147.121 83.0585Z" fill="#2650D8"/>
<path opacity="0.2" d="M155.155 93.679C152.373 95.6171 149.162 99.115 148.822 102.923C147.561 97.1621 153.865 92.0049 153.865 92.0049L155.155 93.679Z" fill="black"/>
<path d="M194.012 91.9796C195.302 93.1667 196.41 94.7346 197.24 96.5719C197.94 98.1237 198.259 99.8362 198.249 101.534C198.242 102.858 198.266 105.255 196.886 105.937C196.495 106.131 196.053 106.203 195.616 106.215C194.886 106.236 194.18 106.303 193.424 106.244C192.623 106.182 191.823 106.085 191.029 105.961C189.435 105.711 187.926 105.145 186.514 104.372C183.605 102.782 181.714 100.413 179.567 97.963C176.13 94.0406 172.635 90.12 169.46 85.9788C167.034 82.8146 163.491 82.4228 161.978 79.3921C160.465 76.3621 160.047 74.4512 158.638 72.0256C157.51 70.0832 154.177 67.0216 153.493 64.4532C153.131 63.9001 152.842 63.3458 152.666 62.7933C152.363 61.8366 152.879 61.1537 153.532 61.2143C153.243 60.846 153.123 60.6321 153.122 59.8782C153.12 58.9963 154.098 58.8517 154.573 59.084C155.52 59.5469 157.256 60.6402 157.256 60.6402C158.122 60.6402 158.443 60.668 158.784 60.7477C159.278 60.8626 159.71 61.1537 160.13 61.4392C161.449 62.3366 162.768 63.2345 164.087 64.1319C164.875 64.6677 165.665 65.2066 166.368 65.8499C167.936 67.2855 168.887 69.1234 169.889 70.9614C170.868 72.7548 172.228 74.5841 173.56 76.1507C176.183 79.237 180.016 81.6163 183.233 84.021C185.335 85.5925 187.61 87.2642 189.74 88.7987C191.358 89.9655 192.677 90.751 194.012 91.9796Z" fill="#C8856A"/>
<path d="M178.933 97.2371C175.452 93.3369 172.027 89.2619 168.697 85.2362C167.492 83.9674 165.931 83.1362 164.469 82.1592C161.304 80.2551 160.756 76.2727 159.152 73.2408C157.69 70.0699 154.514 67.9656 153.355 64.4912C152.966 63.8713 152.091 62.5698 152.579 61.6094C152.746 61.2646 153.148 61.018 153.545 61.065L153.412 61.3097C153.241 61.1021 153.063 60.824 153.018 60.5273C152.903 59.9631 152.925 59.1764 153.568 58.9391C153.857 58.8161 154.17 58.7982 154.472 58.8804C155.519 59.3408 156.38 59.9291 157.339 60.5088L157.256 60.4847C157.76 60.4921 158.274 60.476 158.797 60.5947C159.329 60.7158 159.774 61.0168 160.189 61.2992L162.687 63.0074C164.318 64.1692 166.137 65.1722 167.433 66.787C169.352 69.1836 170.369 72.079 172.317 74.4342C174.078 76.921 176.534 78.7212 178.895 80.6024C180.482 81.8471 182.09 83.0652 183.702 84.2777C186.922 86.7089 190.174 89.0981 193.445 91.4601C188.499 87.9702 183.566 84.4575 178.781 80.747C177.189 79.5055 175.599 78.2608 174.114 76.8796C172.688 75.4267 171.498 73.7859 170.402 72.0777C169.345 70.3461 168.524 68.4878 167.23 66.9545C165.971 65.3935 164.168 64.4053 162.524 63.2459L160.018 61.5489C159.198 60.8907 158.278 60.7504 157.255 60.7999C156.316 60.311 155.347 59.6022 154.383 59.1856C153.937 59.0515 153.354 59.2561 153.292 59.7165C153.241 60.201 153.293 60.7337 153.65 61.1231L153.876 61.4074L153.516 61.3678C151.939 61.5489 153.114 63.634 153.624 64.3954C154.116 66.0646 155.274 67.4638 156.342 68.8172C157.449 70.1774 158.634 71.5178 159.367 73.1345C160.55 75.4767 161.187 78.1001 162.654 80.2699C164.308 82.344 167.028 83.1474 168.821 85.1169C172.147 89.1642 175.485 93.29 178.933 97.2371Z" fill="#AF6152"/>
<path d="M160.493 68.2284C158.284 66.6593 156.348 64.6045 153.969 63.316C153.939 63.311 153.916 63.3116 153.916 63.3116C153.951 63.2931 153.908 63.3227 153.887 63.353C153.449 63.9828 153.681 64.8523 154.036 65.5272C154.775 66.7879 156.979 69.6529 157.846 70.8939C156.429 69.1925 154.968 67.5455 153.777 65.6674C153.377 64.937 152.993 63.646 153.815 63.0107C154.456 62.9835 154.988 63.5842 155.49 63.9043C157.236 65.2565 158.853 66.7545 160.493 68.2284Z" fill="#AF6152"/>
<path d="M162.638 67.6733C159.729 65.425 156.767 62.9709 153.532 61.2158C157.008 62.6014 159.983 65.0833 162.638 67.6733Z" fill="#AF6152"/>
<path d="M157.256 60.6416C159.867 61.9332 162.217 63.7236 164.342 65.7055C161.933 64.0653 159.642 62.3121 157.256 60.6416Z" fill="#AF6152"/>
<path d="M114.822 40.9889C115.885 31.4809 109.039 22.9115 99.5308 21.8486C90.0228 20.7856 81.4534 27.6317 80.3904 37.1397C79.3275 46.6477 86.1736 55.2171 95.6816 56.2801C105.19 57.343 113.759 50.4969 114.822 40.9889Z" fill="white"/>
<path d="M77.4719 44.554C80.5063 55.6774 91.9807 62.227 103.097 59.1951C114.22 56.1607 120.771 44.6937 117.737 33.5703C114.705 22.455 103.236 15.8955 92.1123 18.9293C80.9969 21.9618 74.4394 33.4381 77.4719 44.554ZM80.8919 43.6209C78.3748 34.3941 83.8187 24.8664 93.0455 22.3493C102.28 19.8303 111.8 25.2762 114.317 34.5029C116.836 43.7377 111.398 53.2555 102.163 55.7738C92.9367 58.2916 83.4109 52.8556 80.8919 43.6209Z" fill="#2650D8"/>
<path d="M115.471 48.7764L119.51 57.0563C120.2 58.4703 118.789 59.9931 117.327 59.4128L108.764 56.0169L115.471 48.7764Z" fill="#2650D8"/>
<path d="M82.6391 50.9018L85.7666 54.0293L112.573 27.2232L109.445 24.0956L82.6391 50.9018Z" fill="#2650D8"/>
<path d="M54.8493 127.723L50.8711 135.043L87.3704 154.88L91.3486 147.56L54.8493 127.723Z" fill="#E0E0E0"/>
<path d="M57.5317 157.57L64.8516 161.548L84.6881 125.049L77.3683 121.07L57.5317 157.57Z" fill="#E0E0E0"/>
<path d="M221.825 147.571L225.803 154.891L262.302 135.054L258.324 127.734L221.825 147.571Z" fill="#E0E0E0"/>
<path d="M235.792 121.074L228.472 125.052L248.308 161.551L255.628 157.573L235.792 121.074Z" fill="#E0E0E0"/>
</svg>
