<svg width="144" height="144" viewBox="0 0 144 144" fill="none" xmlns="http://www.w3.org/2000/svg">
<g id="fi_1980788">
<path id="Vector" d="M6.81744 137.797C6.93933 138.283 7.2203 138.715 7.61572 139.024C8.01115 139.332 8.49835 139.5 8.99994 139.5H103.5C104.002 139.5 104.489 139.332 104.884 139.024C105.28 138.715 105.561 138.283 105.682 137.797L107.932 128.797C108.016 128.465 108.022 128.119 107.951 127.784C107.88 127.449 107.734 127.135 107.524 126.866C107.313 126.596 107.044 126.378 106.737 126.228C106.429 126.078 106.092 126 105.75 126H103.385C102.874 115.427 98.8289 105.331 91.8982 97.33C84.9675 89.3288 75.552 83.8851 65.1599 81.8708C65.1869 81.5783 65.2499 81.2925 65.2499 81C65.2499 78.6131 64.3017 76.3239 62.6139 74.636C60.9261 72.9482 58.6369 72 56.2499 72C53.863 72 51.5738 72.9482 49.886 74.636C48.1982 76.3239 47.2499 78.6131 47.2499 81C47.2499 81.2925 47.3129 81.5783 47.3399 81.8708C36.9478 83.8851 27.5324 89.3288 20.6017 97.33C13.671 105.331 9.62606 115.427 9.11469 126H6.74994C6.40793 126 6.07042 126.078 5.76306 126.228C5.45571 126.378 5.1866 126.596 4.97619 126.866C4.76578 127.135 4.6196 127.449 4.54878 127.784C4.47795 128.119 4.48433 128.465 4.56744 128.797L6.81744 137.797ZM101.743 135H10.7572L9.63219 130.5H102.868L101.743 135ZM51.7499 81C51.7499 79.8065 52.224 78.6619 53.068 77.818C53.9119 76.9741 55.0565 76.5 56.2499 76.5C57.4434 76.5 58.588 76.9741 59.4319 77.818C60.2758 78.6619 60.7499 79.8065 60.7499 81C60.7499 81.0765 60.7297 81.1507 60.7274 81.225C59.2514 81.0855 57.7619 81 56.2499 81C54.7379 81 53.2484 81.0877 51.7724 81.225C51.7702 81.1507 51.7499 81.0765 51.7499 81ZM56.2499 85.5C67.1877 85.518 77.7028 89.7262 85.6331 97.2593C93.5633 104.792 98.3057 115.078 98.8852 126H13.6147C14.1942 115.078 18.9366 104.792 26.8668 97.2593C34.797 89.7262 45.3122 85.518 56.2499 85.5Z" fill="#2650D8"/>
<path id="Vector_2" d="M23.1187 109.125L27.0134 111.375C30.7088 104.991 36.3904 99.9902 43.1921 97.1353C49.9938 94.2804 57.5425 93.7279 64.6874 95.5621L65.8124 91.2061C57.7156 89.1253 49.1605 89.7503 41.452 92.9856C33.7436 96.2209 27.3051 101.889 23.1187 109.125Z" fill="#2650D8"/>
<path id="Vector_3" d="M19.2061 118.688L23.5621 119.812C23.9318 118.377 24.3963 116.968 24.9526 115.594L20.7811 113.906C20.1519 115.464 19.6258 117.061 19.2061 118.688Z" fill="#2650D8"/>
<path id="Vector_4" d="M137.25 15.7498H130.5V6.74984C130.5 6.42508 130.43 6.10417 130.294 5.80917C130.158 5.51416 129.96 5.25205 129.713 5.04084C129.467 4.82963 129.177 4.67432 128.865 4.5856C128.552 4.49687 128.224 4.47683 127.904 4.52684L55.9035 15.7768V15.8196C55.3778 15.895 54.8965 16.1565 54.5473 16.5566C54.198 16.9566 54.0038 17.4688 54 17.9998V67.4998H58.5V20.2498H135V135H110.25V139.5H137.25C137.847 139.5 138.419 139.263 138.841 138.841C139.263 138.419 139.5 137.847 139.5 137.25V17.9998C139.5 17.4031 139.263 16.8308 138.841 16.4089C138.419 15.9869 137.847 15.7498 137.25 15.7498ZM126 15.7498H85.2232L126 9.37784V15.7498Z" fill="#2650D8"/>
<path id="Vector_5" d="M76.068 44.5004L69.7027 38.1374L66.5212 41.3189L72.8865 47.6819C74.7199 49.5153 77.1303 50.6592 79.71 50.9199C82.2897 51.1807 84.8803 50.5423 87.0435 49.1129L93.5685 55.6379L72.8865 76.3199L76.068 79.5014L96.75 58.8194L117.432 79.5014L120.613 76.3199L99.9315 55.6379L103.275 52.2944C105.439 53.7218 108.029 54.3589 110.608 54.0982C113.187 53.8375 115.597 52.6949 117.432 50.8634L120.613 47.6819C121.688 46.6442 122.545 45.4028 123.135 44.0302C123.724 42.6577 124.035 41.1815 124.048 39.6877C124.061 38.1939 123.776 36.7125 123.21 35.3299C122.645 33.9474 121.809 32.6913 120.753 31.635C119.697 30.5787 118.441 29.7433 117.058 29.1777C115.675 28.612 114.194 28.3274 112.7 28.3404C111.206 28.3533 109.73 28.6637 108.358 29.2533C106.985 29.8429 105.744 30.6999 104.706 31.7744L101.524 34.9559C99.6911 36.7893 98.5473 39.1998 98.2865 41.7795C98.0257 44.3591 98.6641 46.9497 100.093 49.1129L96.75 52.4564L90.225 45.9314C91.6544 43.7682 92.2927 41.1776 92.032 38.598C91.7712 36.0183 90.6274 33.6078 88.794 31.7744L82.431 25.4092L79.2495 28.5907L85.6125 34.9559C86.5895 35.9427 87.2384 37.2067 87.4707 38.5757C87.703 39.9448 87.5075 41.3521 86.9107 42.6059L76.068 31.7632L72.8865 34.9447L83.7292 45.7874C82.4752 46.3881 81.0662 46.5869 79.6949 46.3565C78.3236 46.1262 77.0569 45.4779 76.068 44.5004ZM104.706 38.1374L107.887 34.9559C109.161 33.7264 110.866 33.046 112.635 33.0614C114.405 33.0768 116.098 33.7866 117.35 35.0382C118.601 36.2897 119.311 37.9826 119.327 39.7525C119.342 41.5223 118.662 43.2274 117.432 44.5004L114.25 47.6819C113.628 48.3266 112.883 48.8409 112.059 49.1946C111.236 49.5484 110.35 49.7346 109.454 49.7424C108.558 49.7502 107.669 49.5794 106.839 49.24C106.01 48.9006 105.256 48.3994 104.622 47.7656C103.989 47.1318 103.487 46.3782 103.148 45.5486C102.809 44.7191 102.638 43.8302 102.646 42.934C102.653 42.0377 102.84 41.152 103.193 40.3284C103.547 39.5049 104.061 38.7601 104.706 38.1374Z" fill="#2650D8"/>
<path id="Vector_6" d="M123.75 85.5H128.25V90H123.75V85.5Z" fill="#2650D8"/>
<path id="Vector_7" d="M123.75 94.5H128.25V99H123.75V94.5Z" fill="#2650D8"/>
<path id="Vector_8" d="M123.75 103.5H128.25V108H123.75V103.5Z" fill="#2650D8"/>
<path id="Vector_9" d="M90 85.5H119.25V90H90V85.5Z" fill="#2650D8"/>
<path id="Vector_10" d="M99 94.5H119.25V99H99V94.5Z" fill="#2650D8"/>
<path id="Vector_11" d="M105.75 103.5H119.25V108H105.75V103.5Z" fill="#2650D8"/>
<path id="Vector_12" d="M45 22.5H49.5V63H45V22.5Z" fill="#2650D8"/>
</g>
</svg>
