<svg width="50" height="50" viewBox="0 0 50 50" fill="none" xmlns="http://www.w3.org/2000/svg">
<g id="fi_3437543" clip-path="url(#clip0_485_15350)">
<g id="Group">
<g id="Group_2">
<g id="Vector">
<mask id="path-1-outside-1_485_15350" maskUnits="userSpaceOnUse" x="-1" y="6.30273" width="52" height="39" fill="black">
<rect fill="white" x="-1" y="6.30273" width="52" height="39"/>
<path d="M49.8133 35.9811C49.5804 35.5985 49.174 35.3701 48.7261 35.3701H45.7392C46.0667 34.6827 46.8066 33.6906 46.2599 32.8383C45.4388 31.7286 43.5527 32.1287 42.3031 32.4625C42.2735 31.3849 42.4714 29.2434 40.7698 29.1886L39.7399 26.8029C39.8067 26.6763 40.2935 25.5974 40.3837 25.398L41.9365 23.8453C42.7533 23.0519 42.9423 21.5387 42.12 20.5419L46.0626 16.5985C46.7902 17.0916 47.7383 17.1642 48.5479 16.758C48.8214 16.6199 49.0641 16.4343 49.2681 16.2076C50.0833 15.3057 50.1123 13.9218 49.335 12.9878C48.9006 12.4671 48.2912 12.1565 47.6383 12.1059C47.5872 11.4518 47.2763 10.8427 46.7558 10.4095C45.8223 9.63115 44.4378 9.66026 43.5377 10.4753C43.3098 10.6802 43.1241 10.9228 42.985 11.1982C42.6216 11.9217 42.6423 12.7576 43.0052 13.4471L39.0154 17.4369C38.1474 16.7119 36.6079 16.6946 35.7114 17.6198L34.638 18.6931C34.2567 17.813 32.7449 16.0238 31.8879 15.3343L35.7204 11.5018C36.0065 11.2156 36.0065 10.7518 35.7204 10.4657C35.4158 10.1611 35.3408 9.69835 35.533 9.31565C35.7321 8.85208 36.5285 8.57614 37.0574 8.99361C37.3285 9.21925 37.4599 9.56121 37.4094 9.90513C37.3625 10.215 37.4658 10.5319 37.6859 10.753C37.9062 10.9743 38.2224 11.0797 38.5345 11.0334C38.8808 10.9823 39.223 11.1131 39.449 11.3841C39.757 11.7543 39.7446 12.3251 39.4193 12.6849C39.1376 13.0276 38.4367 13.148 37.978 12.7234C37.71 12.3964 37.2477 12.1231 36.7532 12.5337L34.7983 14.489C34.5122 14.7751 34.5122 15.239 34.7984 15.525C35.0846 15.811 35.5482 15.811 35.8343 15.5249L37.302 14.0569C38.0295 14.55 38.9776 14.6224 39.7875 14.2164C40.0613 14.0781 40.3039 13.8924 40.5074 13.666C41.3227 12.7642 41.3517 11.3803 40.5744 10.4462C40.1399 9.92535 39.5306 9.61474 38.8776 9.56424C38.8266 8.9102 38.5157 8.30118 37.9952 7.86808C37.0617 7.0894 35.6774 7.11861 34.7767 7.93402C34.5489 8.13904 34.3633 8.38167 34.2244 8.65663C33.8611 9.38002 33.8818 10.2159 34.2446 10.9055L30.8464 14.3037C29.9855 13.5298 28.3923 13.4789 27.4748 14.4305L25.9221 15.9832C25.9221 15.9832 24.495 16.6373 24.2644 16.7536H16.4338C11.3895 16.7536 7.11518 20.3625 6.27008 25.3348L5.04619 32.528C4.87496 33.5356 5.12746 34.5603 5.74009 35.3703H1.26219C0.413573 35.3567 -0.305134 36.313 0.13197 37.2279C1.01731 38.9386 2.76397 40.0012 4.69016 40.0012H5.62004C6.40566 42.631 8.027 44.1811 10.5043 44.2421H13.1674C13.5721 44.2421 13.9 43.9142 13.9 43.5095C13.9 43.1048 13.5721 42.7769 13.1674 42.7769H10.5043C8.90814 42.8181 7.59419 41.5197 7.19078 40.0012H42.7974C42.3886 41.5382 41.1164 42.7838 39.4839 42.7769H16.6416C16.2369 42.7769 15.909 43.1048 15.909 43.5095C15.909 43.9142 16.2369 44.2421 16.6416 44.2421H39.4839C42.2923 44.1972 43.6887 42.2047 44.3682 40.0012H45.298C47.2242 40.0012 48.9709 38.9386 49.8562 37.2278C50.0622 36.8298 50.0461 36.3637 49.8133 35.9811ZM44.0002 33.6214L44.9709 33.6304L44.5415 34.5009C44.3809 34.8267 44.1708 35.1177 43.9168 35.3701H41.0732C41.6407 34.2942 42.7797 33.6132 44.0002 33.6214ZM39.9 31.2154L40.7184 30.6924L40.8344 31.6566C40.9838 32.8981 40.3994 34.1352 39.3456 34.8085L38.5273 35.3314L38.4112 34.3672C38.2619 33.1258 38.8463 31.8886 39.9 31.2154ZM17.2681 33.5513C17.647 34.0825 17.9116 34.7005 18.0241 35.3698H15.4497L17.2681 33.5513ZM19.5029 35.3698C19.3229 34.0022 18.647 32.6723 17.5983 31.7364C19.8507 31.3945 22.1885 33.1059 22.5176 35.3698H19.5029ZM16.2325 32.5148L13.6807 35.0667L11.1289 32.5148C11.8494 32.0009 12.7303 31.6982 13.6807 31.6982C14.6311 31.6982 15.5121 32.0009 16.2325 32.5148ZM10.0933 33.5513L11.9118 35.3698H9.33723C9.44985 34.7006 9.71446 34.0826 10.0933 33.5513ZM44.4811 14.0433C44.689 13.8248 44.8127 13.3766 44.481 13.0073C44.1764 12.7027 44.1013 12.2399 44.2934 11.8573C44.4927 11.3938 45.2891 11.1176 45.8181 11.5352C46.0891 11.7608 46.2205 12.1028 46.17 12.4467C46.0931 12.9685 46.5399 13.6692 47.2951 13.575C47.6414 13.5241 47.9837 13.6548 48.2096 13.9257C48.5177 14.2959 48.5053 14.8667 48.1802 15.2262C48.097 15.3187 47.9985 15.3941 47.8893 15.4492C47.5045 15.6423 47.0414 15.5679 46.7386 15.265C46.4706 14.9379 46.0083 14.6646 45.5137 15.0753L41.0951 19.4948L40.0624 18.462L44.4811 14.0433ZM28.5109 15.4666C28.7027 15.2746 28.9579 15.1689 29.2294 15.1689C29.5009 15.1689 29.7561 15.2746 29.9478 15.4666L31.7107 17.2294C30.7168 16.9171 29.6754 16.7536 28.6228 16.7536H27.2238L28.5109 15.4666ZM6.49054 32.7733L7.71443 25.5802C8.43939 21.3147 12.1064 18.2187 16.4338 18.2187H28.6228C30.2798 18.2187 31.9056 18.6892 33.3038 19.5597C31.2926 20.4493 29.2803 21.814 27.6854 23.4208C27.0585 24.0478 26.5892 24.7854 26.2904 25.6133C26.1531 25.9939 26.3502 26.4137 26.7308 26.5511C27.1111 26.6885 27.5312 26.4914 27.6686 26.1107C27.8939 25.4867 28.2482 24.9303 28.7215 24.4567C30.1928 22.9855 31.8995 21.8044 33.7945 20.9459C36.0815 20.3008 36.5943 17.4915 38.184 18.6559L40.9005 21.3724C41.2967 21.7685 41.2967 22.413 40.9005 22.8091C39.0116 24.5571 39.038 24.7982 38.2716 26.4673C37.4505 28.0822 36.3859 29.5485 35.0995 30.8348C33.3412 32.5933 30.4801 32.5934 28.7216 30.8349C28.2199 30.3332 27.8531 29.7404 27.6312 29.073C27.5036 28.6891 27.0887 28.4812 26.705 28.609C26.321 28.7366 26.1132 29.1514 26.2409 29.5352C26.5353 30.4207 27.0213 31.2065 27.6855 31.8709C28.8504 33.0357 30.3805 33.6181 31.9106 33.6181C33.4407 33.6181 34.9709 33.0357 36.1358 31.8708C37.1774 30.8292 38.084 29.6781 38.8479 28.433L39.4284 29.7781C37.4074 30.8598 36.5848 33.2122 37.0563 35.3699H23.9964C23.6344 32.4783 21.162 30.2331 18.1734 30.2331C17.3913 30.2331 16.6367 30.3836 15.9251 30.68C12.575 29.1912 8.36613 31.5309 7.87784 35.2188C7.00793 34.9076 6.29655 33.8326 6.49054 32.7733ZM45.2981 38.5358H4.69016C3.42261 38.5358 2.26387 37.8917 1.59458 36.8352H48.3938C47.7244 37.8919 46.5657 38.5358 45.2981 38.5358Z"/>
</mask>
<path d="M49.8133 35.9811C49.5804 35.5985 49.174 35.3701 48.7261 35.3701H45.7392C46.0667 34.6827 46.8066 33.6906 46.2599 32.8383C45.4388 31.7286 43.5527 32.1287 42.3031 32.4625C42.2735 31.3849 42.4714 29.2434 40.7698 29.1886L39.7399 26.8029C39.8067 26.6763 40.2935 25.5974 40.3837 25.398L41.9365 23.8453C42.7533 23.0519 42.9423 21.5387 42.12 20.5419L46.0626 16.5985C46.7902 17.0916 47.7383 17.1642 48.5479 16.758C48.8214 16.6199 49.0641 16.4343 49.2681 16.2076C50.0833 15.3057 50.1123 13.9218 49.335 12.9878C48.9006 12.4671 48.2912 12.1565 47.6383 12.1059C47.5872 11.4518 47.2763 10.8427 46.7558 10.4095C45.8223 9.63115 44.4378 9.66026 43.5377 10.4753C43.3098 10.6802 43.1241 10.9228 42.985 11.1982C42.6216 11.9217 42.6423 12.7576 43.0052 13.4471L39.0154 17.4369C38.1474 16.7119 36.6079 16.6946 35.7114 17.6198L34.638 18.6931C34.2567 17.813 32.7449 16.0238 31.8879 15.3343L35.7204 11.5018C36.0065 11.2156 36.0065 10.7518 35.7204 10.4657C35.4158 10.1611 35.3408 9.69835 35.533 9.31565C35.7321 8.85208 36.5285 8.57614 37.0574 8.99361C37.3285 9.21925 37.4599 9.56121 37.4094 9.90513C37.3625 10.215 37.4658 10.5319 37.6859 10.753C37.9062 10.9743 38.2224 11.0797 38.5345 11.0334C38.8808 10.9823 39.223 11.1131 39.449 11.3841C39.757 11.7543 39.7446 12.3251 39.4193 12.6849C39.1376 13.0276 38.4367 13.148 37.978 12.7234C37.71 12.3964 37.2477 12.1231 36.7532 12.5337L34.7983 14.489C34.5122 14.7751 34.5122 15.239 34.7984 15.525C35.0846 15.811 35.5482 15.811 35.8343 15.5249L37.302 14.0569C38.0295 14.55 38.9776 14.6224 39.7875 14.2164C40.0613 14.0781 40.3039 13.8924 40.5074 13.666C41.3227 12.7642 41.3517 11.3803 40.5744 10.4462C40.1399 9.92535 39.5306 9.61474 38.8776 9.56424C38.8266 8.9102 38.5157 8.30118 37.9952 7.86808C37.0617 7.0894 35.6774 7.11861 34.7767 7.93402C34.5489 8.13904 34.3633 8.38167 34.2244 8.65663C33.8611 9.38002 33.8818 10.2159 34.2446 10.9055L30.8464 14.3037C29.9855 13.5298 28.3923 13.4789 27.4748 14.4305L25.9221 15.9832C25.9221 15.9832 24.495 16.6373 24.2644 16.7536H16.4338C11.3895 16.7536 7.11518 20.3625 6.27008 25.3348L5.04619 32.528C4.87496 33.5356 5.12746 34.5603 5.74009 35.3703H1.26219C0.413573 35.3567 -0.305134 36.313 0.13197 37.2279C1.01731 38.9386 2.76397 40.0012 4.69016 40.0012H5.62004C6.40566 42.631 8.027 44.1811 10.5043 44.2421H13.1674C13.5721 44.2421 13.9 43.9142 13.9 43.5095C13.9 43.1048 13.5721 42.7769 13.1674 42.7769H10.5043C8.90814 42.8181 7.59419 41.5197 7.19078 40.0012H42.7974C42.3886 41.5382 41.1164 42.7838 39.4839 42.7769H16.6416C16.2369 42.7769 15.909 43.1048 15.909 43.5095C15.909 43.9142 16.2369 44.2421 16.6416 44.2421H39.4839C42.2923 44.1972 43.6887 42.2047 44.3682 40.0012H45.298C47.2242 40.0012 48.9709 38.9386 49.8562 37.2278C50.0622 36.8298 50.0461 36.3637 49.8133 35.9811ZM44.0002 33.6214L44.9709 33.6304L44.5415 34.5009C44.3809 34.8267 44.1708 35.1177 43.9168 35.3701H41.0732C41.6407 34.2942 42.7797 33.6132 44.0002 33.6214ZM39.9 31.2154L40.7184 30.6924L40.8344 31.6566C40.9838 32.8981 40.3994 34.1352 39.3456 34.8085L38.5273 35.3314L38.4112 34.3672C38.2619 33.1258 38.8463 31.8886 39.9 31.2154ZM17.2681 33.5513C17.647 34.0825 17.9116 34.7005 18.0241 35.3698H15.4497L17.2681 33.5513ZM19.5029 35.3698C19.3229 34.0022 18.647 32.6723 17.5983 31.7364C19.8507 31.3945 22.1885 33.1059 22.5176 35.3698H19.5029ZM16.2325 32.5148L13.6807 35.0667L11.1289 32.5148C11.8494 32.0009 12.7303 31.6982 13.6807 31.6982C14.6311 31.6982 15.5121 32.0009 16.2325 32.5148ZM10.0933 33.5513L11.9118 35.3698H9.33723C9.44985 34.7006 9.71446 34.0826 10.0933 33.5513ZM44.4811 14.0433C44.689 13.8248 44.8127 13.3766 44.481 13.0073C44.1764 12.7027 44.1013 12.2399 44.2934 11.8573C44.4927 11.3938 45.2891 11.1176 45.8181 11.5352C46.0891 11.7608 46.2205 12.1028 46.17 12.4467C46.0931 12.9685 46.5399 13.6692 47.2951 13.575C47.6414 13.5241 47.9837 13.6548 48.2096 13.9257C48.5177 14.2959 48.5053 14.8667 48.1802 15.2262C48.097 15.3187 47.9985 15.3941 47.8893 15.4492C47.5045 15.6423 47.0414 15.5679 46.7386 15.265C46.4706 14.9379 46.0083 14.6646 45.5137 15.0753L41.0951 19.4948L40.0624 18.462L44.4811 14.0433ZM28.5109 15.4666C28.7027 15.2746 28.9579 15.1689 29.2294 15.1689C29.5009 15.1689 29.7561 15.2746 29.9478 15.4666L31.7107 17.2294C30.7168 16.9171 29.6754 16.7536 28.6228 16.7536H27.2238L28.5109 15.4666ZM6.49054 32.7733L7.71443 25.5802C8.43939 21.3147 12.1064 18.2187 16.4338 18.2187H28.6228C30.2798 18.2187 31.9056 18.6892 33.3038 19.5597C31.2926 20.4493 29.2803 21.814 27.6854 23.4208C27.0585 24.0478 26.5892 24.7854 26.2904 25.6133C26.1531 25.9939 26.3502 26.4137 26.7308 26.5511C27.1111 26.6885 27.5312 26.4914 27.6686 26.1107C27.8939 25.4867 28.2482 24.9303 28.7215 24.4567C30.1928 22.9855 31.8995 21.8044 33.7945 20.9459C36.0815 20.3008 36.5943 17.4915 38.184 18.6559L40.9005 21.3724C41.2967 21.7685 41.2967 22.413 40.9005 22.8091C39.0116 24.5571 39.038 24.7982 38.2716 26.4673C37.4505 28.0822 36.3859 29.5485 35.0995 30.8348C33.3412 32.5933 30.4801 32.5934 28.7216 30.8349C28.2199 30.3332 27.8531 29.7404 27.6312 29.073C27.5036 28.6891 27.0887 28.4812 26.705 28.609C26.321 28.7366 26.1132 29.1514 26.2409 29.5352C26.5353 30.4207 27.0213 31.2065 27.6855 31.8709C28.8504 33.0357 30.3805 33.6181 31.9106 33.6181C33.4407 33.6181 34.9709 33.0357 36.1358 31.8708C37.1774 30.8292 38.084 29.6781 38.8479 28.433L39.4284 29.7781C37.4074 30.8598 36.5848 33.2122 37.0563 35.3699H23.9964C23.6344 32.4783 21.162 30.2331 18.1734 30.2331C17.3913 30.2331 16.6367 30.3836 15.9251 30.68C12.575 29.1912 8.36613 31.5309 7.87784 35.2188C7.00793 34.9076 6.29655 33.8326 6.49054 32.7733ZM45.2981 38.5358H4.69016C3.42261 38.5358 2.26387 37.8917 1.59458 36.8352H48.3938C47.7244 37.8919 46.5657 38.5358 45.2981 38.5358Z" fill="#424242"/>
<path d="M49.8133 35.9811C49.5804 35.5985 49.174 35.3701 48.7261 35.3701H45.7392C46.0667 34.6827 46.8066 33.6906 46.2599 32.8383C45.4388 31.7286 43.5527 32.1287 42.3031 32.4625C42.2735 31.3849 42.4714 29.2434 40.7698 29.1886L39.7399 26.8029C39.8067 26.6763 40.2935 25.5974 40.3837 25.398L41.9365 23.8453C42.7533 23.0519 42.9423 21.5387 42.12 20.5419L46.0626 16.5985C46.7902 17.0916 47.7383 17.1642 48.5479 16.758C48.8214 16.6199 49.0641 16.4343 49.2681 16.2076C50.0833 15.3057 50.1123 13.9218 49.335 12.9878C48.9006 12.4671 48.2912 12.1565 47.6383 12.1059C47.5872 11.4518 47.2763 10.8427 46.7558 10.4095C45.8223 9.63115 44.4378 9.66026 43.5377 10.4753C43.3098 10.6802 43.1241 10.9228 42.985 11.1982C42.6216 11.9217 42.6423 12.7576 43.0052 13.4471L39.0154 17.4369C38.1474 16.7119 36.6079 16.6946 35.7114 17.6198L34.638 18.6931C34.2567 17.813 32.7449 16.0238 31.8879 15.3343L35.7204 11.5018C36.0065 11.2156 36.0065 10.7518 35.7204 10.4657C35.4158 10.1611 35.3408 9.69835 35.533 9.31565C35.7321 8.85208 36.5285 8.57614 37.0574 8.99361C37.3285 9.21925 37.4599 9.56121 37.4094 9.90513C37.3625 10.215 37.4658 10.5319 37.6859 10.753C37.9062 10.9743 38.2224 11.0797 38.5345 11.0334C38.8808 10.9823 39.223 11.1131 39.449 11.3841C39.757 11.7543 39.7446 12.3251 39.4193 12.6849C39.1376 13.0276 38.4367 13.148 37.978 12.7234C37.71 12.3964 37.2477 12.1231 36.7532 12.5337L34.7983 14.489C34.5122 14.7751 34.5122 15.239 34.7984 15.525C35.0846 15.811 35.5482 15.811 35.8343 15.5249L37.302 14.0569C38.0295 14.55 38.9776 14.6224 39.7875 14.2164C40.0613 14.0781 40.3039 13.8924 40.5074 13.666C41.3227 12.7642 41.3517 11.3803 40.5744 10.4462C40.1399 9.92535 39.5306 9.61474 38.8776 9.56424C38.8266 8.9102 38.5157 8.30118 37.9952 7.86808C37.0617 7.0894 35.6774 7.11861 34.7767 7.93402C34.5489 8.13904 34.3633 8.38167 34.2244 8.65663C33.8611 9.38002 33.8818 10.2159 34.2446 10.9055L30.8464 14.3037C29.9855 13.5298 28.3923 13.4789 27.4748 14.4305L25.9221 15.9832C25.9221 15.9832 24.495 16.6373 24.2644 16.7536H16.4338C11.3895 16.7536 7.11518 20.3625 6.27008 25.3348L5.04619 32.528C4.87496 33.5356 5.12746 34.5603 5.74009 35.3703H1.26219C0.413573 35.3567 -0.305134 36.313 0.13197 37.2279C1.01731 38.9386 2.76397 40.0012 4.69016 40.0012H5.62004C6.40566 42.631 8.027 44.1811 10.5043 44.2421H13.1674C13.5721 44.2421 13.9 43.9142 13.9 43.5095C13.9 43.1048 13.5721 42.7769 13.1674 42.7769H10.5043C8.90814 42.8181 7.59419 41.5197 7.19078 40.0012H42.7974C42.3886 41.5382 41.1164 42.7838 39.4839 42.7769H16.6416C16.2369 42.7769 15.909 43.1048 15.909 43.5095C15.909 43.9142 16.2369 44.2421 16.6416 44.2421H39.4839C42.2923 44.1972 43.6887 42.2047 44.3682 40.0012H45.298C47.2242 40.0012 48.9709 38.9386 49.8562 37.2278C50.0622 36.8298 50.0461 36.3637 49.8133 35.9811ZM44.0002 33.6214L44.9709 33.6304L44.5415 34.5009C44.3809 34.8267 44.1708 35.1177 43.9168 35.3701H41.0732C41.6407 34.2942 42.7797 33.6132 44.0002 33.6214ZM39.9 31.2154L40.7184 30.6924L40.8344 31.6566C40.9838 32.8981 40.3994 34.1352 39.3456 34.8085L38.5273 35.3314L38.4112 34.3672C38.2619 33.1258 38.8463 31.8886 39.9 31.2154ZM17.2681 33.5513C17.647 34.0825 17.9116 34.7005 18.0241 35.3698H15.4497L17.2681 33.5513ZM19.5029 35.3698C19.3229 34.0022 18.647 32.6723 17.5983 31.7364C19.8507 31.3945 22.1885 33.1059 22.5176 35.3698H19.5029ZM16.2325 32.5148L13.6807 35.0667L11.1289 32.5148C11.8494 32.0009 12.7303 31.6982 13.6807 31.6982C14.6311 31.6982 15.5121 32.0009 16.2325 32.5148ZM10.0933 33.5513L11.9118 35.3698H9.33723C9.44985 34.7006 9.71446 34.0826 10.0933 33.5513ZM44.4811 14.0433C44.689 13.8248 44.8127 13.3766 44.481 13.0073C44.1764 12.7027 44.1013 12.2399 44.2934 11.8573C44.4927 11.3938 45.2891 11.1176 45.8181 11.5352C46.0891 11.7608 46.2205 12.1028 46.17 12.4467C46.0931 12.9685 46.5399 13.6692 47.2951 13.575C47.6414 13.5241 47.9837 13.6548 48.2096 13.9257C48.5177 14.2959 48.5053 14.8667 48.1802 15.2262C48.097 15.3187 47.9985 15.3941 47.8893 15.4492C47.5045 15.6423 47.0414 15.5679 46.7386 15.265C46.4706 14.9379 46.0083 14.6646 45.5137 15.0753L41.0951 19.4948L40.0624 18.462L44.4811 14.0433ZM28.5109 15.4666C28.7027 15.2746 28.9579 15.1689 29.2294 15.1689C29.5009 15.1689 29.7561 15.2746 29.9478 15.4666L31.7107 17.2294C30.7168 16.9171 29.6754 16.7536 28.6228 16.7536H27.2238L28.5109 15.4666ZM6.49054 32.7733L7.71443 25.5802C8.43939 21.3147 12.1064 18.2187 16.4338 18.2187H28.6228C30.2798 18.2187 31.9056 18.6892 33.3038 19.5597C31.2926 20.4493 29.2803 21.814 27.6854 23.4208C27.0585 24.0478 26.5892 24.7854 26.2904 25.6133C26.1531 25.9939 26.3502 26.4137 26.7308 26.5511C27.1111 26.6885 27.5312 26.4914 27.6686 26.1107C27.8939 25.4867 28.2482 24.9303 28.7215 24.4567C30.1928 22.9855 31.8995 21.8044 33.7945 20.9459C36.0815 20.3008 36.5943 17.4915 38.184 18.6559L40.9005 21.3724C41.2967 21.7685 41.2967 22.413 40.9005 22.8091C39.0116 24.5571 39.038 24.7982 38.2716 26.4673C37.4505 28.0822 36.3859 29.5485 35.0995 30.8348C33.3412 32.5933 30.4801 32.5934 28.7216 30.8349C28.2199 30.3332 27.8531 29.7404 27.6312 29.073C27.5036 28.6891 27.0887 28.4812 26.705 28.609C26.321 28.7366 26.1132 29.1514 26.2409 29.5352C26.5353 30.4207 27.0213 31.2065 27.6855 31.8709C28.8504 33.0357 30.3805 33.6181 31.9106 33.6181C33.4407 33.6181 34.9709 33.0357 36.1358 31.8708C37.1774 30.8292 38.084 29.6781 38.8479 28.433L39.4284 29.7781C37.4074 30.8598 36.5848 33.2122 37.0563 35.3699H23.9964C23.6344 32.4783 21.162 30.2331 18.1734 30.2331C17.3913 30.2331 16.6367 30.3836 15.9251 30.68C12.575 29.1912 8.36613 31.5309 7.87784 35.2188C7.00793 34.9076 6.29655 33.8326 6.49054 32.7733ZM45.2981 38.5358H4.69016C3.42261 38.5358 2.26387 37.8917 1.59458 36.8352H48.3938C47.7244 37.8919 46.5657 38.5358 45.2981 38.5358Z" stroke="#424242" stroke-width="0.4" mask="url(#path-1-outside-1_485_15350)"/>
</g>
<path id="Vector_2" d="M11.6682 23.7178L11.6682 23.7178C11.7377 23.2455 11.4113 22.8062 10.939 22.7365C10.4665 22.6668 10.0274 22.9933 9.95768 23.4657L9.95767 23.4657C9.88809 23.938 10.2146 24.3774 10.6869 24.447C11.1592 24.5166 11.5985 24.1901 11.6682 23.7178Z" fill="#424242" stroke="#424242" stroke-width="0.2"/>
<path id="Vector_3" d="M15.7719 20.6679C15.8415 20.1956 15.515 19.7564 15.0427 19.6867L15.0427 19.6867C14.5704 19.6171 14.131 19.9436 14.0614 20.4159C13.9918 20.8882 14.3183 21.3276 14.7907 21.3972C15.2629 21.4667 15.7023 21.1404 15.7719 20.6679ZM15.7719 20.6679L15.673 20.6534L15.7719 20.6679Z" fill="#424242" stroke="#424242" stroke-width="0.2"/>
<path id="Vector_4" d="M13.8817 24.3952C14.354 24.4648 14.7934 24.1383 14.863 23.666C14.9326 23.1937 14.6061 22.7544 14.1338 22.6848C13.6615 22.6151 13.2221 22.9416 13.1525 23.414C13.0829 23.8864 13.4094 24.3256 13.8817 24.3952Z" fill="#424242" stroke="#424242" stroke-width="0.2"/>
<path id="Vector_5" d="M11.3136 11.7565C11.7735 11.7565 12.1462 11.3838 12.1462 10.9239V8.02457C12.1462 7.56466 11.7735 7.19199 11.3136 7.19199C10.8537 7.19199 10.4811 7.56466 10.4811 8.02457V10.9239C10.4811 11.3837 10.8538 11.7565 11.3136 11.7565Z" fill="#424242" stroke="#424242" stroke-width="0.2"/>
<path id="Vector_6" d="M14.513 11.7562C14.9729 11.7562 15.3455 11.3836 15.3455 10.9236V6.49137C15.3455 6.03146 14.9729 5.65879 14.513 5.65879C14.0531 5.65879 13.6804 6.03146 13.6804 6.49137V10.9236C13.6804 11.3835 14.0532 11.7562 14.513 11.7562Z" fill="#424242" stroke="#424242" stroke-width="0.2"/>
<path id="Vector_7" d="M17.7123 11.7565C18.1722 11.7565 18.5449 11.3838 18.5449 10.9239V8.02457C18.5449 7.56466 18.1722 7.19199 17.7123 7.19199C17.2524 7.19199 16.8797 7.56466 16.8797 8.02457V10.9239C16.8797 11.3837 17.2525 11.7565 17.7123 11.7565Z" fill="#424242" stroke="#424242" stroke-width="0.2"/>
</g>
</g>
</g>
<defs>
<clipPath id="clip0_485_15350">
<rect width="50" height="50" fill="white"/>
</clipPath>
</defs>
</svg>
