<svg width="29" height="22" viewBox="0 0 29 22" fill="none" xmlns="http://www.w3.org/2000/svg">
<g id="Group 1067">
<g id="Group 1066">
<path id="Vector 252" d="M7.81495 14.4287C7.9343 14.6972 7.81592 15.7714 9.15764 16.577L5.66762 18.4568C6.52694 19.7458 5.66762 20.6051 5.13054 20.8736C3.4119 21.7329 2.62394 20.5156 2.44479 19.7995C0.0816558 19.3698 0.385999 17.6512 0.833562 16.8456C1.47805 15.7714 2.89235 16.398 3.51894 16.8456L7.81495 14.4287Z" fill="#FEC377"/>
<path id="Vector 253" d="M3.7451 17.1141L3.47656 16.8456L7.77317 14.4287V14.9658L3.7451 17.1141Z" fill="#FEDAA9"/>
<path id="Vector 254" d="M0.742225 19.0043C1.34486 19.79 2.31267 19.721 2.44267 19.7927C1.58153 19.3908 1.15913 19.1349 0.830372 18.45C0.640066 17.2826 1.45696 16.6597 1.90452 16.5702C2.33418 16.3554 3.33673 16.8388 3.78429 17.1073C3.37194 16.6824 2.75537 16.4002 2.35016 16.3187C0.480712 15.8156 0.207311 18.3438 0.742225 19.0043Z" fill="#FEDAA9"/>
<path id="Vector 255" d="M2.37504 20.4028C2.97768 21.1885 3.94548 21.1194 4.07548 21.1911C3.21434 20.7892 2.79195 20.5334 2.46318 19.8484C2.27288 18.681 3.08977 18.0582 3.53734 17.9687C3.967 17.7538 4.96954 18.2372 5.4171 18.5057C5.00475 18.0808 4.38818 17.7986 3.98297 17.7171C2.11352 17.214 1.84012 19.7423 2.37504 20.4028Z" fill="#FEDAA9"/>
</g>
<path id="Vector 252_2" d="M9.09326 11.2054C7.15979 12.0647 7.39252 13.8908 7.75057 14.6964C7.86992 14.965 7.75155 16.0391 9.09326 16.8447C9.52244 17.9189 11.5998 17.8294 12.5849 17.6503C13.4442 16.791 15.6283 17.2923 16.6129 17.6503C22.6287 17.8652 26.1015 14.1593 27.0859 12.2796C30.738 4.11602 24.311 1.35903 20.641 1.00098C13.7664 1.00098 11.1527 5.65563 10.7051 7.98296C10.9199 9.91644 9.72005 10.9369 9.09326 11.2054Z" fill="#FF9911" stroke="#FF9911"/>
<path id="Vector 256" d="M13.4179 16.0391C13.8476 16.8984 12.8808 17.6503 12.3438 17.9189C15.8347 16.8443 15.5662 17.9189 16.1033 17.9189C26.0509 17.9362 28.4577 11.4921 28.456 7.9834C26.5226 14.4283 21.474 15.2336 19.0572 14.965C16.9089 13.4612 14.4025 15.0545 13.4179 16.0391Z" fill="#F18700"/>
<ellipse id="Ellipse 265" cx="18.8022" cy="4.16167" rx="3.22246" ry="2.14728" transform="rotate(-21.0545 18.8022 4.16167)" fill="#FFA834"/>
</g>
</svg>
