<svg width="31" height="30" viewBox="0 0 31 30" fill="none" xmlns="http://www.w3.org/2000/svg">
<g id="fi_2592254" clip-path="url(#clip0_3421_4654)">
<g id="Group">
<path id="Vector" d="M25.1278 13.7725L20.6862 18.214L18.492 16.0198L17.249 17.2627L20.6862 20.6999L26.3708 15.0154L25.1278 13.7725Z" fill="white"/>
<path id="Vector_2" d="M7.2433 0.494141L0.999023 6.76766H7.2433V0.494141Z" fill="white"/>
<path id="Vector_3" d="M30.5 16.7353C30.5 12.0183 26.6624 8.18066 21.9453 8.18066C17.2282 8.18066 13.3906 12.0183 13.3906 16.7353C13.3906 21.4524 17.2282 25.29 21.9453 25.29C26.6624 25.29 30.5 21.4524 30.5 16.7353ZM14.7634 17.262L18.4923 13.5331L20.6865 15.7274L25.1281 11.2858L28.857 15.0147L20.6865 23.1852L14.7634 17.262Z" fill="white"/>
<path id="Vector_4" d="M21.9452 27.0481C19.7568 27.0481 17.7259 26.3624 16.0548 25.1953H4.31094V23.4375H14.114C13.5794 22.8138 13.1179 22.1258 12.7428 21.3867H4.31094V19.6289H12.0464C11.8535 18.97 11.7246 18.2841 11.6673 17.5781L4.31088 17.5781V15.8203L11.6738 15.8203C11.7362 15.114 11.87 14.4281 12.0681 13.7695H4.31094V12.0117L12.78 12.0118C13.163 11.2716 13.6331 10.5835 14.1767 9.961H11.2618V8.20318L16.1596 8.20324C17.8105 7.08029 19.8025 6.42316 21.9452 6.42316C22.6006 6.42316 23.2416 6.48533 23.8633 6.60275V0H9.00119V8.52539H0.5V30H23.8633V26.8685C23.2416 26.9859 22.6005 27.0481 21.9452 27.0481ZM11.2617 4.39459L20.0524 4.39453V6.15234L11.2618 6.1524V4.39459H11.2617Z" fill="white"/>
</g>
</g>
<defs>
<clipPath id="clip0_3421_4654">
<rect width="30" height="30" fill="white" transform="translate(0.5)"/>
</clipPath>
</defs>
</svg>
