<svg width="42" height="42" viewBox="0 0 42 42" fill="none" xmlns="http://www.w3.org/2000/svg">
<g id="fi_3246987">
<g id="delivery, logistic, food, cart, shipping">
<path id="Vector" d="M5.72242 31.5H36.2774L37.1502 28.875H4.84961L5.72242 31.5Z" fill="#2650D8"/>
<path id="Vector_2" d="M4.60693 23.6251H37.3932C37.2237 19.3909 35.4225 15.3865 32.3667 12.4506C29.3109 9.51467 25.2377 7.875 21.0001 7.875C16.7624 7.875 12.6892 9.51467 9.63343 12.4506C6.57766 15.3865 4.7764 19.3909 4.60693 23.6251ZM24.3062 10.2107C24.3538 10.0433 24.4658 9.90159 24.6178 9.8168C24.7698 9.732 24.9493 9.71106 25.1167 9.75857C27.8196 10.537 30.2535 12.0502 32.1474 14.1299C34.0412 16.2095 35.3209 18.7739 35.8438 21.5376C35.8752 21.7085 35.8376 21.8849 35.7392 22.0281C35.6408 22.1713 35.4896 22.2696 35.3188 22.3015C35.2794 22.3091 35.2394 22.3128 35.1993 22.3126C35.0459 22.3126 34.8974 22.2588 34.7796 22.1606C34.6617 22.0624 34.582 21.926 34.5542 21.7752C34.0766 19.2516 32.908 16.9101 31.1785 15.0114C29.449 13.1126 27.2265 11.7311 24.7584 11.0205C24.5911 10.973 24.4495 10.861 24.3648 10.7092C24.28 10.5574 24.2589 10.3781 24.3062 10.2107ZM22.9688 9.96266C22.9539 10.1262 22.8782 10.2781 22.7567 10.3886C22.6352 10.499 22.4767 10.5599 22.3126 10.5592C22.2929 10.5592 22.2725 10.5592 22.2522 10.5592C21.8414 10.5192 21.4201 10.5001 21.0001 10.5001C20.826 10.5001 20.6591 10.431 20.536 10.3079C20.4129 10.1848 20.3438 10.0179 20.3438 9.84388C20.3438 9.66983 20.4129 9.50291 20.536 9.37984C20.6591 9.25677 20.826 9.18763 21.0001 9.18763C21.4594 9.18763 21.9188 9.20863 22.3723 9.24932C22.4583 9.25682 22.5421 9.28125 22.6187 9.3212C22.6953 9.36115 22.7633 9.41583 22.8187 9.4821C22.8741 9.54838 22.9159 9.62495 22.9417 9.70741C22.9674 9.78988 22.9767 9.87662 22.9688 9.96266Z" fill="#2650D8"/>
<path id="Vector_3" d="M38.0625 24.9375H3.9375C3.5894 24.9375 3.25556 25.0758 3.00942 25.3219C2.76328 25.5681 2.625 25.9019 2.625 26.25C2.625 26.5981 2.76328 26.9319 3.00942 27.1781C3.25556 27.4242 3.5894 27.5625 3.9375 27.5625H38.0625C38.4106 27.5625 38.7444 27.4242 38.9906 27.1781C39.2367 26.9319 39.375 26.5981 39.375 26.25C39.375 25.9019 39.2367 25.5681 38.9906 25.3219C38.7444 25.0758 38.4106 24.9375 38.0625 24.9375Z" fill="#2650D8"/>
<path id="Vector_4" d="M11.1562 32.8125C10.286 32.8125 9.45141 33.1582 8.83606 33.7736C8.2207 34.3889 7.875 35.2235 7.875 36.0938C7.87718 36.8059 8.11329 37.4976 8.547 38.0625H3.28125C3.1072 38.0625 2.94028 38.1316 2.81721 38.2547C2.69414 38.3778 2.625 38.5447 2.625 38.7188C2.625 38.8928 2.69414 39.0597 2.81721 39.1828C2.94028 39.3059 3.1072 39.375 3.28125 39.375H11.1562C12.0265 39.375 12.8611 39.0293 13.4764 38.4139C14.0918 37.7986 14.4375 36.964 14.4375 36.0938C14.4375 35.2235 14.0918 34.3889 13.4764 33.7736C12.8611 33.1582 12.0265 32.8125 11.1562 32.8125ZM11.1562 38.0625C10.7669 38.0625 10.3862 37.947 10.0625 37.7307C9.73871 37.5144 9.48637 37.2069 9.33736 36.8472C9.18835 36.4874 9.14936 36.0916 9.22533 35.7097C9.30129 35.3278 9.4888 34.977 9.76413 34.7016C10.0395 34.4263 10.3903 34.2388 10.7722 34.1628C11.1541 34.0869 11.5499 34.1259 11.9097 34.2749C12.2694 34.4239 12.5769 34.6762 12.7932 35C13.0095 35.3237 13.125 35.7044 13.125 36.0938C13.125 36.6159 12.9176 37.1167 12.5484 37.4859C12.1792 37.8551 11.6784 38.0625 11.1562 38.0625Z" fill="#2650D8"/>
<path id="Vector_5" d="M11.1562 36.75C11.5187 36.75 11.8125 36.4562 11.8125 36.0938C11.8125 35.7313 11.5187 35.4375 11.1562 35.4375C10.7938 35.4375 10.5 35.7313 10.5 36.0938C10.5 36.4562 10.7938 36.75 11.1562 36.75Z" fill="#2650D8"/>
<path id="Vector_6" d="M29.5312 32.8125C28.661 32.8125 27.8264 33.1582 27.2111 33.7736C26.5957 34.3889 26.25 35.2235 26.25 36.0938C26.2522 36.8059 26.4883 37.4976 26.922 38.0625H21.6562C21.4822 38.0625 21.3153 38.1316 21.1922 38.2547C21.0691 38.3778 21 38.5447 21 38.7188C21 38.8928 21.0691 39.0597 21.1922 39.1828C21.3153 39.3059 21.4822 39.375 21.6562 39.375H29.5312C30.4015 39.375 31.2361 39.0293 31.8514 38.4139C32.4668 37.7986 32.8125 36.964 32.8125 36.0938C32.8125 35.2235 32.4668 34.3889 31.8514 33.7736C31.2361 33.1582 30.4015 32.8125 29.5312 32.8125ZM29.5312 38.0625C29.1419 38.0625 28.7612 37.947 28.4375 37.7307C28.1137 37.5144 27.8614 37.2069 27.7124 36.8472C27.5634 36.4874 27.5244 36.0916 27.6003 35.7097C27.6763 35.3278 27.8638 34.977 28.1391 34.7016C28.4145 34.4263 28.7653 34.2388 29.1472 34.1628C29.5291 34.0869 29.9249 34.1259 30.2847 34.2749C30.6444 34.4239 30.9519 34.6762 31.1682 35C31.3845 35.3237 31.5 35.7044 31.5 36.0938C31.5 36.6159 31.2926 37.1167 30.9234 37.4859C30.5542 37.8551 30.0534 38.0625 29.5312 38.0625Z" fill="#2650D8"/>
<path id="Vector_7" d="M29.5312 36.75C29.8937 36.75 30.1875 36.4562 30.1875 36.0938C30.1875 35.7313 29.8937 35.4375 29.5312 35.4375C29.1688 35.4375 28.875 35.7313 28.875 36.0938C28.875 36.4562 29.1688 36.75 29.5312 36.75Z" fill="#2650D8"/>
<path id="Vector_8" d="M21 7.21875C22.0873 7.21875 22.9688 6.33731 22.9688 5.25C22.9688 4.16269 22.0873 3.28125 21 3.28125C19.9127 3.28125 19.0312 4.16269 19.0312 5.25C19.0312 6.33731 19.9127 7.21875 21 7.21875Z" fill="#2650D8"/>
<path id="Vector_9" d="M9.1875 9.1875C9.1875 9.01345 9.11836 8.84653 8.99529 8.72346C8.87222 8.60039 8.7053 8.53125 8.53125 8.53125H1.96875C1.7947 8.53125 1.62778 8.60039 1.50471 8.72346C1.38164 8.84653 1.3125 9.01345 1.3125 9.1875C1.3125 9.36155 1.38164 9.52847 1.50471 9.65154C1.62778 9.77461 1.7947 9.84375 1.96875 9.84375H8.53125C8.7053 9.84375 8.87222 9.77461 8.99529 9.65154C9.11836 9.52847 9.1875 9.36155 9.1875 9.1875Z" fill="#2650D8"/>
<path id="Vector_10" d="M4.59375 7.21875H12.4688C12.6428 7.21875 12.8097 7.14961 12.9328 7.02654C13.0559 6.90347 13.125 6.73655 13.125 6.5625C13.125 6.38845 13.0559 6.22153 12.9328 6.09846C12.8097 5.97539 12.6428 5.90625 12.4688 5.90625H4.59375C4.4197 5.90625 4.25278 5.97539 4.12971 6.09846C4.00664 6.22153 3.9375 6.38845 3.9375 6.5625C3.9375 6.73655 4.00664 6.90347 4.12971 7.02654C4.25278 7.14961 4.4197 7.21875 4.59375 7.21875Z" fill="#2650D8"/>
<path id="Vector_11" d="M9.84375 4.59375H15.0938C15.2678 4.59375 15.4347 4.52461 15.5578 4.40154C15.6809 4.27847 15.75 4.11155 15.75 3.9375C15.75 3.76345 15.6809 3.59653 15.5578 3.47346C15.4347 3.35039 15.2678 3.28125 15.0938 3.28125H9.84375C9.6697 3.28125 9.50278 3.35039 9.37971 3.47346C9.25664 3.59653 9.1875 3.76345 9.1875 3.9375C9.1875 4.11155 9.25664 4.27847 9.37971 4.40154C9.50278 4.52461 9.6697 4.59375 9.84375 4.59375Z" fill="#2650D8"/>
<path id="Vector_12" d="M6.5625 4.59375H7.21875C7.3928 4.59375 7.55972 4.52461 7.68279 4.40154C7.80586 4.27847 7.875 4.11155 7.875 3.9375C7.875 3.76345 7.80586 3.59653 7.68279 3.47346C7.55972 3.35039 7.3928 3.28125 7.21875 3.28125H6.5625C6.38845 3.28125 6.22153 3.35039 6.09846 3.47346C5.97539 3.59653 5.90625 3.76345 5.90625 3.9375C5.90625 4.11155 5.97539 4.27847 6.09846 4.40154C6.22153 4.52461 6.38845 4.59375 6.5625 4.59375Z" fill="#2650D8"/>
</g>
</g>
</svg>
