<svg width="111" height="105" viewBox="0 0 111 105" fill="none" xmlns="http://www.w3.org/2000/svg">
<path d="M0 20C0 8.9543 8.9543 0 20 0H91C102.046 0 111 8.95431 111 20V85C111 96.0457 102.046 105 91 105H20C8.95431 105 0 96.0457 0 85V20Z" fill="#2650D8"/>
<path d="M70 38.3685V38C70 34.287 68.525 30.726 65.8995 28.1005C63.274 25.475 59.713 24 56 24C52.287 24 48.726 25.475 46.1005 28.1005C43.475 30.726 42 34.287 42 38V38.3685C40.8335 38.7794 39.8227 39.5413 39.1065 40.5496C38.3903 41.558 38.0038 42.7632 38 44V60C38.0017 61.5908 38.6344 63.1159 39.7593 64.2407C40.8841 65.3656 42.4092 65.9983 44 66H68C69.5908 65.9983 71.1159 65.3656 72.2407 64.2407C73.3656 63.1159 73.9983 61.5908 74 60V44C73.9962 42.7632 73.6097 41.558 72.8935 40.5496C72.1773 39.5413 71.1665 38.7794 70 38.3685ZM56 28C58.6512 28.0031 61.1929 29.0577 63.0676 30.9324C64.9423 32.8071 65.9969 35.3488 66 38H46C46.0031 35.3488 47.0577 32.8071 48.9324 30.9324C50.8071 29.0577 53.3488 28.0031 56 28ZM70 60C69.9993 60.5302 69.7884 61.0385 69.4135 61.4135C69.0385 61.7884 68.5302 61.9993 68 62H44C43.4698 61.9993 42.9615 61.7884 42.5865 61.4135C42.2116 61.0385 42.0007 60.5302 42 60V44C42.0007 43.4698 42.2116 42.9615 42.5865 42.5865C42.9615 42.2116 43.4698 42.0007 44 42H68C68.5302 42.0007 69.0385 42.2116 69.4135 42.5865C69.7884 42.9615 69.9993 43.4698 70 44V60ZM60 50C59.9984 50.6993 59.8127 51.3858 59.4617 51.9906C59.1106 52.5954 58.6065 53.0971 58 53.4452V56C58 56.5304 57.7893 57.0391 57.4142 57.4142C57.0391 57.7893 56.5304 58 56 58C55.4696 58 54.9609 57.7893 54.5858 57.4142C54.2107 57.0391 54 56.5304 54 56V53.4452C53.3942 53.093 52.8918 52.5876 52.5431 51.9798C52.1945 51.372 52.0119 50.6831 52.0138 49.9824C52.0157 49.2816 52.2019 48.5938 52.5538 47.9878C52.9057 47.3818 53.4109 46.8792 54.0185 46.5302C54.6262 46.1813 55.315 45.9984 56.0157 46C56.7164 46.0015 57.4044 46.1874 58.0105 46.539C58.6167 46.8907 59.1196 47.3956 59.4688 48.0031C59.818 48.6106 60.0012 49.2993 60 50ZM72.3086 74.3906L69.8604 74.9668L71.541 77.3906C72.4447 78.6326 70.2474 80.207 69.3564 78.9268L67.7969 76.5264L66.2129 78.9512C65.373 80.1939 63.0273 78.5608 64.1484 77.3672L65.7324 75.1104L63.2364 74.3906C61.6855 73.9698 62.5807 71.3385 64.1007 71.9189L66.6202 72.7344L66.5011 70.2871C66.4779 68.7565 69.1018 68.7433 69.0685 70.2871L68.9728 72.7822L71.5168 71.9189C72.9385 71.3544 73.874 74.0661 72.3086 74.3906ZM60.5244 74.3906L58.0762 74.9668L59.7568 77.3906C60.6605 78.6326 58.4632 80.207 57.5723 78.9268L56.0127 76.5264L54.4287 78.9512C53.5889 80.1939 51.2431 78.5608 52.3642 77.3672L53.9482 75.1104L51.4522 74.3906C49.9013 73.9698 50.7965 71.3385 52.3165 71.9189L54.836 72.7344L54.7169 70.2871C54.6937 68.7565 57.3176 68.7433 57.2843 70.2871L57.1886 72.7822L59.7326 71.9189C61.1544 71.3544 62.0898 74.0661 60.5244 74.3906ZM48.7402 74.3906L46.292 74.9668L47.9727 77.3906C48.8763 78.6326 46.679 80.207 45.7881 78.9268L44.2285 76.5264L42.6445 78.9512C41.8047 80.1939 39.4589 78.5608 40.5801 77.3672L42.1641 75.1104L39.6681 74.3906C38.1171 73.9698 39.0123 71.3385 40.5323 71.9189L43.0519 72.7344L42.9327 70.2871C42.9095 68.7565 45.5334 68.7433 45.5001 70.2871L45.4044 72.7822L47.9484 71.9189C49.3702 71.3544 50.3056 74.0661 48.7402 74.3906Z" fill="white"/>
</svg>
