<svg width="107" height="107" viewBox="0 0 107 107" fill="none" xmlns="http://www.w3.org/2000/svg">
<g id="Group 33841">
<circle id="Ellipse 6" cx="53.5" cy="53.5" r="53.5" fill="#2650D8"/>
<g id="Group 7018">
<path id="Vector" d="M63.5715 51.8709C62.7443 51.7394 61.9036 51.673 61.0942 51.4567C60.3901 51.2686 59.6747 51.0039 59.0487 50.6049C58.274 50.1109 57.462 49.5635 56.8944 48.8192C56.2583 47.9852 55.8051 46.9413 55.4036 45.9235C54.8759 44.5865 54.7795 43.1226 54.7823 41.6786C54.7842 40.5905 54.9551 39.5109 55.4666 38.4741C55.5499 38.3866 55.5751 38.346 55.6004 38.3053C55.6004 38.3053 55.5914 38.2821 55.6012 38.2266C55.6038 38.143 55.5966 38.1147 55.5893 38.0865C55.5893 38.0865 55.5974 38.094 55.6275 38.0945C55.6715 38.0499 55.6855 38.0048 55.6995 37.9598C55.6995 37.9598 55.7039 37.9672 55.7313 37.9614C55.7759 37.9158 55.7928 37.8755 55.8099 37.8355C55.8099 37.8355 55.811 37.8434 55.845 37.8355C55.926 37.7061 55.973 37.5847 56.02 37.4634C56.02 37.4634 56.0235 37.4706 56.0603 37.4637C56.1427 37.3241 56.1883 37.191 56.2339 37.058C56.2331 37.0254 56.2448 37.0001 56.327 36.9734C56.4426 36.8789 56.5005 36.7937 56.5586 36.7084C57.2896 35.9999 57.9539 35.1668 58.7699 34.6173C59.6463 34.0268 60.6736 33.7233 61.6158 33.2465C61.8162 33.145 61.995 32.8623 62.0781 32.6175C62.589 31.1099 63.3767 29.7805 64.3077 28.5942C64.8388 27.9176 65.5671 27.3582 66.3029 26.9835C67.2136 26.5196 68.2067 26.1692 69.1956 26.0088C70.6607 25.7712 72.1562 25.7596 73.6065 26.2405C74.2114 26.441 74.7941 26.7267 75.2715 26.9255C76.5263 26.2645 77.719 25.5995 78.9384 25.0035C80.3657 24.3059 81.9104 24.0547 83.4348 24.0045C84.7157 23.9622 86.0046 24.2214 87.2627 24.7172C88.3407 25.142 89.2222 25.873 90.1183 26.5761C90.679 27.0159 91.1111 27.6983 91.5211 28.3365C91.9511 29.006 92.3673 29.7157 92.6429 30.4747C93.0333 31.5506 93.3849 32.6668 93.5834 33.8027C94.0397 36.4147 93.5485 38.8878 92.542 41.2615C92.1396 42.2104 91.6888 43.0725 91.0147 43.8431C90.5235 44.4044 90.1062 45.0605 89.5648 45.593C88.5352 46.6058 87.3723 47.3009 86.0395 47.6569C85.205 47.8798 85.1784 47.947 85.308 48.885C85.5967 50.9751 85.8925 53.0641 86.1717 55.1558C86.2118 55.455 86.1757 55.7667 86.0983 56.1069C85.8946 56.1506 85.7659 56.1484 85.6408 56.1712C82.1822 56.8024 78.724 57.4351 75.2661 58.0693C72.3815 58.5981 69.4992 59.142 66.6113 59.6474C66.0676 59.7424 65.5026 59.688 64.9397 59.6518C64.7219 58.07 64.5111 56.5388 64.302 55.0075C64.1726 54.0609 64.056 53.1121 63.9052 52.1698C63.8855 52.0469 63.9617 51.5633 63.5715 51.8709ZM92.364 33.2476C92.3474 33.2169 92.3251 33.1926 92.2787 33.0732C91.8865 32.0058 91.5506 30.9059 91.0817 29.8827C90.7851 29.2356 90.3177 28.6747 89.8756 28.1278C89.4925 27.6542 89.0689 27.2029 88.6031 26.8399C88.2596 26.5723 87.8032 26.4977 87.425 26.2766C86.1684 25.5418 84.8401 25.1542 83.4282 25.2096C82.7382 25.2367 82.0341 25.2821 81.3678 25.4633C80.5075 25.6971 79.682 26.0868 78.8353 26.3876C77.9426 26.7048 77.1832 27.2647 76.454 27.9073C75.6803 28.5891 75.3987 28.6383 74.738 28.1637C74.4826 27.9802 74.2109 27.7953 73.9235 27.7038C72.7051 27.3157 70.8781 27.1504 70.188 27.1146C69.498 27.0788 68.0533 27.4799 68.0533 27.4799C67.2056 27.91 66.4098 28.3171 65.6716 28.8744C64.5467 29.7238 63.9066 31.0495 63.3029 32.376C63.1892 32.6257 63.0518 32.9034 63.0513 33.1691C63.0499 33.9137 62.6051 34.2555 62.1023 34.3935C61.1127 34.665 60.1954 35.0598 59.3258 35.6675C57.8967 36.6662 56.669 37.8264 56.2139 39.7492C56.099 40.2347 55.8889 40.7225 55.8946 41.2072C55.9107 42.5616 55.8509 43.9115 56.3533 45.2372C56.684 46.1101 57.0071 46.9785 57.5435 47.6833C59.1441 49.786 61.2272 50.695 63.7329 50.6723C64.1915 50.6254 64.65 50.5785 65.1085 50.5317C65.113 50.4793 65.1175 50.4268 65.122 50.3745C64.9288 50.2898 64.7357 50.2052 64.4762 50.0828C63.9779 49.6969 63.4549 49.3455 62.9869 48.9179C62.1078 48.1144 61.424 47.1473 61.1265 45.8795C61.0328 45.4805 61.1089 45.1167 61.4274 45.047C61.6225 45.0045 61.9478 45.2646 62.0966 45.4878C62.4046 45.9502 62.5999 46.5064 62.9019 46.975C63.9176 48.551 65.2918 49.5329 67.0367 50.0431C67.5605 50.002 68.0844 49.9607 68.6082 49.9196C68.6039 49.8443 68.5994 49.7691 68.5951 49.6938C68.453 49.6962 68.3112 49.6987 68.121 49.6346C67.7329 49.2509 67.262 48.9318 66.9753 48.4688C66.4907 47.6866 66.0232 46.8547 65.731 45.9682C65.3616 44.8473 65.5199 44.6615 66.3983 44.6945C66.6543 45.3252 66.8668 45.9999 67.1856 46.6041C67.9935 48.1358 69.0605 49.2746 70.8276 49.3636C70.989 49.3705 71.1549 49.4079 71.3112 49.3798C74.5908 48.7897 77.8698 48.1961 81.1466 47.5865C81.3317 47.5519 81.4951 47.3728 81.7555 47.2412C82.2214 47.0103 82.7211 46.8387 83.1456 46.5347C83.8267 46.0468 84.5423 45.5614 85.0912 44.9121C85.9872 43.8526 86.5622 42.5284 87.0191 41.1626C87.2323 40.5255 87.311 39.8323 87.4962 39.1811C87.5758 38.9008 87.665 38.5236 88.0979 38.6906C88.4611 38.8306 88.6513 39.0482 88.5492 39.4976C88.5135 39.6549 88.4647 39.8144 88.4609 39.9742C88.4265 41.4561 87.8094 42.72 87.146 43.9041C86.5618 44.9464 85.7444 45.8227 85.0421 46.7563C85.0584 46.7583 85.1933 46.8204 85.2902 46.7767C85.8825 46.5089 86.5145 46.301 87.0432 45.9169C88.3737 44.9504 89.8267 44.1359 90.6066 42.4297C91.0591 41.4401 91.6729 40.5841 91.9877 39.4647C92.3595 38.142 92.6069 36.8355 92.7109 35.3849C92.6018 34.6817 92.4927 33.9783 92.3944 33.2755C92.3944 33.2755 92.3943 33.2878 92.364 33.2476ZM64.768 51.7389C64.768 51.7389 64.7728 51.7431 64.7682 51.8488C64.8632 52.6172 64.9506 53.3867 65.0546 54.1535C65.249 55.586 65.4489 57.0177 65.6621 58.4469C65.6766 58.5444 65.8217 58.6176 66.0004 58.708C66.4302 58.6443 66.862 58.5927 67.2898 58.5149C68.8953 58.223 70.4988 57.9169 72.1048 57.6269C73.9783 57.2885 75.8543 56.9648 77.7281 56.628C79.3875 56.3296 81.0474 56.0333 82.7035 55.7133C83.5012 55.5592 84.2906 55.3523 85.1449 55.1717C85.1646 55.0981 85.2099 55.0202 85.2005 54.9513C84.9086 52.774 84.6136 50.5973 84.3073 48.4225C84.295 48.3357 84.1693 48.2686 84.1024 48.1869C84.1024 48.1869 84.1072 48.1938 84.0734 48.1009C84.0203 48.09 83.9645 48.0617 83.9143 48.0707C81.092 48.5788 78.2696 49.0875 75.4482 49.6016C72.8223 50.08 70.1965 50.5599 67.5721 51.0487C66.6467 51.221 65.7257 51.4214 64.7575 51.6124C64.7476 51.6251 64.7272 51.6419 64.7296 51.6498C64.739 51.679 64.7557 51.705 64.768 51.7389Z" fill="white"/>
<path id="Vector_2" d="M82.8454 44.7744C82.2306 45.3994 81.8272 45.4245 81.613 44.8632C81.5534 44.7069 81.5786 44.3898 81.6771 44.2972C82.3564 43.6592 82.7778 42.8445 83.0266 41.9125C83.1037 41.623 83.1094 41.2939 83.0854 40.989C83.0513 40.5572 83.2443 40.3656 83.5736 40.3533C83.8972 40.3412 84.169 40.471 84.2022 40.9209C84.2865 42.06 84.0698 43.0835 83.3633 43.9458C83.17 44.1818 83.0245 44.4674 82.8454 44.7744Z" fill="white"/>
<path id="Vector_3" d="M91.4889 46.6259L57.8047 52.7051L59.4683 64.1218L93.1524 58.0427L91.4889 46.6259Z" fill="#2650D8"/>
<path id="Vector_4" d="M23.2328 63.8345C23.3453 64.4901 23.3486 65.0884 23.2427 65.6295C23.1368 66.1704 22.9467 66.6602 22.6725 67.0987C22.4049 67.5362 22.0677 67.9266 21.6608 68.2703C21.2539 68.614 20.8056 68.9162 20.316 69.177C19.8319 69.4299 19.3208 69.6459 18.7829 69.8247C18.2438 69.9968 17.7089 70.1335 17.1781 70.2345L17.9881 74.9585L13.3407 75.7818C13.0753 74.2342 12.8145 72.6926 12.5581 71.1573C12.3017 69.6221 12.0463 68.0726 11.7919 66.5092C11.6638 65.6822 11.5257 64.8571 11.3777 64.0338C11.2297 63.2105 11.1038 62.3763 11 61.5312C11.807 61.1236 12.625 60.7803 13.454 60.501C14.283 60.2218 15.1496 60.0021 16.0539 59.8419C16.5658 59.7513 17.0853 59.7044 17.6123 59.7016C18.1381 59.6919 18.6494 59.7372 19.1461 59.8372C19.6495 59.9361 20.1244 60.0887 20.5708 60.2952C21.0227 60.4936 21.4274 60.7562 21.7848 61.0829C22.1423 61.4095 22.4459 61.8013 22.6955 62.2585C22.9505 62.7077 23.1297 63.233 23.2328 63.8345ZM18.8639 64.9637C18.7886 64.5245 18.5971 64.2066 18.2895 64.0105C17.9873 63.8064 17.6268 63.7414 17.2079 63.8157C17.0683 63.8405 16.9243 63.8798 16.776 63.9339C16.6333 63.9801 16.4983 64.0319 16.3711 64.0893L16.759 67.0706C16.8544 67.0677 16.9453 67.0585 17.0317 67.0431C17.1181 67.0278 17.2079 67.012 17.301 66.9955C17.5403 66.953 17.7628 66.8718 17.9683 66.7519C18.1804 66.6307 18.3602 66.4806 18.5076 66.3013C18.6538 66.1151 18.7594 65.9119 18.8243 65.6915C18.8948 65.4632 18.908 65.2205 18.8639 64.9637ZM37.64 70.4324L32.8046 71.9575L31.8132 69.7724L29.5394 70.1753L29.4336 72.5548L24.2605 72.9488L25.9144 58.7425L31.4108 57.4763L37.64 70.4324ZM30.9224 66.734L29.5596 63.3405L29.4264 66.999L30.9224 66.734ZM48.9724 54.365L45.3231 61.9682L50.6029 68.4282L46.1179 70.0794L42.3352 66.237L42.9613 70.8474L38.8404 71.7446L36.4966 56.1576L41.189 55.5977L41.6158 60.2436L43.8765 54.8501L48.9724 54.365ZM64.6054 65.655L59.77 67.1801L58.7788 64.9952L56.5049 65.3979L56.399 67.7773L51.2259 68.1716L52.8798 53.9653L58.3762 52.6991L64.6054 65.655ZM57.8878 61.9566L56.525 58.563L56.392 62.2216L57.8878 61.9566ZM76.5018 57.0712C76.6072 57.6862 76.6393 58.2933 76.5982 58.8925C76.556 59.4849 76.4447 60.0548 76.2645 60.602C76.0909 61.148 75.8506 61.6642 75.5436 62.1503C75.2419 62.6285 74.8805 63.0581 74.4594 63.4392C74.0451 63.819 73.5764 64.1422 73.0536 64.4089C72.5296 64.6689 71.9584 64.8536 71.34 64.9632C70.7415 65.0693 70.1565 65.0928 69.5847 65.034C69.0195 64.9739 68.477 64.8471 67.9575 64.6538C67.4368 64.4535 66.9501 64.1915 66.4972 63.8678C66.0497 63.5363 65.6487 63.1547 65.2939 62.7232C64.9445 62.2838 64.6458 61.8004 64.3979 61.2734C64.1565 60.7451 63.9844 60.1802 63.8813 59.5787C63.7804 58.9907 63.7517 58.4039 63.7952 57.8182C63.8374 57.2259 63.9454 56.6565 64.1188 56.1105C64.299 55.5633 64.5394 55.0471 64.84 54.5622C65.1404 54.0772 65.4939 53.642 65.9005 53.2567C66.3137 52.87 66.7752 52.5445 67.2847 52.2802C67.7944 52.0159 68.3483 51.8306 68.9468 51.7246C69.9109 51.5538 70.8144 51.5503 71.6577 51.7144C72.5078 51.8772 73.2607 52.1929 73.9166 52.6617C74.5779 53.1225 75.1305 53.7279 75.5742 54.4779C76.0234 55.2201 76.3326 56.0845 76.5018 57.0712ZM72.1189 58.1193C72.0691 57.8286 71.9777 57.5559 71.845 57.3009C71.7177 57.0378 71.5563 56.8158 71.3608 56.6346C71.1641 56.4465 70.9352 56.3095 70.6738 56.2236C70.4179 56.1296 70.137 56.1098 69.8312 56.1639C69.5187 56.2192 69.2493 56.3262 69.023 56.4846C68.7968 56.6432 68.6113 56.8397 68.4665 57.0741C68.3272 57.3009 68.2343 57.5576 68.1875 57.8444C68.1396 58.1243 68.1411 58.4131 68.1921 58.7106C68.2408 58.9944 68.3293 59.2712 68.4578 59.5409C68.5862 59.8105 68.75 60.0462 68.9489 60.2476C69.1479 60.4492 69.376 60.6003 69.633 60.7011C69.8967 60.8005 70.1847 60.8226 70.4972 60.7673C70.8098 60.7119 71.0784 60.6017 71.3037 60.4364C71.5342 60.2632 71.718 60.0565 71.8551 59.8165C71.9909 59.5695 72.0816 59.2993 72.127 59.0056C72.1726 58.7122 72.1698 58.4166 72.1189 58.1193ZM90.3436 54.619C90.449 55.234 90.4811 55.8411 90.44 56.4401C90.3977 57.0327 90.2866 57.6024 90.1064 58.1496C89.9327 58.6958 89.6924 59.2118 89.3852 59.6981C89.0837 60.1763 88.7223 60.6059 88.3012 60.9868C87.8868 61.3667 87.4182 61.69 86.8952 61.9567C86.3712 62.2167 85.8 62.4014 85.1817 62.511C84.5834 62.6169 83.9982 62.6406 83.4265 62.5816C82.8612 62.5217 82.3188 62.3949 81.7993 62.2014C81.2786 62.0012 80.7917 61.7393 80.3389 61.4157C79.8915 61.0841 79.4906 60.7025 79.1357 60.271C78.7862 59.8314 78.4876 59.3481 78.2397 58.821C77.9983 58.2928 77.8261 57.728 77.7229 57.1265C77.6222 56.5385 77.5935 55.9516 77.6369 55.3659C77.6792 54.7735 77.7872 54.2043 77.9606 53.6581C78.1409 53.1111 78.3812 52.5949 78.6816 52.1099C78.9821 51.625 79.3357 51.1898 79.7423 50.8043C80.1555 50.4178 80.617 50.0923 81.1265 49.8278C81.6362 49.5635 82.1901 49.3784 82.7884 49.2724C83.7525 49.1015 84.6563 49.0981 85.4996 49.262C86.3496 49.4248 87.1025 49.7406 87.7584 50.2093C88.4196 50.6701 88.9721 51.2757 89.416 52.0257C89.8652 52.7677 90.1743 53.6321 90.3436 54.619ZM85.9607 55.6671C85.9109 55.3764 85.8195 55.1035 85.6869 54.8485C85.5595 54.5856 85.3981 54.3634 85.2026 54.1822C85.006 53.9943 84.7769 53.8573 84.5156 53.7712C84.2598 53.6773 83.9788 53.6574 83.673 53.7117C83.3605 53.767 83.0911 53.874 82.8648 54.0324C82.6385 54.1908 82.4529 54.3873 82.3083 54.6219C82.169 54.8485 82.0759 55.1053 82.0293 55.392C81.9814 55.6722 81.983 55.9609 82.0339 56.2582C82.0825 56.542 82.1711 56.8188 82.2997 57.0885C82.428 57.3583 82.5918 57.594 82.7907 57.7954C82.9897 57.9968 83.2176 58.1481 83.4747 58.2487C83.7383 58.3483 84.0265 58.3704 84.3391 58.3149C84.6514 58.2596 84.9203 58.1493 85.1454 57.984C85.376 57.8109 85.5599 57.6043 85.6967 57.3641C85.8325 57.1172 85.9232 56.8471 85.9688 56.5534C86.0144 56.2598 86.0117 55.9644 85.9607 55.6671Z" fill="white"/>
<path id="Vector_5" d="M87.8751 63.8303C88.8177 63.7932 89.3984 63.141 90.0895 62.6966C90.3499 62.5293 90.6607 62.4422 90.9485 62.3184C91.0251 62.661 91.2498 63.0567 91.1513 63.3366C90.787 64.3728 90.4392 65.4511 89.8554 66.364C89.0371 67.643 87.8343 68.5729 86.3941 69.088C85.6802 69.3434 84.9177 69.5023 84.1641 69.5903C83.3676 69.6834 82.5542 69.6735 81.751 69.6402C81.4105 69.6261 81.0682 69.4591 80.7425 69.3233C79.9892 69.009 79.2809 68.6216 78.7555 67.7974C78.5782 68.9066 77.9624 69.6309 77.232 70.2727C76.4884 70.9261 75.682 71.4255 74.6958 71.6832C73.9968 71.8655 73.315 72.0383 72.5929 72.1198C71.0849 72.2898 69.6504 72.0899 68.366 71.2871C67.5939 70.8044 66.9076 70.1702 66.2271 69.5541C65.9081 69.2654 65.6702 68.8729 65.4455 68.497C65.3694 68.3703 65.3793 68.0657 65.47 67.9907C65.62 67.8669 65.8746 67.7984 66.0724 67.8209C66.6948 67.8917 67.3084 68.0715 67.9308 68.1023C68.4864 68.1296 69.0008 67.9307 69.5376 67.6936C70.3677 67.3271 71.0077 66.7422 71.706 66.2199C72.2076 65.845 72.6552 65.397 73.154 65.018C73.7069 64.5981 74.2998 64.2627 74.9965 64.1013C76.0004 63.8684 76.9025 64.0435 77.7321 64.629C77.9096 64.7542 78.0383 64.95 78.2204 65.1467C78.4151 64.3643 78.7793 63.716 79.4891 63.3299C80.0316 63.0347 80.5773 62.8603 81.2292 62.8292C82.35 62.7757 83.3467 63.1313 84.3908 63.4077C85.4049 63.6761 86.464 63.773 87.5055 63.9323C87.6078 63.9479 87.7239 63.8721 87.8751 63.8303ZM74.1839 70.8655C74.8772 70.4979 75.5746 70.1377 76.2627 69.7606C76.9611 69.378 77.2873 68.6651 77.6207 68.0095C77.9108 67.4389 78.0397 66.7775 77.6404 66.1488C76.8227 64.8608 75.5364 64.5781 74.3175 65.4841C73.3004 66.2401 72.3515 67.0907 71.3276 67.8364C70.6326 68.3427 69.8657 68.7628 69.0065 68.9307C68.447 69.0399 67.8767 69.0912 67.2516 69.1767C68.8636 70.7571 70.7186 71.4808 72.9785 71.1482C73.2613 71.0709 73.5441 70.9937 73.8945 70.9029C73.9405 70.9046 73.964 70.9362 74.0296 70.9547L74.0873 70.9292C74.0873 70.9292 74.1177 70.9064 74.1839 70.8655ZM82.8479 63.9797C81.8737 63.7483 80.8956 63.5419 79.9993 64.2121C79.2525 64.7707 78.8228 65.9769 79.3184 66.8669C79.991 68.0752 81.1171 68.5211 82.3365 68.6922C83.4775 68.8522 84.648 68.8399 85.7387 68.2852C86.5827 67.8559 87.438 67.4753 88.1555 66.8113C88.9086 66.1146 89.2458 65.1985 89.7355 64.2834C89.6009 64.2837 89.5235 64.2651 89.4596 64.2871C89.0397 64.4305 88.6254 64.5905 88.2047 64.7309C87.1529 65.0816 86.0933 64.8039 85.0561 64.6831C84.3287 64.5984 83.6337 64.2317 82.8479 63.9797Z" fill="white"/>
</g>
</g>
</svg>
