<svg width="114" height="106" viewBox="0 0 114 106" fill="none" xmlns="http://www.w3.org/2000/svg">
<g id="logo">
<path id="Vector" d="M88.5822 0H25.4178C11.3799 0 0 11.4595 0 25.5954V80.4046C0 94.5405 11.3799 106 25.4178 106H88.5822C102.62 106 114 94.5405 114 80.4046V25.5954C114 11.4595 102.62 0 88.5822 0Z" fill="#2650D8"/>
<path id="Vector_2" d="M69.9727 46.78C68.9991 46.6267 68.0097 46.5493 67.057 46.297C66.2284 46.0777 65.3863 45.7691 64.6496 45.3039C63.7378 44.7279 62.7821 44.0896 62.1142 43.2219C61.3655 42.2494 60.8321 41.0323 60.3595 39.8457C59.7385 38.2869 59.625 36.58 59.6283 34.8964C59.6305 33.6277 59.8316 32.369 60.4337 31.1601C60.5318 31.0581 60.5614 31.0108 60.5911 30.9633C60.5911 30.9633 60.5806 30.9363 60.5921 30.8716C60.5952 30.7741 60.5867 30.7411 60.5781 30.7082C60.5781 30.7082 60.5877 30.717 60.6231 30.7176C60.6749 30.6656 60.6914 30.6129 60.7078 30.5605C60.7078 30.5605 60.7129 30.5691 60.7453 30.5624C60.7977 30.5091 60.8177 30.4622 60.8378 30.4156C60.8378 30.4156 60.839 30.4248 60.8791 30.4156C60.9744 30.2646 61.0297 30.1231 61.085 29.9817C61.085 29.9817 61.0891 29.9901 61.1324 29.9821C61.2294 29.8193 61.2831 29.6641 61.3368 29.5091C61.3358 29.471 61.3496 29.4415 61.4464 29.4104C61.5824 29.3002 61.6505 29.2009 61.7189 29.1014C62.5792 28.2754 63.3611 27.304 64.3214 26.6633C65.353 25.9748 66.5621 25.621 67.6709 25.0651C67.9068 24.9467 68.1172 24.6171 68.215 24.3316C68.8163 22.5739 69.7434 21.0239 70.8392 19.6407C71.4642 18.8518 72.3213 18.1997 73.1874 17.7627C74.2592 17.2218 75.428 16.8133 76.5919 16.6263C78.3163 16.3493 80.0764 16.3358 81.7833 16.8965C82.4952 17.1303 83.181 17.4633 83.7429 17.6951C85.2197 16.9244 86.6234 16.1491 88.0586 15.4542C89.7384 14.6408 91.5565 14.348 93.3506 14.2894C94.8582 14.2402 96.3751 14.5423 97.8558 15.1204C99.1245 15.6157 100.162 16.468 101.217 17.2878C101.877 17.8005 102.385 18.5962 102.868 19.3403C103.374 20.1209 103.864 20.9483 104.188 21.8333C104.647 23.0877 105.061 24.3892 105.295 25.7136C105.832 28.759 105.254 31.6425 104.069 34.4101C103.596 35.5164 103.065 36.5216 102.272 37.4201C101.694 38.0745 101.202 38.8395 100.565 39.4604C99.3535 40.6412 97.9848 41.4517 96.4162 41.8667C95.434 42.1266 95.4027 42.205 95.5552 43.2986C95.895 45.7355 96.2431 48.1712 96.5717 50.6099C96.6189 50.9588 96.5764 51.3223 96.4853 51.7189C96.2456 51.7699 96.0941 51.7672 95.9469 51.7939C91.8764 52.5298 87.8063 53.2675 83.7366 54.0069C80.3416 54.6235 76.9492 55.2576 73.5503 55.8469C72.9104 55.9577 72.2455 55.8942 71.583 55.8521C71.3266 54.0078 71.0785 52.2224 70.8325 50.4371C70.6802 49.3334 70.5429 48.2271 70.3654 47.1285C70.3422 46.9852 70.4319 46.4213 69.9727 46.78ZM103.86 25.0663C103.84 25.0305 103.814 25.0022 103.759 24.863C103.298 23.6184 102.902 22.336 102.351 21.143C102.001 20.3886 101.451 19.7346 100.931 19.0969C100.48 18.5448 99.9816 18.0186 99.4334 17.5953C99.0291 17.2834 98.4919 17.1964 98.0468 16.9385C96.5679 16.0819 95.0046 15.6299 93.3429 15.6945C92.5307 15.7261 91.7021 15.7791 90.9178 15.9902C89.9054 16.2629 88.9338 16.7173 87.9372 17.068C86.8865 17.4378 85.9929 18.0906 85.1345 18.8399C84.224 19.6347 83.8925 19.6922 83.1149 19.1387C82.8144 18.9248 82.4946 18.7093 82.1564 18.6026C80.7224 18.1501 78.5721 17.9573 77.7599 17.9156C76.9478 17.8738 75.2474 18.3416 75.2474 18.3416C74.2498 18.843 73.3132 19.3176 72.4444 19.9675C71.1204 20.9577 70.367 22.5035 69.6565 24.0501C69.5227 24.3412 69.3611 24.665 69.3605 24.9748C69.3588 25.843 68.8352 26.2415 68.2435 26.4024C67.0788 26.719 65.9992 27.1793 64.9758 27.8877C63.2938 29.0522 61.8488 30.4049 61.3132 32.6469C61.178 33.2128 60.9307 33.7817 60.9374 34.3468C60.9563 35.9259 60.886 37.4997 61.4773 39.0455C61.8665 40.0632 62.2467 41.0757 62.8781 41.8974C64.7619 44.3491 67.2136 45.4089 70.1627 45.3825C70.7023 45.3278 71.242 45.2732 71.7817 45.2185C71.787 45.1575 71.7922 45.0963 71.7975 45.0352C71.5702 44.9365 71.3429 44.8378 71.0374 44.6951C70.451 44.2453 69.8355 43.8355 69.2846 43.3369C68.25 42.4001 67.4452 41.2725 67.095 39.7943C66.9848 39.3291 67.0743 38.905 67.4493 38.8237C67.6788 38.7742 68.0617 39.0774 68.2368 39.3377C68.5994 39.8768 68.8291 40.5253 69.1846 41.0716C70.38 42.9092 71.9974 44.054 74.051 44.6488C74.6675 44.6009 75.284 44.5528 75.9006 44.5049C75.8955 44.4171 75.8902 44.3294 75.8851 44.2416C75.718 44.2444 75.551 44.2473 75.3271 44.1726C74.8704 43.7252 74.3161 43.3531 73.9788 42.8134C73.4084 41.9013 72.8582 40.9314 72.5143 39.8977C72.0796 38.5909 72.2658 38.3743 73.2996 38.4128C73.601 39.1481 73.8511 39.9348 74.2262 40.6392C75.1771 42.4251 76.4329 43.7528 78.5127 43.8566C78.7026 43.8646 78.8978 43.9082 79.0819 43.8755C82.9417 43.1875 86.8009 42.4954 90.6575 41.7846C90.8753 41.7443 91.0677 41.5354 91.3741 41.3821C91.9225 41.1128 92.5106 40.9127 93.0102 40.5583C93.8118 39.9895 94.654 39.4235 95.3 38.6665C96.3546 37.4312 97.0313 35.8872 97.5691 34.2948C97.8201 33.5519 97.9126 32.7437 98.1306 31.9844C98.2243 31.6576 98.3292 31.2178 98.8388 31.4125C99.2662 31.5757 99.4901 31.8294 99.3699 32.3534C99.3278 32.5369 99.2705 32.7228 99.266 32.9092C99.2256 34.637 98.4992 36.1106 97.7184 37.4911C97.0309 38.7064 96.0689 39.7282 95.2423 40.8167C95.2614 40.819 95.4202 40.8914 95.5343 40.8405C96.2313 40.5282 96.9752 40.2858 97.5974 39.8379C99.1633 38.7111 100.873 37.7614 101.791 35.7722C102.324 34.6183 103.046 33.6203 103.417 32.3151C103.854 30.7729 104.146 29.2496 104.268 27.5583C104.14 26.7384 104.011 25.9183 103.896 25.0989C103.896 25.0989 103.895 25.1132 103.86 25.0663ZM71.3809 46.626C71.3809 46.626 71.3866 46.631 71.3811 46.7542C71.4929 47.6501 71.5958 48.5473 71.7182 49.4413C71.947 51.1116 72.1823 52.7808 72.4332 54.4472C72.4503 54.5608 72.6211 54.6462 72.8313 54.7517C73.3372 54.6773 73.8454 54.6171 74.3489 54.5264C76.2385 54.1861 78.1257 53.8292 80.0158 53.4911C82.2208 53.0966 84.4287 52.7192 86.6342 52.3264C88.5871 51.9786 90.5408 51.6331 92.4898 51.26C93.4287 51.0803 94.3577 50.839 95.3633 50.6286C95.3865 50.5428 95.4397 50.4518 95.4287 50.3716C95.0851 47.8329 94.738 45.2951 94.3775 42.7593C94.363 42.6581 94.215 42.5799 94.1363 42.4847C94.1363 42.4847 94.142 42.4927 94.1021 42.3844C94.0397 42.3717 93.974 42.3387 93.9149 42.3492C90.5933 42.9415 87.2715 43.5347 83.9509 44.1341C80.8603 44.6918 77.7699 45.2515 74.6811 45.8213C73.592 46.0222 72.508 46.2558 71.3685 46.4786C71.3569 46.4934 71.3329 46.513 71.3357 46.5222C71.3467 46.5562 71.3664 46.5865 71.3809 46.626Z" fill="white"/>
<path id="Vector_3" d="M92.6568 38.5062C91.9333 39.2349 91.4585 39.2642 91.2063 38.6098C91.1362 38.4276 91.1659 38.0578 91.2818 37.9498C92.0813 37.2059 92.5773 36.256 92.8701 35.1694C92.9608 34.8319 92.9675 34.4482 92.9392 34.0927C92.8992 33.5892 93.1263 33.3658 93.5139 33.3515C93.8947 33.3373 94.2146 33.4887 94.2536 34.0133C94.3529 35.3414 94.0979 36.5347 93.2664 37.5401C93.0389 37.8153 92.8677 38.1483 92.6568 38.5062Z" fill="white"/>
<path id="Vector_4" d="M102.83 40.664L63.186 47.752L65.1439 61.0632L104.788 53.9753L102.83 40.664Z" fill="#2650D8"/>
<path id="Vector_5" d="M22.497 60.7287C22.6294 61.493 22.6332 62.1907 22.5086 62.8216C22.3839 63.4522 22.1602 64.0233 21.8375 64.5346C21.5226 65.0447 21.1256 65.4999 20.6468 65.9006C20.1679 66.3013 19.6403 66.6537 19.064 66.9578C18.4942 67.2526 17.8928 67.5045 17.2597 67.7129C16.6252 67.9136 15.9956 68.0729 15.371 68.1907L16.3243 73.6986L10.8546 74.6585C10.5422 72.8541 10.2352 71.0567 9.93341 69.2667C9.63165 67.4766 9.33107 65.67 9.03167 63.8472C8.88093 62.883 8.71844 61.921 8.54424 60.9611C8.37001 60.0011 8.22184 59.0285 8.09967 58.0432C9.04944 57.5679 10.0122 57.1676 10.9879 56.8421C11.9636 56.5165 12.9835 56.2603 14.0478 56.0736C14.6503 55.9679 15.2617 55.9133 15.8819 55.91C16.5008 55.8987 17.1026 55.9515 17.6872 56.0681C18.2796 56.1833 18.8385 56.3613 19.3639 56.6021C19.8958 56.8335 20.3721 57.1396 20.7928 57.5204C21.2135 57.9013 21.5708 58.3581 21.8646 58.8911C22.1647 59.4149 22.3756 60.0274 22.497 60.7287ZM17.3551 62.0453C17.2664 61.5332 17.041 61.1626 16.6789 60.9338C16.3233 60.6959 15.899 60.6201 15.406 60.7068C15.2417 60.7356 15.0722 60.7815 14.8977 60.8446C14.7297 60.8984 14.5708 60.9588 14.4211 61.0258L14.8776 64.5018C14.9899 64.4984 15.0969 64.4877 15.1986 64.4697C15.3003 64.4519 15.406 64.4335 15.5155 64.4142C15.7973 64.3647 16.059 64.27 16.3009 64.1302C16.5506 63.9889 16.7622 63.8138 16.9356 63.6048C17.1077 63.3877 17.232 63.1508 17.3084 62.8938C17.3913 62.6276 17.4069 62.3447 17.3551 62.0453ZM39.4533 68.4214L33.7623 70.1996L32.5956 67.6519L29.9194 68.1216L29.7949 70.896L23.7065 71.3555L25.6531 54.7918L32.122 53.3154L39.4533 68.4214ZM31.5471 64.1093L29.9432 60.1527L29.7864 64.4183L31.5471 64.1093ZM52.7909 49.6878L48.4959 58.5527L54.7099 66.0847L49.4313 68.0098L44.9793 63.5298L45.7162 68.9053L40.8661 69.9514L38.1076 51.7779L43.6303 51.1251L44.1326 56.5419L46.7933 50.2534L52.7909 49.6878ZM71.1899 62.8512L65.499 64.6294L64.3324 62.0819L61.6562 62.5515L61.5316 65.3258L55.4431 65.7855L57.3897 49.2218L63.8586 47.7455L71.1899 62.8512ZM63.2838 58.5391L61.6798 54.5825L61.5233 58.8481L63.2838 58.5391ZM85.1913 52.843C85.3153 53.5601 85.3531 54.268 85.3047 54.9666C85.2551 55.6573 85.1242 56.3218 84.9121 56.9598C84.7077 57.5964 84.4249 58.1982 84.0635 58.765C83.7085 59.3226 83.2831 59.8234 82.7876 60.2677C82.3 60.7107 81.7483 61.0874 81.133 61.3985C80.5162 61.7015 79.844 61.9169 79.1162 62.0447C78.4118 62.1684 77.7233 62.1958 77.0503 62.1272C76.3851 62.0572 75.7466 61.9093 75.1352 61.6839C74.5223 61.4505 73.9495 61.145 73.4165 60.7676C72.8899 60.381 72.4179 59.936 72.0003 59.4329C71.5891 58.9206 71.2375 58.3571 70.9457 57.7426C70.6617 57.1267 70.4591 56.468 70.3377 55.7666C70.219 55.0811 70.1852 54.397 70.2365 53.7141C70.2861 53.0234 70.4132 52.3596 70.6173 51.723C70.8294 51.0849 71.1123 50.4831 71.4661 49.9178C71.8197 49.3522 72.2357 48.8448 72.7142 48.3956C73.2006 47.9447 73.7437 47.5653 74.3434 47.2571C74.9432 46.9489 75.5951 46.7329 76.2995 46.6092C77.4342 46.4102 78.4977 46.4061 79.4902 46.5973C80.4906 46.7872 81.3768 47.1553 82.1487 47.7018C82.9271 48.2391 83.5774 48.945 84.0995 49.8195C84.6282 50.6848 84.9922 51.6927 85.1913 52.843ZM80.0329 54.0651C79.9743 53.7262 79.8668 53.4082 79.7106 53.1109C79.5607 52.8041 79.3708 52.5453 79.1406 52.334C78.9092 52.1147 78.6398 51.955 78.3321 51.8548C78.031 51.7453 77.7004 51.7222 77.3404 51.7852C76.9726 51.8497 76.6556 51.9744 76.3892 52.1591C76.123 52.344 75.9046 52.5732 75.7342 52.8465C75.5703 53.1109 75.4609 53.4102 75.4058 53.7446C75.3495 54.071 75.3513 54.4076 75.4113 54.7545C75.4687 55.0854 75.5728 55.4081 75.7241 55.7226C75.8752 56.0369 76.0679 56.3117 76.302 56.5466C76.5362 56.7817 76.8046 56.9578 77.1072 57.0753C77.4175 57.1912 77.7565 57.217 78.1243 57.1525C78.4922 57.088 78.8084 56.9594 79.0735 56.7667C79.3448 56.5648 79.5611 56.3238 79.7224 56.0439C79.8822 55.756 79.989 55.4409 80.0424 55.0985C80.0961 54.7563 80.0929 54.4117 80.0329 54.0651ZM101.482 49.9839C101.606 50.701 101.644 51.4089 101.596 52.1073C101.546 52.7982 101.415 53.4624 101.203 54.1005C100.999 54.7373 100.716 55.3389 100.354 55.9059C99.9995 56.4635 99.5741 56.9643 99.0785 57.4084C98.5907 57.8513 98.0393 58.2283 97.4237 58.5393C96.807 58.8424 96.1348 59.0578 95.407 59.1856C94.7028 59.309 94.0141 59.3367 93.3412 59.2679C92.6759 59.1981 92.0376 59.0502 91.4262 58.8246C90.8133 58.5911 90.2403 58.2858 89.7073 57.9085C89.1809 57.5219 88.7089 57.0769 88.2912 56.5738C87.8799 56.0613 87.5285 55.4978 87.2367 54.8833C86.9526 54.2674 86.7499 53.6088 86.6285 52.9075C86.51 52.222 86.4762 51.5377 86.5272 50.8548C86.5771 50.1641 86.7041 49.5005 86.9083 48.8637C87.1204 48.2258 87.4032 47.624 87.7569 47.0585C88.1105 46.4931 88.5267 45.9857 89.0052 45.5363C89.4916 45.0856 90.0347 44.7062 90.6343 44.3978C91.2342 44.0896 91.8861 43.8738 92.5903 43.7501C93.725 43.5509 94.7886 43.547 95.7811 43.738C96.7816 43.9278 97.6678 44.296 98.4396 44.8425C99.2178 45.3798 99.8681 46.0858 100.391 46.9604C100.919 47.8255 101.283 48.8334 101.482 49.9839ZM96.3239 51.206C96.2653 50.8671 96.1577 50.5489 96.0016 50.2515C95.8517 49.945 95.6618 49.686 95.4316 49.4747C95.2002 49.2556 94.9306 49.0959 94.6231 48.9955C94.322 48.886 93.9913 48.8628 93.6314 48.9261C93.2636 48.9906 92.9465 49.1153 92.6802 49.3C92.4138 49.4847 92.1954 49.7138 92.0252 49.9874C91.8613 50.2516 91.7517 50.5509 91.6968 50.8853C91.6405 51.2119 91.6423 51.5485 91.7023 51.8952C91.7594 52.2261 91.8638 52.5488 92.015 52.8633C92.1661 53.1778 92.3589 53.4526 92.5929 53.6875C92.8272 53.9223 93.0954 54.0986 93.398 54.216C93.7083 54.3321 94.0474 54.3579 94.4153 54.2932C94.7829 54.2287 95.0993 54.1001 95.3643 53.9074C95.6357 53.7055 95.8521 53.4647 96.0132 53.1846C96.173 52.8967 96.2797 52.5818 96.3334 52.2394C96.3871 51.897 96.3839 51.5526 96.3239 51.206Z" fill="white"/>
<path id="Vector_6" d="M98.5773 60.7237C99.6867 60.6805 100.37 59.92 101.184 59.402C101.49 59.2069 101.856 59.1053 102.195 58.9609C102.285 59.3604 102.549 59.8218 102.433 60.1482C102.004 61.3563 101.595 62.6135 100.908 63.6779C99.945 65.1691 98.5293 66.2534 96.8343 66.8539C95.994 67.1517 95.0967 67.337 94.2097 67.4396C93.2723 67.5481 92.315 67.5366 91.3696 67.4977C90.9688 67.4813 90.566 67.2866 90.1827 67.1283C89.2962 66.7618 88.4625 66.3101 87.8441 65.3491C87.6355 66.6424 86.9108 67.4869 86.051 68.2353C85.1758 68.997 84.2268 69.5793 83.0662 69.8797C82.2434 70.0923 81.441 70.2938 80.5911 70.3888C78.8163 70.587 77.128 70.354 75.6163 69.418C74.7076 68.8551 73.8999 68.1157 73.0989 67.3974C72.7236 67.0608 72.4436 66.6031 72.179 66.1649C72.0895 66.0171 72.1011 65.662 72.2079 65.5746C72.3844 65.4302 72.6841 65.3504 72.9169 65.3766C73.6494 65.4591 74.3716 65.6688 75.1041 65.7046C75.758 65.7366 76.3634 65.5046 76.9952 65.2281C77.9722 64.8008 78.7254 64.1189 79.5473 63.51C80.1376 63.0728 80.6645 62.5504 81.2515 62.1086C81.9022 61.619 82.6001 61.2279 83.42 61.0397C84.6016 60.7682 85.6632 60.9723 86.6397 61.655C86.8485 61.801 87 62.0293 87.2143 62.2586C87.4435 61.3464 87.8722 60.5904 88.7075 60.1404C89.346 59.7962 89.9883 59.5928 90.7555 59.5566C92.0746 59.4941 93.2477 59.9088 94.4765 60.2311C95.6701 60.544 96.9166 60.657 98.1424 60.8427C98.2627 60.8609 98.3994 60.7725 98.5773 60.7237ZM82.4636 68.9264C83.2797 68.4978 84.1004 68.0778 84.9103 67.6382C85.7322 67.192 86.1161 66.3609 86.5085 65.5965C86.85 64.9312 87.0016 64.1601 86.5317 63.427C85.5693 61.9253 84.0554 61.5956 82.6208 62.652C81.4238 63.5335 80.307 64.5252 79.102 65.3946C78.284 65.9849 77.3813 66.4747 76.3701 66.6705C75.7117 66.7978 75.0404 66.8576 74.3047 66.9574C76.2019 68.8 78.3852 69.6438 81.0449 69.256C81.3778 69.1659 81.7107 69.0758 82.1231 68.97C82.1771 68.972 82.2048 69.0089 82.2821 69.0304L82.35 69.0007C82.35 69.0007 82.3858 68.9741 82.4636 68.9264ZM92.6607 60.898C91.514 60.6281 90.3629 60.3875 89.308 61.1689C88.4291 61.8202 87.9234 63.2266 88.5066 64.2643C89.2982 65.6731 90.6236 66.193 92.0588 66.3924C93.4016 66.5789 94.7793 66.5646 96.063 65.918C97.0563 65.4173 98.0629 64.9736 98.9073 64.1994C99.7937 63.3871 100.191 62.3191 100.767 61.252C100.608 61.2524 100.517 61.2307 100.442 61.2563C99.948 61.4236 99.4604 61.6102 98.9653 61.7738C97.7273 62.1827 96.4802 61.859 95.2596 61.7181C94.4035 61.6194 93.5855 61.1918 92.6607 60.898Z" fill="white"/>
</g>
</svg>
