<svg width="375" height="241" viewBox="0 0 375 241" fill="none" xmlns="http://www.w3.org/2000/svg">
<path d="M500.678 241H500.456C491.352 229.453 482.418 217.643 473.524 205.874C444.159 167.016 415.122 128.577 381.101 101.816C302.686 40.112 197.785 40.544 1.4668 241H1.21827C197.706 40.3346 302.699 39.9156 381.218 101.672C415.253 128.446 444.303 166.885 473.668 205.769C482.588 217.578 491.548 229.427 500.678 241ZM508.408 241H508.173C496.558 227.502 485.178 213.493 473.799 199.498C442.237 160.653 410.779 121.926 374.731 94.733C290.169 30.9736 180.257 30.6855 -15.7334 241.013H-15.9819C180.166 30.4761 290.182 30.7641 374.835 94.6021C410.91 121.808 442.367 160.535 473.943 199.393C485.348 213.415 496.767 227.476 508.408 241ZM517.525 241H517.277C502.967 225.721 488.932 209.566 474.858 193.37C440.916 154.329 406.803 115.065 368.361 87.3621C277.402 21.8221 162.194 21.0627 -32.1357 241H-32.3712C162.102 20.8401 277.416 21.6126 368.465 87.2311C406.921 114.948 441.046 154.211 474.989 193.266C489.102 209.487 503.176 225.682 517.525 241ZM528.015 241H527.767C510.645 224.15 493.772 205.913 476.781 187.557C440.209 148.058 403.088 107.956 361.834 79.6507C264.231 12.6967 143.489 11.7934 -47.714 241H-47.9494C143.398 11.5839 264.244 12.4872 361.925 79.5198C403.193 107.838 440.327 147.94 476.912 187.453C493.942 205.847 510.854 224.111 528.015 241ZM535 236.509V236.745C516.583 219.686 498.232 201.016 479.659 182.098C440.118 141.839 399.53 100.52 354.915 71.4942C250.536 3.5714 124.092 3.02152 -62.4552 241H-62.6775C124 2.81203 250.536 3.375 355.019 71.3502C399.648 100.389 440.248 141.721 479.789 181.98C498.324 200.859 516.623 219.489 535 236.509ZM535 225.198V225.433C518.061 210.246 500.992 193.789 483.648 177.07C440.732 135.712 396.064 92.6906 347.407 62.7878C236.161 -5.55392 103.949 -5.14809 -76.2938 240.987H-76.5162C103.844 -5.34447 236.148 -5.73722 347.498 62.6569C396.182 92.5597 440.85 135.594 483.766 176.953C501.083 193.632 518.114 210.037 535 225.198ZM535 213.86V214.095C519.906 200.951 504.563 186.903 488.906 172.58C442.106 129.729 392.598 84.4032 339.022 53.5054C220.923 -14.6138 83.0337 -12.5321 -89.2168 241H-89.4261C82.929 -12.7416 220.923 -14.8233 339.127 53.3614C392.716 84.2723 442.224 129.598 489.037 172.462C504.641 186.746 519.945 200.754 535 213.86ZM535 202.496V202.731C522.169 191.878 509.062 180.422 495.668 168.731C444.408 123.955 389.053 75.5921 329.513 43.5553C204.638 -23.6344 61.3601 -19.0259 -101.159 241H-101.368C61.2424 -19.2354 204.638 -23.8439 329.605 43.3981C389.158 75.4481 444.526 123.811 495.786 168.6C509.141 180.252 522.208 191.668 535 202.496ZM535 191.105V191.341C524.955 183.08 514.674 174.478 504.183 165.693C447.848 118.522 385.365 66.218 318.552 32.9243C187.164 -32.5633 39.0064 -24.4592 -112.055 241H-112.264C38.8887 -24.6687 187.15 -32.7597 318.631 32.7672C385.456 66.074 447.953 118.391 504.301 165.562C514.752 174.308 524.994 182.87 535 191.105ZM535 179.689V179.911C528.395 174.622 521.685 169.202 514.844 163.703C452.831 113.704 381.559 56.2417 305.851 21.6126C169.257 -40.8507 18.1961 -28.9237 -119 235.41V235.017C18.2223 -29.1331 169.296 -41.0209 305.93 21.4686C381.65 56.0977 452.936 113.573 514.961 163.572C521.763 169.045 528.434 174.439 535 179.689ZM535 168.259V168.482C532.737 166.714 530.461 164.947 528.172 163.153C460.012 109.92 377.752 45.6893 291.136 9.72478C152.358 -47.8813 2.34315 -32.8383 -119 216.321V215.915C2.36932 -33.0478 152.41 -48.0515 291.202 9.56767C377.844 45.5322 460.104 109.776 528.277 163.022C530.54 164.777 532.776 166.518 535 168.259ZM535 156.804V157.026C462.079 101.515 369.891 32.8981 274.132 -2.67362C134.477 -54.5453 -12.7904 -36.0982 -119 195.845V195.413C-12.7381 -36.3077 134.53 -54.7155 274.198 -2.83073C369.93 32.7279 462.079 101.305 535 156.804ZM535 145.335V145.557C458.09 88.4095 357.361 18.1169 254.643 -15.4124C115.721 -60.7641 -26.8252 -38.8476 -119 173.732V173.287C-26.7729 -39.0571 115.773 -60.9343 254.709 -15.5826C357.4 17.9467 458.09 88.1869 535 145.335ZM535 133.84V134.062C445.964 69.4387 322.031 -10.961 201.787 -35.7971C76.1667 -61.746 -45.425 -27.0122 -119 149.668V149.21C-45.3596 -27.2348 76.219 -61.9162 201.813 -35.9673C322.058 -11.1312 445.964 69.2292 535 133.84ZM535 122.332V122.554C444.264 58.1663 314.353 -20.8195 190.59 -44.7261C65.5326 -68.8813 -53.2468 -36.766 -119 123.549V123.078C-53.1814 -36.9885 65.5849 -69.0516 190.63 -44.8963C314.38 -21.0028 444.251 57.9568 535 122.332ZM535 110.81V111.02C442.799 47.0378 307.343 -30.3245 180.323 -53.4979C130.802 -62.5316 82.5628 -63.3302 38.6794 -51.8876C-5.204 -40.4449 -44.7318 -16.7609 -76.8432 23.1706C-92.8662 43.097 -107.045 67.069 -119 95.584V95.1258C-107.071 66.7679 -92.9446 42.9137 -76.987 23.0658C-44.8495 -16.8918 -5.28249 -40.5889 38.6271 -52.0447C82.5366 -63.5004 130.802 -62.7018 180.349 -53.655C307.356 -30.4948 442.786 46.8283 535 110.81ZM535 99.2761V99.4855C436.678 32.6886 286.101 -47.4624 150.579 -65.2417C104.092 -71.3427 59.3719 -70.0989 19.1379 -58.4599C-21.0831 -46.8208 -56.8308 -24.7865 -85.3713 10.6936C-98.0851 26.5222 -109.373 45.0085 -119 66.4537V66.0085C-109.412 44.7205 -98.1636 26.3258 -85.5021 10.5889C-56.9485 -24.9174 -21.1747 -46.9779 19.0855 -58.617C59.3458 -70.2691 104.079 -71.5129 150.592 -65.4119C286.114 -47.6326 436.651 32.4792 535 99.2761ZM535 87.7287V87.9381C463.544 40.3869 362.998 -13.2915 260.725 -46.2186C184.312 -70.819 106.931 -83.8458 40.0397 -74.0659C-26.8514 -64.286 -83.2654 -31.7123 -117.797 34.862C-118.202 35.6475 -118.608 36.433 -119 37.2317V36.8389C-118.647 36.1581 -118.307 35.4773 -117.954 34.7965C-83.3962 -31.8302 -26.9299 -64.43 40.0135 -74.2099C106.944 -83.9899 184.338 -70.963 260.791 -46.3626C363.024 -13.4617 463.544 40.1906 535 87.7287ZM535 76.1682V76.3776C458.626 26.5746 347.367 -29.2379 236.397 -60.6987C160.834 -82.1046 85.4012 -92.238 21.2176 -81.4761C-37.9825 -71.5522 -87.6211 -43.8751 -119 9.08326V8.72977C-87.5818 -44.1107 -37.9694 -71.7486 21.1783 -81.6594C85.4011 -92.4213 160.847 -82.301 236.436 -60.8689C347.394 -29.4212 458.613 26.3782 535 76.1682ZM535 64.5946V64.804C453.551 12.7229 330.677 -45.1188 210.904 -74.6289C136.583 -92.945 63.4529 -100.355 2.16003 -88.7293C-48.1587 -79.1719 -90.5118 -56.7841 -119 -17.049V-17.3501C-90.4856 -56.9935 -48.1587 -79.3552 2.13387 -88.8995C63.4529 -100.539 136.609 -93.1283 210.943 -74.7991C330.69 -45.289 453.538 12.5265 535 64.5946ZM535 53.021V53.2305C448.423 -1.08945 313.163 -60.751 184.704 -87.9044C111.94 -103.275 41.3739 -108.211 -16.9237 -95.8384C-58.348 -87.0535 -93.5856 -69.5098 -119 -40.746V-41.021C-93.5725 -69.7193 -58.348 -87.2367 -16.9498 -96.0217C41.3739 -108.394 111.967 -103.458 184.744 -88.0746C313.176 -60.9343 448.397 -1.28585 535 53.021ZM19.164 241C214.775 50.3633 315.034 49.0933 387.706 108.572C419.961 134.966 446.775 173.313 474.073 212.367C480.757 221.925 487.467 231.521 494.295 241H494.073C487.271 231.561 480.587 221.99 473.916 212.472C446.618 173.431 419.804 135.083 387.575 108.703C314.981 49.2897 214.828 50.5727 19.4126 241H19.164Z" fill="white" fill-opacity="0.2"/>
</svg>
