<svg width="269" height="251" viewBox="0 0 269 251" fill="none" xmlns="http://www.w3.org/2000/svg">
<g clip-path="url(#clip0_485_15135)">
<path d="M168.626 42.9912C172.19 23.4735 158.741 4.85291 138.587 1.40089C118.432 -2.05114 99.2035 10.9726 95.6388 30.4903C92.0741 50.0079 105.523 68.6285 125.678 72.0805C145.832 75.5325 165.061 62.5088 168.626 42.9912Z" fill="#CBDEEE"/>
<path d="M74.2037 70.6286C84.9631 60.2093 84.9631 43.3161 74.2037 32.8968C63.4442 22.4774 45.9996 22.4774 35.2402 32.8968C24.4807 43.3161 24.4807 60.2092 35.2402 70.6286C45.9996 81.048 63.4442 81.048 74.2037 70.6286Z" fill="#CBDEEE"/>
<path d="M262.15 93.52C265.645 79.1789 256.474 64.8091 241.664 61.4243C226.855 58.0395 212.016 66.9214 208.521 81.2625C205.026 95.6037 214.197 109.973 229.007 113.358C243.816 116.743 258.655 107.861 262.15 93.52Z" fill="#CBDEEE"/>
<path d="M225.884 208.856C226.142 211.076 227.07 212.828 229.29 213.155C230.165 213.23 231.042 213.027 231.788 212.578C233.569 211.631 234.983 210.149 235.816 208.356C236.353 207.207 236.631 205.949 237.181 204.807C237.939 203.238 239.173 201.93 240.72 201.06C241.965 200.354 243.436 199.924 244.397 198.878C245.484 197.704 245.722 196.003 245.656 194.425C245.59 192.846 245.398 191.217 245.822 189.715C246.484 187.296 248.611 185.564 250.493 183.844C252.375 182.124 254.237 179.949 254.078 177.427C253.892 174.533 250.851 172.365 247.856 172.262C244.861 172.159 242.038 173.641 239.739 175.502C235.141 179.224 232.086 184.453 229.866 189.843C228.713 192.574 227.826 195.404 227.216 198.294C226.805 200.38 225.46 205.243 225.884 208.856Z" fill="#2E344B"/>
<path d="M252.905 174.675C251.408 175.008 249.924 175.387 248.466 175.855C246.889 176.355 245.354 176.971 243.874 177.697C243.092 178.083 242.334 178.512 241.601 178.98L241.124 179.301C241.581 178.736 242.052 178.178 242.535 177.633C243.697 176.333 244.948 175.111 246.279 173.975C246.942 173.404 247.651 172.859 248.36 172.32C248.188 172.297 248.016 172.284 247.843 172.281C247.585 172.268 247.326 172.268 247.068 172.281L246.286 172.923C245.15 173.857 244.068 174.851 243.046 175.9C243.046 175.753 243.046 175.611 243.079 175.477C243.132 174.835 243.172 174.225 243.185 173.597C243.185 173.507 243.185 173.423 243.185 173.333C242.986 173.423 242.794 173.52 242.595 173.622C242.595 174.206 242.595 174.79 242.516 175.368C242.516 175.74 242.423 176.157 242.416 176.555C240.33 178.801 238.452 181.221 236.804 183.786C236.466 184.306 236.141 184.839 235.823 185.371C235.823 185.243 235.823 185.114 235.856 184.992C235.956 183.962 235.969 182.926 235.896 181.893C235.847 181.158 235.756 180.425 235.624 179.699C235.439 179.93 235.26 180.161 235.081 180.398C235.19 180.93 235.265 181.468 235.306 182.009C235.379 182.942 235.379 183.879 235.306 184.813C235.26 185.454 235.127 186.064 235.048 186.686C234.001 188.509 233.038 190.372 232.159 192.275C231.437 193.835 230.761 195.413 230.171 197.017C230.171 196.793 230.171 196.581 230.171 196.376C230.164 195.315 230.085 194.256 229.933 193.206C229.82 192.423 229.674 191.634 229.482 190.864C229.33 191.255 229.184 191.647 229.038 192.038C229.137 192.5 229.224 192.962 229.296 193.43C229.436 194.38 229.522 195.355 229.568 196.292C229.568 196.767 229.608 197.242 229.608 197.723C229.608 198.005 229.608 198.281 229.608 198.564C229.263 199.539 228.945 200.534 228.667 201.528C228.157 203.316 227.779 205.136 227.534 206.976C227.315 208.696 227.057 210.659 227.461 212.366V212.398L227.554 212.475C227.579 212.486 227.606 212.492 227.634 212.492C227.661 212.491 227.688 212.485 227.713 212.473C227.738 212.462 227.759 212.445 227.777 212.424C227.794 212.403 227.806 212.379 227.812 212.353C227.938 211.583 227.925 210.813 227.971 210.043C228.018 209.273 228.104 208.42 228.203 207.611L228.322 206.79C228.985 206.219 229.509 205.507 230.145 204.942C230.879 204.281 231.671 203.683 232.51 203.152C234.232 202.044 236.029 201.051 237.891 200.181C239.864 199.251 241.898 198.448 243.98 197.774L245.259 197.383C245.35 197.123 245.42 196.857 245.471 196.587C244.808 196.773 244.192 196.966 243.556 197.178C241.457 197.876 239.408 198.705 237.42 199.661C235.471 200.562 233.603 201.618 231.834 202.818C231.027 203.376 230.267 203.996 229.562 204.672C229.15 205.062 228.781 205.492 228.462 205.956C228.647 204.929 228.866 203.909 229.124 202.901C229.965 199.793 231.073 196.758 232.437 193.828C233.047 193.411 233.643 192.968 234.259 192.545C235.113 191.978 235.998 191.455 236.91 190.979C238.709 190.04 240.589 189.254 242.529 188.631C243.982 188.16 245.453 187.754 246.942 187.412C247.168 187.098 247.411 186.796 247.671 186.507C245.791 186.908 243.937 187.413 242.118 188.021C240.197 188.672 238.339 189.486 236.565 190.453C235.208 191.158 233.945 192.02 232.802 193.02C234.809 188.568 237.299 184.335 240.23 180.392C240.827 180.091 241.4 179.748 241.946 179.365C242.627 178.941 243.33 178.551 244.053 178.197C245.579 177.453 247.165 176.833 248.797 176.343C250.268 175.894 251.759 175.515 253.256 175.181C253.148 175.007 253.031 174.838 252.905 174.675Z" fill="#4F6E59"/>
<path d="M215.15 231.429C214.182 234.336 214.315 237.018 216.892 238.648C217.941 239.218 219.153 239.443 220.345 239.29C223.112 239.082 225.734 238.01 227.819 236.236C229.144 235.087 230.237 233.669 231.596 232.552C233.453 231.012 235.75 230.056 238.182 229.812C240.17 229.62 242.231 229.883 244.04 229.107C246.074 228.234 247.353 226.226 248.201 224.243C249.049 222.26 249.738 220.136 251.143 218.468C253.389 215.811 257.047 214.817 260.419 213.7C263.792 212.584 267.35 210.896 268.609 207.688C270.067 203.979 267.536 199.622 263.871 197.851C260.207 196.08 255.814 196.395 251.865 197.453C243.96 199.577 237.115 204.428 231.205 209.934C228.177 212.707 225.424 215.749 222.982 219.02C221.232 221.375 216.727 226.7 215.15 231.429Z" fill="#4F6E59"/>
<path d="M268.735 203.594C266.674 203.189 264.607 202.849 262.513 202.638C260.258 202.397 257.987 202.326 255.721 202.426C254.522 202.477 253.327 202.599 252.143 202.792L251.361 202.926C252.256 202.477 253.17 202.041 254.091 201.643C256.295 200.66 258.564 199.82 260.883 199.128C262.056 198.781 263.242 198.486 264.435 198.204C264.235 198.085 264.029 197.975 263.818 197.876C263.5 197.716 263.156 197.588 262.838 197.459C262.394 197.568 261.95 197.684 261.513 197.806C259.553 198.343 257.627 198.986 255.741 199.731L256.026 199.217C256.463 198.467 256.868 197.71 257.259 196.933L257.418 196.612L256.51 196.651C256.159 197.369 255.788 198.082 255.403 198.781C255.151 199.23 254.82 199.712 254.582 200.206C250.674 201.867 246.922 203.856 243.37 206.147C242.648 206.616 241.939 207.097 241.23 207.585C241.316 207.431 241.409 207.283 241.495 207.136C242.219 205.903 242.837 204.616 243.344 203.286C243.71 202.34 244.024 201.376 244.285 200.398C243.927 200.584 243.562 200.777 243.205 200.976C243.021 201.696 242.8 202.407 242.542 203.106C242.086 204.307 241.539 205.474 240.905 206.597C240.481 207.347 239.951 208.053 239.487 208.791C237.12 210.502 234.834 212.299 232.629 214.181C230.827 215.728 229.065 217.325 227.368 218.994L227.726 218.191C228.337 216.869 228.852 215.508 229.27 214.117C229.588 213.077 229.866 212.012 230.078 210.947C229.661 211.351 229.243 211.756 228.833 212.173C228.687 212.814 228.528 213.424 228.342 214.046C227.966 215.304 227.524 216.542 227.017 217.755C226.772 218.365 226.513 218.968 226.235 219.565C226.059 219.907 225.902 220.258 225.765 220.617C224.764 221.65 223.777 222.709 222.862 223.825C221.189 225.774 219.659 227.835 218.284 229.992C216.998 232.019 215.534 234.323 215.05 236.671V236.723C215.05 236.774 215.097 236.825 215.123 236.87C215.147 236.899 215.177 236.921 215.21 236.937C215.244 236.952 215.281 236.96 215.319 236.96C215.356 236.96 215.393 236.952 215.427 236.937C215.461 236.921 215.491 236.899 215.514 236.87C216.081 235.968 216.596 235.036 217.058 234.079C217.595 233.091 218.171 232.154 218.768 231.172C218.973 230.852 219.185 230.531 219.43 230.216C220.57 229.857 221.643 229.292 222.743 228.933C224.039 228.511 225.369 228.195 226.719 227.99C229.531 227.52 232.374 227.239 235.227 227.149C238.226 227.068 241.228 227.179 244.212 227.483C244.821 227.541 245.431 227.618 246.041 227.695C246.303 227.418 246.547 227.124 246.769 226.815C245.862 226.694 244.954 226.591 244.04 226.507C241.016 226.227 237.977 226.139 234.942 226.244C231.979 226.31 229.027 226.612 226.116 227.149C224.785 227.402 223.477 227.761 222.206 228.221C221.465 228.479 220.755 228.812 220.086 229.215C220.914 228.035 221.782 226.886 222.737 225.776C225.599 222.364 228.753 219.191 232.166 216.292C233.173 216.106 234.153 215.875 235.18 215.695C236.572 215.452 237.977 215.304 239.388 215.195C242.176 215.004 244.977 215.052 247.757 215.336C249.844 215.541 251.911 215.849 253.965 216.222C254.429 215.958 254.913 215.721 255.403 215.496C252.827 214.968 250.22 214.587 247.598 214.354C244.825 214.114 242.035 214.114 239.262 214.354C237.156 214.499 235.076 214.889 233.067 215.516C238.164 211.065 243.735 207.15 249.685 203.837C250.604 203.785 251.518 203.671 252.422 203.497C253.52 203.34 254.626 203.237 255.735 203.189C258.069 203.096 260.407 203.193 262.725 203.478C264.819 203.716 266.893 204.056 268.96 204.46C268.901 204.167 268.826 203.878 268.735 203.594Z" fill="#2E344B"/>
<path d="M41.0819 210.53C41.0819 212.763 40.3199 214.592 38.1466 215.144C37.2813 215.302 36.3863 215.185 35.5955 214.81C33.7284 214.043 32.1685 212.71 31.1494 211.012C30.4868 209.914 30.0826 208.695 29.4134 207.611C28.4933 206.127 27.1302 204.948 25.504 204.229C24.1787 203.652 22.6812 203.369 21.6144 202.426C20.4151 201.361 20.0308 199.693 19.8983 198.12C19.7657 196.548 19.8188 194.912 19.2357 193.449C18.3213 191.107 16.022 189.599 13.9679 188.066C11.9138 186.532 9.83984 184.562 9.73382 182.06C9.61455 179.159 12.3843 176.708 15.3793 176.285C18.3743 175.861 21.3428 177.087 23.7944 178.71C28.764 181.963 32.3487 186.859 35.1251 192.005C36.5711 194.623 37.7602 197.367 38.6766 200.199C39.3061 202.189 41.1482 206.898 41.0819 210.53Z" fill="#2E344B"/>
<path d="M10.6416 179.185C12.1656 179.371 13.683 179.596 15.1871 179.923C16.8073 180.263 18.3979 180.725 19.9447 181.302C20.7623 181.611 21.561 181.964 22.3367 182.361L22.8469 182.631C22.3301 182.117 21.8066 181.61 21.2633 181.116C19.9754 179.935 18.6049 178.842 17.1617 177.844C16.4328 177.337 15.6774 176.869 14.9221 176.4C15.0903 176.361 15.2606 176.331 15.4323 176.31C15.689 176.273 15.948 176.252 16.2075 176.246C16.4925 176.419 16.7708 176.599 17.0491 176.779C18.2623 177.595 19.428 178.475 20.541 179.416L20.4615 178.999C20.3422 178.357 20.2428 177.76 20.1633 177.138C20.1633 177.048 20.1633 176.965 20.1302 176.875L20.7464 177.106C20.8193 177.683 20.9054 178.261 21.0048 178.832C21.0711 179.204 21.1837 179.608 21.2301 180.006C23.5416 182.037 25.6656 184.259 27.5779 186.647C27.9689 187.135 28.3399 187.629 28.7176 188.123L28.6381 187.751C28.4329 186.738 28.3132 185.71 28.2803 184.678C28.2803 183.959 28.2803 183.215 28.2803 182.464C28.4923 182.676 28.6977 182.887 28.8965 183.105C28.8457 183.645 28.828 184.187 28.8435 184.729C28.8707 185.665 28.9681 186.598 29.1351 187.52C29.2543 188.162 29.4465 188.746 29.5923 189.362C30.8247 191.069 31.9777 192.833 33.0511 194.636C33.9324 196.118 34.7739 197.62 35.5491 199.128C35.5491 198.91 35.5094 198.692 35.4895 198.486C35.3891 197.433 35.3581 196.374 35.3967 195.316C35.3967 194.521 35.4895 193.725 35.6021 192.936C35.7943 193.308 35.9798 193.687 36.1654 194.065C36.119 194.534 36.0792 195.002 36.0593 195.477C36.0097 196.432 36.0097 197.39 36.0593 198.345C36.0593 198.82 36.119 199.301 36.172 199.776C36.172 200.052 36.2383 200.334 36.2449 200.61C36.6888 201.553 37.1063 202.503 37.4906 203.472C38.1844 205.198 38.7513 206.969 39.1869 208.772C39.5911 210.466 40.0549 212.391 39.8495 214.13C39.8524 214.143 39.8524 214.156 39.8495 214.168C39.8225 214.198 39.7937 214.226 39.7633 214.252C39.7398 214.265 39.7137 214.272 39.6869 214.274C39.66 214.276 39.633 214.272 39.6078 214.263C39.5826 214.254 39.5597 214.24 39.5408 214.221C39.5219 214.203 39.5074 214.18 39.4983 214.156C39.3239 213.401 39.189 212.639 39.0941 211.871C38.9682 211.063 38.7959 210.267 38.6104 209.478C38.5441 209.202 38.4712 208.939 38.405 208.669C37.7026 208.162 37.0798 207.534 36.4172 207.014C35.6163 206.43 34.7676 205.911 33.8794 205.461C32.0488 204.531 30.1561 203.721 28.214 203.036C26.1543 202.305 24.0471 201.707 21.906 201.245C21.4687 201.149 21.0247 201.066 20.5808 200.982C20.463 200.731 20.3655 200.472 20.2892 200.206C20.9518 200.328 21.6144 200.463 22.277 200.61C24.4396 201.094 26.5668 201.715 28.6447 202.471C30.6792 203.178 32.6495 204.047 34.5353 205.07C35.3982 205.541 36.2183 206.082 36.987 206.687C37.4401 207.048 37.8531 207.455 38.2195 207.899C37.9279 206.898 37.6032 205.904 37.2322 204.928C36.0635 201.919 34.6384 199.008 32.9716 196.228C32.309 195.875 31.6795 195.49 31.0169 195.143C30.1111 194.668 29.1799 194.239 28.2273 193.86C26.3384 193.103 24.3852 192.506 22.3897 192.076C20.8988 191.749 19.3881 191.498 17.8707 191.293C17.6123 191.011 17.3406 190.735 17.0491 190.465C18.9618 190.682 20.86 191.006 22.7343 191.434C24.7075 191.88 26.6347 192.499 28.4923 193.282C29.92 193.852 31.2689 194.591 32.5078 195.483C30.0528 191.249 27.1385 187.28 23.8143 183.644C23.1893 183.404 22.5826 183.121 21.9988 182.797C21.2765 182.438 20.5344 182.124 19.779 181.835C18.1812 181.249 16.5369 180.79 14.8624 180.462C13.3583 180.16 11.8343 179.929 10.3103 179.743C10.4103 179.551 10.5209 179.365 10.6416 179.185Z" fill="#4F6E59"/>
<path d="M53.181 228.799C54.3737 231.449 54.5062 233.983 52.2401 235.741C51.3036 236.379 50.177 236.701 49.0331 236.659C46.4233 236.704 43.8679 235.934 41.7443 234.464C40.3727 233.508 39.2198 232.283 37.8349 231.346C35.9419 230.065 33.6905 229.373 31.3811 229.363C29.5059 229.363 27.5777 229.8 25.8019 229.235C23.8141 228.593 22.4359 226.822 21.4221 225.038C20.4083 223.255 19.58 221.317 18.109 219.905C15.7435 217.608 12.2052 217.011 8.94512 216.26C5.68507 215.51 2.13348 214.22 0.662483 211.32C-1.06693 207.957 0.887771 203.62 4.16769 201.637C7.44761 199.654 11.6022 199.539 15.4321 200.18C23.0653 201.464 30.0095 205.397 36.0591 210.036C39.1769 212.367 42.0609 214.978 44.6731 217.833C46.482 219.892 51.2395 224.493 53.181 228.799Z" fill="#4F6E59"/>
<path d="M0.099445 207.482C2.00114 206.918 3.91608 206.404 5.85753 206.019C7.95557 205.591 10.0843 205.319 12.2252 205.205C13.3595 205.14 14.4967 205.14 15.631 205.205L16.3798 205.262C15.4853 204.916 14.5907 204.589 13.683 204.287C11.5174 203.56 9.30368 202.974 7.05686 202.535C5.91716 202.311 4.77085 202.144 3.62453 201.99C3.80344 201.862 3.98897 201.74 4.1745 201.624C4.45942 201.451 4.7576 201.297 5.05577 201.149C5.47984 201.207 5.91054 201.278 6.33461 201.348C8.22895 201.673 10.1027 202.101 11.9469 202.632L11.6289 202.176C11.1518 201.534 10.6946 200.828 10.2506 200.142L10.0717 199.847L10.9265 199.802C11.3241 200.448 11.7415 201.089 12.1788 201.727C12.4571 202.125 12.8414 202.548 13.0866 203.01C16.9212 204.219 20.6394 205.749 24.1986 207.585C24.9275 207.957 25.6431 208.349 26.3521 208.74L26.0605 208.336C25.2597 207.249 24.5549 206.098 23.9534 204.897C23.5148 204.042 23.1233 203.166 22.7806 202.272C23.145 202.413 23.5028 202.561 23.8607 202.715C24.0986 203.37 24.3729 204.013 24.6823 204.64C25.2092 205.732 25.8182 206.785 26.5045 207.79C26.9749 208.432 27.5448 209.074 28.0484 209.715C30.4338 211.101 32.7573 212.584 35.019 214.162C36.8611 215.446 38.6766 216.799 40.4325 218.205L40.0416 217.525C39.3416 216.337 38.7262 215.104 38.1996 213.835C37.7818 212.875 37.4169 211.894 37.1062 210.896C37.5369 211.236 37.9676 211.583 38.3917 211.936C38.5905 212.513 38.8025 213.084 39.0543 213.649C39.5279 214.798 40.0632 215.922 40.6578 217.018C40.9494 217.569 41.2542 218.115 41.5722 218.647C41.7578 218.962 41.9566 219.289 42.1156 219.597C43.1537 220.478 44.1653 221.389 45.1503 222.331C46.9129 224.009 48.5514 225.806 50.0537 227.708C51.4584 229.498 53.0553 231.558 53.7378 233.694C53.7378 233.694 53.7378 233.727 53.7378 233.746L53.6848 233.893C53.6617 233.919 53.6333 233.94 53.6012 233.954C53.5692 233.968 53.5344 233.976 53.4992 233.976C53.464 233.976 53.4292 233.968 53.3972 233.954C53.3652 233.94 53.3367 233.919 53.3137 233.893C52.6941 233.096 52.119 232.267 51.5909 231.41C50.9946 230.525 50.3585 229.671 49.7025 228.844C49.4772 228.555 49.2453 228.279 49.0399 227.997C47.9333 227.759 46.8731 227.355 45.7666 227.073C44.5027 226.795 43.2173 226.619 41.9234 226.546C39.2571 226.39 36.583 226.407 33.9191 226.598C31.0915 226.792 28.2803 227.167 25.5039 227.721C24.9341 227.836 24.3709 227.958 23.8076 228.086C23.5313 227.852 23.2722 227.599 23.0324 227.329C23.8805 227.13 24.7221 226.951 25.5702 226.79C28.3857 226.254 31.2344 225.896 34.098 225.719C36.8817 225.507 39.6787 225.52 42.4601 225.757C43.7355 225.868 44.9989 226.082 46.237 226.399C46.9569 226.574 47.6546 226.826 48.3176 227.15C47.4341 226.119 46.5043 225.12 45.528 224.153C42.5136 221.213 39.2535 218.52 35.781 216.1C34.8136 216.023 33.8528 215.895 32.8854 215.818C31.5602 215.715 30.235 215.702 28.9098 215.728C26.2682 215.8 23.6384 216.099 21.0512 216.62C19.1164 217.005 17.2014 217.48 15.2997 218.019C14.835 217.811 14.3595 217.627 13.8751 217.467C16.2466 216.735 18.6605 216.14 21.1042 215.683C23.672 215.218 26.2775 214.975 28.8899 214.958C30.8927 214.899 32.8955 215.078 34.8534 215.49C29.6232 211.751 23.9969 208.561 18.0694 205.975C17.2008 206.009 16.3307 205.985 15.4654 205.904C14.4191 205.853 13.3709 205.853 12.3246 205.904C10.1209 206.035 7.93156 206.337 5.77802 206.809C3.83657 207.226 1.915 207.733 0.0133057 208.304C0.0257726 208.029 0.054533 207.754 0.099445 207.482Z" fill="#2E344B"/>
<path d="M101.181 5.07557L104.03 5.96107L101.214 6.84656C100.636 7.01495 100.108 7.31572 99.6757 7.7234C99.2432 8.13108 98.9184 8.63368 98.729 9.18864L97.8146 11.9221L96.9002 9.18864C96.7166 8.64007 96.4009 8.14163 95.9792 7.73442C95.5576 7.32721 95.042 7.02289 94.475 6.84656L91.6589 5.96107L94.475 5.07557C95.043 4.89908 95.5593 4.59395 95.9811 4.1855C96.4028 3.77706 96.7179 3.27708 96.9002 2.72708L97.8411 0L98.729 2.72708C98.9138 3.27991 99.2329 3.78173 99.6596 4.19038C100.086 4.59904 100.608 4.9026 101.181 5.07557Z" fill="white"/>
<path d="M184.292 72.2134L187.108 73.0989L184.292 73.9844C183.725 74.1607 183.209 74.465 182.788 74.8723C182.366 75.2795 182.05 75.7779 181.867 76.3265L180.952 79.06L180.038 76.3586C179.854 75.8109 179.54 75.3132 179.119 74.9061C178.699 74.499 178.185 74.1941 177.619 74.0165L174.797 73.131L177.619 72.2455C178.186 72.0677 178.701 71.762 179.121 71.3537C179.542 70.9453 179.856 70.4461 180.038 69.897L180.952 67.1699L181.867 69.897C182.053 70.4411 182.371 70.9346 182.792 71.3372C183.214 71.7398 183.728 72.0401 184.292 72.2134Z" fill="white"/>
<path d="M93.5077 17.8896L95.1443 18.4029L93.5077 18.9162C93.1783 19.0196 92.879 19.1975 92.6347 19.4352C92.3905 19.6729 92.2082 19.9635 92.1029 20.283L91.5728 21.8679L91.0361 20.283C90.9309 19.9635 90.7486 19.6729 90.5043 19.4352C90.26 19.1975 89.9608 19.0196 89.6314 18.9162L87.9948 18.4029L89.6314 17.8896C89.9611 17.7887 90.2609 17.6124 90.5054 17.3756C90.7499 17.1389 90.932 16.8485 91.0361 16.5292L91.5728 14.9443L92.1029 16.5292C92.2071 16.8485 92.3891 17.1389 92.6336 17.3756C92.8781 17.6124 93.1779 17.7887 93.5077 17.8896Z" fill="white"/>
<path d="M239.01 128.558L240.647 129.071L239.01 129.584C238.681 129.689 238.381 129.867 238.136 130.104C237.891 130.342 237.707 130.632 237.599 130.951L237.069 132.536L236.539 130.951C236.434 130.631 236.251 130.341 236.007 130.103C235.763 129.866 235.463 129.688 235.134 129.584L233.497 129.071L235.134 128.558C235.464 128.457 235.764 128.28 236.008 128.044C236.253 127.807 236.435 127.517 236.539 127.197L237.069 125.612L237.599 127.197C237.706 127.516 237.889 127.806 238.135 128.043C238.38 128.279 238.68 128.456 239.01 128.558Z" fill="white"/>
<path d="M17.6784 158.492L19.3151 159.005L17.6784 159.518C17.3505 159.623 17.0525 159.8 16.8085 160.036C16.5645 160.273 16.3813 160.561 16.2737 160.879L15.7436 162.464L15.2135 160.879C15.1049 160.561 14.9205 160.272 14.6753 160.036C14.4302 159.799 14.1311 159.622 13.8022 159.518L12.1655 159.005L13.8022 158.492C14.1367 158.391 14.4416 158.214 14.6916 157.977C14.9416 157.739 15.1296 157.447 15.24 157.125L15.7701 155.54L16.3002 157.125C16.4042 157.441 16.583 157.729 16.8223 157.966C17.0615 158.204 17.3547 158.383 17.6784 158.492Z" fill="white"/>
<path d="M175.42 84.013C176.347 86.5412 161.737 91.7515 160.047 88.9218C158.357 86.092 165.427 82.0752 165.427 82.0752L175.42 84.013Z" fill="#2E344B"/>
<path d="M162.041 91.1547C161.719 89.0252 161.179 86.9318 160.431 84.9049L172.882 82.0752C173.247 83.9433 173.468 85.8349 173.544 87.7347C173.697 90.943 169.569 92.7204 169.569 92.7204L162.041 91.1547Z" fill="#D8877B"/>
<path d="M161.876 90.1409C165.542 88.0639 169.365 86.2578 173.312 84.7381C173.114 83.1211 172.882 82.0752 172.882 82.0752L160.431 84.9049C161.058 86.6097 161.541 88.3607 161.876 90.1409Z" fill="#B44E50"/>
<path d="M100.233 46.3415C97.4038 44.3844 87.7761 57.9557 90.1151 60.9586L95.9262 58.392L101.154 50.9487L100.233 46.3415Z" fill="#2E344B"/>
<path d="M103.062 50.1914C100.942 48.4846 99.0324 46.5468 97.3707 44.4164C94.76 40.9963 116.129 29.0806 116.129 29.0806L117.825 18.3584C117.825 18.3584 96.6219 26.8476 89.9958 32.6547C83.3697 38.4618 79.6922 40.252 81.2295 46.951C82.7667 53.65 96.2972 62.7359 96.2972 62.7359L103.062 50.1914Z" fill="#D8877B"/>
<path d="M99.6965 47.085C98.5568 48.734 93.4944 54.8234 89.9031 57.8072C92.0566 59.6359 94.0643 61.1246 95.204 61.9652H95.416L98.5038 58.6606L103.089 50.1842C101.886 49.2276 100.753 48.1921 99.6965 47.085Z" fill="#B44E50"/>
<path d="M130.985 9.34922C114.42 9.87539 110.186 26.6742 111.67 35.1441C113.154 43.6141 108.264 44.9488 110.345 49.5174C112.425 54.0861 118.495 60.6952 133.397 59.3606C148.299 58.0259 153.938 52.4883 155.462 48.818C156.986 45.1477 151.897 36.1965 151.393 29.9852C150.89 23.7738 149.498 8.77172 130.985 9.34922Z" fill="#2E344B"/>
<path d="M119.27 54.5028C114.002 53.2195 103.328 48.2722 100.253 46.3408C100.253 46.3408 97.2514 54.8236 90.1018 60.9323C90.1018 60.9323 106.912 75.9665 108.609 78.0519C109.424 79.0657 107.86 81.7607 107.787 91.7514C107.707 102.384 113.426 110.713 106.554 127.492C106.554 127.492 137.26 138.4 159.245 129.475C159.245 129.475 154.653 116.68 156.595 104.161C158.748 90.1665 157.31 84.199 155.932 79.6945L160.087 88.9217C164.915 86.5186 170.102 84.8623 175.459 84.013C175.459 84.013 166.7 64.0572 161.929 59.5912C157.158 55.1252 150.91 55.3049 145.529 54.4258L129.905 56.0171L119.27 54.5028Z" fill="white"/>
<path d="M125.757 48.3235C125.757 48.3235 125.406 50.8901 124.915 52.7253C124.425 54.5604 119.27 54.5027 119.27 54.5027C119.27 54.5027 122.338 63.6272 132.476 63.1523C135.292 63.0949 138.029 62.2371 140.347 60.6856C142.664 59.134 144.459 56.9572 145.509 54.4257C145.509 54.4257 142.011 53.784 140.613 53.0397C139.214 52.2954 138.863 47.7588 138.863 47.7588L125.757 48.3235Z" fill="#D8877B"/>
<path d="M50.5705 110.476H124.12C125.061 110.476 125.983 110.736 126.776 111.226C127.57 111.716 128.202 112.415 128.6 113.241L134.046 124.592C134.443 125.419 135.075 126.118 135.869 126.608C136.663 127.098 137.584 127.358 138.525 127.358H223.962C225.273 127.358 226.531 127.862 227.458 128.76C228.385 129.658 228.905 130.875 228.905 132.145V232.366C228.905 234.841 227.89 237.214 226.084 238.963C224.277 240.713 221.826 241.696 219.271 241.696H50.5705C49.922 241.697 49.2797 241.574 48.6804 241.334C48.081 241.094 47.5365 240.742 47.0779 240.298C46.6194 239.854 46.2558 239.326 46.008 238.746C45.7603 238.166 45.6332 237.544 45.634 236.916V115.262C45.6332 114.634 45.7602 114.012 46.0079 113.431C46.2556 112.85 46.6191 112.323 47.0775 111.878C47.536 111.433 48.0805 111.081 48.6799 110.84C49.2792 110.599 49.9217 110.476 50.5705 110.476Z" fill="#D3723F"/>
<path d="M31.103 138.234H198.896C200.613 138.235 202.279 138.801 203.619 139.84C204.959 140.879 205.895 142.329 206.271 143.952L227.275 234.491C227.476 235.356 227.474 236.254 227.267 237.118C227.061 237.982 226.656 238.79 226.083 239.482C225.511 240.175 224.784 240.733 223.958 241.116C223.132 241.499 222.228 241.698 221.312 241.696H51.6837C49.9624 241.696 48.2925 241.129 46.9485 240.087C45.6046 239.046 44.6666 237.593 44.289 235.966L23.748 147.154C23.5012 146.085 23.5052 144.976 23.7596 143.909C24.0141 142.841 24.5126 141.843 25.2184 140.987C25.9241 140.131 26.8192 139.44 27.8377 138.963C28.8561 138.487 29.972 138.238 31.103 138.234Z" fill="#EBAB6F"/>
<path d="M134.921 217.807C153.731 217.807 168.979 203.041 168.979 184.825C168.979 166.61 153.731 151.844 134.921 151.844C116.111 151.844 100.863 166.61 100.863 184.825C100.863 203.041 116.111 217.807 134.921 217.807Z" fill="#2E344B"/>
<path d="M134.921 209.523C149.006 209.523 160.425 198.466 160.425 184.826C160.425 171.185 149.006 160.128 134.921 160.128C120.835 160.128 109.417 171.185 109.417 184.826C109.417 198.466 120.835 209.523 134.921 209.523Z" fill="#B9CFE6"/>
<path d="M113.266 201.422L111.824 199.432C110.233 197.235 107.105 196.704 104.837 198.245L72.2959 220.351C70.028 221.892 69.4793 224.921 71.0702 227.117L72.5124 229.108C74.1033 231.304 77.2315 231.836 79.4993 230.295L112.041 208.189C114.309 206.648 114.857 203.619 113.266 201.422Z" fill="#2E344B"/>
<path d="M139.407 185.088C141.991 182.605 144.568 180.109 147.113 177.593C149.936 174.911 145.595 170.708 142.766 173.39C140.162 175.861 137.578 178.37 135 180.885C132.35 178.357 129.677 175.842 126.983 173.339C124.399 170.74 120.317 174.699 122.901 177.292C125.485 179.884 128.102 182.496 130.72 185.088C128.109 187.655 125.505 190.249 122.908 192.871C120.257 195.374 124.319 199.326 126.996 196.824C129.673 194.321 132.337 191.813 135 189.291C137.571 191.8 140.155 194.302 142.759 196.773C145.529 199.513 149.869 195.303 147.1 192.57C144.562 190.054 141.984 187.565 139.407 185.088Z" fill="#C85F64"/>
<path d="M150.373 168.219C149.83 167.809 149.286 167.404 148.71 167.039C147.788 166.44 146.82 165.91 145.814 165.454C144.724 164.946 143.597 164.517 142.441 164.17C141.911 164.009 141.368 163.889 140.818 163.811C140.426 163.742 140.03 163.701 139.632 163.689H139.268C139.01 163.677 138.753 163.733 138.525 163.85C138.254 163.978 138.221 163.978 138.439 163.85C138.111 163.939 137.817 164.12 137.595 164.37C137.372 164.619 137.23 164.927 137.187 165.255C137.141 165.584 137.196 165.919 137.344 166.219C137.493 166.519 137.728 166.77 138.022 166.942C137.677 166.75 138.26 167.128 138.3 167.154C138.403 167.206 138.509 167.251 138.618 167.289C138.976 167.443 139.334 167.584 139.705 167.712L141.11 168.162L141.891 168.437L142.335 168.604C142.779 168.79 143.217 168.989 143.661 169.195C144.565 169.642 145.437 170.148 146.271 170.709C146.477 170.844 146.676 170.985 146.874 171.126H146.914L147.139 171.306C147.888 171.896 148.584 172.48 149.611 172.441C150.638 172.403 151.817 171.543 151.705 170.42C151.663 169.981 151.522 169.556 151.292 169.176C151.062 168.796 150.748 168.469 150.373 168.219Z" fill="white"/>
<path d="M156.171 177.151C156.159 177.042 156.129 176.936 156.085 176.836C155.874 176.313 155.626 175.805 155.342 175.315C155.16 175.022 154.937 174.754 154.68 174.52C154.453 174.283 154.183 174.087 153.885 173.942C153.665 173.816 153.414 173.75 153.159 173.75C152.904 173.75 152.653 173.816 152.434 173.942C152.214 174.068 152.033 174.249 151.911 174.466C151.788 174.683 151.729 174.927 151.738 175.174C151.736 175.402 151.767 175.629 151.831 175.848C151.87 175.964 151.904 176.085 151.937 176.201C152.023 176.469 152.129 176.731 152.255 176.984C152.414 177.472 152.6 177.952 152.811 178.421C152.923 178.649 153.084 178.852 153.283 179.015C153.482 179.179 153.714 179.3 153.964 179.371C154.265 179.45 154.581 179.452 154.883 179.378C155.185 179.304 155.462 179.156 155.687 178.947C155.912 178.73 156.077 178.461 156.164 178.164C156.26 177.833 156.262 177.483 156.171 177.151Z" fill="white"/>
<path d="M162.042 91.1554C162.042 91.1554 166.236 118.324 165.427 123.021C165.123 124.811 159.126 126.447 159.736 127.936C160.345 129.424 165.275 127.493 165.275 127.493C165.275 127.493 164.964 133.3 165.275 134.641C165.586 135.982 167.117 135.828 167.733 135.084C167.733 135.084 168.999 137.285 170.96 135.533C170.96 135.533 171.815 136.309 173.266 134.936C173.653 134.899 174.028 134.788 174.369 134.608C174.711 134.428 175.012 134.184 175.254 133.89C176.327 132.812 175.406 124.811 175.254 122.129C175.102 119.446 175.102 95.6278 173.564 87.7354C173.604 87.7354 165.427 89.8336 162.042 91.1554Z" fill="#D8877B"/>
<path d="M139.34 51.3332L133.801 47.958L125.757 48.3045C125.757 48.3045 125.406 50.8712 124.915 52.7063C124.835 52.9383 124.703 53.1504 124.529 53.3278C124.355 53.5052 124.143 53.6435 123.908 53.733C133.668 58.1797 139.34 51.3332 139.34 51.3332Z" fill="#B44E50"/>
<path d="M147 33.1678C147 33.1678 150.85 33.3154 150.698 37.1268C150.545 40.9383 146.437 40.3737 146.437 40.3737C146.437 40.3737 144.283 53.4636 133.218 53.8101C121.291 54.1823 118.693 41.2463 118.693 41.2463C118.693 41.2463 114.665 42.0677 114.254 38.2754C113.843 34.4832 117.68 34.0918 117.68 34.0918C117.68 34.0918 128.778 31.1658 132.33 22.1504C132.356 22.1504 136.928 32.0834 147 33.1678Z" fill="#D8877B"/>
<path d="M117.825 39.6297C117.607 39.5731 117.398 39.4889 117.203 39.3795C117.113 39.3002 117.049 39.1971 117.02 39.0829C116.99 38.9687 116.996 38.8486 117.037 38.7378C117.058 38.6614 117.105 38.5939 117.169 38.5453C117.315 38.8212 117.878 38.725 117.832 38.372C117.832 38.3335 117.832 38.3079 117.832 38.2758C117.749 37.8068 117.618 37.3468 117.441 36.9026C117.317 36.4726 117.09 36.0769 116.779 35.7476C116.708 35.675 116.623 35.6171 116.528 35.5775C116.434 35.538 116.332 35.5176 116.229 35.5176C116.126 35.5176 116.024 35.538 115.929 35.5775C115.834 35.6171 115.749 35.675 115.679 35.7476C115.566 35.8932 115.485 36.059 115.44 36.2353C115.4 36.3957 115.4 36.5561 115.354 36.7101C115.268 36.9668 115.645 37.1978 115.831 36.986C115.924 36.8835 116.002 36.7691 116.063 36.646C116.123 36.5305 116.136 36.4021 116.189 36.2866C116.189 36.2866 116.229 36.1775 116.222 36.216C116.31 36.2666 116.381 36.3399 116.427 36.4278C116.687 36.8765 116.881 37.3581 117.004 37.8587C116.917 37.883 116.834 37.9198 116.759 37.9678C116.545 38.1423 116.396 38.3799 116.335 38.6441C116.274 38.9084 116.304 39.1847 116.421 39.4308C116.527 39.6723 116.719 39.8693 116.962 39.9868C117.205 40.1043 117.482 40.1347 117.746 40.0725C117.998 40.0147 118.084 39.7837 117.825 39.6297Z" fill="#B44E50"/>
<path d="M147.298 39.6225C147.562 39.6847 147.84 39.6544 148.082 39.5369C148.325 39.4194 148.517 39.2224 148.624 38.9808C148.741 38.7349 148.772 38.4583 148.711 38.1938C148.65 37.9294 148.5 37.6918 148.286 37.5178C148.212 37.4679 148.129 37.4329 148.041 37.4152C148.165 36.9143 148.362 36.4327 148.624 35.9843C148.668 35.8969 148.737 35.8234 148.822 35.7725C148.822 35.7404 148.862 35.8624 148.856 35.8495C148.902 35.965 148.922 36.0934 148.981 36.2089C149.042 36.3284 149.118 36.4405 149.207 36.5425C149.252 36.584 149.31 36.6102 149.373 36.6172C149.435 36.6243 149.498 36.6117 149.552 36.5815C149.606 36.5513 149.649 36.505 149.674 36.4495C149.699 36.3939 149.705 36.332 149.69 36.273C149.644 36.119 149.644 35.9522 149.598 35.7982C149.557 35.6216 149.478 35.4554 149.366 35.3105C149.297 35.2356 149.213 35.1751 149.119 35.1327C149.025 35.0902 148.923 35.0668 148.82 35.0638C148.716 35.0608 148.613 35.0783 148.517 35.1152C148.42 35.1521 148.333 35.2076 148.259 35.2784C147.952 35.6109 147.726 36.0055 147.597 36.4334C147.42 36.8798 147.289 37.3419 147.206 37.813C147.203 37.8429 147.203 37.873 147.206 37.9028C147.166 38.2622 147.722 38.3584 147.868 38.0761C147.921 38.0761 147.974 38.1916 148.001 38.2686C148.042 38.3795 148.048 38.4995 148.018 38.6137C147.989 38.7279 147.925 38.831 147.835 38.9103C147.656 39.0643 147.411 39.0707 147.173 39.1669C146.934 39.2632 147.1 39.5263 147.298 39.6225Z" fill="#B44E50"/>
<path d="M148.1 33.3664C147.743 33.2526 147.374 33.1794 147 33.1482C136.928 32.0317 132.356 22.1309 132.356 22.1309C128.805 31.1142 117.706 34.0722 117.706 34.0722C117.706 34.0722 117.554 34.0722 117.315 34.1428C125.757 33.1354 131.369 27.7775 132.37 24.7296C132.37 24.7489 137.512 33.8862 148.1 33.3664Z" fill="#B44E50"/>
<path d="M168.025 128.031C168.025 127.89 167.74 127.884 167.72 128.031C167.613 129.185 167.582 130.345 167.627 131.503C167.627 132.101 167.607 132.698 167.568 133.293C167.568 133.562 167.568 133.838 167.568 134.114C167.52 134.403 167.536 134.698 167.614 134.98C167.625 135.011 167.644 135.038 167.67 135.058C167.696 135.078 167.728 135.091 167.761 135.095C167.794 135.099 167.827 135.094 167.857 135.081C167.888 135.067 167.914 135.046 167.932 135.019C168.036 134.775 168.082 134.512 168.064 134.249C168.064 133.973 168.098 133.703 168.104 133.428C168.104 132.786 168.137 132.189 168.144 131.573C168.22 130.391 168.18 129.205 168.025 128.031Z" fill="#B44E50"/>
<path d="M171.159 130.386C171.174 129.776 171.125 129.165 171.013 128.564C170.973 128.391 170.742 128.455 170.722 128.603C170.675 129.196 170.675 129.793 170.722 130.386C170.722 130.983 170.722 131.58 170.722 132.17C170.722 132.761 170.722 133.364 170.722 133.96C170.646 134.516 170.671 135.081 170.795 135.629C170.795 135.693 170.92 135.725 170.954 135.629C171.134 135.084 171.199 134.51 171.146 133.941C171.146 133.344 171.179 132.748 171.146 132.151C171.113 131.554 171.179 130.983 171.159 130.386Z" fill="#B44E50"/>
<path d="M173.796 131.74C173.796 131.175 173.723 130.617 173.677 130.053C173.696 129.578 173.626 129.104 173.472 128.654C173.472 128.609 173.379 128.654 173.359 128.654C173.246 129.149 173.226 129.66 173.299 130.162C173.299 130.681 173.299 131.208 173.299 131.727C173.299 132.247 173.299 132.767 173.266 133.293C173.266 133.569 173.266 133.851 173.206 134.127C173.144 134.379 173.13 134.64 173.167 134.897C173.18 134.933 173.203 134.965 173.234 134.989C173.265 135.014 173.302 135.029 173.341 135.033C173.38 135.038 173.42 135.032 173.456 135.016C173.492 135 173.523 134.974 173.544 134.942C173.657 134.727 173.713 134.49 173.71 134.249C173.743 133.967 173.763 133.691 173.783 133.408C173.829 132.863 173.816 132.298 173.796 131.74Z" fill="#B44E50"/>
<path d="M145.218 60.4128C146.736 58.8005 147.907 56.9115 148.663 54.856L148.087 54.7854C147.267 56.8685 146.013 58.7654 144.402 60.3575C142.791 61.9495 140.858 63.2026 138.724 64.0383C135.855 65.1266 132.749 65.4973 129.693 65.1163C126.536 64.8054 123.554 63.5621 121.152 61.555C118.9 59.5346 117.461 56.8062 117.09 53.855L116.666 53.7139C116.882 56.4331 117.995 59.013 119.84 61.0738C122.04 63.3824 124.961 64.9286 128.156 65.4756C134.318 66.7332 140.937 64.9558 145.218 60.4128Z" fill="#B9CFE6"/>
<path d="M174.194 81.2988C172.736 81.5298 171.289 81.8207 169.854 82.1715C166.947 82.885 164.108 83.8338 161.366 85.0076C160.482 85.3486 159.638 85.7787 158.848 86.291L159.04 86.7273C159.181 86.6257 159.33 86.5335 159.484 86.4514C160.067 86.1434 160.683 85.8867 161.299 85.6237C162.625 85.0462 164.049 84.5264 165.454 84.058C168.224 83.1406 171.064 82.4347 173.949 81.9469L174.446 81.8763C174.366 81.671 174.267 81.4913 174.194 81.2988Z" fill="#B9CFE6"/>
<path d="M93.289 63.8138L93.6667 63.4673C94.8578 62.3404 95.9649 61.1332 96.9797 59.8547C99.0199 57.3035 100.696 54.4977 101.963 51.5131C102.307 50.6853 102.625 49.8448 102.89 48.9913C102.99 48.6769 103.102 48.3497 103.208 47.9968L102.738 47.7529C102.658 48.0096 102.579 48.2663 102.493 48.5101C102.234 49.2416 101.963 49.9667 101.671 50.6789C101.056 52.163 100.343 53.6075 99.5374 55.0037C97.9306 57.7797 95.9472 60.3348 93.6402 62.6011C93.3685 62.8706 93.0902 63.1336 92.8053 63.3967L93.289 63.8138Z" fill="#B9CFE6"/>
<path d="M146.662 105.541C146 105.958 145.456 106.472 144.814 106.889C144.179 107.298 143.514 107.662 142.826 107.98C141.447 108.616 139.988 109.073 138.486 109.34C134.919 109.863 131.285 109.772 127.751 109.07C126.827 108.913 125.911 108.709 125.008 108.461C124.577 108.345 124.16 108.204 123.749 108.05C123.322 107.848 122.879 107.678 122.424 107.543C122.412 107.541 122.4 107.542 122.39 107.547C122.379 107.552 122.369 107.559 122.363 107.569C122.357 107.578 122.353 107.59 122.354 107.601C122.354 107.612 122.358 107.624 122.364 107.633C122.985 108.155 123.719 108.536 124.511 108.749C125.326 109.044 126.163 109.276 127.016 109.442C128.795 109.802 130.597 110.046 132.41 110.174C135.902 110.508 139.426 110.008 142.673 108.717C143.508 108.367 144.305 107.937 145.052 107.434C145.781 106.991 146.423 106.426 146.947 105.766C146.978 105.729 146.992 105.682 146.987 105.635C146.982 105.588 146.958 105.545 146.921 105.516C146.883 105.486 146.834 105.472 146.786 105.477C146.738 105.481 146.693 105.505 146.662 105.541Z" fill="#B9CFE6"/>
<path d="M150.042 107.043C149.81 107.181 149.612 107.364 149.458 107.582C149.273 107.8 149.087 108.018 148.889 108.223C148.487 108.651 148.057 109.054 147.603 109.43C147.153 109.808 146.679 110.159 146.185 110.482C145.695 110.814 145.187 111.118 144.661 111.393C144.615 111.393 144.661 111.483 144.694 111.464C145.252 111.28 145.793 111.05 146.311 110.777C146.852 110.491 147.366 110.16 147.848 109.789C148.322 109.422 148.766 109.018 149.174 108.583C149.648 108.209 150.008 107.716 150.214 107.158C150.216 107.137 150.213 107.117 150.204 107.098C150.195 107.079 150.181 107.063 150.163 107.051C150.146 107.039 150.125 107.032 150.104 107.031C150.082 107.029 150.061 107.033 150.042 107.043Z" fill="#B9CFE6"/>
<path d="M155.714 78.7002C155.25 77.3591 154.713 76.0501 154.123 74.754C154.116 74.7458 154.106 74.74 154.095 74.7376C154.084 74.7352 154.073 74.7362 154.062 74.7405C154.052 74.7448 154.043 74.7521 154.038 74.7614C154.032 74.7708 154.029 74.7816 154.031 74.7925C154.488 76.1464 154.932 77.5067 155.356 78.867C155.78 80.2274 156.171 81.6198 156.681 82.9544C156.685 82.9692 156.692 82.983 156.701 82.9952C156.711 83.0074 156.722 83.0176 156.736 83.0254C156.75 83.0331 156.765 83.0382 156.78 83.0404C156.796 83.0425 156.811 83.0416 156.827 83.0379C156.842 83.0341 156.856 83.0274 156.869 83.0183C156.881 83.0091 156.892 82.9977 156.9 82.9845C156.908 82.9714 156.913 82.9569 156.915 82.9419C156.918 82.9268 156.917 82.9114 156.913 82.8967C156.619 81.4714 156.219 80.0688 155.714 78.7002Z" fill="#B9CFE6"/>
<path d="M110.364 75.0295C110.265 75.1322 110.219 75.1386 110.146 75.2477C110.073 75.3567 110.027 75.4787 109.967 75.5878C109.867 75.7931 109.768 75.992 109.675 76.2294C109.483 76.6529 109.304 77.0828 109.152 77.5127C108.825 78.3989 108.603 79.318 108.489 80.2527C108.489 80.3617 108.662 80.381 108.688 80.2527C108.96 79.3607 109.212 78.4688 109.51 77.5897C109.655 77.1662 109.808 76.7427 109.967 76.3064C110.053 76.1011 110.133 75.8893 110.219 75.6647C110.277 75.5511 110.326 75.433 110.364 75.3118C110.388 75.215 110.401 75.1161 110.404 75.0167C110.397 75.015 110.389 75.0153 110.382 75.0176C110.375 75.0199 110.369 75.024 110.364 75.0295Z" fill="#B9CFE6"/>
<path d="M128.447 31.3899C128.399 31.2282 128.298 31.086 128.159 30.9843C128.021 30.8826 127.852 30.8268 127.678 30.8252C127.517 30.8279 127.358 30.8616 127.21 30.9244C127.062 30.9872 126.928 31.0778 126.817 31.1909C126.704 31.3064 126.605 31.4284 126.499 31.5439C126.393 31.6594 126.28 31.7749 126.161 31.8839C126.109 31.9364 126.054 31.9857 125.995 32.0315L125.929 32.0893C125.803 32.1663 125.684 32.2497 125.551 32.3139L125.326 32.4165L125.26 32.455L124.849 32.5577C124.889 32.5577 124.942 32.5577 124.849 32.5577H124.717H124.544C124.486 32.5566 124.428 32.5722 124.379 32.6026C124.273 32.6411 124.279 32.6411 124.379 32.6026C124.281 32.6306 124.192 32.6823 124.121 32.7529C124.05 32.8235 123.999 32.9105 123.972 33.0057C123.945 33.1009 123.945 33.2012 123.969 33.2968C123.994 33.3925 124.044 33.4805 124.114 33.5523C123.981 33.4111 124.186 33.6357 124.239 33.6742C124.322 33.7366 124.417 33.7824 124.518 33.8089C124.593 33.8327 124.671 33.8499 124.75 33.8603C124.968 33.9033 125.19 33.9206 125.412 33.9116C125.877 33.883 126.329 33.7559 126.738 33.5394C127.103 33.3462 127.441 33.109 127.745 32.8336C127.982 32.6732 128.171 32.4556 128.294 32.2023C128.418 31.949 128.47 31.6689 128.447 31.3899Z" fill="#2E344B"/>
<path d="M140.208 32.4422C140.114 32.3649 140.009 32.3001 139.897 32.2497C139.796 32.2091 139.688 32.1831 139.579 32.1727C139.323 32.1288 139.071 32.0688 138.824 31.993L138.618 31.9225C138.492 31.8583 138.373 31.8005 138.26 31.73L137.936 31.5182C137.894 31.479 137.847 31.4445 137.797 31.4155L137.611 31.2872C137.513 31.2088 137.409 31.138 137.3 31.0755C137.194 31.0113 137.088 30.9343 136.975 30.8765C136.863 30.8193 136.736 30.7945 136.609 30.8051C136.483 30.8157 136.362 30.8612 136.262 30.9362C136.161 31.0112 136.085 31.1126 136.043 31.2283C136 31.3439 135.992 31.4691 136.021 31.5888C136.298 32.3731 136.846 33.0414 137.571 33.4817C137.71 33.5715 137.853 33.6529 138.002 33.7255C138.21 33.8361 138.433 33.9181 138.665 33.9694C138.904 34.0168 139.149 34.0383 139.393 34.0335C139.571 34.035 139.747 33.9996 139.909 33.9299C140.071 33.8602 140.216 33.7577 140.334 33.6293C140.417 33.5479 140.479 33.4499 140.518 33.3424C140.557 33.2349 140.571 33.1205 140.559 33.0072C140.547 32.8939 140.509 32.7846 140.449 32.6869C140.388 32.5893 140.306 32.5058 140.208 32.4422Z" fill="#2E344B"/>
<path d="M140.202 32.4361C140.202 32.4361 140.202 32.4361 140.162 32.4361C140.122 32.4361 140.162 32.4041 140.202 32.4361Z" fill="#2E344B"/>
<path d="M128.222 36.5748C127.824 36.1 127.235 35.9332 126.466 36.6582C126.306 36.8239 126.184 37.0208 126.108 37.2357C126.034 37.3904 125.982 37.5546 125.956 37.7234C125.847 38.121 125.844 38.5386 125.946 38.9377C126.048 39.3369 126.252 39.7049 126.539 40.0077C127.42 40.7456 128.354 40.1296 128.686 39.2441C128.831 38.7952 128.864 38.3196 128.783 37.8557C128.703 37.3919 128.51 36.9531 128.222 36.5748Z" fill="#2E344B"/>
<path d="M138.413 36.5748C138.015 36.1 137.425 35.9332 136.657 36.6582C136.497 36.8239 136.375 37.0208 136.299 37.2357C136.224 37.3904 136.173 37.5546 136.147 37.7234C136.038 38.121 136.035 38.5386 136.137 38.9377C136.238 39.3369 136.442 39.7049 136.73 40.0077C137.611 40.7456 138.545 40.1296 138.877 39.2441C139.021 38.7952 139.055 38.3196 138.974 37.8557C138.894 37.3919 138.701 36.9531 138.413 36.5748Z" fill="#2E344B"/>
<path d="M128.083 36.0938C127.94 36.1086 127.807 36.1741 127.711 36.2778C127.615 36.3814 127.562 36.5159 127.562 36.6552C127.562 36.7946 127.615 36.929 127.711 37.0326C127.807 37.1363 127.94 37.2018 128.083 37.2167C128.226 37.2018 128.358 37.1363 128.454 37.0326C128.55 36.929 128.604 36.7946 128.604 36.6552C128.604 36.5159 128.55 36.3814 128.454 36.2778C128.358 36.1741 128.226 36.1086 128.083 36.0938Z" fill="white"/>
<path d="M138.101 36.0938C137.958 36.1086 137.826 36.1741 137.73 36.2778C137.634 36.3814 137.58 36.5159 137.58 36.6552C137.58 36.7946 137.634 36.929 137.73 37.0326C137.826 37.1363 137.958 37.2018 138.101 37.2167C138.244 37.2018 138.377 37.1363 138.473 37.0326C138.569 36.929 138.622 36.7946 138.622 36.6552C138.622 36.5159 138.569 36.3814 138.473 36.2778C138.377 36.1741 138.244 36.1086 138.101 36.0938Z" fill="white"/>
<path d="M133.887 41.6574C133.53 41.3855 133.202 41.0803 132.907 40.7462C132.776 40.5809 132.669 40.3997 132.588 40.2072C132.502 39.9826 132.476 39.7195 132.257 39.5655C132.215 39.5362 132.164 39.5205 132.111 39.5205C132.059 39.5205 132.008 39.5362 131.966 39.5655C131.648 39.8543 131.913 40.451 132.058 40.7654C132.238 41.1463 132.482 41.4954 132.781 41.7985C132.926 41.9461 133.085 42.068 133.231 42.2092C133.28 42.2464 133.314 42.2978 133.33 42.3557C133.345 42.4135 133.341 42.4747 133.317 42.53C133.205 42.9022 132.94 43.0433 132.655 43.2615C132.61 43.3108 132.578 43.3702 132.562 43.4344C132.547 43.4985 132.548 43.5654 132.566 43.629C132.583 43.6927 132.617 43.751 132.664 43.7989C132.711 43.8467 132.769 43.8826 132.834 43.9032C133.39 44.0572 133.881 43.5823 134.099 43.1332C134.227 42.8964 134.275 42.627 134.237 42.3624C134.199 42.0979 134.077 41.8514 133.887 41.6574Z" fill="#B44E50"/>
<path d="M134.709 46.1036C134.339 45.8444 133.909 45.679 133.456 45.6224C133.024 45.5149 132.576 45.4802 132.131 45.5197C131.522 45.5967 130.534 45.8406 130.375 46.5207C130.371 46.5358 130.372 46.5516 130.376 46.5666C130.38 46.5816 130.388 46.5952 130.4 46.6062C130.411 46.6172 130.425 46.6252 130.441 46.6293C130.456 46.6334 130.472 46.6336 130.488 46.6298C130.773 46.5721 131.038 46.4309 131.323 46.3603C131.62 46.294 131.928 46.2788 132.231 46.3154C132.578 46.3488 132.921 46.4111 133.258 46.5015C133.618 46.6562 134.004 46.7475 134.397 46.771C134.478 46.7727 134.557 46.7515 134.625 46.7099C134.694 46.6683 134.748 46.6082 134.781 46.5371C134.814 46.4659 134.825 46.3869 134.812 46.3098C134.799 46.2328 134.763 46.1611 134.709 46.1036Z" fill="#B44E50"/>
<path d="M123.564 42.5426C124.899 42.5426 125.982 41.8589 125.982 41.0154C125.982 40.172 124.899 39.4883 123.564 39.4883C122.228 39.4883 121.145 40.172 121.145 41.0154C121.145 41.8589 122.228 42.5426 123.564 42.5426Z" fill="#C85F64"/>
<path d="M141.746 42.5426C143.081 42.5426 144.164 41.8589 144.164 41.0154C144.164 40.172 143.081 39.4883 141.746 39.4883C140.41 39.4883 139.327 40.172 139.327 41.0154C139.327 41.8589 140.41 42.5426 141.746 42.5426Z" fill="#C85F64"/>
<path d="M126.559 36.0164C126.557 35.9886 126.557 35.9607 126.559 35.9329C126.551 35.8829 126.533 35.8349 126.506 35.7918C126.466 35.7341 126.431 35.6741 126.4 35.6121C126.375 35.5579 126.342 35.508 126.3 35.4645L126.227 35.3875C126.181 35.338 126.122 35.3023 126.055 35.2849H125.969C125.931 35.2737 125.891 35.2715 125.852 35.2782C125.813 35.2849 125.776 35.3005 125.744 35.3237C125.713 35.3468 125.687 35.3768 125.67 35.4114C125.652 35.4459 125.644 35.4839 125.644 35.5223V35.6057C125.649 35.6706 125.667 35.7339 125.697 35.7918L125.73 35.8303L125.783 35.9137L125.85 35.9907C125.871 36.0154 125.899 36.0352 125.929 36.0484H125.969C126.029 36.0484 126.082 36.119 126.141 36.1447C126.192 36.1812 126.251 36.2054 126.314 36.2153H126.42C126.446 36.2237 126.475 36.2245 126.502 36.2177C126.529 36.2108 126.553 36.1967 126.572 36.1768C126.586 36.1517 126.592 36.1231 126.59 36.0947C126.588 36.0662 126.577 36.039 126.559 36.0164Z" fill="#C85F64"/>
<path d="M125.936 36.4981L125.85 36.3826C125.826 36.3558 125.796 36.3339 125.764 36.3184H125.717C125.689 36.3118 125.659 36.3118 125.631 36.3184H125.498H125.452C125.381 36.3186 125.312 36.3386 125.253 36.3761L125.147 36.4596C125.109 36.5002 125.079 36.5483 125.061 36.6007C125.049 36.6271 125.043 36.6555 125.043 36.6841C125.043 36.7128 125.049 36.7412 125.061 36.7676L125.108 36.8253L125.174 36.8766L125.114 36.8317C125.153 36.8673 125.195 36.8995 125.24 36.928L125.359 36.9665H125.412H125.498C125.549 36.9761 125.601 36.9761 125.651 36.9665H125.737C125.778 36.9572 125.815 36.9383 125.847 36.9114C125.878 36.8845 125.902 36.8505 125.916 36.8125C125.956 36.7702 125.98 36.7159 125.983 36.6587C125.987 36.6014 125.97 36.5447 125.936 36.4981Z" fill="#C85F64"/>
<path d="M139.811 35.7468C139.779 35.717 139.74 35.695 139.698 35.6826C139.653 35.6696 139.604 35.6696 139.559 35.6826H139.519C139.463 35.6951 139.41 35.7217 139.367 35.7596L139.307 35.8174L139.175 35.9393C139.114 35.9899 139.059 36.0458 139.009 36.1061L138.916 36.2537C138.894 36.2971 138.885 36.3463 138.892 36.3945C138.899 36.4427 138.922 36.4876 138.956 36.5232C138.984 36.5497 139.018 36.5694 139.055 36.5809C139.113 36.6028 139.177 36.6028 139.234 36.5809L139.393 36.5104C139.435 36.4859 139.473 36.4557 139.506 36.4205L139.579 36.3628L139.711 36.2473L139.778 36.1895C139.831 36.1423 139.866 36.0789 139.877 36.0099C139.892 35.9643 139.893 35.9158 139.882 35.8694C139.87 35.8231 139.845 35.7807 139.811 35.7468Z" fill="#C85F64"/>
<path d="M140.089 37.1521C140.096 37.1369 140.099 37.1205 140.099 37.1039C140.099 37.0874 140.096 37.071 140.089 37.0558C140.089 37.0558 140.089 37.0558 140.089 37.0237C140.065 36.9841 140.031 36.951 139.99 36.9275L139.917 36.8954H139.771C139.734 36.889 139.696 36.889 139.658 36.8954C139.605 36.9006 139.553 36.9158 139.506 36.9403C139.46 36.9788 139.407 37.0109 139.393 37.0751C139.387 37.1047 139.387 37.1353 139.393 37.1649C139.402 37.1959 139.417 37.2249 139.438 37.2502C139.458 37.2755 139.484 37.2967 139.513 37.3125C139.561 37.3333 139.613 37.3484 139.665 37.3574H139.811H139.89H139.963C140.004 37.3314 140.039 37.2962 140.063 37.2547L140.089 37.1521Z" fill="#C85F64"/>
<path d="M207.45 23.8637L185.2 15.7852L169.708 55.7929L201.732 67.4263L213.559 36.8831L207.45 23.8637Z" fill="#CBDEEE"/>
<path d="M203.786 33.3343L213.559 36.8827L207.45 23.8633L203.786 33.3343Z" fill="#8EADD5"/>
<path d="M239.176 64.5645L215.766 68.5107L223.333 110.61L257.033 104.932L251.255 72.7906L239.176 64.5645Z" fill="white"/>
<path d="M240.965 74.5295L251.255 72.7906L239.176 64.5645L240.965 74.5295Z" fill="#8EADD5"/>
<path d="M238.387 86.5416C239.549 85.0187 240.698 83.4894 241.833 81.9537C243.105 80.3046 240.442 78.4245 239.183 80.0736C238.012 81.5922 236.852 83.1236 235.704 84.6679C234.074 83.5386 232.442 82.4178 230.807 81.3056C229.217 80.1377 227.388 82.5889 228.978 83.7311C230.569 84.8732 232.185 86.0731 233.789 87.2346C232.623 88.8173 231.465 90.4022 230.317 91.9893C229.104 93.5293 231.609 95.3003 232.815 93.7603C234.021 92.2203 235.22 90.6739 236.419 89.121C237.996 90.2504 239.58 91.3669 241.17 92.4705C242.873 93.7025 244.815 91.123 243.112 89.9039C241.548 88.7617 239.971 87.6516 238.387 86.5416Z" fill="#C85F64"/>
<path d="M58.0911 28.7334L34.681 32.6861L42.2547 74.7793L75.9484 69.1005L70.1704 36.966L58.0911 28.7334Z" fill="white"/>
<path d="M59.8867 38.6985L70.1705 36.966L58.0911 28.7334L59.8867 38.6985Z" fill="#8EADD5"/>
<path d="M33.1306 132.549C24.9673 125.824 22.4692 113.453 27.4256 104.251C28.7508 101.729 30.785 99.3425 33.568 98.4762C36.3509 97.61 39.9555 98.7778 40.8567 101.486C41.9036 104.694 38.458 108.018 34.9793 108.076C31.5006 108.133 28.4062 105.926 26.0871 103.411C12.0265 88.1518 14.7498 66.5919 33.8396 56.9541" stroke="white" stroke-linecap="round" stroke-linejoin="round" stroke-dasharray="4 4"/>
<path d="M234.379 157.888C235.648 155.965 237.613 154.569 239.889 153.976C242.165 153.382 244.588 153.633 246.683 154.68C249.062 155.963 250.825 158.889 249.652 161.276C248.545 163.535 245.159 164.119 242.953 162.816C240.746 161.514 239.693 158.851 239.726 156.342C239.759 153.833 240.713 151.433 241.714 149.13C244.199 143.547 247.213 138.112 248.519 132.171C249.824 126.229 249.181 119.472 244.961 114.948" stroke="white" stroke-linecap="round" stroke-linejoin="round" stroke-dasharray="4 4"/>
<path d="M226.858 61.4204C225.644 57.8751 225.245 54.1159 225.686 50.4054C226.128 46.6949 227.401 43.1225 229.416 39.9375C230.979 37.4992 233.173 35.202 236.042 34.5668C238.911 33.9315 242.515 35.664 242.781 38.5002C243.032 40.9963 240.634 43.2549 238.056 43.4731C235.479 43.6913 232.981 42.2668 231.37 40.3033C229.76 38.3398 228.905 35.9335 228.203 33.5144C225.917 25.6476 224.227 16.3884 216.939 12.3395C211.346 9.2531 203.501 10.8123 199.611 15.7788" stroke="white" stroke-linecap="round" stroke-linejoin="round" stroke-dasharray="4 4"/>
<path d="M188.474 51.5123C188.711 50.9132 189.103 50.4908 189.653 50.2451C190.211 49.9763 190.792 49.9535 191.396 50.1767C192.349 50.5288 193.263 50.7082 194.138 50.715C195.023 50.6988 195.813 50.4497 196.509 49.9677C197.228 49.4942 197.796 48.7275 198.214 47.6676C198.522 46.8842 198.597 46.12 198.439 45.3749C198.303 44.6385 197.966 43.9729 197.429 43.3783C196.915 42.7923 196.239 42.3447 195.403 42.0356C194.753 41.7952 194.092 41.6829 193.42 41.6987C192.772 41.723 192.138 41.8452 191.519 42.0652C191.02 42.2504 190.472 42.3249 189.874 42.2887C189.308 42.238 188.836 41.9181 188.456 41.3289C188.062 40.7081 187.955 40.1011 188.136 39.5079C188.316 38.9147 188.746 38.4663 189.424 38.1627C190.597 37.6193 191.831 37.3232 193.128 37.2745C194.457 37.2113 195.76 37.4159 197.038 37.8881C198.641 38.4806 199.936 39.3816 200.923 40.5911C201.942 41.7862 202.595 43.1361 202.88 44.6406C203.165 46.1452 203.004 47.6693 202.395 49.2131C201.941 50.3652 201.363 51.3262 200.66 52.096C199.967 52.8428 199.167 53.4186 198.263 53.8233C197.39 54.2136 196.447 54.4458 195.433 54.5198C194.452 54.5794 193.43 54.5052 192.367 54.2973C192.312 54.3032 192.256 54.309 192.2 54.3149C192.168 54.3294 192.143 54.3596 192.125 54.4057L191.621 55.6845C191.385 56.2836 190.987 56.7176 190.429 56.9863C189.88 57.2321 189.303 57.2433 188.699 57.0201C188.095 56.7969 187.673 56.4164 187.432 55.8787C187.201 55.318 187.203 54.7381 187.439 54.1391L188.474 51.5123ZM186.086 63.1424C185.413 62.8934 184.958 62.5274 184.723 62.0444C184.52 61.547 184.55 60.9641 184.813 60.2959L185.045 59.7083C185.308 59.0401 185.682 58.5976 186.167 58.3808C186.684 58.1495 187.279 58.1583 187.953 58.4073L188.406 58.5748C189.079 58.8238 189.518 59.197 189.721 59.6944C189.956 60.1775 189.942 60.7531 189.679 61.4213L189.448 62.0088C189.184 62.677 188.794 63.1268 188.277 63.3581C187.792 63.5749 187.213 63.5588 186.539 63.3098L186.086 63.1424Z" fill="#6779B7"/>
<path d="M56.2116 61.8023C56.0986 61.1654 56.2139 60.6041 56.5572 60.1182C56.8962 59.6079 57.3848 59.2997 58.0228 59.1936C59.029 59.0263 59.9109 58.7284 60.6687 58.2997C61.4221 57.8466 61.9711 57.2384 62.3157 56.4749C62.6849 55.7075 62.7696 54.7603 62.5698 53.6335C62.4221 52.8006 62.0832 52.1005 61.5531 51.5329C61.0475 50.9613 60.4063 50.551 59.6294 50.3019C58.8771 50.0487 58.0593 49.9956 57.1758 50.1425C56.4886 50.2568 55.86 50.4874 55.2899 50.8344C54.7444 51.1773 54.2631 51.5978 53.8462 52.0958C53.5143 52.504 53.0814 52.8408 52.5473 53.1062C52.0335 53.3429 51.4574 53.3 50.8192 52.9774C50.152 52.6345 49.7396 52.1608 49.5819 51.5566C49.4242 50.9524 49.5575 50.3502 49.9816 49.7501C50.7044 48.6968 51.6113 47.8273 52.7024 47.1415C53.8137 46.4272 55.0442 45.9577 56.3939 45.7333C58.0873 45.4517 59.6783 45.5906 61.167 46.15C62.676 46.6809 63.9505 47.5281 64.9905 48.6917C66.0306 49.8553 66.6961 51.2577 66.9872 52.8989C67.2043 54.1237 67.2136 55.2444 67.0149 56.2609C66.8118 57.253 66.4275 58.1491 65.862 58.9492C65.3167 59.7208 64.6269 60.3903 63.7928 60.9577C62.9788 61.4966 62.0594 61.9395 61.0345 62.2864C60.9898 62.3191 60.945 62.3517 60.9003 62.3844C60.8801 62.413 60.8744 62.4517 60.883 62.5007L61.1241 63.8602C61.2371 64.4971 61.124 65.0707 60.785 65.581C60.4417 66.0668 59.9509 66.3628 59.3129 66.4689C58.6748 66.575 58.1103 66.4545 57.6192 66.1075C57.1239 65.7359 56.8197 65.2317 56.7068 64.5948L56.2116 61.8023ZM60.2951 73.0766C59.5834 73.1949 58.9987 73.103 58.5409 72.8009C58.1032 72.4702 57.8215 71.9496 57.6955 71.2393L57.5847 70.6146C57.4588 69.9042 57.5473 69.3347 57.8502 68.9061C58.1734 68.4488 58.6908 68.1611 59.4025 68.0427L59.881 67.9631C60.5927 67.8448 61.1674 67.951 61.605 68.2817C62.0628 68.5838 62.3547 69.0901 62.4806 69.8005L62.5914 70.4251C62.7174 71.1355 62.6188 71.7193 62.2956 72.1765C61.9926 72.6052 61.4853 72.8787 60.7736 72.997L60.2951 73.0766Z" fill="#6779B7"/>
</g>
<defs>
<clipPath id="clip0_485_15135">
<rect width="269" height="251" fill="white"/>
</clipPath>
</defs>
</svg>
