<svg width="44" height="44" viewBox="0 0 44 44" fill="none" xmlns="http://www.w3.org/2000/svg">
<rect width="44" height="44" rx="22" fill="white"/>
<g clip-path="url(#clip0_3367_4651)">
<path d="M25.8337 20.1323C25.8336 20.1431 25.8323 20.1536 25.8319 20.1643L26.0686 20.0705L28.2881 26.5437C28.6727 26.1232 29.1588 25.8037 29.7135 25.6155C30.0702 25.4947 30.4407 25.4333 30.814 25.4333C32.0038 25.4333 33.0853 26.0467 33.7045 27.0193C34.0728 27.0016 34.167 26.7858 33.5751 26.0145C32.6205 24.7706 31.2927 24.5295 30.3588 24.542C30.3002 24.384 30.2395 24.2189 30.1764 24.0444C29.6041 22.462 28.3189 21.7083 27.5624 21.3896L26.8332 19.2629C26.7892 19.1348 26.6961 19.0317 26.5733 18.9752C26.4503 18.9184 26.3116 18.9146 26.1858 18.9647L25.3203 19.3075C25.6255 19.4568 25.8358 19.7705 25.8337 20.1323Z" fill="#323232"/>
<path d="M19.0032 26.919C18.4826 25.384 16.8165 24.5615 15.2813 25.082C13.7462 25.6024 12.9239 27.2689 13.4443 28.8037C13.9648 30.3387 15.6309 31.1613 17.1661 30.6409C18.7011 30.1204 19.5237 28.454 19.0032 26.919ZM16.596 28.9595C15.9896 29.1652 15.3313 28.84 15.1257 28.2337C14.9202 27.6272 15.2451 26.9688 15.8514 26.7634C16.4579 26.5578 17.1162 26.8829 17.3219 27.4891C17.5274 28.0955 17.2025 28.7538 16.596 28.9595Z" fill="#323232"/>
<path d="M29.2898 18.2197C28.4602 18.2197 27.7876 18.8922 27.7876 19.722C27.7876 20.5517 28.4602 21.2242 29.2898 21.2242C30.1195 21.2242 30.1195 18.2197 29.2898 18.2197Z" fill="#323232"/>
<path d="M27.4246 28.3457H25.3989L25.6826 29.5277H27.4525C27.3739 29.1354 27.3648 28.7365 27.4246 28.3457Z" fill="#323232"/>
<path d="M29.8717 26.082C28.3367 26.6024 27.5142 28.2689 28.0346 29.8037C28.555 31.3387 30.2213 32.1613 31.7564 31.6409C33.2916 31.1203 34.114 29.454 33.5935 27.919C33.0732 26.384 31.4068 25.5615 29.8717 26.082ZM31.1864 29.9595C30.5798 30.1652 29.9215 29.84 29.716 29.2337C29.5106 28.6272 29.8353 27.9688 30.4417 27.7634C31.0482 27.5578 31.7065 27.8829 31.9122 28.4891C32.1178 29.0955 31.7928 29.7538 31.1864 29.9595Z" fill="#323232"/>
<path d="M22.0681 24.5124L21.7042 25.991C21.5597 26.5783 21.9012 27.17 22.4718 27.3462H21.1441C20.601 26.2506 20.4142 25.1322 20.3523 24.4046C20.5136 24.3552 20.6315 24.207 20.6315 24.0295V23.4334L19.2928 22.5518H12.209C11.9914 22.5518 11.815 22.7284 11.815 22.9459V24.0295C11.815 24.2471 11.9914 24.4235 12.209 24.4235H12.2525C11.8246 25.4735 11.1641 27.2938 11.1641 28.5282H12.8626C12.7148 27.791 12.8124 27.03 13.1506 26.3446C13.5561 25.5237 14.2566 24.9094 15.1235 24.6157C15.4805 24.4945 15.8506 24.4335 16.2244 24.4335C17.6937 24.4335 18.998 25.3687 19.47 26.7611C19.6699 27.3508 19.6985 27.9575 19.5843 28.5282H20.2763H21.9017H23.0318L22.0681 24.5124Z" fill="#323232"/>
<path d="M10.4863 21.7716H16.2431C16.5118 21.7716 16.7295 21.5539 16.7295 21.2852V15.6095C16.7295 15.3408 16.5118 15.123 16.2431 15.123H10.4863C10.2178 15.123 10 15.3408 10 15.6095V21.2852C10 21.5539 10.2178 21.7716 10.4863 21.7716Z" fill="#323232"/>
<path d="M20.6191 16.4159C20.4853 16.0481 20.0785 15.8583 19.7109 15.9921C19.3431 16.1258 19.1532 16.5325 19.287 16.9003L20.5402 20.3468C20.6415 20.6255 20.9055 20.8115 21.202 20.8134L24.9172 20.8357H24.9215C25.3109 20.8357 25.6278 20.5212 25.6301 20.1313C25.6324 19.7399 25.3171 19.4207 24.9256 19.4183L21.7038 19.3989L20.6191 16.4159Z" fill="#323232"/>
<path d="M22.2094 25.2283L23.7205 31.5252C23.84 32.0229 24.2846 32.3574 24.7749 32.3574C24.8588 32.3574 24.944 32.3476 25.029 32.3272C25.6119 32.1873 25.9709 31.6015 25.8311 31.0187L24.2197 24.3046C24.1553 24.0366 23.9915 23.8032 23.7613 23.6516L20.7504 21.6688L20.896 21.5207L23.8733 23.4814C24.1477 23.6621 24.3411 23.9376 24.4178 24.2571L24.5652 24.871L25.2276 22.1788C25.3111 21.8398 25.234 21.4814 25.0186 21.2067C24.9698 21.1443 24.9143 21.0887 24.8548 21.0387L21.2007 21.0167C20.8208 21.0144 20.4784 20.773 20.3487 20.4161L19.0955 16.9696C19.0121 16.7405 19.023 16.4927 19.1262 16.2719C19.2292 16.051 19.4122 15.8835 19.6412 15.8002C19.7417 15.7637 19.8466 15.7451 19.9528 15.7451C20.3351 15.7451 20.6797 15.9866 20.8105 16.3459L21.2253 17.4867C21.2416 17.4062 21.2578 17.3269 21.2734 17.2496L23.0074 18.7426C23.1385 18.8554 23.3032 18.9142 23.4699 18.9142C23.5661 18.9142 23.663 18.8946 23.7544 18.8546L27.402 17.2551C27.7604 17.0979 27.9236 16.6799 27.7664 16.3214C27.6092 15.9629 27.1911 15.7998 26.8327 15.957L23.5939 17.3772L20.8583 15.0218C20.7993 14.9711 20.7343 14.9323 20.6662 14.9042C20.6028 14.8725 20.5358 14.8474 20.4651 14.8297C19.6893 14.6363 18.5648 15.0576 18.1072 16.3882C17.4889 18.2214 17.3559 19.4146 17.5909 21.4333C17.7569 22.2873 18.1678 22.6936 18.6466 22.8821L19.1994 23.2461L22.2094 25.2283Z" fill="#323232"/>
<path d="M23.665 13.5505L23.6625 13.5596L23.6681 13.5612C23.6694 13.565 23.6703 13.5689 23.6714 13.5727C23.8165 13.2836 23.8937 12.9567 23.8937 12.6237C23.8937 12.2865 23.8155 11.966 23.6799 11.6855C23.3633 11.8914 22.8236 12.0271 22.2105 12.0271C21.5974 12.0271 21.0578 11.8914 20.7411 11.6856C20.6055 11.966 20.5273 12.2865 20.5273 12.6237C20.5273 12.9567 20.6045 13.2835 20.7495 13.5726C20.7507 13.5688 20.7516 13.5649 20.7528 13.5612L20.7584 13.5596L20.7559 13.5505C20.8802 13.2105 21.4534 12.9759 22.2105 12.9759C22.9676 12.9759 23.5407 13.2105 23.665 13.5505Z" fill="#323232"/>
<path d="M22.6817 12.2695L22.6704 12.3574C22.6983 12.361 22.7262 12.3648 22.7539 12.3688L22.7666 12.2811C22.7384 12.2771 22.7101 12.2732 22.6817 12.2695Z" fill="#323232"/>
<path d="M22.167 12.2357L22.1683 12.3243L22.2103 12.3239L22.2519 12.3243L22.2533 12.2357L22.2103 12.2354L22.167 12.2357Z" fill="#323232"/>
<path d="M22.9354 12.3076L22.9204 12.3949C22.9484 12.3998 22.9762 12.4047 23.0035 12.4097L23.0196 12.3226C22.9918 12.3175 22.9637 12.3125 22.9354 12.3076Z" fill="#323232"/>
<path d="M23.2521 12.4598L23.2709 12.3732L23.1874 12.3555L23.1694 12.4422L23.2521 12.4598Z" fill="#323232"/>
<path d="M22.4257 12.2441L22.4194 12.3325C22.4472 12.3345 22.4752 12.3368 22.5032 12.3393L22.5112 12.2511C22.4825 12.2485 22.454 12.2461 22.4257 12.2441Z" fill="#323232"/>
<path d="M21.485 12.3086C21.4566 12.3134 21.4286 12.3185 21.4009 12.3236L21.4169 12.4107C21.4442 12.4057 21.472 12.4007 21.5 12.3959L21.485 12.3086Z" fill="#323232"/>
<path d="M20.9004 12.4312L20.9217 12.5172C20.9472 12.5109 20.9746 12.5043 21.0038 12.4974L20.9834 12.4111C20.9539 12.4181 20.9262 12.4248 20.9004 12.4312Z" fill="#323232"/>
<path d="M21.9949 12.2441C21.9665 12.2461 21.9379 12.2485 21.9092 12.2511L21.9174 12.3394C21.9454 12.3368 21.9733 12.3345 22.001 12.3326L21.9949 12.2441Z" fill="#323232"/>
<path d="M23.417 13.4973L23.4991 13.5172L23.5205 13.4312L23.4375 13.4111L23.417 13.4973Z" fill="#323232"/>
<path d="M21.7386 12.2695C21.7103 12.2732 21.682 12.2771 21.6538 12.2811L21.6664 12.3688C21.6942 12.3648 21.722 12.361 21.7499 12.3574L21.7386 12.2695Z" fill="#323232"/>
<path d="M21.2334 12.3555L21.1499 12.3732L21.1687 12.4598L21.2514 12.4422L21.2334 12.3555Z" fill="#323232"/>
<path d="M22.6362 13.5791C22.608 13.5837 22.5797 13.588 22.5513 13.5919L22.5634 13.6797C22.5925 13.6756 22.6215 13.6712 22.6504 13.6666L22.6362 13.5791Z" fill="#323232"/>
<path d="M22.8052 13.5489L22.8226 13.6358C22.8518 13.6299 22.8804 13.6239 22.9084 13.6178L22.8895 13.5312C22.862 13.5372 22.8339 13.5431 22.8052 13.5489Z" fill="#323232"/>
<path d="M21.7855 13.5801L21.7715 13.6675C21.8003 13.6722 21.8294 13.6766 21.8585 13.6806L21.8706 13.5929C21.8422 13.5889 21.8137 13.5846 21.7855 13.5801Z" fill="#323232"/>
<path d="M22.0409 13.6113L22.0337 13.6997C22.0634 13.7021 22.0929 13.7039 22.122 13.7053L22.126 13.6168C22.0981 13.6155 22.0696 13.6137 22.0409 13.6113Z" fill="#323232"/>
<path d="M21.5986 13.6358L21.6159 13.5489C21.5873 13.5431 21.5591 13.5372 21.5316 13.5312L21.5127 13.6178C21.5407 13.6239 21.5694 13.6299 21.5986 13.6358Z" fill="#323232"/>
<path d="M22.3809 13.6113C22.3523 13.6137 22.3239 13.6156 22.2959 13.6168L22.2998 13.7053C22.3289 13.704 22.3585 13.7021 22.3883 13.6996L22.3809 13.6113Z" fill="#323232"/>
<path d="M23.6049 14.0156C23.5158 14.2012 23.3618 14.3935 23.1632 14.5525L23.1416 14.4707C23.1155 14.4776 23.0875 14.4848 23.058 14.4922L23.0794 14.5781C23.1065 14.5714 23.1318 14.5648 23.1561 14.5585C22.8975 14.7633 22.5665 14.9108 22.2105 14.9108C21.8546 14.9108 21.5238 14.7634 21.2652 14.5586C21.2895 14.565 21.315 14.5716 21.3422 14.5784L21.3636 14.4924C21.334 14.4851 21.3061 14.4779 21.28 14.471L21.2583 14.5528C21.0595 14.3938 20.9054 14.2014 20.8162 14.0158C20.7978 14.0903 20.7647 14.1609 20.7183 14.2231L20.7281 14.2179C20.9999 14.6621 21.561 15.088 22.2105 15.088C22.8601 15.088 23.4212 14.6621 23.693 14.2179L23.703 14.2232C23.6565 14.1609 23.6233 14.0903 23.6049 14.0156Z" fill="#323232"/>
<path d="M20.4027 14.152C20.5542 14.0721 20.6122 13.8846 20.5323 13.7331C20.3553 13.3973 20.2617 13.0137 20.2617 12.6238C20.2617 12.2188 20.363 11.8351 20.537 11.504C20.478 11.4274 20.4447 11.3458 20.4447 11.2607C20.4447 11.2186 20.4546 11.1776 20.4696 11.1374C20.6058 11.5018 21.3323 11.7802 22.2106 11.7802C23.0889 11.7802 23.8154 11.5018 23.9516 11.1374C23.9666 11.1776 23.9765 11.2186 23.9765 11.2607C23.9765 11.3458 23.9433 11.4274 23.8843 11.5039C24.0583 11.8351 24.1596 12.2188 24.1596 12.6238C24.1596 13.0137 24.066 13.3973 23.889 13.7331C23.8091 13.8846 23.8671 14.0721 24.0186 14.152C24.0648 14.1763 24.1142 14.1878 24.163 14.1878C24.2743 14.1878 24.3819 14.1277 24.4375 14.0223C24.6613 13.5977 24.7797 13.1141 24.7797 12.6238C24.7797 11.0564 24.0941 9.64258 22.2107 9.64258C20.3272 9.64258 19.6416 11.0564 19.6416 12.6238C19.6416 13.1141 19.7599 13.5977 19.9838 14.0223C20.0637 14.1739 20.2513 14.2318 20.4027 14.152Z" fill="#323232"/>
</g>
<defs>
<clipPath id="clip0_3367_4651">
<rect width="24" height="24" fill="white" transform="translate(10 8)"/>
</clipPath>
</defs>
</svg>
