<svg width="19" height="22" viewBox="0 0 19 22" fill="none" xmlns="http://www.w3.org/2000/svg">
<g id="Left arrow" clip-path="url(#clip0_545_253)">
<path id="XMLID_28_" d="M0.863609 9.87059L16.0513 9.8706L13.2075 6.62043C12.8702 6.23503 12.8702 5.61005 13.2075 5.22459C13.5447 4.8392 14.0916 4.8392 14.4289 5.22459L18.747 10.1597C19.0843 10.5451 19.0843 11.17 18.747 11.5555L14.4289 16.4906C14.2602 16.6833 14.0392 16.7797 13.8182 16.7797C13.5971 16.7797 13.3761 16.6833 13.2075 16.4906C12.8702 16.1052 12.8702 15.4802 13.2075 15.0947L16.0513 11.8446L0.863609 11.8446C0.386651 11.8446 -2.73372e-05 11.4027 -2.72837e-05 10.8576C-2.72303e-05 10.3125 0.386652 9.87059 0.863609 9.87059Z" fill="#2650D8"/>
</g>
<defs>
<clipPath id="clip0_545_253">
<rect width="19" height="21.7143" fill="white" transform="matrix(-1 -8.74228e-08 -9.808e-08 1 19 0)"/>
</clipPath>
</defs>
</svg>
