<svg width="19" height="19" viewBox="0 0 19 19" fill="none" xmlns="http://www.w3.org/2000/svg">
<path d="M16.9583 7.04621C16.8535 6.70814 16.5662 6.46802 16.2262 6.43605L11.6082 5.99849L9.78207 1.53845C9.64742 1.21158 9.34077 1 9.00006 1C8.65936 1 8.35271 1.21158 8.21806 1.53921L6.39197 5.99849L1.77321 6.43605C1.43385 6.46878 1.14722 6.70814 1.04187 7.04621C0.93652 7.38428 1.03381 7.75509 1.29053 7.98884L4.78121 11.1833L3.75189 15.9147C3.67657 16.2626 3.80597 16.6222 4.08259 16.8308C4.23128 16.9429 4.40523 17 4.58065 17C4.7319 17 4.88193 16.9575 5.01657 16.8734L9.00006 14.389L12.9821 16.8734C13.2735 17.0563 13.6408 17.0396 13.9168 16.8308C14.1935 16.6215 14.3228 16.2618 14.2475 15.9147L13.2182 11.1833L17 8.5C17.2567 8.26562 17.0636 7.38492 16.9583 7.04621Z" fill="#FFC107"/>
<path d="M16.7518 6.13602L12.3978 5.29739L10.6926 1.08324C10.427 0.426307 9.79807 0 9.08523 0C8.37239 0 7.74341 0.426307 7.47784 1.08324L5.77261 5.29739L1.41869 6.13602C0.594034 6.29676 0 7.01659 0 7.85523C0 8.40733 0.265568 8.93148 0.705853 9.25994L3.75989 11.5452L2.87932 15.5986C2.82341 15.8642 2.79545 16.1368 2.79545 16.4093C2.79545 16.8776 2.97716 17.3248 3.31261 17.6533C3.89966 18.2403 4.87807 18.3312 5.56295 17.856L9.08523 15.4099L12.6075 17.856C12.901 18.0656 13.2505 18.1705 13.6139 18.1705C14.5853 18.1705 15.375 17.3807 15.375 16.4093C15.375 16.1368 15.347 15.8642 15.2911 15.5986L14.4106 11.5452L17.4646 9.25994C17.9049 8.93148 18.1705 8.40733 18.1705 7.85523C18.1705 7.01659 17.5764 6.29676 16.7518 6.13602ZM16.633 8.14176L13.2155 10.6926C12.9989 10.8534 12.894 11.1329 12.9499 11.3985L13.9214 15.8922C13.9563 16.0599 13.9773 16.2346 13.9773 16.4023C13.9773 16.6819 13.6278 16.8566 13.4042 16.7028L9.48358 13.9773C9.36477 13.8934 9.225 13.8515 9.08523 13.8515C8.94546 13.8515 8.80568 13.8934 8.68688 13.9773L4.76625 16.7028C4.62648 16.8007 4.42381 16.7867 4.29801 16.6609C4.22812 16.598 4.19318 16.5072 4.19318 16.4093C4.19318 16.2346 4.21415 16.0669 4.24909 15.8991L5.22051 11.4055C5.27642 11.1399 5.17159 10.8603 4.95494 10.6996L1.5375 8.14176C1.45364 8.07188 1.39773 7.96705 1.39773 7.85523C1.39773 7.6875 1.51653 7.54074 1.68426 7.5058L6.40858 6.59028C6.6392 6.54835 6.83489 6.38761 6.92574 6.16398L8.77074 1.6004C8.87557 1.34182 9.29489 1.34182 9.39972 1.6004L11.2517 6.16398C11.3426 6.38063 11.5313 6.54136 11.7689 6.59028L16.4932 7.5058C16.6539 7.54074 16.7727 7.6875 16.7727 7.85523C16.7727 7.96705 16.7168 8.07188 16.633 8.14176Z" fill="#FFC107"/>
</svg>
