<svg width="13" height="13" viewBox="0 0 13 13" fill="none" xmlns="http://www.w3.org/2000/svg">
<g id="fi_2838773" clip-path="url(#clip0_3278_4658)">
<g id="Group">
<path id="Vector" d="M6.5 0C2.92982 0 0 2.92982 0 6.5C0 10.0702 2.92982 13 6.5 13C10.0702 13 13 10.0702 13 6.5C13 2.92982 10.0702 0 6.5 0ZM9.4624 2.99899C9.61114 2.85025 9.85227 2.85025 10.001 2.99899C10.1497 3.14773 10.1497 3.38886 10.001 3.5376C9.85227 3.68634 9.61114 3.68634 9.4624 3.5376C9.31366 3.38886 9.31366 3.14773 9.4624 2.99899ZM6.11914 1.92969C6.11914 1.71917 6.28949 1.54883 6.5 1.54883C6.71051 1.54883 6.88086 1.71917 6.88086 1.92969V2.69141C6.88086 2.90192 6.71051 3.07227 6.5 3.07227C6.28949 3.07227 6.11914 2.90192 6.11914 2.69141V1.92969ZM1.92969 6.88086C1.71917 6.88086 1.54883 6.71051 1.54883 6.5C1.54883 6.28949 1.71917 6.11914 1.92969 6.11914H2.69141C2.90192 6.11914 3.07227 6.28949 3.07227 6.5C3.07227 6.71051 2.90192 6.88086 2.69141 6.88086H1.92969ZM3.5376 10.001C3.38886 10.1497 3.14773 10.1497 2.99899 10.001C2.85025 9.85227 2.85025 9.61114 2.99899 9.4624C3.14773 9.31364 3.38886 9.31364 3.5376 9.4624C3.68634 9.61114 3.68634 9.85227 3.5376 10.001ZM3.5376 3.5376C3.38886 3.68634 3.14773 3.68634 2.99899 3.5376C2.85025 3.38886 2.85025 3.14773 2.99899 2.99899C3.14773 2.85025 3.38886 2.85025 3.5376 2.99899C3.68634 3.14773 3.68634 3.38886 3.5376 3.5376ZM6.88086 11.0703C6.88086 11.2808 6.71051 11.4512 6.5 11.4512C6.28949 11.4512 6.11914 11.2808 6.11914 11.0703V10.3086C6.11914 10.0981 6.28949 9.92773 6.5 9.92773C6.71051 9.92773 6.88086 10.0981 6.88086 10.3086V11.0703ZM9.05442 9.05442C8.90566 9.20319 8.66463 9.20319 8.51586 9.05442L6.23071 6.76927C6.15931 6.69787 6.11914 6.60116 6.11914 6.5V4.21484C6.11914 4.00433 6.28949 3.83398 6.5 3.83398C6.71051 3.83398 6.88086 4.00433 6.88086 4.21484V6.3423L9.05442 8.51586C9.20321 8.66465 9.20321 8.90566 9.05442 9.05442ZM10.001 10.001C9.85227 10.1497 9.61114 10.1497 9.4624 10.001C9.31366 9.85227 9.31366 9.61114 9.4624 9.4624C9.61114 9.31364 9.85227 9.31364 10.001 9.4624C10.1497 9.61114 10.1497 9.85227 10.001 10.001ZM11.4512 6.5C11.4512 6.71051 11.2808 6.88086 11.0703 6.88086H10.3086C10.0981 6.88086 9.92773 6.71051 9.92773 6.5C9.92773 6.28949 10.0981 6.11914 10.3086 6.11914H11.0703C11.2808 6.11914 11.4512 6.28949 11.4512 6.5Z" fill="#2650D8"/>
</g>
</g>
<defs>
<clipPath id="clip0_3278_4658">
<rect width="13" height="13" fill="white"/>
</clipPath>
</defs>
</svg>
