<svg width="21" height="21" viewBox="0 0 21 21" fill="none" xmlns="http://www.w3.org/2000/svg">
<path id="Vector" d="M10.0306 20.1886C15.5529 20.277 20.1009 15.8722 20.1893 10.3499C20.2777 4.82762 15.8729 0.279546 10.3507 0.191157C4.82836 0.102769 0.280284 4.50755 0.191896 10.0298C0.103507 15.5521 4.50829 20.1002 10.0306 20.1886ZM10.9729 5.49479L14.2127 8.84007C14.5964 9.23726 14.5863 9.87018 14.1901 10.2539C13.7939 10.6376 13.16 10.6275 12.7763 10.2313L11.2159 8.62008L11.1265 14.2054C11.1176 14.7573 10.6625 15.1981 10.1106 15.1892C9.55867 15.1804 9.11789 14.7253 9.12673 14.1734L9.21612 8.58808L7.60495 10.1485C7.20875 10.5322 6.57484 10.5221 6.19113 10.1259C5.80742 9.72967 5.81756 9.09575 6.21376 8.71204L9.55904 5.47216C9.95523 5.08846 10.5891 5.0986 10.9729 5.49479Z" fill="white"/>
</svg>
