<svg width="21" height="19" viewBox="0 0 21 19" fill="none" xmlns="http://www.w3.org/2000/svg">
<path d="M5.48987 6.6872H7.5139V12.6915C7.5139 13.3007 8.00783 13.794 8.61639 13.794H11.6257C12.2342 13.794 12.7282 13.3007 12.7282 12.6915V6.6872H14.7515C15.0867 6.6872 15.3881 6.48538 15.517 6.17562C15.6445 5.86712 15.5735 5.51048 15.3367 5.27365L10.7061 0.642463C10.3827 0.3197 9.85874 0.3197 9.53462 0.642463L4.90479 5.27365C4.66791 5.51048 4.59694 5.86651 4.72519 6.17562C4.85399 6.48477 5.15467 6.6872 5.48987 6.6872Z" fill="#2650D8"/>
<path d="M19.1261 8.9375C18.5775 8.9375 18.1324 9.38268 18.1324 9.93192V14.09C18.1324 15.3356 17.1184 16.3489 15.8727 16.3489H4.3684C3.12275 16.3489 2.10946 15.3356 2.10946 14.09V9.93192C2.10946 9.38268 1.66367 8.9375 1.11503 8.9375C0.565742 8.9375 0.120605 9.38268 0.120605 9.93197V14.09C0.120605 16.4322 2.02613 18.3378 4.3684 18.3378H15.8727C18.215 18.3378 20.1206 16.4322 20.1206 14.09V9.93197C20.1206 9.38268 19.6754 8.9375 19.1261 8.9375Z" fill="#2650D8"/>
</svg>
