<svg width="26" height="26" viewBox="0 0 26 26" fill="none" xmlns="http://www.w3.org/2000/svg">
<g id="Group 1065">
<circle id="Ellipse 264" cx="13" cy="13" r="12" stroke="#B3B3B3" stroke-width="2"/>
<path id="Vector 250" d="M6 9.44172V8.94172C8.09213 8.04811 11.176 14.9627 12 18.9414C12.4 19.7414 12.5 22.8828 13 18.9414C13.2261 17.1592 13.9974 15.2167 14.9442 13.5C16.0912 11.4202 17.4957 9.67183 18.5 8.94141C19.5 7.5 16.3333 9.10807 15.5 9.94141C13.9 11.9414 13.5 11.4414 13.5 10.9414C13.5 6.94141 18.1667 4.94162 20.5 4.44172C24.1 3.64172 24.6667 4.10839 24.5 4.44172C23.3 4.44172 22.6667 6.77505 22.5 7.94172C21.3 12.7417 18.6667 13.2751 17.5 12.9417C16.7 12.5417 16.1667 13.4417 16 13.9417C15.5 16.4417 14.5 21.5417 14.5 21.9417C14.1 23.1417 13 23.4417 12.5 23.4417C11.3 23.4417 11 22.7751 11 22.4417C10.6 16.0417 7.5 11.1084 6 9.44172Z" fill="#B3B3B3"/>
</g>
</svg>
