<svg width="50" height="50" viewBox="0 0 50 50" fill="none" xmlns="http://www.w3.org/2000/svg">
<g id="svg660" clip-path="url(#clip0_485_15300)">
<g id="g666">
<g id="g668">
<g id="Clip path group">
<mask id="mask0_485_15300" style="mask-type:luminance" maskUnits="userSpaceOnUse" x="0" y="0" width="50" height="50">
<g id="clipPath674">
<path id="path672" d="M49.15 49.15V0.850002H0.85V49.15H49.15Z" fill="white" stroke="white" stroke-width="1.7"/>
</g>
</mask>
<g mask="url(#mask0_485_15300)">
<g id="g670">
<g id="g676">
<path id="path678" d="M39.6484 23.5352C39.6484 20.6007 37.9114 18.0878 35.4194 16.919C36.2202 15.917 36.7188 14.5658 36.7188 13.1836C36.7188 9.94756 34.0954 7.32422 30.8594 7.32422C30.8594 4.08819 28.236 1.46485 25 1.46485C21.764 1.46485 19.1406 4.08819 19.1406 7.32422C15.9046 7.32422 13.2812 9.94756 13.2812 13.1836C13.2812 14.5658 13.7798 15.917 14.5805 16.919C12.0886 18.0878 10.3516 20.6007 10.3516 23.5352C10.3516 25.9433 11.5292 28.0613 13.3234 29.3963C13.755 40.0352 18.8107 48.5352 25 48.5352C31.1893 48.5352 36.245 40.0352 36.6766 29.3963C38.4707 28.0613 39.6484 25.9433 39.6484 23.5352Z" stroke="#424242" stroke-width="1.7" stroke-miterlimit="10"/>
</g>
<g id="g680">
<path id="path682" d="M16.2109 25L25 33.7891L33.7891 25" stroke="#424242" stroke-width="1.7" stroke-miterlimit="10"/>
</g>
<g id="g684">
<path id="path686" d="M19.1406 19.1406L25 25L30.8594 19.1406" stroke="#424242" stroke-width="1.7" stroke-miterlimit="10"/>
</g>
<g id="g688">
<path id="path690" d="M22.0703 13.1836L25 16.2109L27.9297 13.1836" stroke="#424242" stroke-width="1.7" stroke-miterlimit="10"/>
</g>
<g id="g692">
<path id="path694" d="M25 16.2107V48.5352" stroke="#424242" stroke-width="1.7" stroke-miterlimit="10"/>
</g>
<g id="g696">
<path id="path698" d="M19.1462 7.066C18.2575 6.95673 17.3305 7.05009 16.4314 7.37733C15.3247 4.33651 11.9623 2.76854 8.92138 3.87538C5.88056 4.98212 4.21493 8.34452 5.32177 11.3853C2.28095 12.4922 0.71298 15.9522 1.81982 18.9931C2.29247 20.292 3.18964 21.2993 4.28486 21.9671C2.34296 23.9177 1.57011 26.873 2.57382 29.6306C3.39745 31.8934 5.22851 33.481 7.37109 34.1219C11.1523 43.331 18.1611 49.418 23.7976 48.4279" stroke="#424242" stroke-width="1.7" stroke-miterlimit="10"/>
</g>
<g id="g700">
<path id="path702" d="M30.8538 7.066C31.7424 6.95673 32.6695 7.05009 33.5685 7.37733C34.6752 4.33651 38.0376 2.76854 41.0786 3.87538C44.1194 4.98212 45.785 8.34452 44.6782 11.3853C47.719 12.4922 49.287 15.9522 48.1801 18.9931C47.7075 20.292 46.8103 21.2993 45.7151 21.9671C47.657 23.9177 48.4298 26.873 47.4261 29.6306C46.6025 31.8934 44.6738 33.481 42.5312 34.1219C38.75 43.331 31.8388 49.418 26.2024 48.4279" stroke="#424242" stroke-width="1.7" stroke-miterlimit="10"/>
</g>
</g>
</g>
</g>
</g>
</g>
</g>
<defs>
<clipPath id="clip0_485_15300">
<rect width="50" height="50" fill="white"/>
</clipPath>
</defs>
</svg>
