<svg width="30" height="30" viewBox="0 0 30 30" fill="none" xmlns="http://www.w3.org/2000/svg">
<g id="fi_4516635" clip-path="url(#clip0_1802_36201)">
<g id="Group">
<path id="Vector" d="M26.2969 3.76564H23.4101V0.878906C23.4101 0.393516 23.0166 0 22.5312 0H3.70312C3.21773 0 2.82422 0.393516 2.82422 0.878906V25.3554C2.82422 25.8408 3.21773 26.2344 3.70312 26.2344H6.58986V29.1211C6.58986 29.6065 6.98338 30 7.46877 30H26.2969C26.7823 30 27.1758 29.6065 27.1758 29.1211V4.64455C27.1758 4.1591 26.7823 3.76564 26.2969 3.76564ZM4.58203 24.4765V1.75781H21.6523V24.4765H4.58203ZM25.418 28.2422H8.34767V26.2344H22.5312C23.0166 26.2344 23.4101 25.8408 23.4101 25.3554V5.52346H25.418V28.2422Z" fill="#2650D8"/>
<path id="Vector_2" d="M9.67144 3.55283L8.41009 4.81412L8.09022 4.49419C7.74698 4.15101 7.19052 4.15095 6.84728 4.49419C6.50403 4.83744 6.50403 5.3939 6.84728 5.73714L7.78864 6.67857C8.11595 7.01888 8.70435 7.01912 9.03159 6.67857L10.9144 4.79577C11.707 3.94277 10.5259 2.75947 9.67144 3.55283Z" fill="#2650D8"/>
<path id="Vector_3" d="M9.67144 19.086L8.41009 20.3473L8.09022 20.0274C7.74698 19.6842 7.19052 19.6842 6.84728 20.0274C6.50403 20.3706 6.50403 20.9271 6.84728 21.2703L7.78864 22.2118C8.11595 22.5521 8.70435 22.5523 9.03159 22.2118L10.9144 20.329C11.707 19.476 10.5259 18.2927 9.67144 19.086Z" fill="#2650D8"/>
<path id="Vector_4" d="M9.67144 13.9083L8.41009 15.1696L8.09022 14.8497C7.74698 14.5065 7.19052 14.5064 6.84728 14.8497C6.50403 15.1929 6.50403 15.7494 6.84728 16.0926L7.78864 17.034C8.11595 17.3743 8.70435 17.3746 9.03159 17.034L10.9144 15.1512C11.707 14.2983 10.5259 13.1149 9.67144 13.9083Z" fill="#2650D8"/>
<path id="Vector_5" d="M9.67144 8.73056L8.41009 9.99185L8.09022 9.67193C7.74698 9.32874 7.19052 9.32868 6.84728 9.67193C6.50403 10.0152 6.50403 10.5716 6.84728 10.9149L7.78864 11.8563C8.11595 12.1967 8.70435 12.1968 9.03159 11.8563L10.9144 9.97351C11.707 9.1205 10.5259 7.9372 9.67144 8.73056Z" fill="#2650D8"/>
<path id="Vector_6" d="M18.7656 4.70703H14.0586C12.8953 4.74951 12.8932 6.42148 14.0586 6.46484H18.7656C19.251 6.46484 19.6445 6.07133 19.6445 5.58594C19.6445 5.10055 19.251 4.70703 18.7656 4.70703Z" fill="#2650D8"/>
<path id="Vector_7" d="M18.7656 9.88477H14.0586C12.8953 9.92725 12.8932 11.5992 14.0586 11.6426H18.7656C19.251 11.6426 19.6445 11.2491 19.6445 10.7637C19.6445 10.2783 19.251 9.88477 18.7656 9.88477Z" fill="#2650D8"/>
<path id="Vector_8" d="M18.7656 15.0625H14.0586C12.8953 15.105 12.8932 16.777 14.0586 16.8203H18.7656C19.251 16.8203 19.6445 16.4268 19.6445 15.9414C19.6445 15.456 19.251 15.0625 18.7656 15.0625Z" fill="#2650D8"/>
<path id="Vector_9" d="M18.7656 20.2402H14.0586C12.8953 20.2827 12.8932 21.9547 14.0586 21.998H18.7656C19.251 21.998 19.6445 21.6045 19.6445 21.1191C19.6445 20.6337 19.251 20.2402 18.7656 20.2402Z" fill="#2650D8"/>
</g>
</g>
<defs>
<clipPath id="clip0_1802_36201">
<rect width="30" height="30" fill="white"/>
</clipPath>
</defs>
</svg>
