<svg width="31" height="30" viewBox="0 0 31 30" fill="none" xmlns="http://www.w3.org/2000/svg">
<g id="fi_12035405" clip-path="url(#clip0_1802_36232)">
<g id="Group">
<path id="Vector" d="M11.342 1.06641H13.105V2.82422H11.342V1.06641Z" fill="#2650D8"/>
<path id="Vector_2" d="M17.8062 4.43164C11.0165 4.43164 5.49274 9.93939 5.49274 16.7093C5.49274 16.8179 5.49451 16.9269 5.49739 17.0359H0.0321045V18.7937H1.38116L2.08099 20.8167C2.24859 21.3013 2.4934 21.7433 2.7978 22.1325H0.0321045V23.8903H1.38116L2.08099 25.9132C2.71694 27.7517 4.45467 28.9869 6.40506 28.9869H17.8062C24.5958 28.9869 30.1196 23.4792 30.1196 16.7093C30.1196 9.93934 24.5958 4.43164 17.8062 4.43164ZM18.9364 25.3401C18.5455 26.47 17.4775 27.2291 16.2788 27.2291H6.40506C5.20638 27.2291 4.13846 26.47 3.74755 25.3401L3.246 23.8903H6.40506H16.2788H19.4379L18.9364 25.3401ZM18.9364 20.2435C18.5455 21.3734 17.4775 22.1325 16.2788 22.1325H6.40506C5.20638 22.1325 4.13846 21.3734 3.74755 20.2435L3.246 18.7937H19.4379L18.9364 20.2435ZM11.1287 17.0359C11.1234 16.9271 11.1199 16.8182 11.1199 16.7093C11.1199 13.0332 14.1193 10.0425 17.8062 10.0425C21.493 10.0425 24.4924 13.0332 24.4924 16.7093C24.4924 18.8707 23.4516 20.8791 21.6953 22.1325H19.8861C20.1905 21.7433 20.4353 21.3013 20.6029 20.8167L21.3027 18.7938H22.6518V17.036H11.1287V17.0359ZM20.0639 26.9858C20.2866 26.6587 20.4694 26.2995 20.603 25.9133L21.3028 23.8903H22.2334C24.9017 22.2563 26.2554 19.5487 26.2554 16.7093C26.2554 12.0639 22.4651 8.28465 17.8062 8.28465C13.1472 8.28465 9.35693 12.0639 9.35693 16.7093C9.35693 16.8181 9.35916 16.9271 9.36333 17.0359H7.26132C7.25797 16.9269 7.25568 16.8179 7.25568 16.7093C7.25568 10.9087 11.9886 6.18945 17.8062 6.18945C23.6237 6.18945 28.3566 10.9087 28.3566 16.7093C28.3566 21.7374 24.8002 25.9521 20.0639 26.9858Z" fill="#2650D8"/>
<path id="Vector_3" d="M4.6447 8.41875H6.23881C6.84203 7.1451 7.8777 6.11244 9.15506 5.51098V3.9215C7.8777 3.32004 6.84203 2.28738 6.23875 1.01367H4.64464C4.04148 2.28738 3.00582 3.32004 1.72839 3.9215V5.51098C3.00582 6.11238 4.04148 7.14504 4.6447 8.41875ZM5.44173 3.08941C5.90262 3.70799 6.45301 4.25672 7.07333 4.71627C6.45301 5.17582 5.90268 5.72455 5.44179 6.34312C4.9809 5.72455 4.43051 5.17582 3.81019 4.71627C4.43051 4.25666 4.98084 3.70793 5.44173 3.08941Z" fill="#2650D8"/>
<path id="Vector_4" d="M2.10474 11.3623H3.86767V13.1201H2.10474V11.3623Z" fill="#2650D8"/>
</g>
</g>
<defs>
<clipPath id="clip0_1802_36232">
<rect width="30.0875" height="30" fill="white" transform="translate(0.0321045)"/>
</clipPath>
</defs>
</svg>
