<svg width="24" height="24" viewBox="0 0 24 24" fill="none" xmlns="http://www.w3.org/2000/svg">
<g id="fi_9982421" clip-path="url(#clip0_1880_7292)">
<g id="Group">
<path id="Vector" d="M15.8337 11.1323C15.8336 11.1431 15.8323 11.1536 15.8319 11.1643L16.0686 11.0705L18.2881 17.5437C18.6727 17.1232 19.1588 16.8037 19.7135 16.6155C20.0702 16.4947 20.4407 16.4333 20.814 16.4333C22.0038 16.4333 23.0853 17.0467 23.7045 18.0193C24.0728 18.0016 24.167 17.7858 23.5751 17.0145C22.6205 15.7706 21.2927 15.5295 20.3588 15.542C20.3002 15.384 20.2395 15.2189 20.1764 15.0444C19.6041 13.462 18.3189 12.7083 17.5624 12.3896L16.8332 10.2629C16.7892 10.1348 16.6961 10.0317 16.5733 9.97518C16.4503 9.91839 16.3116 9.91464 16.1858 9.96467L15.3203 10.3075C15.6255 10.4568 15.8358 10.7705 15.8337 11.1323Z" fill="white"/>
<path id="Vector_2" d="M9.00322 18.919C8.48262 17.384 6.81653 16.5615 5.28128 17.082C3.74615 17.6024 2.92385 19.2689 3.44432 20.8037C3.96479 22.3387 5.63088 23.1613 7.16613 22.6409C8.70114 22.1204 9.52369 20.454 9.00322 18.919ZM6.59602 20.9595C5.98962 21.1652 5.3313 20.84 5.12568 20.2337C4.92017 19.6272 5.24513 18.9688 5.8514 18.7634C6.45792 18.5578 7.11622 18.8829 7.32185 19.4891C7.52737 20.0955 7.20254 20.7538 6.59602 20.9595Z" fill="white"/>
<path id="Vector_3" d="M19.2903 9.21973C18.4607 9.21973 17.7881 9.89217 17.7881 10.722C17.7881 11.5517 18.4607 12.2242 19.2903 12.2242C20.12 12.2242 20.12 9.21973 19.2903 9.21973Z" fill="white"/>
<path id="Vector_4" d="M17.4251 19.3457H15.3994L15.6831 20.5277H17.453C17.3744 20.1354 17.3653 19.7365 17.4251 19.3457Z" fill="white"/>
<path id="Vector_5" d="M19.8722 17.082C18.3372 17.6024 17.5147 19.2689 18.0351 20.8037C18.5554 22.3387 20.2218 23.1613 21.7569 22.6409C23.2921 22.1203 24.1145 20.454 23.594 18.919C23.0737 17.384 21.4073 16.5615 19.8722 17.082ZM21.1869 20.9595C20.5803 21.1652 19.922 20.84 19.7165 20.2337C19.5111 19.6272 19.8358 18.9688 20.4422 18.7634C21.0487 18.5578 21.707 18.8829 21.9127 19.4891C22.1183 20.0955 21.7933 20.7538 21.1869 20.9595Z" fill="white"/>
<path id="Vector_6" d="M12.0681 16.5124L11.7042 17.991C11.5597 18.5783 11.9012 19.17 12.4718 19.3462H11.1441C10.601 18.2506 10.4142 17.1322 10.3523 16.4046C10.5136 16.3552 10.6315 16.207 10.6315 16.0295V15.4334L9.29281 14.5518H2.20899C1.99136 14.5518 1.815 14.7284 1.815 14.9459V16.0295C1.815 16.2471 1.99136 16.4235 2.20899 16.4235H2.25252C1.82458 17.4735 1.16406 19.2938 1.16406 20.5282H2.86259C2.71485 19.791 2.81237 19.03 3.15062 18.3446C3.55613 17.5237 4.2566 16.9094 5.12354 16.6157C5.48052 16.4945 5.85065 16.4335 6.22439 16.4335C7.69372 16.4335 8.99796 17.3687 9.47001 18.7611C9.66989 19.3508 9.69848 19.9575 9.58426 20.5282H10.2763H11.9017H13.0318L12.0681 16.5124Z" fill="white"/>
<path id="Vector_7" d="M0.486295 13.7716H6.24312C6.51184 13.7716 6.72954 13.5539 6.72954 13.2852V7.60947C6.72954 7.34085 6.51185 7.12305 6.24312 7.12305H0.486295C0.217802 7.12305 0 7.34085 0 7.60947V13.2852C0 13.5539 0.217802 13.7716 0.486295 13.7716Z" fill="white"/>
<path id="Vector_8" d="M10.6191 7.41593C10.4853 7.04812 10.0785 6.85832 9.7109 6.99207C9.34305 7.12582 9.15325 7.53246 9.28699 7.9003L10.5402 11.3468C10.6415 11.6255 10.9055 11.8115 11.202 11.8134L14.9172 11.8357H14.9215C15.3109 11.8357 15.6278 11.5212 15.6301 11.1313C15.6324 10.7399 15.3171 10.4207 14.9256 10.4183L11.7038 10.3989L10.6191 7.41593Z" fill="white"/>
<path id="Vector_9" d="M12.2089 16.2283L13.72 22.5252C13.8395 23.0229 14.2841 23.3574 14.7745 23.3574C14.8583 23.3574 14.9435 23.3476 15.0285 23.3272C15.6114 23.1873 15.9704 22.6015 15.8306 22.0187L14.2192 15.3046C14.1548 15.0366 13.991 14.8032 13.7608 14.6516L10.7499 12.6688L10.8955 12.5207L13.8728 14.4814C14.1472 14.6621 14.3406 14.9376 14.4173 15.2571L14.5647 15.871L15.2271 13.1788C15.3106 12.8398 15.2335 12.4814 15.0182 12.2067C14.9693 12.1443 14.9139 12.0887 14.8543 12.0387L11.2002 12.0167C10.8204 12.0144 10.4779 11.773 10.3482 11.4161L9.09496 7.96959C9.01166 7.74051 9.02255 7.49273 9.12568 7.27187C9.22871 7.051 9.41168 6.88347 9.64068 6.80021C9.74121 6.76366 9.84606 6.7451 9.9523 6.7451C10.3346 6.7451 10.6793 6.98655 10.81 7.34587L11.2248 8.48672C11.2412 8.40622 11.2573 8.3269 11.2729 8.24961L13.0069 9.74259C13.138 9.85544 13.3027 9.91423 13.4694 9.91423C13.5656 9.91423 13.6625 9.89464 13.7539 9.85459L17.4015 8.25511C17.7599 8.09792 17.9231 7.67989 17.7659 7.32143C17.6087 6.96293 17.1907 6.79976 16.8322 6.957L13.5934 8.37721L10.8578 6.02185C10.7989 5.97112 10.7338 5.93229 10.6657 5.90416C10.6023 5.87255 10.5353 5.84736 10.4646 5.82973C9.68881 5.63627 8.56429 6.05761 8.10674 7.38818C7.48839 9.2214 7.35546 10.4146 7.59045 12.4333C7.75641 13.2873 8.16729 13.6936 8.64611 13.8821L9.19891 14.2461L12.2089 16.2283Z" fill="white"/>
<path id="Vector_10" d="M13.665 4.5505L13.6625 4.55962L13.6681 4.56117C13.6694 4.56499 13.6703 4.5689 13.6714 4.57274C13.8165 4.28361 13.8937 3.9567 13.8937 3.62372C13.8937 3.28646 13.8155 2.96601 13.6799 2.68555C13.3633 2.8914 12.8236 3.02706 12.2105 3.02706C11.5974 3.02706 11.0578 2.89142 10.7411 2.68559C10.6055 2.96604 10.5273 3.28648 10.5273 3.62372C10.5273 3.95666 10.6045 4.28353 10.7495 4.57263C10.7507 4.56882 10.7516 4.56495 10.7528 4.56116L10.7584 4.55962L10.7559 4.55049C10.8802 4.21046 11.4534 3.97593 12.2105 3.97593C12.9676 3.97593 13.5407 4.21047 13.665 4.5505Z" fill="white"/>
<path id="Vector_11" d="M12.6813 4.26953L12.6699 4.35743C12.6978 4.36102 12.7257 4.36483 12.7535 4.36885L12.7661 4.28113C12.7379 4.2771 12.7096 4.27321 12.6813 4.26953Z" fill="white"/>
<path id="Vector_12" d="M12.167 4.2357L12.1683 4.32428L12.2103 4.32394L12.2519 4.32428L12.2533 4.2357L12.2103 4.23535L12.167 4.2357Z" fill="white"/>
<path id="Vector_13" d="M12.9349 4.30859L12.9199 4.39589C12.948 4.40073 12.9757 4.40567 13.0031 4.41068L13.0191 4.32357C12.9913 4.31845 12.9633 4.31343 12.9349 4.30859Z" fill="white"/>
<path id="Vector_14" d="M13.2517 4.45976L13.2704 4.37316L13.1869 4.35547L13.1689 4.44224L13.2517 4.45976Z" fill="white"/>
<path id="Vector_15" d="M12.4252 4.24414L12.4189 4.33247C12.4467 4.33446 12.4747 4.33675 12.5027 4.3393L12.5107 4.25106C12.4821 4.24851 12.4535 4.24612 12.4252 4.24414Z" fill="white"/>
<path id="Vector_16" d="M11.4855 4.30859C11.4571 4.31344 11.4291 4.31845 11.4014 4.32356L11.4174 4.41067C11.4447 4.40566 11.4724 4.40073 11.5005 4.39588L11.4855 4.30859Z" fill="white"/>
<path id="Vector_17" d="M10.9004 4.43124L10.9217 4.51723C10.9472 4.51092 10.9746 4.50426 11.0038 4.49738L10.9834 4.41113C10.9539 4.4181 10.9262 4.42485 10.9004 4.43124Z" fill="white"/>
<path id="Vector_18" d="M11.9949 4.24414C11.9665 4.24613 11.9379 4.24851 11.9092 4.25115L11.9174 4.33939C11.9454 4.33675 11.9733 4.33446 12.001 4.33256L11.9949 4.24414Z" fill="white"/>
<path id="Vector_19" d="M13.417 4.49729L13.4991 4.51723L13.5205 4.43124L13.4375 4.41113L13.417 4.49729Z" fill="white"/>
<path id="Vector_20" d="M11.7391 4.26953C11.7107 4.27321 11.6825 4.2771 11.6543 4.28113L11.6669 4.36885C11.6947 4.36483 11.7225 4.36102 11.7504 4.35743L11.7391 4.26953Z" fill="white"/>
<path id="Vector_21" d="M11.2329 4.35547L11.1494 4.37316L11.1682 4.45976L11.2509 4.44224L11.2329 4.35547Z" fill="white"/>
<path id="Vector_22" d="M12.6357 5.58008C12.6075 5.58467 12.5792 5.58899 12.5508 5.59292L12.5629 5.68064C12.592 5.67662 12.621 5.67221 12.6499 5.66754L12.6357 5.58008Z" fill="white"/>
<path id="Vector_23" d="M12.8057 5.5489L12.8231 5.63576C12.8523 5.62992 12.8809 5.6239 12.9089 5.61777L12.89 5.53125C12.8625 5.53721 12.8343 5.54314 12.8057 5.5489Z" fill="white"/>
<path id="Vector_24" d="M11.7855 5.58008L11.7715 5.66754C11.8003 5.67217 11.8294 5.67659 11.8585 5.68061L11.8706 5.59289C11.8422 5.58895 11.8137 5.58462 11.7855 5.58008Z" fill="white"/>
<path id="Vector_25" d="M12.0404 5.61133L12.0332 5.69966C12.063 5.70208 12.0925 5.70394 12.1215 5.70528L12.1256 5.61679C12.0976 5.61553 12.0691 5.61367 12.0404 5.61133Z" fill="white"/>
<path id="Vector_26" d="M11.5986 5.63576L11.6159 5.5489C11.5873 5.54315 11.5591 5.53722 11.5316 5.53125L11.5127 5.61776C11.5407 5.6239 11.5694 5.62992 11.5986 5.63576Z" fill="white"/>
<path id="Vector_27" d="M12.3809 5.61133C12.3523 5.61367 12.3239 5.61557 12.2959 5.61678L12.2998 5.70528C12.3289 5.70398 12.3585 5.70208 12.3883 5.69956L12.3809 5.61133Z" fill="white"/>
<path id="Vector_28" d="M13.6044 5.01562C13.5153 5.20116 13.3613 5.39347 13.1627 5.55249L13.1411 5.47075C13.1151 5.47762 13.0871 5.4848 13.0575 5.49216L13.0789 5.57815C13.106 5.57143 13.1313 5.56483 13.1556 5.55848C12.897 5.76332 12.566 5.91079 12.2101 5.91079C11.8542 5.91079 11.5233 5.7634 11.2647 5.55864C11.2891 5.56504 11.3145 5.57158 11.3417 5.57837L11.3631 5.49238C11.3335 5.48507 11.3056 5.47789 11.2795 5.47097L11.2578 5.5528C11.0591 5.39376 10.9049 5.20138 10.8158 5.01576C10.7974 5.09032 10.7642 5.16088 10.7178 5.22309L10.7276 5.21786C10.9994 5.66212 11.5605 6.08797 12.2101 6.08797C12.8596 6.08797 13.4207 5.66212 13.6925 5.21786L13.7025 5.2232C13.656 5.16092 13.6228 5.09028 13.6044 5.01562Z" fill="white"/>
<path id="Vector_29" d="M10.4027 5.15201C10.5542 5.07212 10.6122 4.8846 10.5323 4.73313C10.3553 4.39733 10.2617 4.01374 10.2617 3.62378C10.2617 3.21878 10.363 2.83514 10.537 2.50395C10.478 2.42744 10.4447 2.34581 10.4447 2.26065C10.4447 2.21859 10.4546 2.17762 10.4696 2.13739C10.6058 2.50178 11.3323 2.78019 12.2106 2.78019C13.0889 2.78019 13.8154 2.50179 13.9516 2.13739C13.9666 2.17761 13.9765 2.21859 13.9765 2.26065C13.9765 2.34578 13.9433 2.42739 13.8843 2.50389C14.0583 2.83509 14.1596 3.21875 14.1596 3.62379C14.1596 4.01375 14.066 4.39733 13.889 4.73313C13.8091 4.88462 13.8671 5.07213 14.0186 5.15202C14.0648 5.17633 14.1142 5.18784 14.163 5.18784C14.2743 5.18784 14.3819 5.12767 14.4375 5.02234C14.6613 4.59774 14.7797 4.11414 14.7797 3.62379C14.7797 2.05637 14.0941 0.642578 12.2107 0.642578C10.3272 0.642578 9.6416 2.05637 9.6416 3.62379C9.6416 4.11414 9.75995 4.59774 9.98384 5.02234C10.0637 5.17385 10.2513 5.23178 10.4027 5.15201Z" fill="white"/>
</g>
</g>
<defs>
<clipPath id="clip0_1880_7292">
<rect width="24" height="24" fill="white"/>
</clipPath>
</defs>
</svg>
