<svg width="24" height="24" viewBox="0 0 24 24" fill="none" xmlns="http://www.w3.org/2000/svg">
<path d="M3 9.75H4.25V18C4.25262 18.4633 4.43784 18.9069 4.76546 19.2345C5.09309 19.5622 5.53668 19.7474 6 19.75H15C15.4633 19.7474 15.9069 19.5622 16.2345 19.2345C16.5622 18.9069 16.7474 18.4633 16.75 18V5.75H17.75V18C17.75 18.7293 17.4603 19.4288 16.9445 19.9445C16.4288 20.4603 15.7293 20.75 15 20.75H6.25V21C6.25262 21.4633 6.43784 21.9069 6.76546 22.2345C7.09309 22.5622 7.53668 22.7474 8 22.75H16.75C17.5456 22.75 18.3087 22.4339 18.8713 21.8713C19.4339 21.3087 19.75 20.5456 19.75 19.75V9.75H21C21.4633 9.74737 21.9069 9.56216 22.2345 9.23454C22.5622 8.90691 22.7474 8.46332 22.75 8V3C22.7474 2.53668 22.5622 2.09309 22.2345 1.76546C21.9069 1.43784 21.4633 1.25263 21 1.25H3C2.53668 1.25263 2.09309 1.43784 1.76546 1.76546C1.43784 2.09309 1.25263 2.53668 1.25 3V8C1.25263 8.46332 1.43784 8.90691 1.76546 9.23454C2.09309 9.56216 2.53668 9.74737 3 9.75ZM13.5 11.75H13.25V12.33C13.25 12.5289 13.171 12.7197 13.0303 12.8603C12.8897 13.001 12.6989 13.08 12.5 13.08C12.3011 13.08 12.1103 13.001 11.9697 12.8603C11.829 12.7197 11.75 12.5289 11.75 12.33V10.67C11.75 10.39 11.25 10.39 11.25 10.67V11.33C11.242 11.7516 11.0821 12.1562 10.7995 12.4692C10.517 12.7823 10.131 12.9829 9.7124 13.034C9.29382 13.0851 8.87086 12.9833 8.52132 12.7474C8.17179 12.5115 7.91919 12.1573 7.81 11.75H7.5C7.30109 11.75 7.11032 11.671 6.96967 11.5303C6.82902 11.3897 6.75 11.1989 6.75 11C6.75 10.8011 6.82902 10.6103 6.96967 10.4697C7.11032 10.329 7.30109 10.25 7.5 10.25H7.75V9.67C7.75 9.47109 7.82902 9.28032 7.96967 9.13967C8.11032 8.99902 8.30109 8.92 8.5 8.92C8.69891 8.92 8.88968 8.99902 9.03033 9.13967C9.17098 9.28032 9.25 9.47109 9.25 9.67V11.33C9.25 11.61 9.75 11.61 9.75 11.33V10.67C9.75799 10.2484 9.91795 9.84383 10.2005 9.53076C10.483 9.21768 10.869 9.01715 11.2876 8.96604C11.7062 8.91494 12.1291 9.0167 12.4787 9.2526C12.8282 9.48851 13.0808 9.84269 13.19 10.25H13.5C13.6989 10.25 13.8897 10.329 14.0303 10.4697C14.171 10.6103 14.25 10.8011 14.25 11C14.25 11.1989 14.171 11.3897 14.0303 11.5303C13.8897 11.671 13.6989 11.75 13.5 11.75ZM2.75 3C2.75 2.9337 2.77634 2.87011 2.82322 2.82322C2.87011 2.77634 2.9337 2.75 3 2.75H21C21.0663 2.75 21.1299 2.77634 21.1768 2.82322C21.2237 2.87011 21.25 2.9337 21.25 3V8C21.25 8.0663 21.2237 8.12989 21.1768 8.17678C21.1299 8.22366 21.0663 8.25 21 8.25H19.75V5.75H20C20.1989 5.75 20.3897 5.67098 20.5303 5.53033C20.671 5.38968 20.75 5.19891 20.75 5C20.75 4.80109 20.671 4.61032 20.5303 4.46967C20.3897 4.32902 20.1989 4.25 20 4.25H4C3.80109 4.25 3.61032 4.32902 3.46967 4.46967C3.32902 4.61032 3.25 4.80109 3.25 5C3.25 5.19891 3.32902 5.38968 3.46967 5.53033C3.61032 5.67098 3.80109 5.75 4 5.75H4.25V8.25H3C2.9337 8.25 2.87011 8.22366 2.82322 8.17678C2.77634 8.12989 2.75 8.0663 2.75 8V3Z" fill="#2650D8"/>
<rect x="6" y="8" width="9" height="7" fill="#2650D8"/>
<path d="M12.9121 9.66309L12.668 10.5664H8.07812L8.32715 9.66309H12.9121ZM10.627 15L8.21973 12.1582L8.21484 11.377H9.37695C9.66016 11.377 9.8929 11.3249 10.0752 11.2207C10.2607 11.1133 10.3991 10.9684 10.4902 10.7861C10.5846 10.6038 10.6318 10.3988 10.6318 10.1709C10.6318 9.93327 10.5895 9.72331 10.5049 9.54102C10.4202 9.35547 10.2852 9.21061 10.0996 9.10645C9.91406 9.00228 9.66829 8.9502 9.3623 8.9502H8.08301L8.36133 7.89062H9.3623C9.94173 7.89062 10.4235 7.97852 10.8076 8.1543C11.195 8.32682 11.4847 8.5791 11.6768 8.91113C11.8721 9.23991 11.9697 9.63704 11.9697 10.1025C11.9697 10.5094 11.9014 10.8691 11.7646 11.1816C11.6312 11.4909 11.4147 11.7432 11.1152 11.9385C10.8158 12.1338 10.4219 12.264 9.93359 12.3291L12.1162 14.9316V15H10.627ZM12.917 7.89062L12.668 8.79395H8.89355L9.14258 7.89062H12.917Z" fill="white"/>
</svg>
